<?xml version="1.0" encoding="UTF-8"?>
<svg id="Layer_2" data-name="Layer 2" xmlns="http://www.w3.org/2000/svg" viewBox="0 0 29.14 29.93">
  <defs>
    <style>
      .cls-1 {
        fill: #fff;
      }

      .cls-1, .cls-2, .cls-3 {
        fill-rule: evenodd;
        stroke-width: 0px;
      }

      .cls-2 {
        fill: #00b7f4;
      }

      .cls-3 {
        fill: #000;
      }
    </style>
  </defs>
  <g id="OBJECTS">
    <g id="_6" data-name="6">
      <g>
        <path class="cls-3" d="M0,14.57c.1-1.99.2-5.27.43-8.54C.62,3.29,3.11.92,5.56.75,8.47.54,11.38-.1,14.27.01c3.48.14,7.01-.04,10.45.85,1.92.5,3.38,1.38,3.93,3.42.43,1.58.53,3.17.48,4.81-.08,3.01-.03,6.02-.08,9.03-.04,2.38-.07,4.77-.26,7.14-.11,1.29-.49,2.53-1.62,3.44-1,.82-2.09,1.21-3.34,1.2-2.25-.02-4.49-.11-6.74-.1-3.1.01-6.19.11-9.29.12-2.07,0-4-.45-5.59-1.94-1.14-1.07-1.8-2.35-1.87-3.91-.12-2.74-.2-5.48-.34-9.51ZM28.15,14.86h-.15c.06-2.25.17-4.49.18-6.74,0-.98-.11-1.98-.3-2.94-.31-1.52-1.16-2.66-2.73-3.03-1.53-.35-3.08-.63-4.64-.82-1.11-.14-2.26.06-3.35-.11-4.03-.61-7.97.04-11.93.63-.31.05-.61.16-.9.28-1.54.58-2.57,1.61-2.9,3.27-.13.66-.33,1.32-.35,1.99-.1,2.56-.2,5.12-.19,7.68.01,2.83.13,5.66.23,8.5.04,1.19.34,2.33,1.24,3.19,1.12,1.08,2.41,1.92,4.02,2,1.74.09,3.49.08,5.24.12,1.03.02,2.06.09,3.09.06,2.02-.05,4.04-.17,6.05-.23,1.17-.04,2.34.05,3.5-.04,2.14-.16,3.4-1.36,3.65-3.45.14-1.16.22-2.33.24-3.49.04-2.29.01-4.59.01-6.88Z"/>
        <path class="cls-2" d="M28.15,14.86c0,2.29.03,4.59-.01,6.88-.02,1.17-.1,2.34-.24,3.49-.25,2.09-1.51,3.29-3.65,3.45-1.16.09-2.33,0-3.5.04-2.02.06-4.04.18-6.05.23-1.03.03-2.06-.04-3.09-.06-1.75-.04-3.49-.03-5.24-.12-1.61-.08-2.89-.93-4.02-2-.9-.85-1.2-1.99-1.24-3.19-.1-2.83-.22-5.66-.23-8.5,0-2.56.09-5.12.19-7.68.03-.67.22-1.33.35-1.99.32-1.66,1.35-2.69,2.9-3.27.29-.11.59-.23.9-.28,3.96-.58,7.9-1.23,11.93-.63,1.1.17,2.25-.03,3.35.11,1.56.19,3.11.47,4.64.82,1.57.36,2.43,1.51,2.73,3.03.19.96.31,1.96.3,2.94,0,2.25-.11,4.49-.18,6.74h.15ZM15.6,17.44c-.58-.44-.55-1.05-.64-1.62-.3-1.95-.54-3.92-.97-5.85-.75-3.3-3.29-4.45-6.23-2.78-1.15.66-2.12,1.63-3.12,2.52-.43.38-.79.87-1.07,1.38-.54.96-.27,1.81.76,2.18.5.18,1.12.08,1.68.04.6-.04,1.2-.18,1.42.61.43,1.51.86,3.02,1.27,4.54.47,1.73.82,3.5,1.4,5.19.65,1.88,2.54,2.76,4.19,2.05.82-.35,1.6-.83,2.32-1.36,3.15-2.29,5.59-5.2,7.29-8.7.79-1.63,1.25-3.37,1.23-5.21-.04-3.26-2.5-4.04-4.57-3.71-1.65.26-3.95,2.5-4.4,4.53-.13.59.08,1.07.77,1.19.13.02.27.04.4.08,1.03.31,1.26.58.81,1.54-.53,1.12-1.28,2.15-1.97,3.19-.09.14-.4.14-.58.19Z"/>
        <path class="cls-3" d="M15.6,17.44c.18-.06.48-.05.58-.19.69-1.04,1.45-2.06,1.97-3.19.45-.96.22-1.23-.81-1.54-.13-.04-.26-.06-.4-.08-.69-.11-.9-.59-.77-1.19.45-2.03,2.75-4.27,4.4-4.53,2.07-.32,4.53.45,4.57,3.71.02,1.84-.44,3.58-1.23,5.21-1.7,3.5-4.14,6.41-7.29,8.7-.72.53-1.5,1-2.32,1.36-1.65.71-3.54-.17-4.19-2.05-.58-1.69-.93-3.46-1.4-5.19-.41-1.52-.84-3.03-1.27-4.54-.22-.79-.83-.65-1.42-.61-.56.04-1.18.14-1.68-.04-1.03-.37-1.3-1.21-.76-2.18.28-.5.64-.99,1.07-1.38,1-.89,1.97-1.87,3.12-2.52,2.93-1.68,5.48-.53,6.23,2.78.43,1.93.67,3.9.97,5.85.09.57.06,1.18.64,1.62ZM14.97,18.97c-.73-.81-.67-1.66-.82-2.44-.41-2.2-.7-4.43-1.19-6.61-.42-1.88-2.01-2.91-4.15-2.17-1.92.66-3.26,2.04-4.43,3.59-.51.68-.19,1.21.69,1.22.49,0,.98-.12,1.47-.17,1.15-.12,1.54.19,1.8,1.29.58,2.49,1.19,4.97,1.79,7.46.15.61.28,1.23.52,1.81.69,1.66,2.04,2.88,4.15,1.52.11-.07.23-.14.34-.21,2.42-1.46,4.44-3.35,6.08-5.64,1.37-1.92,2.39-4.01,2.86-6.33.15-.74.16-1.53.07-2.28-.21-1.64-1.35-2.51-2.99-2.43-1.27.06-2.23.7-2.96,1.65-.5.64-1.15,1.28-.97,2.31.34.11.68.22,1.01.33.98.32,1.19.69.93,1.71-.49,1.89-1.67,3.35-2.99,4.71-.29.3-.75.43-1.21.68Z"/>
        <path class="cls-1" d="M14.97,18.97c.45-.25.92-.38,1.21-.68,1.32-1.36,2.51-2.82,2.99-4.71.26-1.02.05-1.39-.93-1.71-.33-.11-.66-.21-1.01-.33-.18-1.03.48-1.67.97-2.31.73-.95,1.69-1.59,2.96-1.65,1.64-.08,2.79.78,2.99,2.43.09.75.08,1.54-.07,2.28-.47,2.32-1.49,4.41-2.86,6.33-1.64,2.29-3.66,4.18-6.08,5.64-.12.07-.23.14-.34.21-2.11,1.35-3.46.14-4.15-1.52-.24-.58-.37-1.2-.52-1.81-.6-2.48-1.21-4.97-1.79-7.46-.26-1.1-.65-1.41-1.8-1.29-.49.05-.98.18-1.47.17-.88-.01-1.21-.54-.69-1.22,1.17-1.56,2.5-2.93,4.43-3.59,2.14-.73,3.73.3,4.15,2.17.49,2.18.78,4.41,1.19,6.61.14.77.09,1.62.82,2.44Z"/>
      </g>
    </g>
  </g>
</svg>