<?xml version="1.0" encoding="UTF-8"?>
<svg id="Layer_2" data-name="Layer 2" xmlns="http://www.w3.org/2000/svg" viewBox="0 0 30.75 31.58">
  <defs>
    <style>
      .cls-1 {
        fill: #fff;
      }

      .cls-1, .cls-2, .cls-3 {
        fill-rule: evenodd;
        stroke-width: 0px;
      }

      .cls-2 {
        fill: #000;
      }

      .cls-3 {
        fill: #fa0313;
      }
    </style>
  </defs>
  <g id="OBJECTS">
    <g id="_15" data-name="15">
      <g>
        <path class="cls-2" d="M0,15.14c.1-1.97.22-5.38.46-8.78C.66,3.48,3.28.97,5.87.79,8.94.57,12.01-.11,15.06.02c3.67.15,7.39-.04,11.02.9,2.03.53,3.56,1.45,4.15,3.61.46,1.67.55,3.35.51,5.07-.09,3.17-.03,6.35-.08,9.53-.04,2.51-.07,5.03-.28,7.53-.11,1.36-.52,2.67-1.7,3.63-1.06.86-2.2,1.28-3.52,1.27-2.37-.02-4.74-.11-7.11-.1-3.27.01-6.53.12-9.8.13-2.19,0-4.23-.48-5.9-2.05-1.21-1.13-1.91-2.48-1.98-4.12-.13-2.94-.21-5.88-.37-10.26ZM29.54,15.74c.05,0,.1,0,.15,0,0-1.7,0-3.41,0-5.11,0-1.09.11-2.19,0-3.27-.38-3.75-1.27-4.95-4.9-5.5-2.66-.4-5.36-.48-8.04-.72-3.63-.33-7.2.2-10.76.74-2.35.35-4.29,1.64-4.64,4.48-.06.47-.21.93-.23,1.4-.09,2.7-.21,5.4-.2,8.11,0,2.99.14,5.97.23,8.96.04,1.32.37,2.55,1.37,3.48,1.2,1.12,2.56,1.99,4.26,2.06,1.84.08,3.68.08,5.52.11,1.04.02,2.08.11,3.12.08,2.27-.06,4.54-.18,6.81-.26,1.14-.04,2.27-.02,3.41-.03,1.67-.02,2.77-.94,3.43-2.36.31-.66.42-1.47.43-2.21.04-3.32.02-6.63.02-9.95Z"/>
        <path class="cls-3" d="M29.54,15.74c0,3.32.02,6.63-.02,9.95,0,.74-.12,1.55-.43,2.21-.66,1.42-1.76,2.34-3.43,2.36-1.14.01-2.27,0-3.41.03-2.27.07-4.54.2-6.81.26-1.04.03-2.08-.06-3.12-.08-1.84-.04-3.68-.03-5.52-.11-1.7-.07-3.06-.94-4.26-2.06-1-.93-1.33-2.17-1.37-3.48-.1-2.99-.22-5.97-.23-8.96,0-2.7.11-5.4.2-8.11.02-.47.17-.93.23-1.4C1.71,3.52,3.64,2.23,5.99,1.87c3.56-.54,7.13-1.07,10.76-.74,2.68.24,5.39.32,8.04.72,3.63.55,4.53,1.75,4.9,5.5.11,1.08,0,2.18,0,3.27,0,1.7,0,3.41,0,5.11-.05,0-.1,0-.15,0ZM5.87,15.7c0,1.06-.09,2.44.02,3.81.12,1.5.18,3.09,1.26,4.29,1.6,1.78,3.39,3.28,5.79,3.92,3.63.97,7.08.79,10.08-1.69,1.59-1.31,2.7-2.97,3.05-5.13.49-2.96-.33-5.58-1.91-7.96-.71-1.07-1.71-2.15-2.84-2.71-1.87-.93-3.97-1.25-6.1-.73-1.1.27-2.1,1.44-2.1,2.56,0,.98,1.06,2.24,2.08,2.44.65.13,1.3.26,1.96.3,1.58.11,2.55.95,2.97,2.43.19.68.33,1.39.38,2.09.09,1.4-.49,2.23-1.8,2.73-3.33,1.29-6.24-.49-6.78-4.01-.4-2.6-.32-5.19-.21-7.79.06-1.46.2-2.94-.32-4.37-.54-1.49-2.4-2-3.59-.95-.8.71-1.29,1.55-1.48,2.66-.43,2.59-.71,5.17-.47,8.11Z"/>
        <path class="cls-2" d="M5.87,15.7c-.24-2.94.04-5.52.47-8.11.19-1.11.68-1.95,1.48-2.66,1.19-1.05,3.05-.55,3.59.95.52,1.43.38,2.9.32,4.37-.11,2.6-.19,5.19.21,7.79.54,3.53,3.45,5.3,6.78,4.01,1.31-.51,1.89-1.33,1.8-2.73-.05-.7-.18-1.42-.38-2.09-.42-1.48-1.39-2.32-2.97-2.43-.66-.05-1.31-.17-1.96-.3-1.02-.2-2.08-1.46-2.08-2.44,0-1.12,1-2.29,2.1-2.56,2.13-.52,4.23-.2,6.1.73,1.12.56,2.12,1.63,2.84,2.71,1.58,2.38,2.4,4.99,1.91,7.96-.36,2.16-1.46,3.82-3.05,5.13-3,2.48-6.44,2.66-10.08,1.69-2.4-.64-4.2-2.14-5.79-3.92-1.08-1.2-1.14-2.79-1.26-4.29-.11-1.37-.02-2.75-.02-3.81ZM10.55,12.36c.1,0,.2,0,.29-.01,0-1.14.03-2.28-.01-3.41-.03-.75-.12-1.51-.29-2.24-.13-.57-.48-1.03-1.14-1.13-.72-.11-1.23.26-1.53.81-.31.57-.52,1.22-.66,1.86-.85,3.9-.5,7.83-.26,11.75.05.92.21,1.99.72,2.7.79,1.1,1.77,2.19,2.92,2.86,3.14,1.83,6.58,2.3,9.98.86,2.47-1.05,4.11-3.03,4.53-5.8.41-2.75-.54-5.13-2.09-7.33-1.78-2.53-4.36-3-7.19-2.68-.92.1-1.58.74-1.63,1.36-.05.71.52,1.28,1.6,1.52.6.13,1.22.2,1.83.27,1.56.18,2.54,1,3.21,2.44.67,1.45.56,2.97.75,4.46.11.87-.5,1.54-1.25,1.93-1.36.71-2.83,1.16-4.38.97-1.85-.23-3.56-.82-4.32-2.76-.27-.7-.5-1.45-.57-2.19-.22-2.07-.34-4.14-.5-6.21Z"/>
        <path class="cls-1" d="M10.55,12.36c.16,2.07.29,4.15.5,6.21.08.74.3,1.49.57,2.19.76,1.95,2.46,2.54,4.32,2.76,1.55.19,3.02-.25,4.38-.97.74-.39,1.36-1.05,1.25-1.93-.19-1.49-.08-3.01-.75-4.46-.67-1.44-1.65-2.27-3.21-2.44-.61-.07-1.23-.14-1.83-.27-1.09-.24-1.65-.81-1.6-1.52.05-.61.71-1.25,1.63-1.36,2.83-.32,5.41.15,7.19,2.68,1.54,2.2,2.5,4.58,2.09,7.33-.42,2.77-2.06,4.75-4.53,5.8-3.4,1.44-6.84.98-9.98-.86-1.15-.67-2.14-1.76-2.92-2.86-.51-.71-.67-1.78-.72-2.7-.23-3.92-.59-7.85.26-11.75.14-.64.35-1.29.66-1.86.3-.55.82-.92,1.53-.81.66.1,1.01.56,1.14,1.13.16.73.26,1.49.29,2.24.05,1.14.01,2.28.01,3.41-.1,0-.2,0-.29.01Z"/>
      </g>
    </g>
  </g>
</svg>