<?xml version="1.0" encoding="UTF-8"?>
<svg id="Layer_2" data-name="Layer 2" xmlns="http://www.w3.org/2000/svg" viewBox="0 0 30.81 31.68">
  <defs>
    <style>
      .cls-1 {
        fill: #fff;
      }

      .cls-1, .cls-2, .cls-3 {
        fill-rule: evenodd;
        stroke-width: 0px;
      }

      .cls-2 {
        fill: #000;
      }

      .cls-3 {
        fill: #fe9e0d;
      }
    </style>
  </defs>
  <g id="OBJECTS">
    <g id="_3" data-name="3">
      <g>
        <path class="cls-2" d="M0,16.74c.17-3.45.28-6.91.52-10.36C.72,3.51,3.29,1.07,6.05.76,10.11.3,14.13-.33,18.24.21c1.73.22,3.52.05,5.25.26,1.44.18,2.87.59,4.26,1.03,1.13.36,1.85,1.21,2.29,2.36.71,1.87.81,3.77.76,5.73-.09,3.17-.02,6.35-.08,9.52-.04,2.56-.05,5.13-.29,7.67-.32,3.34-2.77,4.8-5.5,4.76-3.55-.06-7.11.12-10.66.12-2.46,0-4.92-.06-7.38-.2-3.46-.2-6.5-2.94-6.5-6.48,0-2.75-.17-5.5-.26-8.25-.04,0-.08,0-.12,0ZM29.76,15.77s.03,0,.04,0c0-2.42.03-4.83-.02-7.25-.02-1.04-.13-2.09-.34-3.1-.32-1.54-1.19-2.68-2.78-3.13-.59-.17-1.18-.38-1.79-.44-3.02-.28-6.04-.5-9.06-.78-3.4-.31-6.72.41-10.04.87-2.37.33-4,1.71-4.33,4.24-.2,1.55-.46,3.11-.46,4.66.01,4.7.13,9.4.24,14.09.03,1.32.43,2.54,1.44,3.45,1.3,1.17,2.78,2,4.58,2.04,1.6.04,3.21,0,4.81.03,1.19.01,2.38.16,3.55.07,2.51-.21,5.01-.35,7.52-.17.89.06,1.8-.03,2.69-.12,2.08-.22,3.38-1.46,3.64-3.52.15-1.22.25-2.46.27-3.69.04-2.42.01-4.84.01-7.26Z"/>
        <path class="cls-3" d="M29.76,15.77c0,2.42.03,4.84-.01,7.26-.02,1.23-.11,2.47-.27,3.69-.26,2.06-1.56,3.3-3.64,3.52-.89.09-1.8.18-2.69.12-2.52-.18-5.01-.04-7.52.17-1.17.1-2.37-.05-3.55-.07-1.61-.02-3.21,0-4.81-.03-1.8-.04-3.28-.88-4.58-2.04-1.01-.91-1.41-2.13-1.44-3.45-.11-4.7-.22-9.39-.24-14.09,0-1.55.26-3.11.46-4.66.33-2.53,1.96-3.91,4.33-4.24,3.33-.46,6.64-1.18,10.04-.87,3.02.28,6.04.5,9.06.78.61.06,1.2.27,1.79.44,1.59.45,2.46,1.59,2.78,3.13.21,1.01.32,2.06.34,3.1.05,2.42.02,4.83.02,7.25-.01,0-.03,0-.04,0ZM12.02,19.7c.97.66,1.75.45,2.49.47,2.04.05,4.07.1,6.11.16.81.03,1.61.12,2.42.13,1.8.02,2.16-.24,2.34-2.07.2-2.12.35-4.26.38-6.39.02-1.89-.02-3.8-.29-5.66-.26-1.74-1.11-2.27-2.82-2.46-2.54-.28-5.08-.49-7.65-.26-2.5.22-5.02.21-7.53.36-1.88.11-3.69,1.81-3.94,3.64-.14,1.08-.26,2.17-.32,3.25-.12,2.18-.21,4.35-.26,6.53-.03,1.18-.01,2.38.09,3.55.11,1.27.24,2.56.55,3.79.42,1.66,1.4,2.29,3.14,2.27.38,0,.76-.02,1.14-.02,4.18.07,8.35.14,12.53.24.55.01,1.11.17,1.64.34,1.13.36,2.22.84,3.36,1.12.99.24,1.36-.22.96-1.17-.51-1.17-1.06-2.34-1.76-3.4-.7-1.07-1.7-1.65-3.12-1.62-3.46.07-6.93.01-10.4-.03-.65,0-1.33-.1-1.95-.29-1.3-.41-1.57-1.01-.71-2.09,1.17-1.48,2.54-2.81,3.86-4.16,1.19-1.22,2.45-2.38,3.64-3.6.32-.34.49-.82.82-1.39-.52-.07-.79-.14-1.05-.13-1.28.08-2.55.23-3.83.25-.99.02-1.99-.04-2.96-.21-.77-.14-1.19-.82-1.06-1.44.14-.67.65-.89,1.28-.9,3.13-.05,6.26-.11,9.4-.12.5,0,1.02.2,1.5.37.65.23.92.72.54,1.34-.38.64-.79,1.3-1.31,1.84-1.54,1.61-3.17,3.14-4.71,4.76-.87.91-1.63,1.94-2.51,3.01Z"/>
        <path class="cls-2" d="M12.02,19.7c.89-1.07,1.65-2.09,2.51-3.01,1.54-1.62,3.16-3.15,4.71-4.76.51-.54.92-1.19,1.31-1.84.37-.63.1-1.11-.54-1.34-.48-.17-1-.37-1.5-.37-3.13,0-6.26.07-9.4.12-.62,0-1.13.23-1.28.9-.13.62.28,1.3,1.06,1.44.97.17,1.97.23,2.96.21,1.28-.02,2.55-.17,3.83-.25.26-.02.53.06,1.05.13-.33.57-.5,1.06-.82,1.39-1.19,1.23-2.45,2.38-3.64,3.6-1.32,1.36-2.68,2.68-3.86,4.16-.86,1.08-.58,1.68.71,2.09.62.2,1.3.29,1.95.29,3.47.04,6.93.1,10.4.03,1.42-.03,2.42.55,3.12,1.62.7,1.06,1.25,2.23,1.76,3.4.41.94.03,1.41-.96,1.17-1.14-.28-2.23-.77-3.36-1.12-.53-.17-1.09-.32-1.64-.34-4.18-.1-8.35-.17-12.53-.24-.38,0-.76.01-1.14.02-1.74.02-2.72-.61-3.14-2.27-.31-1.23-.44-2.52-.55-3.79-.1-1.18-.12-2.37-.09-3.55.05-2.18.14-4.36.26-6.53.06-1.09.18-2.18.32-3.25.25-1.84,2.05-3.53,3.94-3.64,2.51-.15,5.03-.14,7.53-.36,2.57-.22,5.1-.01,7.65.26,1.71.19,2.56.72,2.82,2.46.27,1.86.31,3.78.29,5.66-.03,2.13-.18,4.27-.38,6.39-.18,1.83-.54,2.09-2.34,2.07-.8,0-1.61-.1-2.42-.13-2.04-.06-4.07-.1-6.11-.16-.74-.02-1.52.19-2.49-.47ZM13.62,19c.62.14.84.23,1.07.24,2.7.12,5.4.25,8.11.32,1.21.03,1.51-.24,1.61-1.49.2-2.51.39-5.02.46-7.53.04-1.22-.2-2.45-.35-3.66-.14-1.14-.85-1.79-1.96-1.95-1.5-.21-3.01-.51-4.51-.5-3.23.01-6.45.19-9.68.3-.19,0-.38.03-.57.05-1.89.22-3.68,1.43-3.73,3.93-.02.95-.08,1.9-.21,2.84-.29,2.03-.35,4.06-.16,6.1.13,1.46,0,2.95.21,4.39.16,1.09.61,2.17,1.1,3.17.18.37.83.63,1.3.71.93.16,1.89.21,2.83.22,3.8.04,7.6.05,11.4.06.77,0,1.46.13,2.18.49.71.36,1.45.85,2.59.62-.67-1.14-1.19-2.2-1.88-3.14-.3-.41-.95-.8-1.42-.78-1.82.08-3.6-.4-5.44-.17-1.83.22-3.7.09-5.55.06-.8-.01-1.61-.11-2.4-.26-.34-.06-.7-.29-.96-.54-.9-.87-.93-1.87.03-3.05.8-.99,1.72-1.89,2.63-2.79,1.25-1.23,2.55-2.41,3.8-3.64.24-.24.39-.57.66-.98-.47-.08-.74-.18-1.01-.17-1.13.04-2.27.17-3.4.16-.79-.01-1.61-.13-2.36-.36-1.05-.33-1.35-.92-1.21-1.95.19-1.36.66-1.89,1.8-1.99.24-.02.47-.01.71-.02,2.75-.06,5.5-.16,8.25-.16.94,0,1.9.12,2.81.37,1.27.34,1.64,1.23,1.11,2.42-.17.38-.43.74-.71,1.04-1.56,1.66-3.16,3.29-4.72,4.94-.77.81-1.51,1.66-2.47,2.72Z"/>
        <path class="cls-1" d="M13.62,19c.96-1.06,1.7-1.91,2.47-2.72,1.57-1.66,3.16-3.29,4.72-4.94.29-.3.55-.66.71-1.04.53-1.19.16-2.08-1.11-2.42-.91-.24-1.87-.37-2.81-.37-2.75,0-5.5.1-8.25.16-.24,0-.48,0-.71.02-1.14.11-1.62.64-1.8,1.99-.14,1.03.16,1.62,1.21,1.95.75.24,1.57.35,2.36.36,1.13.02,2.27-.11,3.4-.16.27,0,.54.08,1.01.17-.27.41-.42.75-.66.98-1.26,1.22-2.55,2.41-3.8,3.64-.91.9-1.83,1.8-2.63,2.79-.96,1.18-.93,2.18-.03,3.05.26.25.61.48.96.54.79.15,1.6.25,2.4.26,1.85.03,3.72.16,5.55-.06,1.84-.22,3.62.25,5.44.17.47-.02,1.13.38,1.42.78.69.94,1.21,2,1.88,3.14-1.14.23-1.88-.27-2.59-.62-.72-.36-1.41-.49-2.18-.49-3.8,0-7.6-.02-11.4-.06-.95,0-1.9-.06-2.83-.22-.47-.08-1.12-.34-1.3-.71-.49-1-.94-2.08-1.1-3.17-.21-1.44-.07-2.93-.21-4.39-.19-2.05-.13-4.07.16-6.1.13-.94.19-1.89.21-2.84.05-2.5,1.83-3.72,3.73-3.93.19-.02.38-.04.57-.05,3.23-.11,6.45-.29,9.68-.3,1.5,0,3.01.29,4.51.5,1.11.16,1.82.81,1.96,1.95.15,1.22.38,2.45.35,3.66-.07,2.51-.26,5.02-.46,7.53-.1,1.24-.4,1.52-1.61,1.49-2.7-.07-5.4-.2-8.11-.32-.22,0-.44-.1-1.07-.24Z"/>
      </g>
    </g>
  </g>
</svg>