<?xml version="1.0" encoding="UTF-8"?>
<svg id="Layer_2" data-name="Layer 2" xmlns="http://www.w3.org/2000/svg" viewBox="0 0 62.06 129.53">
  <defs>
    <style>
      .cls-1 {
        fill: #232323;
      }

      .cls-1, .cls-2, .cls-3, .cls-4, .cls-5, .cls-6, .cls-7, .cls-8, .cls-9, .cls-10, .cls-11, .cls-12, .cls-13, .cls-14, .cls-15, .cls-16, .cls-17, .cls-18, .cls-19, .cls-20, .cls-21, .cls-22, .cls-23, .cls-24, .cls-25, .cls-26, .cls-27, .cls-28, .cls-29, .cls-30, .cls-31, .cls-32, .cls-33, .cls-34, .cls-35, .cls-36, .cls-37, .cls-38, .cls-39, .cls-40, .cls-41, .cls-42, .cls-43, .cls-44, .cls-45, .cls-46, .cls-47, .cls-48, .cls-49, .cls-50, .cls-51, .cls-52, .cls-53, .cls-54, .cls-55, .cls-56, .cls-57, .cls-58, .cls-59, .cls-60, .cls-61, .cls-62, .cls-63, .cls-64, .cls-65, .cls-66, .cls-67, .cls-68, .cls-69, .cls-70, .cls-71, .cls-72, .cls-73, .cls-74, .cls-75, .cls-76, .cls-77, .cls-78, .cls-79, .cls-80, .cls-81, .cls-82, .cls-83, .cls-84, .cls-85, .cls-86, .cls-87, .cls-88, .cls-89, .cls-90, .cls-91, .cls-92, .cls-93, .cls-94, .cls-95, .cls-96, .cls-97, .cls-98, .cls-99, .cls-100, .cls-101, .cls-102, .cls-103, .cls-104, .cls-105, .cls-106, .cls-107, .cls-108, .cls-109, .cls-110, .cls-111, .cls-112, .cls-113, .cls-114, .cls-115, .cls-116, .cls-117, .cls-118, .cls-119, .cls-120, .cls-121, .cls-122, .cls-123, .cls-124, .cls-125, .cls-126, .cls-127, .cls-128, .cls-129, .cls-130, .cls-131, .cls-132, .cls-133, .cls-134, .cls-135, .cls-136, .cls-137, .cls-138, .cls-139, .cls-140, .cls-141, .cls-142, .cls-143, .cls-144, .cls-145, .cls-146, .cls-147, .cls-148, .cls-149, .cls-150, .cls-151, .cls-152, .cls-153, .cls-154, .cls-155, .cls-156, .cls-157, .cls-158, .cls-159, .cls-160, .cls-161, .cls-162, .cls-163, .cls-164, .cls-165, .cls-166, .cls-167, .cls-168, .cls-169, .cls-170, .cls-171, .cls-172, .cls-173, .cls-174, .cls-175, .cls-176, .cls-177, .cls-178, .cls-179, .cls-180, .cls-181, .cls-182, .cls-183, .cls-184, .cls-185, .cls-186, .cls-187, .cls-188, .cls-189, .cls-190, .cls-191, .cls-192, .cls-193, .cls-194, .cls-195, .cls-196, .cls-197, .cls-198, .cls-199, .cls-200, .cls-201, .cls-202, .cls-203, .cls-204, .cls-205, .cls-206, .cls-207, .cls-208, .cls-209, .cls-210, .cls-211, .cls-212, .cls-213, .cls-214, .cls-215, .cls-216, .cls-217, .cls-218, .cls-219, .cls-220, .cls-221, .cls-222, .cls-223, .cls-224, .cls-225, .cls-226, .cls-227, .cls-228, .cls-229, .cls-230, .cls-231, .cls-232, .cls-233, .cls-234, .cls-235, .cls-236, .cls-237, .cls-238, .cls-239, .cls-240, .cls-241, .cls-242, .cls-243, .cls-244, .cls-245, .cls-246, .cls-247, .cls-248, .cls-249, .cls-250, .cls-251, .cls-252, .cls-253, .cls-254, .cls-255, .cls-256, .cls-257, .cls-258, .cls-259, .cls-260, .cls-261, .cls-262, .cls-263, .cls-264, .cls-265, .cls-266, .cls-267, .cls-268, .cls-269, .cls-270, .cls-271, .cls-272, .cls-273, .cls-274, .cls-275, .cls-276, .cls-277, .cls-278, .cls-279, .cls-280, .cls-281, .cls-282, .cls-283, .cls-284, .cls-285, .cls-286 {
        fill-rule: evenodd;
        stroke-width: 0px;
      }

      .cls-2 {
        fill: #dde1e1;
      }

      .cls-3 {
        fill: #c9cece;
      }

      .cls-4 {
        fill: #9d9b9b;
      }

      .cls-5 {
        fill: #595555;
      }

      .cls-6 {
        fill: #3d3232;
      }

      .cls-7 {
        fill: #e6e5e5;
      }

      .cls-8 {
        fill: #0b0b0b;
      }

      .cls-9 {
        fill: #636b6b;
      }

      .cls-10 {
        fill: #a29797;
      }

      .cls-11 {
        fill: #7e7575;
      }

      .cls-12 {
        fill: #bdc1c1;
      }

      .cls-13 {
        fill: #a99d9d;
      }

      .cls-14 {
        fill: #b4c5c5;
      }

      .cls-15 {
        fill: #bdb5b5;
      }

      .cls-16 {
        fill: #2e2c2c;
      }

      .cls-17 {
        fill: #4c4f4f;
      }

      .cls-18 {
        fill: #414040;
      }

      .cls-19 {
        fill: #252b2b;
      }

      .cls-20 {
        fill: #b3b5b5;
      }

      .cls-21 {
        fill: #636060;
      }

      .cls-22 {
        fill: #dee8e8;
      }

      .cls-23 {
        fill: #888484;
      }

      .cls-24 {
        fill: #cbdede;
      }

      .cls-25 {
        fill: #969898;
      }

      .cls-26 {
        fill: #151616;
      }

      .cls-27 {
        fill: #676464;
      }

      .cls-28 {
        fill: #bcb9b9;
      }

      .cls-29 {
        fill: #484141;
      }

      .cls-30 {
        fill: #312e2e;
      }

      .cls-31 {
        fill: #a7b4b4;
      }

      .cls-32 {
        fill: #b5b4b4;
      }

      .cls-33 {
        fill: #6b6b6b;
      }

      .cls-34 {
        fill: #b9adad;
      }

      .cls-35 {
        fill: #615050;
      }

      .cls-36 {
        fill: #444a4a;
      }

      .cls-37 {
        fill: #393232;
      }

      .cls-38 {
        fill: #b4b6b6;
      }

      .cls-39 {
        fill: #bec2c2;
      }

      .cls-40 {
        fill: #4d4a4a;
      }

      .cls-41 {
        fill: #5e5858;
      }

      .cls-42 {
        fill: #1b1a1a;
      }

      .cls-43 {
        fill: #302d2d;
      }

      .cls-44 {
        fill: #b7afaf;
      }

      .cls-45 {
        fill: #6c6565;
      }

      .cls-46 {
        fill: #bfc0c0;
      }

      .cls-47 {
        fill: #bdb8b8;
      }

      .cls-48 {
        fill: #585858;
      }

      .cls-49 {
        fill: #616262;
      }

      .cls-50 {
        fill: #4f4747;
      }

      .cls-51 {
        fill: #8e8d8d;
      }

      .cls-52 {
        fill: #424040;
      }

      .cls-53 {
        fill: #4b4d4d;
      }

      .cls-54 {
        fill: #434040;
      }

      .cls-55 {
        fill: #292d2d;
      }

      .cls-56 {
        fill: #afadad;
      }

      .cls-57 {
        fill: #a08282;
      }

      .cls-58 {
        fill: #9a8e8e;
      }

      .cls-59 {
        fill: #d1d3d3;
      }

      .cls-60 {
        fill: #5f5757;
      }

      .cls-61 {
        fill: #807373;
      }

      .cls-62 {
        fill: #655252;
      }

      .cls-63 {
        fill: #2c2e2e;
      }

      .cls-64 {
        fill: #c6c4c4;
      }

      .cls-65 {
        fill: #babfbf;
      }

      .cls-66 {
        fill: #443a3a;
      }

      .cls-67 {
        fill: #605b5b;
      }

      .cls-68 {
        fill: #b2a5a5;
      }

      .cls-69 {
        fill: #838181;
      }

      .cls-70 {
        fill: #cccdcd;
      }

      .cls-71 {
        fill: #4f4c4c;
      }

      .cls-72 {
        fill: #4a4c4c;
      }

      .cls-73 {
        fill: #ddf8f8;
      }

      .cls-74 {
        fill: #5d6b6b;
      }

      .cls-75 {
        fill: #bcc3c3;
      }

      .cls-76 {
        fill: #b8bcbc;
      }

      .cls-77 {
        fill: #cdd4d4;
      }

      .cls-78 {
        fill: #3f3e3e;
      }

      .cls-79 {
        fill: #807e7e;
      }

      .cls-80 {
        fill: #313232;
      }

      .cls-81 {
        fill: #646161;
      }

      .cls-82 {
        fill: #6a6767;
      }

      .cls-83 {
        fill: #a5a8a8;
      }

      .cls-84 {
        fill: #f4ecec;
      }

      .cls-85 {
        fill: #7b5454;
      }

      .cls-86 {
        fill: #b0bebe;
      }

      .cls-87 {
        fill: #d5d7d7;
      }

      .cls-88 {
        fill: #b5bdbd;
      }

      .cls-89 {
        fill: #454444;
      }

      .cls-90 {
        fill: #b5abab;
      }

      .cls-91 {
        fill: #afbaba;
      }

      .cls-92 {
        fill: #524848;
      }

      .cls-93 {
        fill: #a5b5b5;
      }

      .cls-94 {
        fill: #3a3131;
      }

      .cls-95 {
        fill: #393838;
      }

      .cls-96 {
        fill: #5e4f4f;
      }

      .cls-97 {
        fill: #747d7d;
      }

      .cls-98 {
        fill: #434242;
      }

      .cls-99 {
        fill: #cdd1d1;
      }

      .cls-100 {
        fill: #5c6d6d;
      }

      .cls-101 {
        fill: #525555;
      }

      .cls-102 {
        fill: #bac5c5;
      }

      .cls-103 {
        fill: #343535;
      }

      .cls-104 {
        fill: #dcdddd;
      }

      .cls-105 {
        fill: #a99b9b;
      }

      .cls-106 {
        fill: #adb4b4;
      }

      .cls-107 {
        fill: #888686;
      }

      .cls-108 {
        fill: #949f9f;
      }

      .cls-109 {
        fill: #dce4e4;
      }

      .cls-110 {
        fill: #d4d3d3;
      }

      .cls-111 {
        fill: #474545;
      }

      .cls-112 {
        fill: #4a3f3f;
      }

      .cls-113 {
        fill: #6a6565;
      }

      .cls-114 {
        fill: #535656;
      }

      .cls-115 {
        fill: #cdbebe;
      }

      .cls-116 {
        fill: #d2d2d2;
      }

      .cls-117 {
        fill: #877f7f;
      }

      .cls-118 {
        fill: #738686;
      }

      .cls-119 {
        fill: #606969;
      }

      .cls-120 {
        fill: #edecec;
      }

      .cls-121 {
        fill: #212222;
      }

      .cls-122 {
        fill: #b9acac;
      }

      .cls-123 {
        fill: #e3f2f2;
      }

      .cls-124 {
        fill: #626060;
      }

      .cls-125 {
        fill: #6c6a6a;
      }

      .cls-126 {
        fill: #505252;
      }

      .cls-127 {
        fill: #eef7f7;
      }

      .cls-128 {
        fill: #817e7e;
      }

      .cls-129 {
        fill: #8d8a8a;
      }

      .cls-130 {
        fill: #a69f9f;
      }

      .cls-131 {
        fill: #e2e0e0;
      }

      .cls-132 {
        fill: #5d4b4b;
      }

      .cls-133 {
        fill: #576060;
      }

      .cls-134 {
        fill: #b8baba;
      }

      .cls-135 {
        fill: #c9c0c0;
      }

      .cls-136 {
        fill: #252323;
      }

      .cls-137 {
        fill: #353e3e;
      }

      .cls-138 {
        fill: #a9c1c1;
      }

      .cls-139 {
        fill: #cfd4d4;
      }

      .cls-140 {
        fill: #5f6060;
      }

      .cls-141 {
        fill: #816262;
      }

      .cls-142 {
        fill: #dbe6e6;
      }

      .cls-143 {
        fill: #484848;
      }

      .cls-144 {
        fill: #372929;
      }

      .cls-145 {
        fill: #cad0d0;
      }

      .cls-146 {
        fill: #131313;
      }

      .cls-147 {
        fill: #c9d9d9;
      }

      .cls-148 {
        fill: #dcd9d9;
      }

      .cls-149 {
        fill: #817676;
      }

      .cls-150 {
        fill: #4b3737;
      }

      .cls-151 {
        fill: #d1c7c7;
      }

      .cls-152 {
        fill: #717474;
      }

      .cls-153 {
        fill: #5a5353;
      }

      .cls-154 {
        fill: #cfdbdb;
      }

      .cls-155 {
        fill: #b0bbbb;
      }

      .cls-156 {
        fill: #efecec;
      }

      .cls-157 {
        fill: #1c1d1d;
      }

      .cls-158 {
        fill: #505454;
      }

      .cls-159 {
        fill: #4b5252;
      }

      .cls-160 {
        fill: #c1c6c6;
      }

      .cls-161 {
        fill: #4a4848;
      }

      .cls-162 {
        fill: #4c4949;
      }

      .cls-163 {
        fill: #898787;
      }

      .cls-164 {
        fill: #706868;
      }

      .cls-165 {
        fill: #b0bcbc;
      }

      .cls-166 {
        fill: #262727;
      }

      .cls-167 {
        fill: #3b3232;
      }

      .cls-168 {
        fill: #e3e6e6;
      }

      .cls-169 {
        fill: #b3b7b7;
      }

      .cls-170 {
        fill: #d9dfdf;
      }

      .cls-171 {
        fill: #b8dbdb;
      }

      .cls-172 {
        fill: #424343;
      }

      .cls-173 {
        fill: #969999;
      }

      .cls-174 {
        fill: #dadbdb;
      }

      .cls-175 {
        fill: #ada6a6;
      }

      .cls-176 {
        fill: #bac0c0;
      }

      .cls-177 {
        fill: #433c3c;
      }

      .cls-178 {
        fill: #3a3838;
      }

      .cls-179 {
        fill: #211d1d;
      }

      .cls-180 {
        fill: #3a2f2f;
      }

      .cls-181 {
        fill: #757575;
      }

      .cls-182 {
        fill: #5e6868;
      }

      .cls-183 {
        fill: #a3a3a3;
      }

      .cls-184 {
        fill: #a6a8a8;
      }

      .cls-185 {
        fill: #3a3a3a;
      }

      .cls-186 {
        fill: #a99e9e;
      }

      .cls-187 {
        fill: #5f5858;
      }

      .cls-188 {
        fill: #e1eded;
      }

      .cls-189 {
        fill: #848d8d;
      }

      .cls-190 {
        fill: #b0a7a7;
      }

      .cls-191 {
        fill: #8db9b9;
      }

      .cls-192 {
        fill: #5b5353;
      }

      .cls-193 {
        fill: #767474;
      }

      .cls-194 {
        fill: #d5d9d9;
      }

      .cls-195 {
        fill: #969f9f;
      }

      .cls-196 {
        fill: #6d6f6f;
      }

      .cls-197 {
        fill: #f7f6f6;
      }

      .cls-198 {
        fill: #747b7b;
      }

      .cls-199 {
        fill: #7c7474;
      }

      .cls-200 {
        fill: #332f2f;
      }

      .cls-201 {
        fill: #b3bcbc;
      }

      .cls-202 {
        fill: #413a3a;
      }

      .cls-203 {
        fill: #d4d9d9;
      }

      .cls-204 {
        fill: #a09595;
      }

      .cls-205 {
        fill: #706f6f;
      }

      .cls-206 {
        fill: #434343;
      }

      .cls-207 {
        fill: #c1c8c8;
      }

      .cls-208 {
        fill: #b0b6b6;
      }

      .cls-209 {
        fill: #5a4e4e;
      }

      .cls-210 {
        fill: #111;
      }

      .cls-211 {
        fill: #282626;
      }

      .cls-212 {
        fill: #272a2a;
      }

      .cls-213 {
        fill: #777;
      }

      .cls-214 {
        fill: #3b3a3a;
      }

      .cls-215 {
        fill: #716d6d;
      }

      .cls-216 {
        fill: #bbb3b3;
      }

      .cls-217 {
        fill: #a59e9e;
      }

      .cls-218 {
        fill: #1f1d1d;
      }

      .cls-219 {
        fill: #e0e1e1;
      }

      .cls-220 {
        fill: #f7f8f8;
      }

      .cls-221 {
        fill: #9c9c9c;
      }

      .cls-222 {
        fill: #bdbcbc;
      }

      .cls-223 {
        fill: #0c0c0c;
      }

      .cls-224 {
        fill: #dad5d5;
      }

      .cls-225 {
        fill: #403d3d;
      }

      .cls-226 {
        fill: #878484;
      }

      .cls-227 {
        fill: #686464;
      }

      .cls-228 {
        fill: #daebeb;
      }

      .cls-229 {
        fill: #ddcdcd;
      }

      .cls-230 {
        fill: #6b6868;
      }

      .cls-231 {
        fill: #6c5252;
      }

      .cls-232 {
        fill: #282828;
      }

      .cls-233 {
        fill: #b0a6a6;
      }

      .cls-234 {
        fill: #d3d4d4;
      }

      .cls-235 {
        fill: #151414;
      }

      .cls-236 {
        fill: #212424;
      }

      .cls-237 {
        fill: #758686;
      }

      .cls-238 {
        fill: #5c5959;
      }

      .cls-239 {
        fill: #929494;
      }

      .cls-240 {
        fill: #a08989;
      }

      .cls-241 {
        fill: #6a7272;
      }

      .cls-242 {
        fill: #7b7b7b;
      }

      .cls-243 {
        fill: #cdd8d8;
      }

      .cls-244 {
        fill: #473e3e;
      }

      .cls-245 {
        fill: #bbcece;
      }

      .cls-246 {
        fill: #6d5050;
      }

      .cls-247 {
        fill: #636d6d;
      }

      .cls-248 {
        fill: #cbcccc;
      }

      .cls-249 {
        fill: #302b2b;
      }

      .cls-250 {
        fill: #333434;
      }

      .cls-251 {
        fill: #a1acac;
      }

      .cls-252 {
        fill: #767878;
      }

      .cls-253 {
        fill: #717979;
      }

      .cls-254 {
        fill: #a29595;
      }

      .cls-255 {
        fill: #433a3a;
      }

      .cls-256 {
        fill: #6d6161;
      }

      .cls-257 {
        fill: #5d4747;
      }

      .cls-258 {
        fill: #848484;
      }

      .cls-259 {
        fill: #cacdcd;
      }

      .cls-260 {
        fill: #f9f5f5;
      }

      .cls-261 {
        fill: #222323;
      }

      .cls-262 {
        fill: #5d5959;
      }

      .cls-263 {
        fill: #2a2525;
      }

      .cls-264 {
        fill: #8a7f7f;
      }

      .cls-265 {
        fill: #9b9797;
      }

      .cls-266 {
        fill: #a7a8a8;
      }

      .cls-267 {
        fill: #d5e6e6;
      }

      .cls-268 {
        fill: #b2a9a9;
      }

      .cls-269 {
        fill: #9ea6a6;
      }

      .cls-270 {
        fill: #525a5a;
      }

      .cls-271 {
        fill: #869393;
      }

      .cls-272 {
        fill: #544e4e;
      }

      .cls-273 {
        fill: #514545;
      }

      .cls-274 {
        fill: #111010;
      }

      .cls-275 {
        fill: #363232;
      }

      .cls-276 {
        fill: #343333;
      }

      .cls-277 {
        fill: #1f2020;
      }

      .cls-278 {
        fill: #5a5252;
      }

      .cls-279 {
        fill: #827d7d;
      }

      .cls-280 {
        fill: #707070;
      }

      .cls-281 {
        fill: #8a9191;
      }

      .cls-282 {
        fill: #939696;
      }

      .cls-283 {
        fill: #91b0b0;
      }

      .cls-284 {
        fill: #919494;
      }

      .cls-285 {
        fill: #534646;
      }

      .cls-286 {
        fill: #cebbbb;
      }
    </style>
  </defs>
  <g id="Objects">
    <g>
      <path class="cls-210" d="M48,56.86c.15-.06.21-.18.16-.35.18-1.55,1.36-2.21,2.31-3.08v.02c.31-.45-.05-1.14.44-1.53l-.02.02c.22-.3.12-.79.51-.98l-.02.03c.07-.51.5-.74.75-1.1l.09-.07c.17-.09.3-.23.39-.41l.06-.08c.23-.15.3-.43.47-.63.14-.11.29-.2.45-.28.32-.18.6-.42.88-.67.78-.79,1.56-.97,2.33.02.14.17.26.35.37.53.12.19.2.39.27.6.01.11.02.22.03.33-.1,1.03-.83,1.74-1.14,2.66-.25,2.08-.56,4.13-2.02,5.7,0,.19.02.38.11.55.48.56-.34,1.75.83,1.97.58.38.39.99.39,1.54-.18.42-.4.82-.71,1.16v-.02c-.22.29-.1.8-.52.96l.03-.04c-.04.29-.21.46-.45.57l.02-.03c-.07.08-.13.17-.2.25-.1-.02-.2-.04-.3-.06-.26-.16-.44-.39-.56-.69-.11-.35-.05-.71-.03-1.06-.02-.14-.07-.27-.17-.37-.01.01-.21-.01-.21-.01,0,0-.18.1-.19.12-.15.24-.21.51-.26.77-.03.19-.09.38-.16.55-.13.07-.17.14-.13.21.05.06.09.1.15.1.16.1.31.21.46.31.48.36.96.71.99,1.43-.02.22-.08.42-.17.62-.13.17-.27.33-.42.48-.1.04-.2.07-.29.11-.88.2-2.21.4-2.29,1.23-.2,1.97-1.42,3.85-.64,5.91.2.53.5,1,.54,1.59-.01.24-.09.45-.22.64-2.54,1.28-4.85,5.2-4.7,8-.08.22-.21.4-.39.54-.43.19-.87.05-1.36-.03.17.76.66,1.25.64,1.93-.4,1.6-1.68,2.68-2.12,4.29-.23.83-1.09,1.06-1.89,1.12-.31.03-.61.02-.92,0-.2,0-.4-.03-.59-.07-.19-.04-.38-.1-.56-.17-.35-.17-.68-.36-.95-.66-.15-.3-.08-.56.09-.81.17-.22.34-.44.49-.68.09-.17.19-.33.3-.49.21-.32.43-.64.62-.98.27-.53.73-.91,1.01-1.42.41-.55.15-1.1.03-1.65-.11-.17.23-.65-.31-.55-.59.51.33.33.24.62.11.3.19.6.17.93-.08.48-.33.84-.68,1.13-.39.24-.81.3-1.25.3-.32,0-.63-.06-.93-.19-.18-.1-.32-.26-.42-.46-.12-.64.03-1.25.16-1.86l.03-.06c.33-.21.22-.67.45-.93l.02-.04c.31-.21.18-.74.56-.89l-.03.04c.04-.26.23-.41.37-.59,0-.17-.02-.34-.02-.51.45-2.72-1.2-2.31-2.7-2.14-1.67-.69-2.81-.77-4.54.83-1.86,1.72-3.38,4.08-5.79,5.11-.38.14-.78.21-1.17.31-.28.1-.53.26-.75.47-2.03,1.86-3.5,4.44-6.07,5.61-1.25-.77-2.37,1.21-3.63.23-1.14-.59-2.79-.07-3.37-1.85,1.51-1.52,3.61-.55,5.31-1.49.92-.51,2.05-.44,2.23-1.99.08-.73.67-1.3,1.37-1.54.84-.28,1.38-.51,1.35-1.79-.02-1.02,1.34-.71,2.06-1.07-1.3-1.95-1.2-2.53.83-3.37,3.96-1.63,8.06-2.73,12.23-3.55,1.48-.29,2.9-.93,4.4-1.2.18-.03.39.06.54-.12-.25-.14-.57-.03-.8-.25.69-1.53,1.65-2.87,2.54-4.26.71-.44,1.65-.76.86-1.97,0-1.79,1.06-2.94,2.07-4.12.44-.85,1.77-1.04,1.5-2.41-.04-.23-.05-.45-.02-.67.03-1.61.34-3.08,1.6-4.13Z"/>
      <path class="cls-8" d="M33.84,6.64c.04-.11.08-.21.11-.32.01-.05-.02-.12-.03-.18-.32-.4-.04-.74.09-1.09.17-.35.31-.72.43-1.1.07-.2.16-.38.26-.55.18-.27.39-.5.63-.69.28-.17.57-.3.9-.31.81-.97,1-2.84,2.84-2.3.53.25,1.2.14,1.63.68l-.04-.04c.4.2.31.68.5,1l-.02-.03c.39.25.31.75.49,1.11-.09.15-.06.26.08.34.25.28.15.73.42.99h0c1.32.8,1.21,2.22,1.33,3.54h0c1.07,1.05,1.82,2.24,1.38,3.93,0,.16-.02.31-.02.47.05.44.03.88-.04,1.32.05,1.09-.67,1.77-1.11,2.61-.64,1.23-1.54,2.44-.26,3.99.8.98,0,1.74-.95,1.84-1.82.19-2.61.79-2.28,3.1.35,2.48-.65,3.38-2.87,3.52-.2.06-.4.1-.6.14-.4.07-.79.12-.73.16-.05-.02.37.07.65.49.11.2.13.41.09.63-.11.18-.27.31-.45.39-.56.09-1.13-.02-1.69-.02-.27-.04-.5-.17-.71-.33-.2-.14-.42-.26-.66-.3-.25,0-.5.05-.76.08-.19-.02-.35-.1-.49-.25-.28-.44-.12-.98-.31-1.42-.19-.23-.42-.27-.69-.21-.66.25-1.16.74-1.64,1.25-.26.31-.49.65-.73.98-.19.24-.41.43-.7.54-.32.04-.52-.12-.65-.42-.05-.18-.07-.37-.07-.56,0-.27-.05-.53-.18-.77-.1-.15-.17-.32-.23-.5-.08-.4.02-.76.19-1.11.08-.17.18-.34.28-.51.18-.36.29-.75.46-1.11.11-.18.26-.32.45-.41.89-.39,1.82.21,2.7-.15.59-.19,1.17-.3,1.71.14.23.18.43.39.66.56.42.15.7-.14,1-.38.16-.12.34-.21.52-.28.44-.16.86-.35,1.06-.86.08-.17.17-.33.27-.48.05-.07.1-.14.15-.22.14-.2.27-.41.37-.64.07-.22.13-.43.2-.65-.21-.08-.11.2-.23.23-.19.21-.4.35-.65.44-.18.06-.37.09-.56.09-.52-.01-.96-.19-1.29-.66-.22-.31-.39-.68-.79-.74-.33.19-.41.58-.61.87-.39.46-.87.53-1.4.41-.53-.27-1.37-.61-.98-1.28.48-.84.23-.74-.38-1.09-.6-.34-.41-1.29-.37-2.01.01-.33.01-.65.01-.98,0-.21.04-.42.1-.62.1-.18.23-.33.38-.46.16-.11.33-.19.51-.24.17-.04.35-.04.53-.03.17.02.33.07.48.14.14.07.28.14.43.19.16-.06.3-.14.44-.26.27-.3.52-.6.77-.89.23-.29.46-.58.53-.97.04-.39-.04-.79.05-1.18.08-.35.54-.67.22-1.03-.28-.31-.68.05-1.03.05-.55.05-.64-.39-.75-.82-.04-.21-.04-.42,0-.64.1-.4.24-.79.39-1.18.11-.17.23-.33.36-.47v-.02c.46-.36.01-1.11.54-1.44l-.02.03c.18-.33.15-.74.35-1.05Z"/>
      <path class="cls-223" d="M21.58,77.83c.4.11.79.22,1.19.33.24-.12.45-.29.71-.37.26-.07.52-.04.79,0,2.06-.48,4.12-.95,6.03-1.96.13-.05.27-.11.41-.16.41-.28.97.05,1.35-.37.16-.03.32-.06.47-.09.4-.33.98.03,1.36-.41.32.06.65.23.94-.1.32-.2.7-.18,1.02-.36.28.12.56.15.8-.1.87-.67,1.74-.76,2.64-.06.51.07,1.03.15,1.56.22-.22.61-.71.87-1.1.89-1.92.13-3.51,1.84-5.59,1.28-.52-.14-1.15.3-1.72.52-1.38.53-2.65,1.22-4.26,1.32-2.27.14-4.41,1.41-6.52,2.49.3,1.32,1.69,1.32,1.97,2.53-1.08.14-2.1.26-3.11.39-.17.75.63.94.64,1.72-.64.21-1.32.5-2.03.66-.81.17-1.07.88-1.37,1.52-.22.47.87,1.24.15,1.41-.93.22-1.72.89-2.69.86-.22,0-.55-.23-.64-.14-1.36,1.41-3.11.34-4.6.88-.6.39-1.18.34-1.74-.11l-.02.02c-.73-.42-1.59-.07-2.33-.47-.19-.04-.37-.11-.55-.19-.34-.17-.7-.29-1.05-.45-.17-.09-.34-.19-.5-.3-.17-.11-.33-.23-.47-.37-.07-.07-.14-.15-.22-.21-.59-.71-1.4-1.21-1.71-2.17l.06-.15-.12-.11c.02-.44-.9-.34-.48-1,.01-.17.03-.33.04-.49-.37-.52-.73-1.06-.9-1.7-.08-.63.16-1.24.08-1.87-.03-.32,0-.63.07-.94.13-.41.31-.8.55-1.15.21-.26.46-.44.79-.47.85.23.24,1.23.74,1.65l.1-.06c.78.41,1.41,1.07,2.12,1.58.33.03.67.29.98-.06.5-.64.99-1.37,1.71-.27.49.75,1.23.82,1.97.91.31-.11.24-.46.35-.69.22-.3.49-.55.73-.83.12-.14.27-.25.44-.31.42-.06.89.14,1.23-.29-.01-.98.87-1.51,1.11-.82.5,1.45,1.32.69,2.03.79,1.25-1.19,2.39-2.98,4.26-.96.44.15.87.16,1.31-.01.48-.34.81-.8,1-1.37Z"/>
      <path class="cls-42" d="M53.97,48.56c-.27.11-.54.23-.81.34-.26-.67-.46-1.33.13-1.93.17.03.28-.04.35-.21.17-.06.28-.17.34-.35l.07-.09c.91-1.91,1.43-4.1,3.3-5.32h-.01c.19-.31.15-.74.4-1.04v-.04c.16-.1.25-.24.29-.43.08-.13.16-.27.23-.4.18-.35.14-.81.42-1.11h0c.15-.19.3-.39.55-.42l-.11-.05.1.06c.39-1.04.24-2.36,1.34-3.03h0c.2-.31.13-.77.47-1.01l-.03.05c.31-.38.59-.41.84.07-.05.16,0,.28.12.36.18.34.18.66-.04.98,0,.17,0,.34.01.5.11.18.09.34-.06.48h0c-.14.16-.27.33-.39.51l-.03.05c.34,1.4-.87,2.57-.48,3.98l.1.08.1-.08c.94,1.08.38,2.23.12,3.36l.04-.06c-.08.2-.18.39-.29.57-.52.75-1.1,1.48-.68,2.52-.01.21-.06.42-.14.61-.38,1.07-.97,1.17-1.76.48-.16-.08-.32-.15-.49-.21-.52-.09-.74.44-1.12.62q-1.15-1.2-2.28,0c-.26-.24-.44-.16-.57.15Z"/>
      <path class="cls-261" d="M50.01,75.77c-.54-.75-1.53-1.52-1.5-2.25.03-.86.5-1.81.61-2.79.09-.85.76-1.58.32-2.55-.21-.47.34-.75.57-.9.65-.4,1.55-.27,2.03-1.08.23.21.45.43.67.64.23.34.24.66-.05.97l-.1.12.07.14c-.15.4-.08.92-.52,1.17l.04-.05c-.04.29-.22.46-.45.57l.02-.04c-.87.53.23,1.48-.37,2.06-.12.11-.14.23-.07.38-.5,1.05-1.17,2.09-.3,3.29-.2.53-.52.66-.97.32Z"/>
      <path class="cls-43" d="M2.25,80.24c-.58-.29-.34-1.12-.83-1.47-.64-.39-.18-1.16-.49-1.65.07-.08.07-.16-.01-.23.1-.2.2-.39.29-.6.25-.28.21-.61.16-.95.25-.28.12-.83.57-.97l-.05.04c.02-.32.23-.46.46-.58.44-.11.56-.41.43-.85.16-.38.07-.9.53-1.11l-.03.06c.1-.24.27-.38.51-.42.72.18,1.67.01,1.69,1.28-1.07.83-1.27,1.16-2.2,3.43.21.47-.12.76-.32,1.08-.2.34-.38.7-.69.95,0,.66-.01,1.32-.02,1.99Z"/>
      <path class="cls-95" d="M29.71,17.98c.17.71.51,1.38.37,2.18.52.47,1.11-1.21,1.59.05.23.61.71,1.27-.53,1.19-.53-.03-.54.36,0,1.13-1.58,1.8-3.17,1.49-4.34-.85,0-.24.1-.44.29-.57l-.03.03c.07-.25.26-.39.4-.57l.02-.02c.26-.42,1.35.03.95-1.08.14-.17.29-.33.43-.5.17-.11.31-.24.43-.4l.13-.13-.05-.18c.03-.22.14-.31.35-.28Z"/>
      <path class="cls-37" d="M42.94,37.88c-.77.27-1.53.37-2.13,1.2-.76,1.04-2,1.3-3.21,1.39-.27-.25-.31-.57-.22-.93.57-.79,1.19-1.52,2.02-2.01.96-1.08,2.11-.69,3.24-.49l.11.07.1-.08c.55.22.58.51.09.86h0Z"/>
      <path class="cls-168" d="M47.27,87.68c-.05.21-.1.42-.15.64-.31.29-.45.75-.81,1-.21.06-.41.04-.6-.05-.32-.31-.51-.7-.63-1.14-.11-.62-.03-1.3-.4-1.86-.13-.31-.17-.64-.12-.97.07-.21.18-.4.32-.56l.02-.02c.1-.14.22-.23.38-.29.22-.05.44-.07.63-.21.1-.13.19-.26.26-.41.13-.35.21-.71.36-1.04.22-.37.47-.69.94-.64.56.33.59.87.5,1.46-.44.8-.3,1.7-.37,2.57.01.36.03.73.04,1.09l-.16.09h-.18s-.04-.19-.04-.19l.03.19c.08.13.07.25-.02.37Z"/>
      <path class="cls-188" d="M26.92,21.55c-.11.81.14,1.26.96,1.04.66-.18,1.46-.84,1.53.64,0,.13.1.26.15.39.04-.15.09-.3.12-.46.21-.97,1.02-.29,1.45-.63.58.24,1.02,0,1.38-.48.91-.61,1.29.07,1.66.79.1.38.07.75-.11,1.1-.51.52-1.03.16-1.55.02-.66-.25-1.32-.47-1.67.51-.12.19-.28.33-.47.43-.82.28-1.47-.01-2.01-.69-.48-.62-1.34-.53-1.82-1.16,0-.51,0-1.01,0-1.52l.19-.14.17.16Z"/>
      <path class="cls-71" d="M47.62,83.72c0-.49.22-1.04-.34-1.38-.17-.11-.25-.28-.24-.5.15-.48.55-.8.71-1.28.14-.5,0-1,.01-1.51.05-.45.18-.83.64-.95.56.16,1.01.57,1.57.74.17.11.31.24.42.41h0c.34.58-.2.7-.44.97-.09.11-.1.23-.04.36-.06.24-.22.41-.32.62-.01.17-.03.34-.04.52.1.19.07.34-.09.47v-.02c-.22.29-.13.78-.49,1l.02-.03c-.16.42-.39.75-.84.8-.21.02-.38-.06-.52-.23Z"/>
      <path class="cls-78" d="M7.33,65.81c-.19.85-1.38,1.19-1,2.32-.36.62-.86.52-1.26.16-.45-.41-.35-.96-.02-1.46v.02c.11-.16.21-.33.29-.52.04-.17.08-.35.13-.52.29-.25.19-.69.4-.98.12-.1.15-.23.1-.39.29-.58.48-1.24,1.1-1.54l.12.09.11-.09q.83.67.04,2.92Z"/>
      <path class="cls-120" d="M39.85,44.93c-.74.19-.74,1.25-1.47,1.45-.51-.38-.89.08-1.31.24-.3.14-.59.14-.9.02-.29-.17-.5-.43-.6-.77-.02-.51.21-.88.55-1.18.63-.23,1.07-1.09,1.9-.71.12.53.31,1.08.84.44.42-.51.76-1.03,1.45-1.06.15.19.31.39.46.58-.15.14-.3.3-.42.47-.16.17-.33.34-.49.51Z"/>
      <path class="cls-28" d="M17.88,42.92c.43.66,1.42.23,1.76,1.06-.48,1.06-1.36,1.52-2.33,1.86-.3.05-.59.04-.89-.03-.19-.06-.36-.17-.51-.32-.1-.2-.08-.39.06-.57.05-.13.08-.27.07-.41.13-.27.22-.56.37-.81.37-.52.85-.79,1.46-.79Z"/>
      <path class="cls-56" d="M39.33,105.06c.15.55.6.52.99.59.14.27.01.46-.16.63-.27.14-.2-.24-.16.09.01.11.23.18.37.25.39.39.09.96.3,1.39.05.16.07.32.08.49-.8.83-1.25-.17-1.85-.4-.25-.18-.46-.41-.59-.71-.12-.41-.38-.69-.75-.85-.61-.33-.96-.83-.66-1.55.3-.74.86-.36,1.34-.24.36.13.75.11,1.09.32Z"/>
      <path class="cls-51" d="M20.62,36.5c-.13,1.58-.95,2.78-1.82,3.96-.15.17-.33.21-.54.12-.13-.17-.21-.36-.24-.58.02-.21.08-.41.17-.6.37-.39.29-.97.51-1.43l.05-.05c.44-.15.68-.54.92-.93,0-.31.02-.62.03-.94.08-.21.23-.28.43-.24.27.15.44.37.48.7Z"/>
      <path class="cls-187" d="M35.72,51.89c-.04.07-.1.21-.11.2-1.04-.39-1.85.11-2.64.75-.27-.25-.74-.05-.94-.47.14-.63,1.03-.54,1.03-1.43,0-.71.55.04.83-.1.46.04.93.08,1.39.12.29.23.43.54.43.92Z"/>
      <path class="cls-284" d="M9.92,57.89c.45-.78.53-1.48-.32-2.02.16-.21.31-.42.47-.63,0,0,.15.11.15.11,0,0,.17.04.17.04,0,0-.05-.18-.05-.19.04-.14.13-.23.26-.28.16-.01.29-.08.4-.2.18-.08.34-.18.48-.31.17-.08.34-.16.5-.24.15.12.27.26.36.44.18.38.19.76-.05,1.12-.26.41-.55.8-.89,1.14-.5.32-.54.96-.83,1.42-.09.17-.22.26-.41.25-.08-.04-.15-.08-.23-.12-.09-.17-.09-.35-.03-.53Z"/>
      <path class="cls-218" d="M32.07,11.61c.13-.2.27-.4.4-.6.11.38.11.82.48,1.06.07.05.13.1.2.15.13.22.2.48.27.73.05.17.1.34.15.51.06.17.12.35.17.53.02.3-.04.58-.16.85-.23.32-.39.71-.71.96-.19.06-.39.06-.58,0-.94-.74-.38-1.81-.51-2.74.05-.32.04-.66.2-.96.04-.11.09-.21.12-.32.01-.05-.02-.12-.03-.18Z"/>
      <path class="cls-228" d="M34.68,94.7c.11-.59.12-1.22.52-1.7.19.05.36.13.52.25.39.32.89.39,1.29.68.16.15.25.33.27.55-.03.22-.1.42-.22.6-.12.17-.27.33-.42.47-.4.33-.76.73-1.3.79-.42-.06-.79-.25-1.09-.59-.11-.22-.08-.42.09-.59h0c.14-.13.25-.28.32-.46Z"/>
      <path class="cls-238" d="M36.22,46.38c.29,0,.58.02.86.02.11.1.15.2.11.3-.03.1-.07.15-.11.15-.15.18-.3.37-.45.55-.31-.17-.61-.16-.92.01-.56-.1-1.61.33-1-1.08.03-.07-.25-.3-.38-.46-.15-.14-.25-.32-.3-.52-.02-.21,0-.42.07-.62.1-.19.23-.33.41-.43.2-.03.37.04.51.18.29.39.45.85.47,1.35.1.39.33.61.72.56Z"/>
      <path class="cls-282" d="M31.91,68.89c-.27,1.55-.83,2.17-2.05,2.3-.09-.46-.23-.92-.08-1.4.24-.27.62-.18.87-.41.41-.03.76-.19,1.04-.52,0,0,.21.02.21.02Z"/>
      <path class="cls-140" d="M44.05,93.29c.07,1.26-.12,2.43-1.08,3.29l-.13-.07-.13.08c-.29-.09-.59-.18-.72-.53-.02-.22.01-.44.1-.64.56-.8.55-1.93,1.28-2.64.46-.19.88-.32.68.52Z"/>
      <path class="cls-158" d="M26.96,25.08c.04.13.07.25.09.38-.35.57-.82,1.07-1.01,1.76-.09.18-.22.33-.37.46-.26.13-.53.15-.8.03-.15-.11-.25-.25-.31-.43.03-.25.18-.49.01-.75-.05-.17-.03-.33.07-.48.11-.11.15-.24.11-.4.1-.26.27-.44.49-.58.57,0,1.14,0,1.71,0Z"/>
      <path class="cls-17" d="M23.22,31.09c.3.28.51.58.22,1.01-.5.77-1,1.53-1.5,2.3-.23-.1-.48-.17-.6-.44-.04-.19.02-.34.17-.44h.01c.14-.19.29-.36.48-.49h0c.39-.62-.1-1.84,1.1-1.94l.12.02Z"/>
      <path class="cls-31" d="M34.31,60.8c.02.35.05.69.07,1.04-.05.12-.07.24-.05.37-.63.69-1.38.29-2.09.28-.06-1.64.95-1.73,2.06-1.69Z"/>
      <path class="cls-99" d="M33.77,98.65c.04-.33.09-.67.13-1h0c.14-.12.24-.28.29-.47.07-.08.16-.1.25-.08.76-.52,1.28-.31,1.6.58.03.23.02.46-.03.69-.35.78-1.01.52-1.59.54-.19-.02-.36-.1-.49-.26h-.16Z"/>
      <path class="cls-23" d="M40.67,108.01c-.53-.31-.21-1.16-.78-1.44-.14-.07-.21-.16-.19-.27.02-.12.05-.18.09-.18.17-.16.35-.31.52-.46,1.03-.06.87.76.91,1.44h0c-.15.13-.25.28-.31.47-.08.15-.17.3-.25.45Z"/>
      <path class="cls-11" d="M25.3,69.78c-.85.46-2.2.33-2.46-.29-.05-.12.32-.45.5-.69.15.02.3.02.45,0,.47.3,1.08.35,1.42.89l.09.08Z"/>
      <path class="cls-91" d="M56.3,59.3c.03.18.06.37.09.56v.02c-.28.24-.26.61-.34.93-.05.32-.11.64-.16.96-.14.24-.29.27-.47.05-.03-.53.29-1.15-.33-1.53-.6-.83-.08-1.08.57-1.26.25.02.46.11.65.28Z"/>
      <path class="cls-204" d="M28.84,74.32c-.01-.35-.03-.7-.04-1.05l.04-.05c.2-.11.36-.31.57-.4.1.06.19.06.29,0,.3.24.83.33.49.95v-.02c-.44.38-.21,1.29-.93,1.47l-.04-.03c-.13.02-.26.03-.38.04-.25-.3-.26-.61,0-.91Z"/>
      <path class="cls-239" d="M47.62,83.72c.19.03.38.05.57.08.11.08.16.17.13.27-.03.1-.06.15-.09.15-.04.32-.09.63-.13.95-.25.29-.17.76-.46,1.03l-.02-.06c-.81-.81-.36-1.61,0-2.41Z"/>
      <path class="cls-197" d="M24.73,31.03c0-.17-.01-.35-.02-.52.33-.03.68-.04.83-.46,0,0,.18-.1.18-.1.55-.12,1.15-.46,1.51.36.07.84-.34,1.24-1.06,1.37-.56,0-1.04-.23-1.45-.64Z"/>
      <path class="cls-6" d="M35.72,51.89c-.34-.2-.42-.54-.43-.92l-.03-.17c.47-.17.93-.25,1.38.07.06.14.16.18.3.11-.05.87-.65.86-1.22.91Z"/>
      <path class="cls-163" d="M32.06,111.07c-.02-.33-.03-.66-.05-1,.03-.29.06-.59.09-.89.3-.11.59-.28.91-.12.26.66.37,1.32-.13,1.92-.09.07-.18.13-.27.19-.21.11-.4.08-.56-.11Z"/>
      <path class="cls-103" d="M46.19,89.11c-.02-.72.14-1.2.94-.8,0,.41,0,.81,0,1.22-.08.25-.25.38-.5.38-.36-.13-.59-.34-.44-.81Z"/>
      <path class="cls-85" d="M31.34,65.37c.24-.06.49-.11.73-.16.15-.07.3-.05.44.05.05.13.13.16.25.11.45.17.52.46.24.86-.28.4-.59.32-.91.05h0c-.11-.44-1.26.14-.74-.9Z"/>
      <path class="cls-87" d="M31.62,113.1c.3,0,.59-.01.89-.02-.09.59.33,1.77-.96.97.02-.32.04-.64.07-.95Z"/>
      <path class="cls-175" d="M34.36,50.01c-.65-.03-1.05-.22-.41-.92.25-.27.57-.45.86-.68.11.05.22.06.33.02.53.54-.14.67-.29.97l-.04.03c-.16.12-.29.28-.39.47l-.06.1Z"/>
      <path class="cls-260" d="M35.25,91.67c.02-.39.09-.76.43-1,.64.98.97,1.9-.42,2.48,0,0-.05-.16-.05-.16.01-.44.03-.88.04-1.32Z"/>
      <path class="cls-122" d="M15.66,46.42c-.09.11-.13.24-.13.39-.11.2-.27.27-.47.21-.35-.26-.43-.69-.55-1.09-.04-.23.04-.38.25-.46.13,0,.24-.04.35-.11.32-.21.63-.25.91.07l-.02-.03c.36.52-.14.71-.34,1.01Z"/>
      <path class="cls-234" d="M33.36,124.4c.02.53.04,1.05.06,1.58h0c-.31.3-.61.3-.9-.03,0-.14,0-.29,0-.43.22-.27.12-.65.27-.95.08-.07.16-.14.24-.21.1.01.21.03.31.04Z"/>
      <path class="cls-168" d="M46.79,90.23c-.1.72.1,1.53-.5,2.11-.17-.14-.29-.32-.36-.54-.08-.69-.18-1.39.59-1.74.09.06.18.11.27.17Z"/>
      <path class="cls-151" d="M33.53,128.97c-.1.29-.29.48-.56.56l-.04-.05c-.12-.19-.25-.36-.4-.52,0-.14,0-.28,0-.42.13-.19.28-.21.44-.06.19.17.37.33.56.5Z"/>
      <path class="cls-58" d="M34.78,126.5c.04.17.07.33.1.5.08.19.04.34-.12.45l.02-.02c-.13.19-.26.2-.41.03h0c-.17-.15-.31-.34-.46-.51.15-.49.51-.47.88-.45Z"/>
      <path class="cls-195" d="M37.17,48.88c-.05-.31-.17-.8.15-.81.3,0,.23.5.18.81,0,0-.17,0-.17,0h-.16Z"/>
      <path class="cls-194" d="M43.99,100.12c0-.33-.01-.66-.02-.99h0c.15-.14.31-.13.46,0,0,.4-.06.78-.44.99Z"/>
      <path class="cls-168" d="M46.72,89.69c.12-.08.26-.13.4-.15.02.3-.13.52-.33.7,0,0-.16-.14-.16-.14-.12-.18-.09-.31.1-.4Z"/>
      <path class="cls-166" d="M59.92,50.28c-.67.16-1.11.43-.44,1.18-.54.52-.34,1.24-.41,1.88h-.81c-.49-.18-.76-.1-.55.55.11.53-.15.96-.41,1.35-.27.42-1.32.27-.77,1.28-1.62.78.73.97.2,1.58-.1.11-.19.23-.29.34-.41.09-.59.39-.64.82-.63.03-.8.43-.72,1.04-.37.08-.73.16-1.25.28-.3-.86,1.16-2.01-.23-2.7h0c-.35-.34-.43-.77.07-.9.79-.2.94-.59,1.29-1.44.56-1.38.32-2.86.94-4.13.31-.92,3.06-.26,1.37-2.48h0c-.15-.17-.29-.35-.45-.5h0c.13-1.55.28-1.65,1.37-1.01.09.38.24.3.4.05.49.52.97.73,1.43-.03-.03.95-.07,1.91-.1,2.86Z"/>
      <path class="cls-121" d="M37.07,94.6c.01-.12,0-.24-.03-.36-.42-.44-1.5-.57-.64-1.61.15-.14.32-.25.51-.33.19-.06.38-.1.58-.12.28-.02.57,0,.86-.01.28-.03.54-.13.82-.16.34.17.59.11.7-.33.97-.05,1.49-.22,1.91-1.56.34-1.11,1.02-2.54,2.14-3.34.1-.06.2-.13.3-.19.37.03.64.24.82.59-.14,1.08-.38,2.1-1.44,2.58-.2.44-.7.77-.46,1.38.13.14.17.31.13.51-.3.25-.2.51,0,.77-.05.39-.2.75-.31,1.13-.14.52-.38.93-.87,1.12-.44.21-.83.51-1.25.74-.18.07-.38.1-.57.1-.37-.02-.68-.28-1.05-.31-.15,0-.31.02-.45.06,0,0-.19.03-.19.03,0,0,.2.05.2.04.15-.01.3,0,.44.06.15.07.26.17.35.32.02.09.03.17.05.25-.01.09-.03.17-.04.25-.07.16-.15.3-.24.44-.04.07-.09.14-.14.21-.12.22-.21.46-.28.71-.06.27-.14.53-.28.77-.17.24-.37.43-.63.55-.18.05-.36.06-.55.03-.27-.1-.46-.3-.57-.59-.01-.09-.03-.19-.04-.28,0-.09.02-.18.02-.28.03-.17.08-.34.12-.51.02-.16.03-.33.03-.49-.04-.16-.09-.31-.16-.46-.05-.07-.08-.14-.13-.22-.16-.31-.34-.61-.12-.97h.03c.22-.11.33-.32.45-.52Z"/>
      <path class="cls-277" d="M27.93,86.75c-.33-.06-.35.24-.44.46-.16.17-.34.22-.55.18-.79-.49-1.66-.85-2.23-1.68,1.09-.69,2.29-1.18,2.45-2.91.07-.79,1.12-.68,1.69-1.05.81-.52,1.91-.59,1.96-2.05.02-.61.61-.91,1.19-.93,1.21-.04,2.42-.04,3.35,1.02-.12.65-.85.35-1.09.82-1.67.49-3.14,1.36-4.27,2.81-.23.3-.38.9-.62.93-1.45.2-1.09,1.32-1.09,2.28l-.21-.04-.15.16Z"/>
      <path class="cls-53" d="M19.68,94.16c-.31-.2-.61-.22-.92,0-1.75.09-3.24-1.01-4.91-1.29-.08-.01-.1-.44-.16-.68.41-.04,1.01.63,1.17.08.58-2.02,1.38-.33,2.08-.23.1.03.19.07.29.11,1.27.59,2.32.63,2.58-1.24.68-1.06,1.55-1.74,2.8-1.65,1.42,1.03,1.82,2.16.31,3.5,0,.7.21,1.58-.93,1.4-.44-.63-.91.36-1.36-.03l-.11.07c-.12-.19-.25-.19-.39-.03h-.02c-.14.16-.29.17-.44.02Z"/>
      <path class="cls-157" d="M47.19,81.74c.03.2.06.41.09.61-.2.29-.41.57-.61.86l-.08.15s-.16-.01-.15,0c.02.01-.05-.11-.05-.11,0,0-.06.11-.06.12.1.08.14.17.14.3,0,.22-.08.41-.17.59h0c-.25.32-.67.17-.96.4l-.22.07h-.23c-.05-.42-.03-.85-.17-1.22-.67-1.79-.69-1.79,1.21-2-.06-.74-.83-1.16-.69-2.21.11-.47,1.02,1.05,1.2-.29.25-1.97,1.5-2.9,3.36-2.75.09.04.19.09.28.13,0,.22-.06.43-.18.61-.43.45-.81.96-1.36,1.25-.34.24-.44.6-.45,1.01-.26.54-.21,1.18-.48,1.71-.08.3-.23.55-.44.77Z"/>
      <path class="cls-236" d="M22.76,89.63c-1.09.15-2.11.44-2.65,1.64-.88.87-1.79,1.61-3.08,1.05,0-.11-.03-.2-.09-.29,1.14-.75,1.79-2.23,3.25-2.5.1-1.88,1.89-2.14,2.7-3.33.14-.18.32-.31.46-.49.46,0,.91,0,1.37,0,.95.17,1.81.49,2.3,1.49-.34.5-.85.63-1.38.71-.21-.01-.41-.07-.6-.17-1.52-.93-1.48.68-1.96,1.42-.03.22-.14.38-.32.47Z"/>
      <path class="cls-164" d="M36.69,92.8c-.49.66.36.93.35,1.44-.59-.37-1.79.44-1.79-1.08.61-.73.66-1.58.42-2.48.03-.28.07-.55.11-.82.04-.08.07-.16.11-.24.16-.08.3-.05.43.07.03.14.1.36.24.26.25-.18.06.15-.09-.14.06-.18.17-.3.34-.37.18-.04.35-.04.52,0,.27.12.42.35.45.66,0,.21-.07.38-.21.51-.11.18-.22.35-.33.53-.03.3-.16.57-.29.83-.13.26-.25.52-.24.83Z"/>
      <path class="cls-42" d="M57.27,48.91c.64.05,1.48-.15,1.53.88.04.73-.56,1.01-1.18,1.22-.57.19-1.12.42-1.72.38.46-.83.92-1.65,1.37-2.48Z"/>
      <path class="cls-121" d="M44.89,84.73c-.02.12-.04.25-.05.37-.26.56-.37,1.21-.87,1.61l-.06.06c-.53-.81-1.06-1.62-1.65-2.52,1.14-.56,1.79.55,2.64.47Z"/>
      <path class="cls-20" d="M42.17,70.32c-.12-.66-.04-1.23.58-1.57.1-.18.21-.34.35-.49,0,0-.05.01-.05.01.41.32.83.64,1.24.95-.49.95-1.2,1.25-2.11,1.09Z"/>
      <path class="cls-209" d="M37.1,89.68c-.15,0-.3,0-.46,0-.26-.24-.23-.56-.19-.88.15-.3.44-.41.68-.58.14-.06.28-.13.41-.19l.18-.14-.19-.12-.07-.06c-.09-.09-.12-.18-.09-.27.03-.09.06-.13.09-.13.45-.05.91-.1,1.36-.15.62.47-.42,1.09.12,1.57-.07.54-.49.75-.85,1-.34,0-.66-.42-1.02-.05Z"/>
      <path class="cls-86" d="M45.31,64.31c-.55-.18-.54-.58-.37-1.05.15-.15.3-.3.45-.45l-.07.04c.18-.19.26-.46.44-.66.29-.23.61-.32.96-.26.68-.03,1.11.23.5.9-.54.6-1.27,1-1.91,1.49Z"/>
      <path class="cls-261" d="M51.8,63.85c-.47-.72-.16-1.46.09-2.1.2-.52.59-.31.82.12.09.52.12,1.03.07,1.56-.24.37-.53.63-.98.42Z"/>
      <path class="cls-12" d="M38.97,88.74c-1.34-.41,0-1.05-.12-1.57.19-.31.38-.61.57-.92.86-.13.61.47.53.96-.33.51-.66,1.02-.99,1.54Z"/>
      <path class="cls-261" d="M53.62,65.82c-.11.09-.24.16-.38.19-.17-.86-1.1-1.01-1.4-1.75.62-.4,1.22-.41,1.81.08h-.05c.01.48.02.98.03,1.48Z"/>
      <path class="cls-16" d="M39.29,85.32c-.44.07-1.06.75-1.23-.25-.14-.79.62-.45.94-.66.13-.08.28-.12.42-.18.25.2.24.47.2.76-.02.21-.13.33-.33.32Z"/>
      <path class="cls-172" d="M39.85,91.68c.01.45,1.04.52.47,1.07-.52.51-.84-.49-1.34-.54-.13-.1-.18-.21-.15-.33.03-.12.06-.18.1-.18.31,0,.62-.01.93-.02Z"/>
      <path class="cls-147" d="M53.64,64.35c-.6-.03-1.2-.05-1.81-.08h0c-.12-.08-.17-.17-.14-.27.03-.1.06-.16.1-.16h0c.34-.1.51-.6.95-.5.09,0,.18,0,.27-.01.21.34.41.67.62,1.01Z"/>
      <path class="cls-16" d="M39.95,87.2c-.08-.39.01-.88-.53-.96-.04-.31-.09-.62-.13-.93,0,0,.13-.12.13-.12.18-.22.34-.21.45.07.26.64.83,1.25.09,1.94Z"/>
      <path class="cls-108" d="M39.87,85.26c-.15-.02-.3-.05-.45-.07,0-.32,0-.64,0-.96.37-.16.79-.8,1.09-.28.3.52-.48.82-.64,1.31Z"/>
      <path class="cls-126" d="M39.81,80.79c.19-.12.37-.26.56-.37.29-.17.59-.16.69.22.03.12-.21.42-.37.48-.27.1-.58.07-.87.09-.13-.09-.17-.18-.13-.27.04-.09.08-.14.13-.14Z"/>
      <path class="cls-224" d="M53.02,63.33h-.14s-.14.01-.14.01c-.36-.48-.21-.97-.04-1.46.11.08.22.08.34.02.24.08.4.27.54.47-.04.43-.27.72-.57.96Z"/>
      <path class="cls-35" d="M46.72,61.93c-.24.49-.66.47-1.08.44h-.18c-.02-.14-.03-.3-.01-.45.25-.1.31-.34.35-.59.3-.01.6-.03.9-.04,0,.21.01.43.02.64Z"/>
      <path class="cls-169" d="M49.01,58.26c-.1.16-.18.46-.33.51-.28.09-.6.01-.59-.45,0-.28.18-.4.41-.47.3-.09.38.14.51.42Z"/>
      <path class="cls-261" d="M50.28,63.52c.13.06.33.09.36.19.04.1-.09.27-.15.41-.13-.06-.33-.09-.37-.19-.04-.1.09-.27.15-.41Z"/>
      <path class="cls-261" d="M51,65.28c-.12.2-.29.34-.51.23-.19-.1-.34-.32-.18-.5.11-.12.37-.11.56-.09.17.02.21.19.12.36Z"/>
      <path class="cls-98" d="M45.68,66.31c-.1.09-.2.26-.3.26-.26,0-.39-.21-.29-.47.04-.09.26-.17.37-.14.09.03.14.22.21.35Z"/>
      <path class="cls-72" d="M51.26,76.19c-.27.03-.55.06-.82.1-.14.21-.28.21-.4-.02,0,0-.21,0-.21,0,.06-.16.12-.33.18-.49.33-.03.64-.13.83-.46.78-.07.42.5.42.87Z"/>
      <path class="cls-270" d="M36.64,91.61c.19-.16.38-.31.57-.47.36.03.66.16.82.55.14.43-.07.56-.42.56-.39-.1-.8-.16-.97-.64Z"/>
      <path class="cls-201" d="M37.1,89.68c.37-.63.71-.64,1.02.05-.05.13-.1.27-.16.4-.12.2-.24.21-.37.01-.16-.15-.32-.3-.49-.46Z"/>
      <path class="cls-191" d="M39.81,80.79c.02.14.02.28,0,.41-.29.07-.73.49-.8-.08-.06-.52.48-.33.79-.33Z"/>
      <path class="cls-267" d="M42.43,72.68c.1.08.32.16.32.24,0,.25-.21.34-.41.32-.12-.01-.33-.15-.33-.22.01-.24.2-.33.42-.34Z"/>
      <path class="cls-46" d="M53.97,48.56c-.15-.35-.1-.64.29-.66.27-.01.28.27.28.5-.19.05-.38.1-.57.15Z"/>
      <path class="cls-270" d="M38.51,92.67c-.04-.31-.08-.62-.12-.93.18-.02.36-.03.54-.05.02.17.03.34.05.52-.06.27-.2.44-.47.46Z"/>
      <path class="cls-270" d="M38.93,90.72c.37.14.39.29,0,.44-.09-.1-.12-.19-.09-.29.03-.1.06-.15.09-.15Z"/>
      <path class="cls-133" d="M38.93,90.72c0,.15,0,.29,0,.44-.11-.07-.23-.15-.34-.22.11-.07.23-.14.34-.22Z"/>
      <path class="cls-270" d="M37.59,90.14c.12-.02.25-.02.37-.01,0,.3-.15.44-.41.47,0-.16.02-.31.04-.46Z"/>
      <path class="cls-277" d="M23.35,85.71c-.15.17-.3.33-.46.49.15-.16.3-.33.46-.49Z"/>
      <path class="cls-261" d="M53.1,66.76c-.13.03-.26.06-.38.08,0-.27.13-.44.35-.53.02.15.03.3.03.45Z"/>
      <path class="cls-261" d="M51.8,63.84c.03.14.05.29.04.43-.38-.1-.4-.25-.04-.43Z"/>
      <path class="cls-261" d="M53.59,62.37c-.18-.16-.36-.31-.54-.47.29.01.47.17.54.47Z"/>
      <path class="cls-42" d="M56.82,48.41c.15.17.3.33.45.5-.15-.17-.3-.33-.45-.5Z"/>
      <path class="cls-136" d="M21.11,54.78c1.46.21,3.03.12,4.36-.19,2-.46,3.8.38,5.69.17.31-.03.67.05.7.4.03.29-.14.85-.28.87-.81.14-1.11,1.02-1.79,1.3-.26.11-.63.13-.77-.21-.14-.35.57-1.02-.27-1.11-.76-.09-1.61.2-2.02.8-.43.62-1.14,1.11-1.21,2-.25.14-.43,0-.58-.18-.36-.14-.11.17-.15.27-.31,1.6-1.75.06-2.3,1-.28.28-.56.55-.99.42-.92-.66-.99-1.31.01-1.96.28-.15.78.24.82-.48.06-1.06-.77-1.37-1.36-1.68-.44-.23-.91.39-1.15.89-.23.5-.38,1.05-.57,1.57-.5,1.38-.52,1.38-1.82.17-.26-.26-.15-.53-.03-.8.1-.16.23-.3.37-.42.38-.33-.29-.24-.16-.47-.07-.31-.03-.6.12-.87.33-.39.78-.57,1.19-.83.32-.22.58-.5.81-.82.12-.16.27-.29.44-.38.46-.1.63.37.95.55Z"/>
      <path class="cls-30" d="M19.27,79.21c-1.36-.45-2.65-.59-3.62.9-.08.12-.42.05-.64.07.16-.31.71-.5.34-.98-.43-.55-.91-1.05-1.37-1.57q1.6-1.59,3.31-.78c.27.13.55.25.84.32,1.49.38,1.49.37,1.15,2.05Z"/>
      <path class="cls-225" d="M23.47,65.41c-.3.8-.5,1.64-1.66,1.02-.44-.24-.24.53-.38.81-.1.25-.24.27-.4.07-.04-.63.16-1.3-.21-1.89-.64-.16-.77.46-1.04.79-.74.92-1.94.18-2.74.91-.02.02-.38-.28-.42-.47-.04-.19.1-.56.24-.61,1.3-.46,1.96-1.7,2.86-2.65v.02c.24-.04.5-.07.76-.11.36-.25.56-.03.73.29.07.41.02.88.46,1.1.52.46,1.3.19,1.79.74Z"/>
      <path class="cls-249" d="M22.49,73.81c-.7.54-1.81-.26-2.4.95-.12.25-1.33.21-1.8-.45-.36-.5-1-.87.06-1.67,1.4-1.05,2.83-.42,4.21-.71.34-.07.28.5.39.78.28.58-.25.76-.46,1.1Z"/>
      <path class="cls-54" d="M3.62,71.77c.15-.33.31-.66.47-.99,1.69.72,2.62.73,4.18.04.13,0,.26,0,.39,0,.51.35,1.01.7.48,1.46-.23.07-.47.12-.38.48.18.35.2.7-.01,1.05-1.25,1.15-1.51-.78-2.38-.97-.32-.07-.56-.24-.89-.04-.48-.64-1.29-.56-1.86-1.01Z"/>
      <path class="cls-177" d="M25.2,58.4c.11.14.21.28.32.41.03.32-.33,1.12.05.89,1.16-.71,2.11,1.19,3.18.13.16-.16.47,0,.5.25.03.2-.07.47-.2.64-.18.24-.44.42-.66.63-.46.17-1.03-.05-1.38.49-1.48-.72-2.77-1.97-4.53-1.94.27-.65.83-.55,1.32-.55.74,0,.61-.43.43-.91.31-.34.62-.39.95-.04Z"/>
      <path class="cls-255" d="M13.69,59.8c.16-.32.46-.49.74-.37.58.24,1.45-.54,1.75.47.24.84-.73.85-1.04,1.34-.2.32-.47.63-.88.66-.34.25-.67-.01-1-.04-.44.11-.85.16-.94-.5.07-.27.33-.33.49-.5l.03-.02c.14-.16.29-.32.44-.47v-.03c.16-.17.31-.34.42-.54Z"/>
      <path class="cls-18" d="M24.61,66.67c.03-.35.05-.7.08-1.05,0-.97-1.5-.09-1.35-1.26,1.36-.09,2.64.41,3.98.57-.08,1.62-1.65,1.4-2.15,2.37-.48.1-.71-.06-.55-.62Z"/>
      <path class="cls-94" d="M23.34,64.36c.27.64,1.29.35,1.35,1.26-.41-.07-.81-.14-1.22-.21-.72.04-1.71,1.11-1.97-.6-.12-.11-.16-.21-.11-.31.04-.1.09-.15.13-.15.53-.09.47-.78.87-1,.32-.17.64-.44,1-.08.36.37-.2.71-.04,1.08Z"/>
      <path class="cls-144" d="M11.87,80.21c-.3.63-.85.52-1.36.53-.17.05-.24.17-.2.36.02.08.09.11.18.11-.18.45-.54.52-.93.53-.15.24-.3.25-.45,0-.79-.61-.36-1.71-.84-2.44.19-.35.3-.83.84-.53.72.93,1.56,1.57,2.75,1.45Z"/>
      <path class="cls-264" d="M22.49,73.81c.15-.37.31-.73.46-1.1,1.23-.1,2.49-.43,3.57.58-.45.34-.89.41-1.33-.02-.82.64-1.69,1.02-2.7.54Z"/>
      <path class="cls-148" d="M9.13,72.27c.3-.66-.09-1.06-.48-1.46.44,0,.89-.01,1.33,0,.62.01,1.03.31.87,1.03-.13.59-.48,1.01-1.13.76-.21-.08-.39-.22-.59-.33Z"/>
      <path class="cls-113" d="M11.89,65.34c-.55.6-1.19,1.06-2.19,1.53.25-1.55,1.13-2.18,1.92-2.88.01,0,.18.2.28.31,0,.35.29.7-.01,1.04Z"/>
      <path class="cls-226" d="M21.52,58.36c-.34.65-.66,1.3-.01,1.96-1.25-.27-1.74-.98-1.27-1.98.37-.79.85-.28,1.28.02Z"/>
      <path class="cls-280" d="M9.59,60.88c-.16-.02-.31-.03-.47-.05-.24-.07-.4-.23-.46-.51,0-.15.03-.3.08-.44.15.02.28-.03.39-.15.54-.29.03-1.04.5-1.36v.02c.09-.15.22-.19.38-.13l.09.22c.28.13.62.12.86.37-.27.83-.57,1.62-1.37,2.03Z"/>
      <path class="cls-221" d="M9.12,78.76c-.39-.02-.59.29-.84.53,0-.86-.33-1.08-1.01-.59-.34-.45-.36-.91-.02-1.38q1.9-.2,1.86,1.43Z"/>
      <path class="cls-112" d="M5.45,81.7c-.14.45-.49.52-.86.55-.65-.49-1.46-.89-.98-2.03.17-.15.34-.3.51-.45.47-.15.61.09.55.55.28.44.14,1.16.77,1.37Z"/>
      <path class="cls-22" d="M13.2,55.76c.02.2.03.4.04.6-.57.34-1.15.62-1.83.5.19-.53-.35-1.6.86-1.39.35-.05.63.16.92.29Z"/>
      <path class="cls-205" d="M15.59,73.03c-.13-.07-.34-.1-.38-.21-.21-.59.22-.9.55-1.19.18-.16.52-.01.49.23-.06.46-.18.95-.65,1.17Z"/>
      <path class="cls-49" d="M25.19,73.27c.44,0,.89.01,1.33.02-.24.92-.91,1.36-1.61,1.82-.44-.75.42-1.2.28-1.84Z"/>
      <path class="cls-221" d="M6.4,78.71c-.07,0-.19.03-.22,0-.34-.46-1.2-.77-.91-1.38.33-.68,1.05-.07,1.61.02.11.57-.13.99-.48,1.37Z"/>
      <path class="cls-132" d="M16.05,66.43c-.71.77-1.24.23-1.77-.12-.05-.04-.03-.41.04-.45.74-.38,1.22.07,1.73.57Z"/>
      <path class="cls-83" d="M21.58,77.83q.5,1.48-1,1.37c.07-.68.14-1.37,1-1.37Z"/>
      <path class="cls-216" d="M8.73,73.8c0-.35,0-.7.01-1.05.26.15.5.34.77.45.3.11.84-.05.62.59-.13.39-.47.22-.76.11-.2-.08-.43-.07-.65-.1Z"/>
      <path class="cls-114" d="M13.44,72.33c.03.34-.23.32-.42.39-.47.15-.72-.1-.82-.56-.06-.29.1-.46.36-.46.41,0,.72.22.88.64Z"/>
      <path class="cls-34" d="M12.29,64.22c.44-.55.83-.36.96.23.08.38.63.86.03,1.24-.19.12-.4-.12-.47-.37-.3-.29-.5-.64-.51-1.09Z"/>
      <path class="cls-19" d="M6.4,78.71c-.26-.63.16-.98.48-1.37.12-.03.25-.04.37-.02.13.46.15.92.02,1.38-.29,0-.58,0-.88,0Z"/>
      <path class="cls-153" d="M23.86,78.18c-.36,0-.73-.01-1.09-.02-.17-.66.24-1.02.63-1.38.4-.18.55.08.63.44,0,.33.02.67-.16.97Z"/>
      <path class="cls-285" d="M28.86,64.84c.76-.17,1.12.09.91.98-.49-.12-1.64.48-.91-.98Z"/>
      <path class="cls-50" d="M12.29,64.22c.65.1.54.62.51,1.09-.3.01-.6.02-.9.03,0-.35-.48-.7.01-1.04.14.04.26,0,.38-.08Z"/>
      <path class="cls-278" d="M13.24,61.86c.36-.64.67-.06,1,.04-.34.06-.73,1.69-1-.04Z"/>
      <path class="cls-183" d="M21.04,67.31c.12-.09.26-.12.4-.07.02.18.04.37.06.55-.15.03-.3.06-.45.07-.27,0-.71.34-.78-.07-.1-.6.41-.5.77-.48Z"/>
      <path class="cls-248" d="M11.74,74.12c-.06-.13-.2-.27-.18-.38.05-.27.25-.36.46-.2.08.07.13.31.09.4-.05.1-.24.12-.37.18Z"/>
      <path class="cls-214" d="M28.84,74.32c0,.3,0,.61,0,.91-.56.44-.82.11-.99-.45.12-.28.39-.31.6-.43.13-.03.27-.04.4-.03Z"/>
      <path class="cls-135" d="M17.85,76.18c-.23-.07-.36-.23-.28-.48.03-.1.22-.2.32-.19.23.03.35.24.3.48-.02.09-.22.13-.34.19Z"/>
      <path class="cls-230" d="M23.84,77.31c-.15-.18-.29-.36-.44-.54.43-.31.85-1.05,1.31-.03-.16.16-.31.33-.38.56l-.02.02c-.16.16-.31.16-.46,0Z"/>
      <path class="cls-254" d="M4.67,80.33c-.11-.28-.27-.48-.55-.55.23-.68.65-.59.96-.17.37.49-.02.64-.41.72Z"/>
      <path class="cls-15" d="M20.41,76.59c.09-.08.19-.22.28-.22.25.01.33.21.27.46-.05.2-.18.26-.33.12-.1-.09-.15-.24-.22-.36Z"/>
      <path class="cls-204" d="M28.44,74.34c-.12.27-.33.4-.6.43-.21.02-.49.05-.52-.23-.04-.33.26-.33.46-.33.22,0,.44.08.65.13Z"/>
      <path class="cls-100" d="M24.61,66.67c.19.21.37.41.55.62.02.16.01.31-.03.47-.28-.02-.61.25-.82-.08-.28-.43.09-.71.3-1.01Z"/>
      <path class="cls-246" d="M21.11,63.86c-.11-.31-.33-.48-.62-.58.2-.36.48-.58.85-.34.32.2.13.54.13.83-.08.23-.2.26-.36.09Z"/>
      <path class="cls-219" d="M17.13,62.06c-.12.04-.27.14-.35.1-.09-.05-.18-.24-.17-.36.02-.19.18-.24.31-.11.09.09.14.24.21.36Z"/>
      <path class="cls-286" d="M17.64,60.83c-.12-.06-.34-.12-.34-.18,0-.29.23-.29.41-.26.11.02.19.16.29.24-.12.07-.24.13-.36.2Z"/>
      <path class="cls-45" d="M10.96,58.85c-.33-.01-.65-.04-.86-.37.16-.07.32-.14.48-.2.23.11.47.21.38.57Z"/>
      <path class="cls-278" d="M12.79,60.85c-.16.17-.33.33-.49.5-.37-.78.3-.36.49-.5Z"/>
      <path class="cls-76" d="M21.11,63.86c.12-.05.24-.08.36-.09.01.19.03.39.04.58.02.15.01.3-.02.45-.5-.14-.42-.55-.39-.94Z"/>
      <path class="cls-141" d="M30.65,69.38c-.19.38-.52.42-.87.41.12-.57.48-.53.87-.41Z"/>
      <path class="cls-208" d="M23.84,77.31c.15,0,.31,0,.46,0,.05.16.04.32-.03.47.02.32-.16.4-.41.39,0-.29-.02-.58-.02-.87Z"/>
      <path class="cls-165" d="M9.12,81.73c.15-.03.3-.03.45,0,.04.3.15.62-.15.83-.14.09-.25-.02-.29-.23,0-.2,0-.4,0-.6Z"/>
      <path class="cls-208" d="M24.33,77.3c.01-.28.16-.44.38-.56.01.3-.1.49-.38.56Z"/>
      <path class="cls-117" d="M26.35,76.32c.05.06.1.12.15.18-.06.05-.11.15-.17.15-.05,0-.1-.11-.15-.17.06-.05.11-.11.17-.16Z"/>
      <path class="cls-115" d="M19.74,63.38c-.08-.08-.16-.17-.24-.25.05.01.12,0,.15.04.04.06.06.14.08.22,0,0,.01-.01.01-.01Z"/>
      <path class="cls-278" d="M13.26,60.37c-.04.28-.18.44-.44.47.15-.16.3-.31.44-.47Z"/>
      <path class="cls-278" d="M13.69,59.8c-.03.27-.17.45-.41.54,0-.3.16-.47.41-.54Z"/>
      <path class="cls-146" d="M44.59,13.05c.61.53.1,1.55.75,2.06-.02,1.22.36,2.41-.78,3.5-.47.45.13,1.76.81,2.44-.05,1.46-.67,2.71-1.43,3.83-.36.53-.38,1-.37,1.56.51.43,1.45.71.51,1.67l-.05.03c-.31.13-.73.03-.89.48.04.76-.25,1.52.38,2.26.44.51-.83,1.2,0,2.13.53.59-.37,1.44-1.44,1.5-.86.05-1.58.95-2.54.6-1.3-1.66-1.51-3.99-2.9-5.59-.64-.6-2.01-.31-1.94-1.78.81-.61,1.23,1.06,2.01.31.23.24.37.24.4-.15.06-.05.11-.11.18-.16.63-.42,1.69.77,1.79-.04.14-1.12,1.08-2.01.71-3.22-.21-.69-.4-1.4-.59-2.1,1.23-.48,2.19-1.6,3.58-1.03.1.04.38-.25.48-.45.18-.35.01-.71-.32-.73-1.41-.11-1.08-1.01-.77-1.89.45-1.28.53-2.79,1.84-3.54.66-.38-.15-1.34.58-1.69Z"/>
      <path class="cls-274" d="M36.63,29.53c.98-.01,2.01-.25,1.59,1.59-.13.58.07,1.85.84,2.07,1.39.42.58,1.21.47,1.92l-.02.02c-1.13.55-2.31.32-3.47.28-.15.13-.15.26,0,.4.07.06.14.09.22.09,1.35.27,2.17.93.87,2.24-.76.77-.04,1.8-.68,2.48-.19.06-.39.09-.58.07-.18-.06-.35-.15-.5-.27-.05-.08-.1-.16-.15-.24,0-.33.32-.13.03-.19-.16-.03-.22.21-.3.36-.16.37-.15.75-.07,1.14.08.13.07.24-.04.35.12.24.12.47-.02.71.07.15.06.28-.05.41-.13.16-.29.25-.48.28-.61-.04-.99-.5-1.43-.86-.29-.23-.6-.38-.94-.5-.17-.06-.33-.14-.49-.24-.42-.27-.56-.75-.78-1.17-.13-.2-.3-.58-.39-.56-1.04.21-1.83.14-1.96-1.32-.02-.28-.71-.17-.68.09.15,1.6-.68.9-1.09.5-.75-.73-2.13-.85-1.83-2.54,1.17-.09,2.73,1.16,4.08-.27.27-.19.54-.37.86-.46.61-.15,1.21-.35,1.83-.47,1.64.06,1-1.47,1.37-2.3.1-.13.25-.18.38-.25.35-.19,1.68.69.81-.85.09-.33.26-.57.57-.67.51.05,1.05.33,1.5-.17.24-.25.39-.56.48-.91.01-.09.02-.17.04-.26,0-.16,0-.32,0-.48Z"/>
      <path class="cls-232" d="M32.07,27.51c.37.25.43.59.23.99-.21.41-.13.74.21,1.01.63.65.56,1.44.36,2.25-.2.51-.55.84-1.05.97-.37.02-.65-.13-.83-.49-.27-1.15-.17-2.29.12-3.43.15-.58.35-1.13.96-1.31Z"/>
      <path class="cls-214" d="M26.12,31.54c.83-.14.8-.81.78-1.48.16-.19.34-.22.55-.08.13.14.27.27.4.41.07.03.14.07.22.1.06.16.07.33.04.5-.08.25-.18.48-.28.72-.06.16-.13.32-.21.47-.08.16-.17.3-.28.43-.11.13-.23.24-.37.33-.68.03-.68.94-1.24,1.12-1.13-.5-1.15-.72-.23-2.18.1-.07.19-.15.29-.22.11-.05.22-.09.33-.14Z"/>
      <path class="cls-139" d="M32.43,31.96c.28-.8-.26-1.64.07-2.44h.02c.26-.3.68-.21.95-.46.17.14.34.29.51.43.35.85.38,1.67-.1,2.48-.15.36-.38.61-.75.69-.37-.07-.6-.31-.7-.7Z"/>
      <path class="cls-202" d="M32.59,23.6c.38.11.75.21,1.13.32.66-.32,1.42-1.35,1.81.29,0,.57-.35.92-.67,1.29-.15.02-.31.03-.46.04-.39.33-.7.05-1.03-.14-.38-.3-.79-.55-1.02-1.03-.05-.2-.04-.4.02-.59.07-.06.15-.12.22-.18Z"/>
      <path class="cls-158" d="M27.44,29.99c-.18.02-.36.05-.55.08-.44.5-.8.16-1.17-.13.04-.17,0-.31-.14-.41-.27-.46-.15-.98-.16-1.47.02-.2.1-.38.22-.54h0c1.05-.8.96.7,1.51.89.12.01.24.04.35.09.23.35.23.7,0,1.05,0,.15-.03.3-.06.44Z"/>
      <path class="cls-218" d="M32.95,12.08c.2-.34.38-.75.78-.81.56-.09,1.08.21,1.31.71.24.53-.24.84-.63,1.1-.19.12-.34.3-.51.46-.14.21-.3.24-.48.05l.02.02c-.12-.15-.19-.32-.22-.52-.01-.28.02-.58-.14-.83l-.12-.18Z"/>
      <path class="cls-214" d="M27.14,28.41c-.6-.1-.76-1.09-1.51-.88.17-.93-.04-2.17,1.41-2.07,0,0,0,.03,0,.03.38.45.42,1.02.46,1.6-.19.42-.53.78-.37,1.32Z"/>
      <path class="cls-39" d="M34.86,25.5c-.04-.41.15-.71.42-.96.26-.31.22-.67.17-1.04,0-.19.03-.36.12-.53.2-.16.45-.27.54-.56.06-.25.19-.42.45-.44.19-.11.36-.08.52.07.2.34.07.66-.04.99-.14.17-.24.37-.3.59l-.1-.07.1.06c-.31.09-.48.29-.43.66.12,1.26-.51,1.45-1.45,1.22Z"/>
      <path class="cls-32" d="M32.55,24.06c.3.32.6.65.91.97.19.34,0,.51-.24.65-.25-.11-.49-.33-.76-.07-.42-.35-.88-.15-1.33-.13-.04-.37-.06-.75-.4-.98,0-.13,0-.27.02-.4.3-.5.75-.54,1.24-.46.22.09.42.22.58.4Z"/>
      <path class="cls-55" d="M34.03,23c-.39-.53-.82-.98-1.51-.95.04-.53-.13-1.15.53-1.41.23.67,1.01.74,1.28,1.38.32.65.91.49,1.42.54.12.17.11.32-.03.47l-.07-.02c-.54.43-1.09.43-1.63,0Z"/>
      <path class="cls-276" d="M32.07,27.51c-.18.55-.36,1.1-.54,1.64-.44.32-.88.3-1.32,0-.75-1.22.69-1.33.89-2.08.41-.08.74.05.97.43Z"/>
      <path class="cls-65" d="M36.64,31.48c-.62.61-1.25,1.32-1.93.08-.1-.2-.1-.4-.01-.61.38-.54,1.06-.52,1.5-.94.15,0,.3,0,.45,0h0c.32.5.32.99,0,1.47Z"/>
      <path class="cls-247" d="M31.1,27.08c.16.88-.96,1.07-.86,1.92-.27.4-.64.43-1.05.37-.19-.06-.35-.18-.47-.35.56-.98,1.38-1.58,2.38-1.94Z"/>
      <path class="cls-146" d="M36.19,30.02c-.12.9-.72.99-1.38.98-.39-.21-.74-.44-.4-.99.6-.49,1.19-.41,1.78.02Z"/>
      <path class="cls-41" d="M33.07,25.62c.27-.09.37-.31.39-.58.31.17.62.34.94.51-.06.65-.38,1.06-.98,1.12-.38.03-.45-.31-.45-.65-.14-.14-.17-.24-.09-.31.06-.05.12-.08.2-.08Z"/>
      <path class="cls-89" d="M34.41,30c.13.33.27.66.4.99-.04.19-.07.38-.11.57-.14.16-.27.31-.41.47-.27.25-.53.24-.77-.06.22-.81.57-1.6.47-2.49.14.17.28.34.42.51Z"/>
      <path class="cls-155" d="M32.51,15.59c.14-.05.29-.08.44-.08.17-.13.31-.11.43.08-.03.56-.39.83-.78,1.09-.31.05-.45.76-.91.29-.04-.11-.1-.22-.16-.33-.13-.14-.16-.31-.11-.5.09-.16.22-.27.38-.35.24-.05.51.02.71-.2Z"/>
      <path class="cls-262" d="M33.37,15.59l-.22.02s-.2-.11-.2-.11c.07-.39.13-.78.55-.93.28-.29.56-.28.84-.01-.22.45-.36.99-.96,1.02Z"/>
      <path class="cls-119" d="M34.33,22.02c-.52-.36-1.38-.34-1.28-1.38.53.34,1.45.27,1.28,1.38Z"/>
      <path class="cls-40" d="M35.66,10.19c.12.07.31.11.34.21.07.24-.06.45-.3.48-.11,0-.29-.1-.33-.21-.09-.25.04-.42.29-.48Z"/>
      <path class="cls-93" d="M34.33,14.57c-.28,0-.56,0-.84.01-.02-.33-.05-.67-.08-1,.16-.02.32-.03.48-.05.33.26.6.54.43,1.04Z"/>
      <path class="cls-101" d="M36.13,17.2c.25.04.43.17.36.47-.03.11-.19.25-.3.25-.26,0-.42-.17-.36-.46.02-.11.19-.18.29-.26Z"/>
      <path class="cls-29" d="M27.51,27.09c-.57-.39-.49-1-.46-1.6.3.04.6.08.9.12,0,.15-.01.29-.05.44-.27.28-.19.71-.4,1.01v.03Z"/>
      <path class="cls-251" d="M37.1,27.9c.4.19.58.47.27.9-.15.21-.36.28-.56.13-.31-.24-.1-.58-.1-.88.15,0,.28-.06.4-.15Z"/>
      <path class="cls-266" d="M37.72,24.49c-.12.1-.25.29-.34.27-.25-.07-.25-.33-.14-.52.05-.09.25-.11.38-.09.22.03.25.17.1.35Z"/>
      <path class="cls-9" d="M33.37,18.76c-.11.07-.23.22-.32.2-.26-.05-.31-.27-.15-.48.07-.09.23-.1.35-.15.04.14.08.29.11.43Z"/>
      <path class="cls-262" d="M31.68,16.97c.3-.1.6-.19.91-.29-.03.3-.07.66-.35.75-.29.1-.5-.13-.56-.47Z"/>
      <path class="cls-218" d="M32.61,9.81c.13-.04.26-.09.38-.16.04.39.02.75-.35.96,0-.27-.01-.53-.02-.8Z"/>
      <path class="cls-7" d="M33.07,25.62c-.12.1-.15.23-.1.39-.17-.13-.34-.26-.51-.38.2-.44.41-.49.61,0Z"/>
      <path class="cls-214" d="M27.51,27.05c-.02-.41.03-.78.4-1.01,0,.4-.02.79-.4,1.01Z"/>
      <path class="cls-214" d="M27.5,29.55c0-.35,0-.7,0-1.05.5.35.39.7,0,1.05Z"/>
      <path class="cls-214" d="M28.28,29.9c.15-.3.29-.59.44-.89.08.04.17.06.26.06.22.43.09.76-.25,1.03-.2.05-.35-.01-.45-.2Z"/>
      <path class="cls-232" d="M33.48,29.05c-.25.32-.58.44-.95.45.21-.41.53-.55.95-.45Z"/>
      <path class="cls-214" d="M27.84,30.4c.15-.17.29-.33.44-.5.06.06.13.13.19.19.02.33-.13.5-.41.55-.07-.08-.15-.16-.22-.24Z"/>
      <path class="cls-266" d="M36.31,24.28c0-.33.13-.56.43-.66-.03.3-.18.52-.43.66Z"/>
      <path class="cls-266" d="M36.74,23.63c-.02-.27.1-.46.3-.59.05.29-.04.49-.3.59Z"/>
      <path class="cls-266" d="M35.72,23.04c0-.16.01-.31.03-.47.12-.05.24-.1.36-.15-.02.29-.17.48-.39.61Z"/>
      <path class="cls-266" d="M37.08,22.05c-.17-.02-.35-.05-.52-.07.2-.23.4-.39.52.07Z"/>
      <path class="cls-262" d="M31.1,16.54c.07-.28.24-.45.51-.49-.02.2-.05.39-.07.59-.16.03-.3,0-.43-.1Z"/>
      <path class="cls-137" d="M10.2,86.6c-.15.33-.37.55-.71.46-.09-.02-.21-.25-.19-.35.08-.39.36-.48.68-.41.09.02.15.2.22.3Z"/>
      <path class="cls-271" d="M10.49,81.2c-.19-.05-.56-.11-.56-.17,0-.45.35-.27.58-.3.03.16.03.32-.02.47Z"/>
      <path class="cls-235" d="M31.62,41.45c.14,0,.29,0,.43,0,.07.06.13.13.2.2,0,.1.01.2.02.29-.04.28-.09.56-.11.85.02.26.08.51.24.72.21.15.42.16.64,0,.14-.11.29-.19.45-.27.18-.04.35-.01.51.09.12.15.2.32.25.51.1.36-.18.76.11,1.1.04.16.04.33,0,.49-.14.18-.28.35-.43.51h-.02c-.29.25-.2.72-.47.97h0c-.14.17-.29.31-.46.42-.29.05-.58.1-.87.15-.27.19-.47.06-.68-.13-.11-.13-.21-.27-.3-.43-.08-.14-.14-.3-.18-.47-.34-.16-.31.38-.58.36-.44.21-.83.47-1.1.9-.18.3-.05.47.23.58.35.2.69.4,1.05.55.27.1.49.3.73.47.37.06.78.05.88.59.08.44-.32.49-.5.72-.41.5-2.2-.29-1.22,1.63.23.45-1.58,1.09-2.54.68-.26-.44-.19-.85.07-1.25.1-.31.57-.36.47-.81-.13.04-.27.07-.42.07-.28.02-.54.02-.8.06-.23.09-.38.25-.44.52-.04.17-.11.32-.22.45-.27.22-.66.12-.91.4l-.04.02c-.13.14-.24.14-.35-.03l-.05-.06c-.4-.44-1.08-.36-1.41-.92-.06-.18-.05-.37.01-.55.1-.24.2-.48.23-.75,0-.09.01-.17.02-.26.03-.18.09-.33.18-.48.12-.12.25-.22.4-.3.14-.09.29-.17.43-.26.2-.18.38-.38.55-.59.48-.5.87-1.02.3-1.74-.11-.14-.24-.27-.39-.38-.35-.25-.68-.04-1.01.07-2.26,0-1.08-1.1-.55-2,.09-.06.18-.11.28-.16.42.05.88.36,1.23-.13.22-.3.35-.93.72-.75,1.21.6,2.24-1.21,3.43-.24.61-.56.73-1.93,1.99-1.41Z"/>
      <path class="cls-250" d="M23.83,50.84c.22.75,1.46.37,1.37,1.46-.63,0-1.07.73-1.75.54-.39-.23-.7-.55-.82-1.03-.05-.71.17-1.16.9-1.13.1.05.19.11.29.16Z"/>
      <path class="cls-281" d="M26.59,50.42c.41-.25.8-.15,1.19.07.59.27.8.73.61,1.4-.37.23-.43.63-.5,1.03-.49-.11-.42-.77-.82-.98-.29-.04-.37-.33-.54-.52v-.02c-.22-.35-.25-.68.06-.98Z"/>
      <path class="cls-112" d="M34.31,60.8c-.79.42-1.66.73-2.2,1.58h-.03c-.46.12-.62-.1-.54-.57.93-1.49,1.61-1.74,2.77-1Z"/>
      <path class="cls-5" d="M31.27,49.31c-.36.02-.72.03-1.08.05-.22-1.01.27-1.75.8-2.48.19-.14.38-.13.57,0,.18.2.36.39.55.59-.28.61-.56,1.22-.83,1.83Z"/>
      <path class="cls-68" d="M21.05,52.8c.28.04.56.08.83.12-.12.68-.98,1.02-.77,1.86-.33-.13-.65-.27-.98-.4-.11-.11-.15-.22-.12-.34.04-.11.08-.17.11-.17.49-.17.56-.77.92-1.08Z"/>
      <path class="cls-184" d="M31.53,61.8c.18.19.36.38.54.58.02.15.01.3-.02.44-.57-.03-1.14-.05-1.71-.08.28-.5.75-.7,1.2-.94Z"/>
      <path class="cls-1" d="M32.03,52.37c.36.06.75.03.94.47-.36.34-.77.53-1.16.12-.14-.15-.02-.46.22-.59Z"/>
      <path class="cls-250" d="M26.53,51.42c.18.17.36.35.54.52-.38.52-.94.32-1.42.42.11-.52.68-.52.89-.94Z"/>
      <path class="cls-90" d="M36.4,56.14c-.12.05-.24.16-.34.15-.23-.04-.33-.23-.21-.45.04-.07.25-.09.33-.04.1.07.15.23.22.35Z"/>
      <path class="cls-63" d="M33.43,46.91c-.05-.44,0-.82.47-.96-.12.34-.1.76-.47.96Z"/>
      <path class="cls-229" d="M33.77,55.07c.06-.03.13-.09.18-.07.2.05.22.16.05.27-.04.03-.14,0-.19-.04-.03-.02-.03-.11-.04-.17Z"/>
      <polygon class="cls-105" points="32.19 58.1 32.36 58.03 32.34 58.21 32.19 58.1"/>
      <path class="cls-250" d="M25.26,52.36c.12-.04.24-.03.35.03-.06.1-.13.2-.19.31-.05-.11-.1-.22-.15-.33Z"/>
      <path class="cls-63" d="M32.97,47.33c.15-.14.3-.28.46-.41,0,.34-.12.51-.46.41Z"/>
      <path class="cls-63" d="M33.91,45.93c.14-.17.29-.34.43-.51.01.15.01.29,0,.44l-.21.08h-.22Z"/>
      <path class="cls-203" d="M28.06,30.64c.25-.08.38-.28.41-.55.34-.24.39-.65.51-1.02.42-.03.84-.05,1.26-.08.43.05.86.1,1.29.16-.15.82-.52,1.63.01,2.45.04.06-.23.35-.36.54-.31.67-.83,1.08-1.42,1.41-.16.09-.32.15-.49.19-.08,0-.17-.02-.25-.03-.18.11-.12-.51-.39-.15,0,.19-.06.32-.22.41-.52-.27-.71-1.1-1.45-1.01.03-.16.07-.31.13-.46.13-.19.23-.39.32-.6.01-.14.06-.27.13-.4.12-.18.24-.36.35-.54.07-.1.13-.2.17-.32Z"/>
      <path class="cls-80" d="M29.27,33.48c.64-.44,1.27-.89,1.91-1.33.18.14.37.27.55.41.31.45.28.92.09,1.4-.7.76-1.2,1.76-2.2,2.17-.55-.24-.63-.63-.32-1.15,0-.16,0-.33.01-.49-.25-.33-.27-.66-.04-1.01Z"/>
      <path class="cls-107" d="M16.75,45.45c1.18.03,1.82-1.22,2.88-1.47.32.56.76.92,1.38.99v-.03c.37.49.39.97-.02,1.45l.03-.06c-.57.46-.63-.19-.86-.46h0c-.39-.26-.69,0-1,.18-.16.09-.34.15-.52.19-.25.03-.54-.08-.74.19l-.07.04c-.32.2-.63.22-.9-.11h.02c-.29-.24-.36-.56-.21-.93Z"/>
      <path class="cls-21" d="M26.09,31.98c-.35.65-1.55,1.14-.36,2.1-.95,1.08-1.54.07-2.32-.35.41-1.01,1.65-1.41,1.33-2.69.58-.2,1.06-.09,1.39.52v-.04c-.12.09-.17.19-.14.3.03.12.07.17.11.17Z"/>
      <path class="cls-238" d="M16.46,42.43c.34-.22.44-.58.48-.98.31-.33.62-.65.92-.98h0c.11-.17.24-.2.39-.07.18.02.36.03.54.05-.08.92-1.21,1.38-.92,2.46-.38.48-.86.79-1.4,1.01,0-.5-.01-1-.02-1.5Z"/>
      <path class="cls-193" d="M22.43,44.43l-.13-.1-.16.03c-.38-.13-.77-.27-1.16-.01l-.03-.05c-.74-.73-.16-1.22.34-1.53.44-.27,1.01-.29,1.53-.42.34.26.46.63.48,1.05-.09.54-.14,1.12-.87,1.03Z"/>
      <path class="cls-275" d="M20.2,34.55c.24-.08.37-.26.42-.52.26-.04.53-.08.79-.12.17.16.35.33.52.49-.46.69-.67,1.56-1.33,2.11-.2-.2-.39-.4-.59-.6.06-.45.12-.9.17-1.35Z"/>
      <path class="cls-273" d="M22.97,43.66c-.05-.44-.1-.87-.14-1.31.93-.26,1.38.26,1.43,1.63l.05-.04c-.53.39-.92,0-1.33-.28Z"/>
      <path class="cls-63" d="M31.62,41.45c-.81.23-1.27,1.04-1.99,1.41-.13-1.05.65-1.63,1.05-2.41.44.2.76.52.94,1Z"/>
      <path class="cls-263" d="M22.15,38.37c.04-.36.25-.54.56-.62.31-.08.61-.02.68.37.08.48-.15.76-.59.76-.31,0-.55-.17-.65-.52Z"/>
      <path class="cls-96" d="M21.87,39.61c-.05.3-.01.69-.45.5-.19-.08-.48-.29-.47-.4.04-.32.32-.48.61-.52.33-.05.28.24.31.43Z"/>
      <path class="cls-222" d="M29.29,34.97c.11.29.03.69.39.85.13.1.19.21.18.34-.02.14-.04.21-.08.21-.32,0-.64-.01-.97-.02-.04-.54.02-1.04.48-1.38Z"/>
      <path class="cls-222" d="M29.27,33.48c.01.34.02.67.04,1.01-.23-.06-.39-.2-.46-.46-.14-.12-.18-.24-.14-.36.05-.12.1-.18.14-.18.14,0,.28-.01.41-.01Z"/>
      <path class="cls-189" d="M28.85,33.49c0,.18,0,.36,0,.54h-.22s-.21-.05-.21-.05c0-.15,0-.29,0-.44.13-.17.27-.18.43-.05h0Z"/>
      <path class="cls-131" d="M32.84,124.58c-.22-.02-.45-.04-.67-.06-.5-.03-.85-.78-1.45-.37-.19.05-.36,0-.49-.16,0-.65,0-1.31,0-1.96.15-.17.32-.32.45-.51.15,0,.3,0,.45,0,.31.33.62.65.93.99.29,0,.59,0,.88,0,.34-.29.18-.81.44-1.13.2-.09.37-.05.51.12.58.04.91.35.92,1-.17.14-.31.32-.45.5h0c-.16.16-.31.33-.45.5h0c-.12,0-.24,0-.35-.03-.08,0-.16,0-.24.01-.13.12-.19.27-.18.45.05.18.03.34-.08.49-.07.04-.14.09-.2.15Z"/>
      <path class="cls-265" d="M36.73,111.57c-.04.31-.07.62-.1.94-.13.19-.28.35-.38.56l-.05.04c-.49.22-.88.84-1.52.43-.29-.45-.29-.94-.14-1.44.51-.86.99-1.77,2.16-1.58.22.34.23.69.04,1.05Z"/>
      <path class="cls-173" d="M38.83,109.96c-.87.17-.61,1.02-.81,1.59l-.19-.03h-.19c-.19-.12-.33-.29-.42-.51-.15-.58-.17-1.16.04-1.73.1-.21.24-.39.42-.53.38-.23.77-.43,1.21-.19-.02.47-.04.93-.07,1.4Z"/>
      <path class="cls-79" d="M36.13,118.46c-.82-.68-.33-1.61-.42-2.44.32-.25.62-.27.92.05h-.01c.29.29.28.61.07.96.01.18.03.35.04.53.16.57-.26.71-.58.93l-.02-.02Z"/>
      <path class="cls-134" d="M33,120.95c0-.15-.04-.3-.09-.44-.09-.16-.1-.31,0-.47.02-.17.05-.34.07-.51.04-.2.13-.37.27-.51.16-.11.33-.17.52-.17.08.04.17.09.25.13,0,.19-.01.39-.02.58.13.33.14.65-.07.95-.05.13-.08.27-.08.41-.27.44-.56.4-.85.03Z"/>
      <path class="cls-198" d="M38.42,117.47c-.12,0-.24,0-.35.02v.03c-.19-.17-.38-.35-.46-.61.06-.09.05-.18,0-.26.23-.33.13-.87.59-1.04l.17.02c.22.61.25,1.22.06,1.85Z"/>
      <path class="cls-64" d="M35.27,119.52c.3.02.59.04.89.07,0,.13,0,.25.02.38-.15.19-.31.37-.49.53-.36-.21-.44-.58-.42-.98Z"/>
      <path class="cls-242" d="M30.6,124.02c.08-.44-.04-1.02.57-1.09.63-.08.59.54.75.94.09.21.16.44.25.65-.06.15-.09.31-.1.48-.49.29-.24.88-.44,1.25-.22.43-.54,1.13-1.07.23.27-.66.18-1.33.06-2-.1-.15-.11-.31-.02-.46Z"/>
      <path class="cls-129" d="M34.76,117.99c-.16.15-.32.31-.48.46-.15.19-.31.39-.46.58-.15.02-.31.05-.46.07-.05-.08-.11-.17-.16-.25-.03-.2-.03-.4,0-.61.04-.4-.04-.81.15-1.19.09-.11.13-.24.14-.39.62.21,1.3.36,1.28,1.31Z"/>
      <path class="cls-4" d="M32,117.18c0,.41.01.82.02,1.23-.07.23-.24.39-.34.6-.14.16-.28.32-.42.48-.4-.21-.35-.56-.24-.92,0-.18.02-.37.03-.55-.17-.33-.14-.66,0-.98l.05-.07c.36-.2.68-.23.89.22Z"/>
      <path class="cls-52" d="M33.94,113.07c.14-.33.29-.66.43-.99.14-.17.28-.16.43,0,.03.51.05,1.03.08,1.54-.21.49-.4,1.04-1.02.44.03-.33.05-.65.08-.98Z"/>
      <path class="cls-233" d="M31.18,120.99c-.17-.32-.34-.64-.5-.97.31,0,.61,0,.92,0,.26.34.28.67-.04.97-.12,0-.25-.01-.37,0Z"/>
      <path class="cls-75" d="M32.54,111.11c-.01.16,0,.31.06.46-.03.31-.07.61-.11.92-.6-.31-.45-.89-.44-1.42.16.01.32.03.49.04Z"/>
      <path class="cls-10" d="M32.97,121.51c.14,0,.28.02.41.05.02.41.05.83-.44.96,0-.16-.02-.33-.07-.48-.07-.2-.02-.36.13-.49l-.04-.04Z"/>
      <path class="cls-131" d="M33.01,121.54c-.04.16-.09.32-.13.49-.27-.26-.2-.42.13-.49Z"/>
      <path class="cls-244" d="M21.02,50.95c-.12-.07-.24-.13-.36-.2.1-.12.09-.24-.02-.36-.32-.28-.67-.28-1.02-.08h-.01c-.64,1.73-1.8.32-2.69.53h-.02c-.45.35-.88.51-1.27-.08h0c-.36-.15-.79-.06-1.11-.35-.12-.55.25-.75.6-.96l-.02-.08c.14-.13.29-.14.45-.05.31-.02.62-.03.94-.04.18-.11.35-.23.52-.35.39-.16.78-.32,1.17-.48.37.16.73.29,1.09-.02v.02c.14-.19.26-.17.33.07l-.03-.04c.26.04.42.23.57.43.08.13.18.14.29.04.35.15.74.15,1.07.37.17-.04.33-.09.5-.13.04.1.08.2.12.3-.11.72-.53,1.14-1.1,1.44Z"/>
      <path class="cls-116" d="M25.61,46.03c.4.41,1.28-.06,1.38.9.11,1.14-.79,1.39-1.4,1.89-.1.27-.28.43-.54.48h-.2c-.63-.45-.53-1.22-.68-1.89.15-.17.32-.21.51-.11.67.14.91-.18.8-.88l-.05-.24.17-.16Z"/>
      <path class="cls-250" d="M24.3,47.4c.75.45.46,1.24.55,1.91-.19.03-.38.07-.58.1-.1,0-.19,0-.29,0-.6-.24-1.39.04-1.78-.76-.12-.43-.17-.85.09-1.24.38-.4.85-.48,1.35-.43.25.08.52.12.65.42Z"/>
      <path class="cls-47" d="M15.12,49.46c-.15.3-.3.59-.44.89-.05.32-.33.37-.52.52h0c-.14.2-.33.35-.52.49h-.16s-.16,0-.16,0c-.02-.32-.04-.65-.06-.97.41-.22.74-.53.94-.98.31.02.62.03.92.05Z"/>
      <path class="cls-128" d="M15.08,46.87c-.29,0-.59,0-.88,0,0-.15,0-.29-.02-.44.16-.15.33-.31.49-.46.4.16.4.54.41.91Z"/>
      <path class="cls-210" d="M43.09,68.26c-.11.16-.23.33-.35.49-.05-.3.08-.45.35-.49Z"/>
      <path class="cls-210" d="M45.39,62.81c-.15.15-.3.3-.45.45.06-.25.15-.47.45-.45Z"/>
      <path class="cls-210" d="M45.47,62.39h.18c.17.36-.12.37-.32.46.05-.15.1-.31.14-.46Z"/>
      <path class="cls-146" d="M35.74,40.45c.4-.06.8-.17.45-.72-.52-.81-.7-1.46.42-1.83.44-.14.89-.42.7-1.03-.14-.46-.61-.36-.97-.41-.22-.03-.45-.04-.67-.06-.19-.39-.1-.86-.33-1.24.14-.44.46-.76.85-.56,1.08.54,2.24.25,3.34.53-.24.85-1.16,1.34-1.05,2.36.64,1.18-.58,1.34-.92,1.99.01.33.03.66.04.99-.05.12-.09.26-.1.39-.45.02-.9.05-1.35.07-.12.16-.26.16-.4.03h-.03c-.13-.19-.11-.37.04-.52Z"/>
      <path class="cls-272" d="M44.08,28.1c.34-.74-.37-1.1-.51-1.67.15.02.3.04.44.08.49.13,1.33-.48,1.36.63.03.92-.74.82-1.29.96Z"/>
      <path class="cls-241" d="M37.55,39.48c-.2-.94.94-1.15.92-1.99.31.01.62.03.92.04-.47.82-.58,2.02-1.84,1.95Z"/>
      <path class="cls-272" d="M43.14,28.62c.12-.54.45-.63.89-.48-.17.45-.55.42-.89.48Z"/>
      <path class="cls-238" d="M38.03,43.98c-.47.64-1.13.84-1.83.97-.59.31-.97-.1-1.36-.48l-.14-.13c0-.11-.02-.22-.02-.33.08-.06.17-.13.25-.19.83-.86,1.98-.26,2.97-.77.67-.34.14.58.12.95Z"/>
      <path class="cls-63" d="M35.74,40.45c-.01.17-.02.34-.04.52-.27.17-.53.34-.8.51-1-.46-1.11-.98-.09-1.57.16-.11.31-.1.45.04h.01c.14.18.29.34.45.5h.01Z"/>
      <path class="cls-238" d="M33.88,43.96c0-.17-.02-.35-.03-.52.06-.3.33-.34.52-.47.14-.02.29-.02.44-.02.04.29.09.58.13.87-.08.09-.16.18-.24.27-.29.12-.57.16-.81-.12Z"/>
      <path class="cls-63" d="M34.85,42.53c0-.24,0-.47.01-.71.27.24.25.48-.01.71Z"/>
      <path class="cls-63" d="M35.73,40.97c.13-.07.26-.08.4-.03-.11.31-.25.31-.4.03Z"/>
      <path class="cls-66" d="M37.1,46.85c.04-.15.04-.3,0-.45.13-.45.37-.9.81-.91.47-.01.37.56.49.89-.36.37-.7.83-1.29.47Z"/>
      <path class="cls-82" d="M37.23,119.62c.25-.08.38-.26.36-.55.89.98.46,1.95.04,2.93-.45-.76.13-1.66-.41-2.38Z"/>
      <path class="cls-149" d="M37.51,124.27c-.07.32-.2.58-.56.63-.31.05-.63.09-.71-.31-.07-.35.09-.61.49-.59.28.01.58-.06.78.27Z"/>
      <path class="cls-185" d="M40.82,99.2c-.11.94.02,2.08-1.38,1.96-.31,1.15-.82,2.03-2.11,1.91-.21-.04-.41-.12-.6-.25-.55-1.08.77-1.71.57-2.71.03-.21.09-.41.2-.59.22-.22.48-.35.75-.47.32-.25.54-.64.95-.78.43-.14.85-.14,1.26.05.31.2.51.45.35.87Z"/>
      <path class="cls-25" d="M37.07,102.7c1.22.27,1.67-.87,2.38-1.53.52,1.04.54,2.04-.14,3.01-.19.39-.43.69-.89.59-.35-.14-.62-.44-.97-.6-.28-.06-.53-.17-.77-.35-.14-.15-.2-.33-.21-.54.03-.1.07-.19.1-.28.16-.11.32-.2.49-.29Z"/>
      <path class="cls-97" d="M40.82,99.2c-.19-.22-.37-.43-.56-.65-.52-.7-.71-1.53-.85-2.39,0-.17,0-.34.01-.51.18-.4.65-.21.88-.5.15-.03.3-.05.45-.07.53-.04.65.3.47.74-.33.79-.19,1.55,0,2.32.45.01.9.02,1.36.03-.16.78-1.11.3-1.33.98-.14.02-.28.04-.42.05Z"/>
      <path class="cls-279" d="M41.62,104.55c-.35.23-.68.87-1.11.36-.44-.53.14-.79.44-1.11.14-.15.15-.44.21-.67.16-.2.33-.21.5-.03-.02.48-.04.96-.06,1.44,0,0,.01,0,.01,0Z"/>
      <path class="cls-60" d="M38.48,104.6c.28-.14.55-.28.83-.42,0,.29.02.59.03.88-.26.15-.52.3-.78.45-.36-.27-.35-.57-.08-.91Z"/>
      <path class="cls-57" d="M42.55,99.58c-.3.15-.6.3-.9.45-.29-.22-.53-.47-.43-.91.53-.12,1.04-.21,1.33.46Z"/>
      <path class="cls-213" d="M41.67,103.11c-.17,0-.33.02-.5.03-.29-.42-.02-.86.24-.86.5,0,.34.49.26.84Z"/>
      <path class="cls-27" d="M43.58,89.75c.64-.74.94-1.69,1.31-2.58-.26-.3-.28-.57.04-.83.64-.21,1.1-.13.75.75-.15.36-.37.68-.35,1.1-.38.79-.61,1.78-1.75,1.57Z"/>
      <path class="cls-69" d="M46.72,89.69c0,.14-.04.28-.09.4-.71.58-.01,1.44-.36,2.09-.3.16-.61.32-.91.48.02-.62.04-1.25.06-1.87.16-.35.12-.78.35-1.11.05-.14.07-.29.06-.45.11-.06.22-.1.34-.13.18.19.36.38.54.58Z"/>
      <path class="cls-145" d="M44.94,86.34c-.02.28-.03.55-.04.83-.31-.15-.62-.3-.92-.46-.26-.89.52-1.12.87-1.61.03.41.06.83.1,1.24Z"/>
      <path class="cls-111" d="M45.36,84.65c.24-.37.58-.42.96-.39-.04.95-.54.55-.96.39Z"/>
      <path class="cls-111" d="M46.32,84.26c-.03-.32-.07-.65-.1-.97l.13-.14c.11.01.22.03.33.05,0,.4.08.83-.35,1.05Z"/>
      <path class="cls-186" d="M47.22,87.27c-.1-.08-.2-.15-.3-.22.28-.3.24.09.34.18l-.04.04Z"/>
      <path class="cls-81" d="M34.03,23c.54,0,1.08,0,1.63,0-.1.52.21,1.16-.37,1.53-.09-1.45-.99-.55-1.56-.62.1-.31.2-.61.3-.92Z"/>
      <path class="cls-160" d="M32.51,106.07c.11,0,.21,0,.32-.02.09,0,.17-.02.26-.03.15.1.27.23.36.4.01.09.03.19.04.28-.42.42-.39,1.19-.98,1.48l-.06-.09c-.07-.16-.08-.32-.02-.48,0-.35,0-.69.01-1.04-.07-.17-.06-.33.05-.48l.02-.03Z"/>
      <path class="cls-207" d="M48.56,78.24c.15-.85.3-1.69,1.39-1.55.42.68-.45,1.36,0,2.04.03.14.04.28.03.42-.62-.02-1.56.52-1.41-.91Z"/>
      <path class="cls-245" d="M47.14,80.73c.36-.46.4-1.17.97-1.47.31.46.9.88.2,1.5-.39.29-.78.29-1.17-.03Z"/>
      <path class="cls-84" d="M47.14,80.73c.39,0,.78.02,1.17.03-.19.58-.45,1.05-1.12.98-.12-.33-.22-.66-.05-1Z"/>
      <path class="cls-3" d="M34.8,112.08h-.21s-.21,0-.21,0c-.32-.94-1.07-.94-1.81-.97.33-.63.46-1.32.45-2.05.42.41.64,1.11,1.37,1.01,1.26-.42,1.32-2.58,2.98-2.44.21.03.4.11.59.23.16.16.24.36.24.59-.14.31-.47.44-.58.78-.05.63-.09,1.26-.14,1.88-.32-.17-.64-.35-.97-.52-.57.49-1.15.99-1.72,1.48Z"/>
      <path class="cls-227" d="M37.42,108.02c-.37.24-1.04-.24-1.11.79-.05.74-1.19,1.31-1.92,1.26q-.53-1.98,1.3-3.08c.95-.39,1.77-.54,1.72,1.03Z"/>
      <path class="cls-259" d="M37.42,108.02c-.1-1.27-1.02-.94-1.72-1.03,0-.23.01-.47.02-.7.02-.11.03-.22.05-.33.18-.11.37-.16.58-.15.55.22,1.04.68,1.68.55.33.06.55.21.53.62.15.23.3.46.45.7-.02.16-.05.31-.1.46-.3.23-.59.26-.87-.04-.21-.02-.41-.05-.62-.07Z"/>
      <path class="cls-176" d="M35.29,105.61c-.07-.36.01-.81-.46-.95-.38.14-.53-.09-.63-.43.02-.46.2-.84.49-1.17.19-.11.38-.15.59-.11.3.14.52.36.68.67.13.31.19.65.19.99-.02.34-.1.67-.3.94-.17.14-.36.17-.56.07Z"/>
      <path class="cls-190" d="M32.83,106.04c.08-.33.15-.67.23-1,.1-.16.24-.19.4-.12.2.08.4.18.62.24.15.02.28.07.42.14.13.08.23.19.3.34-.26.6-.91.64-1.3,1.06l-.1-.2c-.13-.11-.24-.23-.34-.36-.07-.03-.14-.06-.21-.1Z"/>
      <path class="cls-123" d="M34.78,105.64c-.13-.04-.26-.07-.39-.09-.18-.14-.35-.12-.5.03-.31-.05-.44-.3-.56-.56.09-.62.24-1.16,1-.84.17.16.33.32.5.47-.02.33-.03.65-.05.98Z"/>
      <path class="cls-258" d="M35.29,105.61c.11-.02.21-.08.29-.15.09.08.18.15.27.22-.04.12-.07.23-.11.35.01.09,0,.18-.03.26-.22-.17-.42-.35-.42-.68Z"/>
      <path class="cls-167" d="M8.66,60.33c.15.17.31.34.46.51-.23.32-.5.3-.7,0-.17-.26.04-.41.24-.51Z"/>
      <path class="cls-164" d="M36.24,88.82c.13-.06.26-.1.41-.12,0,.33,0,.65,0,.98h0s-.14.16-.14.16l-.21-.03-.17-.16c-.09-.09-.12-.19-.1-.29.02-.1.05-.15.07-.15.11-.1.15-.22.12-.38Z"/>
      <path class="cls-252" d="M42.62,93.18c.14-.32.27-.64.41-.96.15-.18.33-.31.54-.39.35-.05.64.08.9.33-.02.33-.03.66-.05.99-.12.05-.24.1-.37.14-.18-.39-.37-.5-.6-.03-.29.17-.58.21-.84-.08Z"/>
      <path class="cls-13" d="M44.47,92.16c-.32,0-.65,0-.97,0-.14-.18-.41-.23-.46-.52.03-.17.05-.34.08-.51.7-.04,1.33.02,1.35,1.02Z"/>
      <path class="cls-168" d="M45.78,89.69c.08.45.03.84-.35,1.11-.08-.44-.02-.84.35-1.11Z"/>
      <path class="cls-106" d="M34.84,44.47c.53-.09.94.21,1.36.48-.16.31-.31.61-.47.92-.23.29-.38.24-.44-.13-.16-.42-.6-.72-.45-1.27Z"/>
      <path class="cls-150" d="M35.3,45.74c.15.04.29.09.44.13.16.17.33.34.49.51-.93.84-.89.04-.93-.64Z"/>
      <path class="cls-253" d="M55.8,59.25c-.05-.46-1.06-.38-.61-1,.27-.38.81.21,1.25.18-.05.29-.1.58-.15.87-.17-.02-.33-.03-.5-.05Z"/>
      <path class="cls-14" d="M57.71,53.89c-.06-.05-.15-.08-.18-.15-.18-.41-.55-.95.01-1.2.35-.15.55.44.72.8-.18.18-.37.37-.55.55Z"/>
      <path class="cls-125" d="M45.37,95.69c-.25.12-.64.42-.75.15-.18-.45.06-1.07.51-1.09.55-.02.16.59.25.9v.03Z"/>
      <path class="cls-258" d="M35.58,105.46c.05-.28.1-.56.14-.84.4-.67,1.13-.63,1.71-.9.53.04.84.39,1.05.88.03.3.05.6.08.91-.14-.04-.28-.08-.42-.13-.3-.11-.6-.74-.89-.26-.32.53.15.84.58,1.03.07.03.14.04.21.06,0,.09,0,.17,0,.26-.71.35-1.3,0-1.88-.4-.15-.14-.29-.29-.41-.45l-.17-.16Z"/>
      <path class="cls-199" d="M38.04,106.47c0-.09,0-.17,0-.26.29-.06.6-.12.75.22.11.24-.02.44-.25.55-.17-.17-.34-.34-.51-.51Z"/>
      <path class="cls-243" d="M39.8,106.11c0,.16.02.31.09.46-.1.09-.2.18-.3.26-.24-.34-.05-.54.21-.72Z"/>
      <path class="cls-38" d="M5.9,70.26c-.21-.04-.41-.07-.61-.11.05-.09.1-.26.15-.26.24-.03.38.14.44.38,0,0,.02-.01.02-.01Z"/>
      <path class="cls-85" d="M28.94,89.11c-.03-.3-.06-.6-.09-.91.27.05.55.1.83.15-.14.26-.28.51-.42.77,0,0-.16-.04-.16-.04l-.16.03Z"/>
      <path class="cls-196" d="M13.2,55.76c-.33-.01-.7.11-.92-.29-.13-.33-.25-.66-.38-.99,1.3-.61.95.76,1.3,1.28Z"/>
      <path class="cls-231" d="M10.07,55.49c.12-.11.25-.17.41-.18.09.11.28.31.27.32-.29.37-.48.09-.67-.14Z"/>
      <path class="cls-262" d="M30.77,15.49c-.02-.29-.05-.59-.07-.88.86-.09,1.07-.65.94-1.48.12-.04.23-.09.34-.14.2.57.83,1.03.28,1.77-.2.27-.02.62.25.83-.19.44-.59.42-.94.49-.09-.47-.44-.55-.8-.6Z"/>
      <path class="cls-74" d="M33.08,12.25c.32.18.43.47.35.84-.14.16-.27.16-.4-.01.02-.28.03-.55.05-.83Z"/>
      <path class="cls-262" d="M33.03,13.08c.13.01.27.02.4.01,0,.17,0,.34,0,.5-.25-.06-.36-.26-.41-.52Z"/>
      <path class="cls-161" d="M36.59,95.12c.17.33.35.66.52,1-.21.53-.21,1.05,0,1.58.01.19.03.37.04.55-.46.38-.9.31-1.32-.08.05-1.15-.72-1.03-1.39-1.06-.01-.27-.03-.54-.04-.81.16-.48.5-.36.83-.28.49-.22.6-1.14,1.36-.89Z"/>
      <path class="cls-161" d="M37.07,94.6c-.02.31-.15.5-.45.51.15-.17.3-.34.45-.51Z"/>
      <path class="cls-63" d="M33.88,43.96c.27.04.54.08.81.11.06.08.07.17.02.26-.12.2-.25.4-.37.59-.35-.22-.46-.57-.46-.97Z"/>
      <path class="cls-67" d="M38.04,108.1c.29.01.58.02.87.04.04.15.03.29-.01.43-.3.17-.59.34-.89.52-.1-.09-.14-.2-.13-.31.01-.12.03-.18.06-.18.03-.17.07-.33.1-.5Z"/>
      <path class="cls-44" d="M40.29,109.61c.01.41.04.83-.44.97-.04-.43.02-.8.44-.97Z"/>
      <path class="cls-48" d="M22.76,89.63c0-.11-.02-.21-.06-.32.08-.22.23-.38.43-.46.43-.13.83-.05,1.22.17,1.02.4,2.45.05,2.79,1.73-.06.13-.12.25-.2.37l-.2-.05-.19.09c-.65-.02-1.03.49-1.45.91-.49.07-1.1-.25-1.4.48-.26.06-.53.13-.79.19.86-1.09.22-2.09-.16-3.11Z"/>
      <path class="cls-88" d="M20.64,94.11c.23-.29.43-.63.7-.86.23-.19.6-.21.8.04.21.27-.08.56-.14.85-.18.15-.35.3-.53.45-.28,0-.56,0-.85,0-.02-.16-.02-.33.02-.49Z"/>
      <path class="cls-206" d="M41.21,98.14c-.98-.88-.02-2.09-.46-3.06.24-.39.47-.78.93-.91.36.36.68.74.54,1.34-.03.22-.05.43-.08.65-1.19.17-.52,1.38-.94,1.98Z"/>
      <path class="cls-59" d="M42.23,95.51c-.25-.41-.73-.72-.54-1.34.57-.04.94-.3.93-.99.28.03.56.05.84.08-.25.49-.52.94-.41,1.58.11.64-.26.85-.82.67Z"/>
      <path class="cls-214" d="M25.64,27.52c0,.17,0,.33,0,.5-.01.11-.03.22-.04.33-.06.22-.15.42-.27.6-.24.25-.54.32-.86.31-.42-.05-.89-.06-.72-.77l.02-.02c.17-.13.32-.28.47-.43l.04-.03c.14-.17.27-.34.41-.52h0c.32.01.64.02.95.03Z"/>
      <path class="cls-214" d="M24.77,27.01c-.09-.16-.08-.31.02-.47.05.11.11.22.14.34,0,.03-.1.09-.15.13Z"/>
      <path class="cls-181" d="M49.94,78.73c-1.05-.68.05-1.36,0-2.04-.01-.15.02-.3.09-.43.13,0,.27,0,.4.02.02.86.15,1.74-.5,2.44Z"/>
      <path class="cls-269" d="M33.93,98.64c.12-.01.24-.02.36-.02.61.19,1.24.68,1.83-.06.54-.23.9.3,1.36.39.07.08.13.16.2.24-.03.1-.07.2-.1.3.07.08.07.17,0,.26-.25.93-.78,1.54-1.65,1.79-.62.11-1.21.14-1.62-.51.05-.31,1.54-.55.02-.97-.64-.18-.51-.86-.39-1.42Z"/>
      <path class="cls-152" d="M35.3,103.15c-.14-.02-.27-.03-.41-.03-1.05.4-1.38.03-1.01-1.1-.04-.16,0-.29.11-.4.67-.02,1.37-.55,1.98.16.19.27.25.59.34.91.04.23-.01.42-.16.59-.3.11-.59.08-.86-.13Z"/>
      <path class="cls-143" d="M33.87,102.02c.02.72.36,1.07,1.01,1.1-.08.42-.02.92-.55,1.06-.51.03-.71.51-1,.84,0,0-.14-.03-.14-.03l-.14.05c-.09-.31-.23-.61-.09-.94.75-.5.23-1.35.46-1.99.14-.07.29-.1.44-.09Z"/>
      <path class="cls-192" d="M35.72,102.11c-.39-.95-1.31.31-1.74-.49-.08-.32.07-.49.32-.59.61.01,1.22.02,1.83.04.3.55.47,1.05-.42,1.05Z"/>
      <path class="cls-36" d="M27.15,90.75c-.42-.1-.8-.15-.83-.83-.02-.48-.37-.6-.73-.12-1.08,1.47-.91-.37-1.34-.61.04-.07.08-.14.12-.21.17-.17.36-.31.54-.46.1-.11.22-.22.33-.32.17-.14.36-.26.36-.54.35-.58.9-.45,1.41-.47.16,0,.32.01.48.02.11,1.21.12,2.41-.35,3.55Z"/>
      <path class="cls-154" d="M24.89,29.13c.24-.06.32-.25.34-.49.07-.25.25-.42.4-.61h0c.44.07.6.27.31.73-.15.24-.25.52-.37.78-.3-.02-.6-.03-.9-.05-.11-.24-.04-.36.21-.36Z"/>
      <path class="cls-158" d="M24.89,29.13c-.08.11-.15.23-.21.36-.49-.23-1.54.45-1.32-.95.13-.02.25-.04.38-.05.25.49.72.51,1.15.64Z"/>
      <path class="cls-257" d="M36.19,98.68c-.66.81-1.3.97-1.9-.07.45-.49.9.15,1.34,0,.21-.23.4-.21.56.07Z"/>
      <path class="cls-200" d="M36.19,98.68c-.19-.02-.37-.05-.56-.07.07-.15.13-.3.2-.45.44.03.88.05,1.32.08.04.14.11.26.2.36.16.03.23.09.22.2-.02.12-.04.18-.08.18-.5.22-.85-.28-1.3-.3Z"/>
      <path class="cls-242" d="M33.04,124.44c-.05-.11-.09-.22-.13-.33-.2-.5-.01-.64.43-.55l.21-.08c-.06.31-.12.61-.19.92-.11,0-.21.02-.31.04Z"/>
      <path class="cls-158" d="M24.69,27.48c-.02.28-.16.45-.41.52.06-.13.08-.26.06-.4.12-.03.23-.07.34-.12Z"/>
      <path class="cls-217" d="M31.61,115.55c.15,0,.31-.01.46-.02,0,.34,0,.68,0,1.01-.31,0-.62,0-.93,0,0-.16,0-.33.02-.49.24-.07.39-.25.45-.5Z"/>
      <path class="cls-158" d="M24.24,28.03c-.08.25-.23.4-.47.43.02-.14.05-.27.07-.4.13-.02.27-.03.4-.03Z"/>
      <path class="cls-159" d="M53.6,57.86c.08-.24.38-.52.44-.38.25.56-.27.27-.44.38h0Z"/>
      <path class="cls-104" d="M39.41,96.16c1.16.43.97,1.42.85,2.39-.44.06-.88.12-1.31.17-.18.13-.36.12-.54,0-.11-.2-.1-.4.02-.59.03-.31.06-.61.1-.92.11-.22.23-.43.49-.47l.02-.02c.01-.26.23-.39.33-.59l.05.02Z"/>
      <path class="cls-109" d="M37.11,97.69c-.38-.05-.76-.09-.79-.66-.03-.62.23-.91.79-.92,0,0,.03.03.03.03.11.21.29.36.37.59,0,.11,0,.22,0,.33-.09.22-.27.38-.37.59l-.04.03Z"/>
      <path class="cls-161" d="M40.3,95.15c-.2.36-.51.5-.88.5-.17-.01-.34-.02-.51-.03-.15-.17-.44-.21-.46-.52.63-.78,1.24-.2,1.85.05Z"/>
      <path class="cls-260" d="M36.64,91.61c.27.25.78.04.9.57l.04-.02c-.17.16-.29.38-.51.48-.14.03-.26.08-.38.17-.72-.37-.74-.76-.04-1.19Z"/>
      <path class="cls-118" d="M38.63,98.63c.13-.06.24-.03.32.09-.07.35-.05.76-.48.88-.24-.25-.57-.22-.85-.34-.04-.1-.08-.2-.12-.29,0-.14-.05-.27-.13-.38.21-.03.42-.05.63-.08.23-.11.45-.08.64.11Z"/>
      <path class="cls-73" d="M43.04,91.65c.2.12.45.19.46.52-.16.02-.31.03-.47.05-.2-.19-.33-.38,0-.57Z"/>
      <path class="cls-161" d="M38.63,98.63c-.21-.04-.43-.07-.64-.11.15-.13.29-.26.44-.39.07.16.13.33.2.5Z"/>
      <path class="cls-161" d="M37.15,97.66c.12-.2.24-.39.37-.59.03.31-.08.51-.37.59Z"/>
      <path class="cls-161" d="M39.01,96.75c-.06.28-.27.38-.49.47.04-.31.2-.47.49-.47Z"/>
      <path class="cls-161" d="M39.36,96.14c.02.28-.03.52-.33.59-.03-.28.1-.47.33-.59Z"/>
      <path class="cls-161" d="M37.51,96.74c-.12-.2-.25-.4-.37-.59.26.1.39.29.37.59Z"/>
      <path class="cls-256" d="M38.45,95.11c.15.17.31.34.46.52l-.21.03h-.21c-.09-.12-.13-.23-.11-.34.02-.12.04-.18.06-.18v-.03Z"/>
      <path class="cls-161" d="M38.44,95.13c.02.17.03.34.05.5-.37-.13-.37-.3-.05-.5Z"/>
      <path class="cls-270" d="M37.07,92.63c.07-.28.19-.51.51-.48.05.15.07.3.06.45-.19,0-.38.02-.57.03Z"/>
      <path class="cls-174" d="M17.03,92.33c1.09-.14,1.91-1.2,3.08-1.05.05.61.38,1.54-.29,1.66-.91.17-2.06.6-2.79-.61Z"/>
      <path class="cls-70" d="M45.73,83.14c-.26-.23-.83-.44-.53-.82.43-.56.89-.34,1.07.39-.15.19-.29.39-.54.43Z"/>
      <path class="cls-111" d="M45.73,83.14c.18-.14.36-.29.54-.43.05.14.07.29.08.44,0,0-.13.13-.13.13-.16-.05-.32-.1-.49-.14Z"/>
      <path class="cls-53" d="M22.7,89.32c-.26-.15-.57-.3-.35-.7.26-.47.78-.6,1.05-1.18.63-1.37.72-1.32,1.84.16-.04.08-.07.15-.11.23-.15.05-.3.04-.45-.03,0,0-.14-.19-.14-.19,0,0-.07.23-.07.24-.08.16-.17.31-.26.46-.1.16-.21.3-.34.44-.29.23-.72.13-.98.44l-.19.13Z"/>
      <path class="cls-48" d="M25.6,87.66c.58.71-.09.78-.44,1.01-.22-.24-.25-.51-.11-.81.06-.09.12-.18.18-.26.12.07.24.09.37.06Z"/>
      <path class="cls-178" d="M36.31,89.81c.1-.08.22-.13.34-.14-.05.22-.1.62-.16.62-.33,0-.2-.29-.19-.49Z"/>
      <path class="cls-211" d="M15.08,54.37c.15-.17.31-.33.46-.5.29-.02.71-.18.84-.03.78.86,1.71.75,2.67.68.06,0,.14.23.21.35-.03.99-1.52.4-1.42,1.54.01.34.02.68.04,1.02.1.17.08.33-.05.47l.04-.04c-.65-.83-1.19.61-2.08,0-1.53-1.07-1.86-1.87-.71-3.49Z"/>
      <path class="cls-77" d="M25.2,58.4c-.32.01-.63.03-.95.04-.35-.34-.71-.82-.07-1.08.74-.3,1.05.26,1.03,1.04Z"/>
      <path class="cls-211" d="M19.18,55.85c0-.34,0-.67,0-1.01.3-.04.59-.08.89-.11-.07.59-.4.94-.9,1.12Z"/>
      <path class="cls-102" d="M42.17,30.42c.03.27-.08.45-.32.49-.26.04-.38-.17-.45-.4-.1-.33.15-.39.35-.45.29-.1.35.15.42.37Z"/>
      <path class="cls-110" d="M29.78,36.38c-.03-.18-.06-.37-.1-.55.62-.61.54-1.98,1.78-1.89.3-.24.63-.29.98-.13.59,1.15-.38,1.52-.9,2.11-.61.06-1.08.74-1.77.45Z"/>
      <path class="cls-162" d="M31.54,35.93c.08-.76.53-1.33.89-1.95-.27-.42-.18-.77.17-1.08.21-.07.35,0,.42.22.55,2.43.51,2.51-1.49,2.81Z"/>
      <path class="cls-124" d="M33.52,31.98c.26.02.51.04.77.06-.04.47.55.93.18,1.32-.48.51-.96-.13-1.44-.23-.06-.09-.11-.19-.16-.29-.08-.16-.04-.28.11-.35.18-.17.36-.34.55-.5Z"/>
      <path class="cls-138" d="M35.33,35.16c.32-.05.73-.34.9.14.19.53-.37.74-.58,1.1-1.41-.01-.47-.75-.32-1.24Z"/>
      <path class="cls-18" d="M33.46,38.96c.07.78-.69,1.04-.91.82-.5-.5-.03-.98.41-1.33.14.2.34.33.5.51Z"/>
      <path class="cls-63" d="M34.37,42.96c-.17.16-.35.32-.52.47h-.22s-.22,0-.22,0c-.85.09-.73-.56-.73-1.12.07-.23.21-.39.4-.49.43.38.87.76,1.3,1.14Z"/>
      <path class="cls-146" d="M36.64,31.48c.1-.49.2-.97,0-1.46.61.49.61.97,0,1.46Z"/>
      <path class="cls-33" d="M29.47,37.16c.07.09.21.18.2.26-.01.1-.13.19-.2.29-.05-.05-.14-.11-.14-.16.02-.13.08-.25.14-.39Z"/>
      <path class="cls-63" d="M32.06,41.92c0-.16-.01-.32,0-.48.39,0,.74.06,1.02.39,0,0-.09.11-.09.11-.31.3-.62.26-.92-.02Z"/>
      <path class="cls-146" d="M35.73,40.44c-.15-.16-.3-.32-.45-.48.15.16.3.32.45.48Z"/>
      <path class="cls-146" d="M35.27,39.94c-.15,0-.3,0-.45-.04.17-.27.32-.23.45.04Z"/>
      <path class="cls-130" d="M33.46,38.96c-.32.01-.45-.2-.5-.51.35-.05.46.19.5.51Z"/>
      <path class="cls-2" d="M32.97,32.48c-.06.11-.1.23-.11.35-.43.26-.26.77-.43,1.15-.33-.01-.65-.02-.97-.03.09-.46.18-.92.26-1.38.24-.2.47-.4.71-.6.18.17.36.35.54.52Z"/>
      <path class="cls-222" d="M27.41,31.9c-.11.2-.21.4-.32.6-.05-.3.09-.48.32-.6Z"/>
      <path class="cls-197" d="M26.09,31.98c-.2-.04-.39-.12-.3-.39.02-.07.22-.06.34-.09-.02.16-.03.32-.05.47Z"/>
      <path class="cls-222" d="M27.89,30.96c-.12.18-.24.36-.35.54-.02-.29.08-.48.35-.54Z"/>
      <path class="cls-188" d="M32.07,24.04c.1-.24.27-.4.52-.43.02.16.01.31-.03.46-.16,0-.32-.02-.49-.03Z"/>
      <path class="cls-156" d="M31.22,46.94c-.16.9-.6,1.66-1.04,2.42-.52,0-.7-.47-.96-.83-.12-.24-.38-.36-.45-.64-.22-1.62,1.06-1.26,1.81-1.6.21-.13.42-.12.63.02l.03.04c.06.2.06.4-.02.59Z"/>
      <path class="cls-170" d="M32.06,41.92c.31,0,.62.01.92.02.09.52-.13,1.14.43,1.5-.03.13-.04.25-.01.38-.37.56-.85.32-1.31.22-.54-.4-.45-1.01-.47-1.59.15-.17.28-.34.42-.52l.03-.02Z"/>
      <path class="cls-212" d="M28.39,51.89c-.2-.47-.41-.93-.61-1.4.41,0,.95-.32,1.16.23.17.46-.15.9-.55,1.17Z"/>
      <path class="cls-283" d="M25.6,45.95c-.31-.01-.61-.03-.92-.04.16-.15.31-.3.47-.45.24-.24.47-.66.83-.25.06.06-.24.48-.37.74Z"/>
      <path class="cls-24" d="M28.78,47.89c.26.12.42.32.45.64-.24.14-.5.57-.74.33-.38-.39.09-.67.29-.97Z"/>
      <path class="cls-63" d="M32.08,44.05c.46.07.9-.01,1.31-.22-.33.8-.78.8-1.31.22Z"/>
      <path class="cls-237" d="M31.22,46.32c-.21,0-.42-.01-.63-.02-.03-.31.04-.69.32-.68.26,0,.35.38.31.7Z"/>
      <path class="cls-215" d="M24.18,50.83h-.17s-.17.01-.17,0v.04c-.16-.13-.26-.3-.29-.51.02-.11.03-.21.05-.31.06-.09.11-.17.17-.26.19-.1.36-.08.52.09h.02c.2.36.27.69-.12.95Z"/>
      <path class="cls-250" d="M24.18,50.83c.04-.31.08-.63.12-.94.44.38.47.71-.12.94Z"/>
      <path class="cls-250" d="M26.59,50.42c-.02.33-.05.65-.07.98-.45-.37-.43-.69.07-.98Z"/>
      <path class="cls-250" d="M24.28,49.88c-.16,0-.31.02-.47.03-.1-.42-.03-.67.44-.51h.02c0,.17,0,.33,0,.48Z"/>
      <path class="cls-250" d="M25.04,49.3c.09-.27.29-.42.54-.48-.07.31-.24.47-.54.48Z"/>
      <path class="cls-237" d="M31.22,46.94c0-.2.01-.39.02-.59.28.06.37.25.32.54-.11.02-.22.04-.34.05Z"/>
      <path class="cls-63" d="M32.03,41.94c-.14.17-.28.35-.42.52.03-.28.17-.45.42-.52Z"/>
      <path class="cls-26" d="M24.25,49.4c-.15.17-.29.34-.44.51h0c-.12.1-.17.21-.15.33.02.12.05.18.09.18.05.15.08.3.09.46-.52.03-.97.16-.97.88-1.17,1.23-1.42-.03-1.85-.8,0-.73.61-.99.94-1.47.21-.19.42-.38.63-.57.7-.4,1.23-.15,1.67.49Z"/>
      <path class="cls-268" d="M28.88,31.58c.3.1.49.27.26.62-.01.02-.21-.11-.32-.18-.13-.17-.1-.32.06-.45Z"/>
      <path class="cls-222" d="M28.85,33.48c-.15,0-.29.02-.43.05.11-.39.25-.44.43-.05Z"/>
      <path class="cls-222" d="M28.88,31.58c-.03.15-.05.3-.06.45-.18-.09-.24-.22-.14-.36.04-.05.13-.06.2-.08Z"/>
      <path class="cls-61" d="M33.34,123.55c-.14.18-.29.37-.43.55-.37-.18-.62-.45-.26-.83.3-.31.62-.3.69.28Z"/>
      <path class="cls-240" d="M33.88,115.53c.3.02.59.04.89.05-.33.6-.63.71-.89-.05Z"/>
      <path class="cls-259" d="M37.94,108.6c.04.16.06.32.07.48-.14.03-.27.08-.39.15.11-.21.21-.42.32-.64Z"/>
      <path class="cls-134" d="M32.97,118.52c.12-.03.25-.06.37-.09,0,.22.01.43.02.65-.25-.09-.36-.29-.39-.56Z"/>
      <path class="cls-107" d="M18.74,45.94c.07.02.15.03.21.07.03.02.03.15.02.16-.17.04-.23-.05-.19-.27l-.04.04Z"/>
      <path class="cls-179" d="M35.72,102.11c.36-.25.41-.64.42-1.05.69-.17.7-1.22,1.44-1.31.87,1.41-.33,2.04-.92,2.9.1.12.13.23.08.32-.05.09-.09.14-.13.14l-.12-.11-.16-.04c-.22-.26-.58-.41-.6-.84Z"/>
      <path class="cls-220" d="M37.61,99.27c.38-.18.71-.2.85.34-.3-.04-.6-.08-.89-.12l.04-.22Z"/>
      <path class="cls-171" d="M36.61,103.11c-.03-.16-.02-.31.05-.46.14-.03.28-.01.41.04-.15.14-.31.28-.46.41Z"/>
      <path class="cls-92" d="M37.43,103.71c-.45.58-1.04.83-1.71.9-.14-.33-.09-.66.02-.98.1-.17.25-.26.44-.25.18,0,.35.05.49.18.25.05.5.11.76.16Z"/>
      <path class="cls-152" d="M36.67,103.56c-.18,0-.37,0-.55,0-.11-.08-.14-.17-.11-.25.04-.08.07-.12.11-.12.07-.07.13-.15.2-.23l.17.04c.06.18.13.37.19.56Z"/>
      <path class="cls-62" d="M33.04,106.14c.21.01.33.12.34.36-.24.02-.41-.04-.34-.36Z"/>
      <path class="cls-180" d="M35.75,105.62c.28,0,.41.15.41.45l-.21.04-.21-.08c-.02-.14-.01-.27,0-.41Z"/>
      <path class="cls-127" d="M36.12,103.18c.04.12.04.25,0,.38-.13.03-.25.05-.38.07-.15-.16-.3-.32-.45-.48.28,0,.55.02.83.03Z"/>
      <path class="cls-176" d="M33.89,105.58c.15-.32.32-.32.5-.03-.17.01-.34.02-.5.03Z"/>
      <path class="cls-142" d="M25.05,87.86c.04.27.08.54.11.81h0c-.23.31-.66.19-.89.5h-.03c-.45.01-.9,0-1.36,0,.02-.63.74-.55.9-1.04.17-.12.31-.28.42-.47l.04-.03c.16-.1.32-.11.48,0,.08.11.19.18.32.21Z"/>
      <path class="cls-158" d="M25.64,28.02c-.13.2-.27.41-.4.61.01-.3.15-.5.4-.61Z"/>
      <path class="cls-48" d="M24.28,89.18c.2-.37.58-.36.89-.5-.16.44-.49.53-.89.5Z"/>
      <path class="cls-182" d="M24.21,87.67c-.14.16-.28.32-.42.47.14-.16.28-.32.42-.47Z"/>
      <path class="cls-182" d="M24.73,87.65c-.16,0-.32,0-.48,0,.16-.34.32-.33.48,0Z"/>
      <path class="cls-250" d="M23.75,50.42c-.04-.13-.1-.26-.12-.39,0-.03.11-.08.18-.12-.02.17-.04.34-.06.51Z"/>
    </g>
  </g>
</svg>