<?xml version="1.0" encoding="UTF-8"?>
<svg id="Layer_2" data-name="Layer 2" xmlns="http://www.w3.org/2000/svg" viewBox="0 0 78.35 120.06">
  <defs>
    <style>
      .cls-1 {
        fill: #bbaeae;
      }

      .cls-1, .cls-2, .cls-3, .cls-4, .cls-5, .cls-6, .cls-7, .cls-8, .cls-9, .cls-10, .cls-11, .cls-12, .cls-13, .cls-14, .cls-15, .cls-16, .cls-17, .cls-18, .cls-19, .cls-20, .cls-21, .cls-22, .cls-23, .cls-24, .cls-25, .cls-26, .cls-27, .cls-28, .cls-29, .cls-30, .cls-31, .cls-32, .cls-33, .cls-34, .cls-35, .cls-36, .cls-37, .cls-38, .cls-39, .cls-40, .cls-41, .cls-42, .cls-43, .cls-44, .cls-45, .cls-46, .cls-47, .cls-48, .cls-49, .cls-50, .cls-51, .cls-52, .cls-53, .cls-54, .cls-55, .cls-56, .cls-57, .cls-58, .cls-59, .cls-60, .cls-61, .cls-62, .cls-63, .cls-64, .cls-65, .cls-66, .cls-67, .cls-68, .cls-69, .cls-70, .cls-71, .cls-72, .cls-73, .cls-74, .cls-75, .cls-76, .cls-77, .cls-78, .cls-79, .cls-80, .cls-81, .cls-82, .cls-83, .cls-84, .cls-85, .cls-86, .cls-87, .cls-88, .cls-89, .cls-90, .cls-91, .cls-92, .cls-93, .cls-94, .cls-95, .cls-96, .cls-97, .cls-98, .cls-99, .cls-100, .cls-101, .cls-102, .cls-103, .cls-104, .cls-105, .cls-106, .cls-107, .cls-108, .cls-109, .cls-110, .cls-111, .cls-112, .cls-113, .cls-114, .cls-115, .cls-116, .cls-117, .cls-118, .cls-119, .cls-120, .cls-121, .cls-122, .cls-123, .cls-124, .cls-125, .cls-126, .cls-127, .cls-128, .cls-129, .cls-130, .cls-131, .cls-132, .cls-133, .cls-134, .cls-135, .cls-136, .cls-137, .cls-138, .cls-139, .cls-140, .cls-141, .cls-142, .cls-143, .cls-144, .cls-145, .cls-146, .cls-147, .cls-148, .cls-149, .cls-150, .cls-151, .cls-152, .cls-153, .cls-154, .cls-155, .cls-156, .cls-157, .cls-158, .cls-159, .cls-160, .cls-161, .cls-162, .cls-163, .cls-164, .cls-165, .cls-166, .cls-167, .cls-168, .cls-169, .cls-170, .cls-171, .cls-172, .cls-173, .cls-174, .cls-175, .cls-176, .cls-177, .cls-178, .cls-179, .cls-180, .cls-181, .cls-182, .cls-183, .cls-184, .cls-185, .cls-186, .cls-187, .cls-188, .cls-189, .cls-190, .cls-191, .cls-192, .cls-193, .cls-194, .cls-195, .cls-196, .cls-197, .cls-198, .cls-199, .cls-200, .cls-201, .cls-202, .cls-203, .cls-204, .cls-205, .cls-206, .cls-207, .cls-208, .cls-209, .cls-210, .cls-211, .cls-212, .cls-213, .cls-214, .cls-215, .cls-216, .cls-217, .cls-218, .cls-219, .cls-220, .cls-221, .cls-222, .cls-223, .cls-224, .cls-225, .cls-226, .cls-227, .cls-228, .cls-229, .cls-230 {
        fill-rule: evenodd;
        stroke-width: 0px;
      }

      .cls-2 {
        fill: #a0a9a9;
      }

      .cls-3 {
        fill: #bfd2d2;
      }

      .cls-4 {
        fill: #8ca0a0;
      }

      .cls-5 {
        fill: #302f2f;
      }

      .cls-6 {
        fill: #654242;
      }

      .cls-7 {
        fill: #bdb5b5;
      }

      .cls-8 {
        fill: #626e6e;
      }

      .cls-9 {
        fill: #bbafaf;
      }

      .cls-10 {
        fill: #545252;
      }

      .cls-11 {
        fill: #b3c5c5;
      }

      .cls-12 {
        fill: #d0e0e0;
      }

      .cls-13 {
        fill: #888484;
      }

      .cls-14 {
        fill: #373535;
      }

      .cls-15 {
        fill: #c3c9c9;
      }

      .cls-16 {
        fill: #4f5252;
      }

      .cls-17 {
        fill: #b1dede;
      }

      .cls-18 {
        fill: #a29494;
      }

      .cls-19 {
        fill: #d4fdfd;
      }

      .cls-20 {
        fill: #ddeaea;
      }

      .cls-21 {
        fill: #433f3f;
      }

      .cls-22 {
        fill: #adb8b8;
      }

      .cls-23 {
        fill: #848a8a;
      }

      .cls-24 {
        fill: #605555;
      }

      .cls-25 {
        fill: #555757;
      }

      .cls-26 {
        fill: #2b2c2c;
      }

      .cls-27 {
        fill: #6b6b6b;
      }

      .cls-28 {
        fill: #454141;
      }

      .cls-29 {
        fill: #4e4c4c;
      }

      .cls-30 {
        fill: #4a4949;
      }

      .cls-31 {
        fill: #746d6d;
      }

      .cls-32 {
        fill: #8f8f8f;
      }

      .cls-33 {
        fill: #867a7a;
      }

      .cls-34 {
        fill: #242222;
      }

      .cls-35 {
        fill: #202020;
      }

      .cls-36 {
        fill: #978989;
      }

      .cls-37 {
        fill: #605959;
      }

      .cls-38 {
        fill: #393a3a;
      }

      .cls-39 {
        fill: #635e5e;
      }

      .cls-40 {
        fill: #1b1a1a;
      }

      .cls-41 {
        fill: #525757;
      }

      .cls-42 {
        fill: #6c6565;
      }

      .cls-43 {
        fill: #fbf8f8;
      }

      .cls-44 {
        fill: #b0afaf;
      }

      .cls-45 {
        fill: #767676;
      }

      .cls-46 {
        fill: #333232;
      }

      .cls-47 {
        fill: #686666;
      }

      .cls-48 {
        fill: #d4cfcf;
      }

      .cls-49 {
        fill: #3c3a3a;
      }

      .cls-50 {
        fill: #212020;
      }

      .cls-51 {
        fill: #4f5656;
      }

      .cls-52 {
        fill: #3d3939;
      }

      .cls-53 {
        fill: #abafaf;
      }

      .cls-54 {
        fill: #f3fafa;
      }

      .cls-55 {
        fill: #948686;
      }

      .cls-56 {
        fill: #b6bfbf;
      }

      .cls-57 {
        fill: #a09c9c;
      }

      .cls-58 {
        fill: #a6b2b2;
      }

      .cls-59 {
        fill: #aaa0a0;
      }

      .cls-60 {
        fill: #212121;
      }

      .cls-61 {
        fill: #725252;
      }

      .cls-62 {
        fill: #494646;
      }

      .cls-63 {
        fill: #e1e7e7;
      }

      .cls-64 {
        fill: #d4e3e3;
      }

      .cls-65 {
        fill: #878686;
      }

      .cls-66 {
        fill: #585252;
      }

      .cls-67 {
        fill: #555353;
      }

      .cls-68 {
        fill: #cfd2d2;
      }

      .cls-69 {
        fill: #a9acac;
      }

      .cls-70 {
        fill: #b9c1c1;
      }

      .cls-71 {
        fill: #5d5c5c;
      }

      .cls-72 {
        fill: #d8caca;
      }

      .cls-73 {
        fill: #787171;
      }

      .cls-74 {
        fill: #292626;
      }

      .cls-75 {
        fill: #ebf1f1;
      }

      .cls-76 {
        fill: #d3d1d1;
      }

      .cls-77 {
        fill: #484c4c;
      }

      .cls-78 {
        fill: #f1fefe;
      }

      .cls-79 {
        fill: #8c8989;
      }

      .cls-80 {
        fill: #dbdada;
      }

      .cls-81 {
        fill: #b4acac;
      }

      .cls-82 {
        fill: #676d6d;
      }

      .cls-83 {
        fill: #6d5353;
      }

      .cls-84 {
        fill: #c5dbdb;
      }

      .cls-85 {
        fill: #e0e3e3;
      }

      .cls-86 {
        fill: #616464;
      }

      .cls-87 {
        fill: #b09b9b;
      }

      .cls-88 {
        fill: #fcfafa;
      }

      .cls-89 {
        fill: #dbf5f5;
      }

      .cls-90 {
        fill: #9a7b7b;
      }

      .cls-91 {
        fill: #d3d0d0;
      }

      .cls-92 {
        fill: #a29e9e;
      }

      .cls-93 {
        fill: #e1e0e0;
      }

      .cls-94 {
        fill: #181818;
      }

      .cls-95 {
        fill: #605d5d;
      }

      .cls-96 {
        fill: #212222;
      }

      .cls-97 {
        fill: #a98f8f;
      }

      .cls-98 {
        fill: #686767;
      }

      .cls-99 {
        fill: #ccc6c6;
      }

      .cls-100 {
        fill: #626060;
      }

      .cls-101 {
        fill: #4f4e4e;
      }

      .cls-102 {
        fill: #d5bfbf;
      }

      .cls-103 {
        fill: #817e7e;
      }

      .cls-104 {
        fill: #303030;
      }

      .cls-105 {
        fill: #c8c3c3;
      }

      .cls-106 {
        fill: #635b5b;
      }

      .cls-107 {
        fill: #6b6e6e;
      }

      .cls-108 {
        fill: #595f5f;
      }

      .cls-109 {
        fill: #676363;
      }

      .cls-110 {
        fill: #b4bbbb;
      }

      .cls-111 {
        fill: #505151;
      }

      .cls-112 {
        fill: #f1f0f0;
      }

      .cls-113 {
        fill: #585a5a;
      }

      .cls-114 {
        fill: #646b6b;
      }

      .cls-115 {
        fill: #d3f2f2;
      }

      .cls-116 {
        fill: #596464;
      }

      .cls-117 {
        fill: #727979;
      }

      .cls-118 {
        fill: #414242;
      }

      .cls-119 {
        fill: #5e5c5c;
      }

      .cls-120 {
        fill: #e1d9d9;
      }

      .cls-121 {
        fill: #f5f3f3;
      }

      .cls-122 {
        fill: #d6e8e8;
      }

      .cls-123 {
        fill: #a9abab;
      }

      .cls-124 {
        fill: #c6cece;
      }

      .cls-125 {
        fill: #777070;
      }

      .cls-126 {
        fill: #443030;
      }

      .cls-127 {
        fill: #908d8d;
      }

      .cls-128 {
        fill: #c8d0d0;
      }

      .cls-129 {
        fill: #171717;
      }

      .cls-130 {
        fill: #7f7a7a;
      }

      .cls-131 {
        fill: #5f5c5c;
      }

      .cls-132 {
        fill: #bcc4c4;
      }

      .cls-133 {
        fill: #c2bfbf;
      }

      .cls-134 {
        fill: #575858;
      }

      .cls-135 {
        fill: #c3ebeb;
      }

      .cls-136 {
        fill: #7c6868;
      }

      .cls-137 {
        fill: #f2ffff;
      }

      .cls-138 {
        fill: #a09d9d;
      }

      .cls-139 {
        fill: #424242;
      }

      .cls-140 {
        fill: #839191;
      }

      .cls-141 {
        fill: #7a7a7a;
      }

      .cls-142 {
        fill: #d9e6e6;
      }

      .cls-143 {
        fill: #ccc5c5;
      }

      .cls-144 {
        fill: #f6fbfb;
      }

      .cls-145 {
        fill: #565757;
      }

      .cls-146 {
        fill: #0a0a0a;
      }

      .cls-147 {
        fill: #e3e1e1;
      }

      .cls-148 {
        fill: #a99696;
      }

      .cls-149 {
        fill: #abc6c6;
      }

      .cls-150 {
        fill: #867b7b;
      }

      .cls-151 {
        fill: #393b3b;
      }

      .cls-152 {
        fill: #867f7f;
      }

      .cls-153 {
        fill: #9c9090;
      }

      .cls-154 {
        fill: #3f3d3d;
      }

      .cls-155 {
        fill: #858a8a;
      }

      .cls-156 {
        fill: #8aa3a3;
      }

      .cls-157 {
        fill: #927d7d;
      }

      .cls-158 {
        fill: #424141;
      }

      .cls-159 {
        fill: #a6a1a1;
      }

      .cls-160 {
        fill: #c4b0b0;
      }

      .cls-161 {
        fill: #292828;
      }

      .cls-162 {
        fill: #3e3e3e;
      }

      .cls-163 {
        fill: #7c7575;
      }

      .cls-164 {
        fill: #1a1a1a;
      }

      .cls-165 {
        fill: #cec0c0;
      }

      .cls-166 {
        fill: #7a8080;
      }

      .cls-167 {
        fill: #b4b2b2;
      }

      .cls-168 {
        fill: #d4e8e8;
      }

      .cls-169 {
        fill: #665151;
      }

      .cls-170 {
        fill: #d4d8d8;
      }

      .cls-171 {
        fill: #add0d0;
      }

      .cls-172 {
        fill: #cebebe;
      }

      .cls-173 {
        fill: #d8c5c5;
      }

      .cls-174 {
        fill: #d8e6e6;
      }

      .cls-175 {
        fill: #666;
      }

      .cls-176 {
        fill: #7b9595;
      }

      .cls-177 {
        fill: #5a5858;
      }

      .cls-178 {
        fill: #b9b2b2;
      }

      .cls-179 {
        fill: #c4f7f7;
      }

      .cls-180 {
        fill: #605757;
      }

      .cls-181 {
        fill: #9e9292;
      }

      .cls-182 {
        fill: #8a8787;
      }

      .cls-183 {
        fill: #515252;
      }

      .cls-184 {
        fill: #2d2b2b;
      }

      .cls-185 {
        fill: #e5e9e9;
      }

      .cls-186 {
        fill: #9da0a0;
      }

      .cls-187 {
        fill: #111212;
      }

      .cls-188 {
        fill: #bddede;
      }

      .cls-189 {
        fill: #252626;
      }

      .cls-190 {
        fill: #8a7e7e;
      }

      .cls-191 {
        fill: #b8dcdc;
      }

      .cls-192 {
        fill: #cbcccc;
      }

      .cls-193 {
        fill: #3c3838;
      }

      .cls-194 {
        fill: #999f9f;
      }

      .cls-195 {
        fill: #323131;
      }

      .cls-196 {
        fill: #c7caca;
      }

      .cls-197 {
        fill: #242626;
      }

      .cls-198 {
        fill: #c8cccc;
      }

      .cls-199 {
        fill: #7d7f7f;
      }

      .cls-200 {
        fill: #d6dede;
      }

      .cls-201 {
        fill: #848484;
      }

      .cls-202 {
        fill: #aa9595;
      }

      .cls-203 {
        fill: #d6cccc;
      }

      .cls-204 {
        fill: #444343;
      }

      .cls-205 {
        fill: #a29393;
      }

      .cls-206 {
        fill: #695c5c;
      }

      .cls-207 {
        fill: #222121;
      }

      .cls-208 {
        fill: #2f3e3e;
      }

      .cls-209 {
        fill: #bebbbb;
      }

      .cls-210 {
        fill: #ded5d5;
      }

      .cls-211 {
        fill: #cee2e2;
      }

      .cls-212 {
        fill: #c4c4c4;
      }

      .cls-213 {
        fill: #835454;
      }

      .cls-214 {
        fill: #b2adad;
      }

      .cls-215 {
        fill: #9fa6a6;
      }

      .cls-216 {
        fill: #a39c9c;
      }

      .cls-217 {
        fill: #111010;
      }

      .cls-218 {
        fill: #2b2a2a;
      }

      .cls-219 {
        fill: #827979;
      }

      .cls-220 {
        fill: #deeeee;
      }

      .cls-221 {
        fill: #d6e1e1;
      }

      .cls-222 {
        fill: #bcc;
      }

      .cls-223 {
        fill: #2d2a2a;
      }

      .cls-224 {
        fill: #121212;
      }

      .cls-225 {
        fill: #242525;
      }

      .cls-226 {
        fill: #eaf1f1;
      }

      .cls-227 {
        fill: #cbcbcb;
      }

      .cls-228 {
        fill: #5e5555;
      }

      .cls-229 {
        fill: #bcbbbb;
      }

      .cls-230 {
        fill: #666b6b;
      }
    </style>
  </defs>
  <g id="Objects">
    <g>
      <path class="cls-146" d="M66.61,3.39c.07.15.19.21.35.2.16.14.31.28.45.44.16.26.4.33.69.29.28.09.44.29.51.57v-.02c.18.13.29.32.37.54h0c.13.15.26.29.4.42.14.07.29.14.43.21.1.15.23.28.38.39.16.24.33.48.5.72,0,.18.09.31.24.39l.06.11c.05.19.13.37.24.54h0c.23.29.07.69.26,1h0c.25.28.08.68.26.99h0c.19.62.31,1.26.22,1.93-1.75,2.19-4.33,2.95-6.78,3.94-2.17.07-4.25.39-5.78,2.16-.9.67-1.72,1.43-2.55,2.17-.58.42-1.19.81-1.75,1.26-1.83.69-2.49,2.33-3.12,3.96-.86,2.25-1.7,4.5-1.53,6.98.02.22,0,.43-.05.65-.66,1.14-1.41,2.19-1.5,3.63-.09,1.37-.97,1.75-2.19.96-.18-.12-.35-.25-.51-.39-1.73-1.45-.34-3.34-.71-4.98-.04-.21.35-.31.23-.39-.18-.12-.21.25-.39.3-1.43-.46-3.01-.8-2.22-2.92.28-.76-.14-1.44-.16-2.16.75-.31.3-1,.46-1.5.4-1.18.25-2.76,2.05-2.98.27.08.14.5.46.55.14.07.29.15.43.22.15.02.27-.04.33-.19,0,0-.12-.16-.12-.16,0,0-.11.16-.12.16-.17,0-.31-.07-.41-.2-.27-.36-.8-.46-.92-.96-.08-.41-.04-.82.04-1.23.06-.31.17-.61.33-.9,1.35-1.05,2.44-2.11,1.39-4.06-.38-.71-.21-1.63.61-2.19,2.31-.72,3.68-3.17,6.34-3.37.55-.04,1.12-.91,1.22-1.77.18-1.61,1.13-2.03,2.72-1.89,2.73.23,4.26-1.06,5.02-3.85.27-.55.82-.51,1.3-.62.19-.04.38-.05.57-.06.28,0,.56.04.82.14.16.07.31.17.44.29.11.36.44.5.71.71Z"/>
      <path class="cls-129" d="M58.59,105.75l-.12.08.04.14c-1.35.02-1.97,1.73-3.02,1.67-1.11-.06-.8.44-.87.93l.07-.02c-.79.4-1.73-.33-2.49.33-.23,0-.49-.01-.63-.17-.49-.56-.91-.96-1.06.2-.41.19-.85.18-1.29.13-1.06-.31-2.04-.37-2.82.64-.22.29-.76.62-.96.46-1.28-1.02-2.19.34-3.28.43-.33.07-.66.05-.98-.04-.21-.07-.4-.19-.57-.33-.39-1.19-.53-2.48-1.73-3.28-.73-.48-1.55-1-2.29-.59-2.22,1.23-4.22.25-6.29-.34-3.62-.03-6.62-2.49-10.23-2.63-.82-.03-1.56-.55-2.23-1.08-.83-1.78-2.32-2.67-4.19-2.86-1.42-.15-1.64-.85-1.24-2,.18-.5.39-.99.63-1.46.97-1.86,1.94-2.01,3.17-.33.88,1.2,1.86,1.96,3.38,1.87.28.13.61.27.72.54,1.67,4.3,5.33,3.84,8.82,3.66,3.41-.17,6.51-1.28,9.44-3.1,1.29-.8,2.66-1.87,4.42-1.49.33.19.56.53.88.73,2.41,1.51,2.42,1.53.75,3.82.63.68,1.79.5,2.19,1.21-.07-.1.14.31.11.26-.56-.88-1.47-1.85.67-1.58,3.14.4,6.29.66,9.4,1.25.44.08.45,0,.54-.37.58-2.41,2.81-2.99,4.58-4.09,1.56.73.83,1.81.44,2.84-.44.92-.95,1.8-1.53,2.64-.11.16-.23.3-.36.44-.18.2-.38.4-.57.6-.26.28-.57.42-.95.43h0c-.13.21-.33.33-.54.43Z"/>
      <path class="cls-104" d="M73.5,19.4c.07-.09.15-.17.2-.26.02-.04-.02-.12-.04-.18-.15-.32-.08-.61.13-.88.15-.02.22-.1.21-.25.1-.27.3-.42.56-.52l-.02.02c.16-.18.36-.29.58-.35h0c.39.09.77.17,1.16.25.17.13.33.27.48.42.03.16.12.23.28.22.23.08.37.29.54.45l.06.08c.08.2.16.39.25.58.03.15.06.3.09.45.02.18.09.34.21.48h0c.35.56.01.98-.25,1.42-.09.14-.2.28-.31.42-.14.2-.28.39-.41.59-.03.07-.06.14-.09.22-.1.07-.12.16-.06.27-.12.24-.31.4-.57.46l.02-.02c-.14.15-.29.29-.45.43-.14.1-.2.23-.16.4-.69.57-.11,1.4-.41,2.05-.06.2-.15.38-.26.56-.11.17-.25.31-.4.45-.07.06-.15.12-.22.18-.29.22-.6.44-.85.71-.11.14-.23.28-.35.41-.22.29-.39.62-.55.95-.08.18-.18.34-.28.51-.56.94-1.67,1.42-2.09,2.48l-.02.03c-.46.3-.76.77-1.18,1.11h-.01c-.16.11-.31.23-.44.37-.1.13-.19.26-.29.39-.57,1.55-1.69,2.65-3,3.59h0c-.31.44-.87.73-.85,1.37l.12-.1-.12.09c.17.09.21.17.15.22-.07.05-.14.08-.19.06l.06-.05c-.5.32-.79.84-1.14,1.3h0c-.51.38-.97.85-1.58,1.09l-.04.03c-.62.34-.62,1.24-1.36,1.48l.05-.03c-.21.32-.62.32-.88.55-.18.02-.36,0-.53-.05-.3-.2-.71-.2-.99-.47-.92-1.41-1.17-2.98-1.14-4.62.29-.96.54-1.96,1.73-2.22l.02-.02c.43-.69.76-1.43,1.3-2.05.15-.03.21-.12.17-.28.1-.24.3-.38.5-.53l.02-.03c.18-.09.34-.2.47-.34l.07-.05c.19-.06.34-.17.47-.32l.06-.04c.37-.1.33-.58.66-.71h0c.47-.28.21-1.01.76-1.25l-.02.02c.14-.12.31-.18.49-.2.29-.09.45-.27.43-.58,0-.19.09-.33.26-.42l-.02.02c.28-.23.3-.64.61-.84h0c.32-.18.31-.65.69-.76l-.03.03c.12-.2.33-.3.51-.42h0c.32-.19.32-.62.64-.8h0c.31-.19.31-.65.68-.78l-.02.02c.27-.24.27-.69.68-.81.24.05.41-.04.49-.28.25-.28.26-.75.69-.88l-.05.04c.13-.22.33-.34.56-.41h-.02c.27-.22.27-.68.69-.78h-.01c.28-.4.07-1.05.64-1.32l.03-.02c.99-.08.79-1.1,1.26-1.59h0c.29-.29.61-.54.96-.74Z"/>
      <path class="cls-164" d="M52.54,55.36c0,.15.01.3.02.45.1.19.25.37.23.61.27.12.54.23.75.45.2.23.36.49.48.78.27.86,0,1.46-.84,1.79-.33.05-.63-.01-.92-.19-.66-.68-1.04-1.52-1.37-2.39-.19-.56-.49-1.08-.62-1.66-.06-.19-.11-.38-.17-.56-.03-.09-.06-.19-.09-.28-.37-.99-.32-2.1-.86-3.04-.27-.27-.6-.38-.97-.38-.71.02-1.41.02-2.04-.37-.41-.32-.84-.64-.73-1.26.5-.57,1.25-.34,1.86-.57.22-.12.38-.3.48-.53.06-.16.14-.29.25-.42.5-.07.29-.25.06-.44-.02-.2.03-.37.13-.54.15-.14.31-.25.5-.32,1.16-.29,1.2.74,1.51,1.61.55-1.12.65-2.16.32-2.92-1.47-3.34-.54-6.75-.56-10.14,0-.99.35-1.77,1.03-2.44.85-.28.92.36.87.86-.08.85.17,1.64.28,2.46,0,.21-.04.41-.1.61-.88,1.35-.04,2.72-.02,4.08.52,1.3,1.48,2.34.91,4.08-.43,1.3.83,2.31,2.25,2.61.56.12,1.27-.09,1.45.74-.02.23-.14.39-.36.46h0c-1.1.9-1.28,2.42-2.3,3.37-.81.34-.67,1.04-.61,1.7.07.77.04,1.47-.85,1.77Z"/>
      <path class="cls-129" d="M45.64,21.16c-.09.44-.19.89-.28,1.33-1.29.52-1.41,1.79-1.84,2.87-.81.08-1.38.82-2.22.8-.21-.04-.41-.12-.59-.24-.43-.34-.82-.71-.74-1.34-.14-.83-.08-1.67-.07-2.51l.14-.11c.12-.31.1-.64.12-.96,0-.17.04-.33.08-.5.05-.16.11-.32.19-.48.14-.32.2-.67.27-1.01.07-.18.18-.33.35-.43.25-.14.49-.34.82-.23.6.31,1.05.45,1.44-.39.7-1.49,1.81-2.83,1.43-4.66-.1-.5.24-.85.68-1.08.85.02,1.6-.38,2.41-.56.32.2.44.5.48.86.01.64-.21,1.16-.73,1.54-.61.85-.39,1.71-.04,2.57q.84,2.07-1.24,3.18c-.19.1-.32.31-.49.47-1.21.09-.09.6-.16.89Z"/>
      <path class="cls-40" d="M47.94,12.25c-.12-.18-.24-.36-.36-.54-.5.38-1.07.14-1.61.21-.18.04-.37.05-.55.03-.17-.09-.29-.23-.35-.41,0-.3.09-.55.32-.74.07-.14.13-.27.2-.41.1-.21.26-.33.5-.35h0c.26-.27.68-.07.94-.32l.02-.02c.5-.42-.03-.9.08-1.35.04-.2.13-.38.26-.53.18-.1.38-.15.58-.18.3-.02.61,0,.91,0,.88,0,1.44-.63,2.09-1.06.33-.23.63-.48.93-.75.58-.59,1.45-.75,2.01-1.36.04-.09.1-.17.14-.25.06-.08.12-.15.19-.23.15-.14.32-.24.5-.33.2-.07.4-.1.61-.11.64.03,1.26.12,1.72.64.13.96-.58.9-1.18.97-.18-.04-.28-.17-.29-.36-.12.29.17.5.13.78-.35,1.13-2.23,1.5-1.55,3.14.02.05-.05.18-.1.19-2.32.63-3.51,3.32-6.15,3.36Z"/>
      <path class="cls-118" d="M9.05,105.37l-.12.08.03.14c-.08.29-.29.44-.55.56h0c-.17.13-.19.3-.09.49h0c.22.32.16.62-.12.88-.08.25-.16.51-.24.76-.13.22-.32.37-.55.46h0c-.22.25-.45.5-.83.43-.06,0-.05-.19-.02-.34.07-.21.13-.42.2-.64-.08-.35.18-1-.63-.7-.86-.07-1.46-.49-1.75-1.31-.41-2.09.94-3.59,1.75-5.27.1-.2.22-.39.37-.55.15-.15.34-.24.55-.26.57.5,1.51.33,1.97,1.06.14.49-.32.8-.36,1.27.21-.46.62-.83.31-1.38.03-.37.28-.51.61-.57.85.01,1.31.57,1.69,1.23.14.29.12.61.19.92v-.03c.1.13.12.22.04.28-.07.05-.13.07-.18.06l.06-.04c-1.13-.03-.73,1.48-1.67,1.65l-.02.02c-.33.17-.31.63-.65.79Z"/>
      <path class="cls-197" d="M42.2,110.3c.04-.72,1.84-.28,1.04-1.63-.15-.25.53-.45.9-.47.35-.02.44.27.54.58.4,1.19.83,1.39,1.41.47.95-1.53,2.03-1.01,3.21-.66.59.7.12,1.16-.38,1.6-.86.61-1.91.82-2.8,1.37l.03-.02c-.68.42-1.26.3-1.77-.29l-.13-.15-.19.02c-.45-.29-.91-.54-1.46-.25-.05.09-.12.18-.15.28-.02.04.03.11.04.17.2.37.17.66-.26.84l.06-.04c-1.89.96-4.06.6-6.04,1.26-.59.2-2.72.58-1.65-1.6,2.19-.21,4.32-.65,6.28-1.71.15.03.3.06.45.09.24.33.53.42.87.15Z"/>
      <path class="cls-145" d="M65.02,15.75c.55-.76,1.32-1.11,2.24-1.19,1.08-.09,2.04-.34,2.57-1.46.41-.86,1.33-.85,2.11-1.07.16-.18.29-.17.39.06v.04c.17.31.03.69.23.99h0c.19.31.57.32.81.54.02.13.09.19.22.19.71.66.22,1.21-.15,1.77h0c-.88,1.08-1.97-.04-2.92.28l.04-.02c-.77.57-1.58-.33-2.36.04v-.03c-.27.3-.68.14-1.01.27h.03c-.25.29-.68.09-.96.32h-.03c-.32.2-.64.09-.96.03-.32-.18-.52-.4-.25-.77Z"/>
      <path class="cls-199" d="M39.25,38.86c.05-.12.03-.22-.04-.33-.1-.19-.24-.37-.28-.59l.03.04c-.8-.5.63-1.3-.25-1.79-.09-.19-.1-.39-.05-.59.15-.85.48-1.67.4-2.55,0-.34.12-.65.34-.91.18-.14.38-.19.61-.14.55.4.85.95.96,1.61-.26.6-.14,1.05.54,1.25.35,2.09,1.13,4.15.45,6.31-1.02,1.37-1.37.21-1.85-.49-.14-.26-.27-.53-.43-.79-.22-.31-.43-.63-.43-1.04Z"/>
      <path class="cls-29" d="M36.76,59.08c.14-.02.22-.11.23-.25.24-.38.66-.31.97-.28,1.08.11.58-.45.41-.88.02-.24.15-.38.38-.42l-.04.02c.21-.35.66-.11.9-.39.13-.02.19-.09.18-.22.09-.27.3-.42.53-.56h0c.14-.13.3-.16.49-.09.23.15.42.35.61.55.26.27.54.52.7.87.05.19.07.38.06.58-.05.3-.16.57-.34.81-.55.55-1.18,1.01-1.77,1.53-.34.2-.71.31-1.07.47-.98.85-1.79.67-2.46-.4-.09-.18-.15-.37-.19-.57l.03.05c-.39-.53.13-.61.4-.82Z"/>
      <path class="cls-121" d="M8.78,93.12c.12-.6.25-1.19.37-1.79.18-.11.35-.23.51-.36.08-.67.43-1.2.85-1.71.18-.11.36-.23.53-.35h0c.54-.14.79.22,1.04.59.21.51.31,1.04.12,1.58-1.1,1.22-1.63,2.84-2.81,4-.16.18-.74-.33-.61.36-.18.13-.37.19-.58.2-.75-.21-1.3-.51-.62-1.36.19-.12.39-.24.58-.36.31-.19.55-.44.61-.81Z"/>
      <path class="cls-98" d="M4.7,106.33c.53.63,1.31.68,2.02.87.29.99-.99.56-1.09,1.2h0c-.32.18-.31.65-.69.77l.02-.02c-.25.25-.28.63-.55.87-.01.16-.03.33-.04.49.09.52-.15,1.04-.02,1.56l-.02.14c-.5.74-1.25,1.3-2.03.81-.94-.59-.2-1.41.14-2.09.49-.25,1.15-.42.54-1.19.19-.69.14-1.36-.13-2.01.01-.2.09-.36.24-.49.15-.1.31-.19.47-.27.07-.04.16-.08.23-.13.29-.18.55-.44.91-.5Z"/>
      <path class="cls-101" d="M58.23,59.88c-.06-.27-.02-.65-.18-.79-.58-.5-.23-.8.15-1.14.16,0,.31-.01.47-.02.91.15,2.21-.38,2.29,1.27.03.18.05.37.08.56.05.18.08.36.11.55,0,.19-.04.37-.12.54-.18.22-.41.36-.69.43-.2.02-.35-.06-.45-.22-.15-.02-.31-.03-.46-.05-1.12.4-.86-.67-1.19-1.12Z"/>
      <path class="cls-108" d="M50.51,108.74c.16-.63.24-1.44,1.1-.46.17.19.49.26.75.38.26.06.29.33.43.5.05.13.14.2.28.19.37.33.28.6-.11.84l.04-.02c-.15.14-.29.12-.41-.05h-.02c-.81-.4-1.27.46-1.95.55h-.06c-.2.11-.4.13-.62.09-.3-.18-.43-.46-.42-.8.16-.54.53-.9.97-1.21Z"/>
      <path class="cls-80" d="M39.86,40.08c-.05.83.36,1.86-.95,2.13-.13-.03-.26-.05-.38-.07-.24-.34-.16-.63.12-.9l.02-.02c.13-.07.19-.15.18-.26-.02-.1-.04-.16-.08-.17h0c-.17-.33-.62-.33-.78-.67.03-.13.06-.26.08-.4.67-.23,1.29-.21,1.8.34Z"/>
      <path class="cls-229" d="M3.99,102.46c.08-.3.17-.59.25-.88.33-.19.3-.64.61-.84h.02c1,.27.8,1.02.46,1.58-.49.82-.75,1.82-1.6,2.42-.26.12-.49.07-.68-.14-.05-.64,0-1.26.43-1.79l.03-.02c.18-.08.34-.19.48-.33Z"/>
      <path class="cls-230" d="M72.53,92.78c-.73-.08-1.02-.39-.61-1.1.39-.07.79-.14,1.18-.21.21.11.4.28.65.09.12.06.25.09.39.1.21.36.19.64-.25.79l.04-.03c-.25.39-.69.14-1.01.31-.14-.06-.26-.04-.38.05Z"/>
      <path class="cls-130" d="M62.66,59.18c-.23-.44-1.09-.59-.65-1.35h-.04c.16-.19.35-.34.58-.4l-.05.05c.6-.36.57.29.8.51.1.12.23.18.38.2.35.49.25.93-.14,1.34-.39.12-.73.1-.9-.35Z"/>
      <path class="cls-133" d="M57.17,1.53c-.39.52-1.15.09-1.54.6-.07.05-.15.1-.22.15-.29.02-.51-.1-.68-.33,0-.16,0-.31,0-.47-.07-.18-.1-.36-.07-.55.07-.18.18-.33.34-.45.21-.03.36.05.45.23.35.66.79.77,1.36.25.16-.03.33-.06.49-.08.05.08.03.15-.04.21.08.12.09.22.04.31-.05.09-.1.13-.13.12Z"/>
      <path class="cls-147" d="M67.81,70.19c.04-.14.08-.29.11-.43.13-.08.19-.17.17-.28-.02-.11-.05-.16-.09-.17h0c-.18-.36-.12-.66.19-.91h0c.59.13.82.5.72,1.09.1.18.22.35.35.51.03.17.06.34.09.51,0,0-.19-.03-.19-.03-.22.14-.34.39-.57.5-.18.04-.34,0-.49-.08-.2-.19-.31-.42-.3-.7Z"/>
      <path class="cls-77" d="M18.5,107.33l-.09-.14h-.17c-.23-.07-.31-.21-.24-.44.48-.53.63-1.84,1.75-.94.85.68.33,1.3-.4,1.75-.33.08-.63.05-.85-.24Z"/>
      <path class="cls-91" d="M.86,118.16c.01-.15.01-.3,0-.46-.09-.18-.19-.36-.31-.52.07-.28.13-.55.2-.83.8-.48,1,.14,1.23.68-.03.14-.06.28-.08.42-.34.17-.28.65-.65.79h.01c-.17.14-.3.12-.4-.09Z"/>
      <path class="cls-216" d="M47.01,112.36c.78-.2,1.12-1.21,2.07-1.1.09.14.09.25.02.33-.07.08-.13.11-.17.1h.02c-.36.41-.5,1.04-1.14,1.19h-.02c-.34.18-.64.16-.85-.2.05-.1.08-.21.08-.32Z"/>
      <path class="cls-7" d="M22.24,109.9c.03-.1.07-.21.1-.31.49-.47,1.01-.36,1.54-.08.3.22.4.52.37.87-.06.22-.17.4-.34.56-.32-.12-.64-.24-.97-.37-.14-.34-.61-.32-.74-.67h.04Z"/>
      <path class="cls-169" d="M65.66,65.44c-.32-.99.7-.72,1.03-1.09.07.12.17.15.3.1.64.99-.19,1.06-.79,1.27-.23,0-.42-.08-.54-.28Z"/>
      <path class="cls-157" d="M68.39,78.22l-.17-.04c-.43-.3-.31-.59.03-.87h-.01c.17-.14.38-.23.58-.33v.03c.12.03.25.05.38.05h0c.23.31.14.61-.06.9l-.12.08c-.22.04-.41.16-.62.19Z"/>
      <path class="cls-227" d="M73.66,82.63c.31.07.61.13.92.2-.02.15-.03.3-.04.45-.45.38-.78.28-1.03-.23-.04-.17.02-.31.14-.42Z"/>
      <path class="cls-120" d="M65.12,103.81c.02-.25-.28-.68.08-.71.51-.04.37.46.34.79l-.21-.04-.21-.04Z"/>
      <path class="cls-54" d="M22.83,74.43c.12-.42.24-.85.36-1.27.08-.04.17-.09.25-.13.09.04.17.08.26.12.05.08.09.16.14.25.04.19.05.38.03.57-.04.19-.11.37-.22.53-.25.17-.5.29-.74,0l-.08-.07Z"/>
      <path class="cls-178" d="M8.78,93.12c.7.95-.02.84-.61.81.03-.13.06-.27.08-.4.17-.14.36-.25.52-.41h.02Z"/>
      <path class="cls-160" d="M29.35,66.01c-.24.42-.6.36-.98.26.03-.14.06-.28.11-.42h-.01c.15-.11.29-.11.44,0,.15.06.29.11.44.17Z"/>
      <path class="cls-143" d="M70.6,93.26c.3.27.33.6.25.97h-.02c-.18.08-.32.04-.44-.1.07-.29.15-.58.22-.87Z"/>
      <path class="cls-76" d="M68.37,101.67c-.07.37-.21.68-.62.78.05-.29.09-.59.14-.88.16.03.32.07.49.1Z"/>
      <path class="cls-77" d="M16.95,106.43c0-.13-.03-.25-.08-.38.57-.23.92-.08.95.58-.21.22-.4.2-.56-.05l-.12-.14-.18-.02Z"/>
      <path class="cls-224" d="M42.36,41.98c-.16-.4-.53-.51-.88-.65.24-1.1.21-2.15-.09-3.28-.29-1.08-.2-2.26-.28-3.4-.52-.18-.19-.69-.39-1,0-.57-.73-.82-.61-1.44.53-.4.51-.9.28-1.44-.11-.29-.06-.58-.03-.87-.02-.39-.33-.58-.58-.82-.14-.14-.25-.29-.33-.47.04-2.36.06-2.4,1.91-1.24.69.43.88-.35,1.35-.35.1.04.19.09.29.13,1.36.87.53,2.04.41,3.09-.04.35-.35.74.08.98.35.2.45-.22.65-.42.5-.48.7-.03.57.33-.53,1.49.48.83,1.05.79.15,1.21.69,2.42.03,3.65-.45.84.63,1.04.75,1.66-.27.14-.18-.22-.13.07.02.16.16.13.13-.07,1.72.7,2.22.53,1.94-1.04-.32-1.78,1.23-2.22,1.78-3.34h0c-.44-.48-.74-1.18-.51-1.68.84-1.83.52-4.02,1.75-5.65.52-.69.11-1.6.93-2.21.62-.47,1.84-1.85,2.57-2.12.47.68.32,1.42-.19,1.86-1.83,1.61-1.99,3.77-2.32,5.95-.19,1.22-.31,2.56-1.22,3.57-.8,1.03-.74,2.24-.72,3.43.04,2.31-.65,4.59-.13,6.95.17.75.79,1.15.86,1.65.14.98-.06,2.03-.07,3.05,0,.63-.67,1.3-1.38,1.65-.67-.48-.34-1.1-.3-1.68.09-1.06-.58-.82-1.18-.67-.49,0-.22.27-.17.46v-.03c.13.11.16.21.1.3-.06.09-.12.13-.16.12-.04.13-.08.26-.11.4-.13.16-.29.27-.49.31-.6.06-1.08-.16-1.44-.62,0,.01-.19-.05-.19-.05,0,0-.13.16-.13.17-.09.32-.11.65-.21.95-.02.08-.05.17-.08.25.24.36.48.71.72,1.07.08.14.11.27.07.41-.04.14-.07.2-.1.2-.33.34-.75.48-1.2.54-.5-.16-1.53.44-1.25-.86-.44-.79-1.28-1.47-.07-2.42.48-.38.25-1.25-.26-1.79l-.02-.02c-.29-.13-.41-.36-.38-.67l.07-.14-.1-.12c-.11-.16-.22-.32-.33-.48-.17-.81-.91-1.53-.43-2.46l.02-.02c.11-.08.17-.18.18-.29,0-.12,0-.18-.03-.18Z"/>
      <path class="cls-217" d="M58.32,2.7c.23-.21.47-.42.7-.63.16-.08.31-.16.47-.24.37.04.74,0,1.11,0l.02-.02c.7.56,1.7.3,2.39.89.44,1.34-.15,2.16-1.11,3.15-1.39,1.44-2.95,1.97-4.69,1.46-1.33-.39-1.74.6-1.69,1.13.08.91-.48,1.31-.74,1.94-.37.93-.63,1.17-1.62.91-.95-.26-1.78.25-2.36,1.03-.82,1.1-1.93,1.6-3.25,1.74.12-.6.25-1.2.37-1.8,1.24-.71,2.52-1.37,3.37-2.6.27-.39.68-.54,1.15-.65,1.55-.34,1.59-.37,1.22-1.83-.15-.6-.48-.97.56-.81,1.04.16,1.15-.76,1.25-1.53h-.03c.58-.02,1.15-.1,1.59-.53.41-1.19,1.27-.68,2.02-.65-.12-.33-1.13-.14-.75-.96Z"/>
      <path class="cls-38" d="M51.25,32.58c.43-2.42.83-4.84,1.29-7.25.14-.74.43-1.5,1.11-1.89.9-.52,1.15-1.34,1.32-2.24.43-.54.93-.95,1.63-1.07.22.3.24.64.18.99-.24.75-.53,1.47-.85,2.19-.31.45-.43.97-.55,1.5-.41.54-1.1.88-1.19,1.65-.09.18-.2.34-.33.48-.06.07-.13.14-.19.21-.25.28-.43.6-.52.97-.03.19-.07.38-.11.57-.12.58-.23,1.16-.34,1.74-.27,1.06-.19,2.13-.11,3.2.05.19.09.38.14.56.06.19.11.38.14.57.01.2,0,.4-.07.59-.19.39-.46.66-.92.67-1.02-1-.35-2.32-.65-3.46Z"/>
      <path class="cls-166" d="M65.02,15.75c.13.21.26.42.39.63.1.19.04.31-.17.36h.01c-.28.24-.69.07-.98.28h0c-.17.12-.34.24-.5.37-.09.09-.13.2-.13.33-.34.41-.76.14-1.14.13-.7.02-1.32.19-1.72.84-.19.09-.38.1-.59.07-.58-.06-.93-.4-1.14-.91.43-.4.88-.79,1.3-1.2.16-.15.25-.52.39-.53,1.44-.08,2.78-1.29,4.3-.37Z"/>
      <path class="cls-194" d="M59.04,17.84c.49.05.82.39,1.17.68.13.15.16.25.07.32-.08.06-.15.08-.21.07h.02c-.26.25-.28.66-.59.87-.08.09-.12.2-.11.33-.13.16-.3.26-.5.3-.84.18-1.47,1.17-2.49.61.07-.3.14-.59.22-.89.54-1.04,1.72-1.42,2.43-2.29Z"/>
      <path class="cls-224" d="M43.36,25.35c.02-1.4.27-2.64,1.99-2.87.51.08.85.44,1.24.72.23.32.14.6-.08.87-.3-.2-.59-.4-.89-.6h0c-.23-.4-.59-.59-.82-.12-.51,1.05-1.07,2.11-.95,3.33.03.28.32.54-.2.56-.22,0-.44-.06-.66-.1h0c-.41-.72-.23-1.3.37-1.8Z"/>
      <path class="cls-41" d="M45.64,21.16c-.71-.07-.73-.6-.76-1.13-.02-.28-.15-.64.22-.72.43-.09.36.35.47.59.06.13.15.25.23.37-.05.3-.11.59-.16.89Z"/>
      <path class="cls-217" d="M63.18,6.96c-.3.29-.66.37-1.03.17-.18-.1-.16-.27.04-.34.28-.09.59-.16.88-.16.16,0,.19.18.11.33Z"/>
      <path class="cls-27" d="M46.51,24.08c.03-.29.06-.58.08-.87h.02c.17-.08.32-.05.46.07.02.41-.1.73-.56.8Z"/>
      <polygon class="cls-224" points="45.75 31.93 45.89 31.77 45.96 31.87 45.75 31.93"/>
      <path class="cls-224" d="M45.62,23.48c-.05.06-.12.17-.14.16-.14-.06-.09-.13.14-.16h0Z"/>
      <path class="cls-224" d="M47.07,23.27c-.15-.03-.31-.05-.46-.08.2-.22.35-.2.46.08Z"/>
      <path class="cls-187" d="M42.99,97.25c.53-.71,1.38-.88,2.11-1.22,1.25-.58,2.09-1.61,3.09-2.46,1.91-1.63,3.09-3.46,3.68-5.82.12-.49.47-.94.78-1.35.91-1.21.92-1.19-.44-2.06-.16-.1-.2-.37-.3-.56-.41-1.23.9-1.03,1.29-1.58,0-.16-.04-.3-.17-.4-.37-.23-.85,0-1.2-.3h0c-.05-.36.09-.75-.2-1.05h0c-.16-.8-.86-2,.97-1.38.06-.31-.28-.27-.38-.42-.96-.82-.71-1.88-.59-2.91.02-.33.05-.66-.22-.93-.23-.23-.55-.37-.73-.67l-.03-.04c-.21-.96-.08-1.78.95-2.2.5-.18,1.02-.3,1.56-.32.21,0,.41.05.6.12.37.17.67.43.95.73.12.16.19.34.24.53.06.57.02,1.15.19,1.71.06.19.1.39.13.58.23,2-.12,4.06.68,6-.19,1.4,1.17,2.73.2,4.16-.26.29-.62.43-.97.57-.11.05-.21.13-.29.23.14.08.3,0,.44.04.67.21,1.33.48,1.71,1.08.56.87.27,1.32-.96,1.37.87.43,1.55.09,2.24-.06,1.69-.35,2.77.47,3.38,1.95.29.69.32,1.49.81,2.11,1.34,1.66,2.13,3.33.15,5.08-.16.3-.39.53-.67.7-.71,1.01-1.68,1.69-2.76,2.27-1.13.6-1.72,1.5-.77,3.21-2.31-1.43-4.71-.38-6.76-1.49-.32-.17-.82-.3-1.11-.17-1.42.65-2.7.49-3.95-.56.09.86.68,1.23,1.09,1.72.29.34.44.64.07.96-.43.36-.75.06-.85-.33-.28-1.04-.77-1.56-1.97-1.34-.8.14-1.02-.79-1.54-1.22.23-.83,1.19-.55,1.59-1.12.54-.75.32-1.68-.55-1.61-1.33.11-1.26-.79-1.5-1.55Z"/>
      <path class="cls-35" d="M17.94,92.6c.56.12.73.49.63,1.01-.23,1.24.04,2.5-.34,3.68.79.21.35-.93.99-.61.35.18.4.61.28,1.01-1.15.58-2.58.17-3.35-1.04-.43-.68-.57-1.85-1.55-1.69-.92.15-1.24,1.16-1.28,2.11,0,.13-.14.27-.25.37-.43.38-.79.79-.29,1.33.5.55.95.18,1.36-.18.24-.21.74-.37.75-.15.12,1.56,1.54,1.2,2.36,1.71.72.45.6,1.15.47,1.83-.09.05-.18.1-.27.15-1.62-.51-3.26-.78-4.94-.23-.24-.04-.48-.08-.73-.12-.25.04-.47.12-.59.37h0c-.56-.45-.85-1.24-1.65-1.41-1.1-.39-1.6-1.11-1.07-2.22.34-.72.11-1.48.34-2.18.07-.31.13-.61-.02-.92h.02c.07-.1.1-.21.07-.33h0c1.16-1.27,1.54-3.13,3.07-4.13.4-.43.97-.74,1.34-.22.53.74-.17,1.29-.74,1.97,1.88.07,3.63-.72,5.37-.11Z"/>
      <path class="cls-96" d="M34.18,111.33c-1.19-.81-2.61-.81-3.95-1.06-.15.04-.39.1-.43.03-.8-1.38-1.55-2.75-3.54-2.59-.39.03-.55-.69-.21-1.1.38-.46.8-.88,1.21-1.32,1.13-.21,2.17.5,3.3.29.82.18,1.74.17,2.42.58,1.04.63,1.77.35,2.69-.21,1.24-.76,2.62-.46,3.65.6.16.16.27.39.45.5,1.19.71,1.52,1.71,1.1,3-.4.44-.86.84-1.19,1.33-.3.45-.64.71-1.09.43-.59-.36-.8-.44-1.35.25-.72.89-1.62.04-2.37-.42-.23-.1-.46-.21-.69-.31Z"/>
      <path class="cls-139" d="M69.95,98.2c-.25-.01-.45.07-.57.31-.26,0-.44.12-.54.36-.27.01-.41.18-.5.42-.26,0-.47.08-.55.36-.57.5-.92,1.09-.78,1.9.11.67-.34,1.16-.88.89-1.62-.79-2.23.37-2.98,1.35-.85.6-1.85.33-2.78.48.51-.99,1.02-1.98,1.53-2.97,1.98-1.48,2.92-3.55,3.34-5.91-.15-.26-.26-.53-.21-.84.36-.45.85-.41,1.34-.35.09.02.19.05.28.07.67.05.92.81,1.55.93.7.44,1.4.87,2.11,1.31.09.61-.13,1.15-.35,1.7Z"/>
      <path class="cls-35" d="M30.56,105.58c0,.4.18,1.11-.55.73-.87-.45-1.74-.77-2.69-.93-1.39,2-3.06,1.48-4.78.55-1.89-.57-4.07-.68-4.79-3.08-.09-.29-.19-.56-.03-.85,0,0,.02-.02.02-.02.59.15,1.18.24,1.71.58.31.2.81.51,1.02.39,1.7-.96,2.84.44,4.12,1,1.41.62,2.77,1.23,4.34.99.69-.11,1.15.28,1.63.64Z"/>
      <path class="cls-189" d="M65.47,95.09c.63.12.98.46.63,1.1-.52.96-1.81,1.6-1.17,3-.77.54-1.2,1.51-2.21,1.76-.29.07-.55.23-.82.35.24-.93,1.46-1.82.1-2.81.06-.29.12-.59.19-.89,1.22-.67,2.48-1.3,3.29-2.51Z"/>
      <path class="cls-220" d="M49.09,109.87h-.15c.29-.38.46-.79.36-1.28.4.05.81.1,1.21.15.05.62-.47.85-.8,1.21-.24.25-.44.22-.62-.08Z"/>
      <path class="cls-96" d="M42.2,110.3c-.38.46-.66.36-.87-.15.29.05.58.1.87.15Z"/>
      <path class="cls-139" d="M60.36,104.27c-.03.33-.26.39-.54.38.08-.26.27-.38.54-.38Z"/>
      <path class="cls-103" d="M55.72,35.43c.15.5,1.03.59.71,1.38-.22.54-.54.57-1,.4-.18-.43-.47-.81-.68-1.23-.03-.09-.06-.18-.08-.28,0-.2.08-.37.24-.5.27.08.54.15.81.23Z"/>
      <path class="cls-167" d="M64.5,30.17c.37.16.68.46.39.81-.36.43-.78-.07-1.18-.14-.02-.11-.03-.21-.04-.32.09-.13.18-.26.27-.4.21-.21.4-.2.57.04Z"/>
      <path class="cls-60" d="M57.86,47.97c-.26-.01-.42.13-.54.33-.29-.04-.57-.08-.86-.12-.16-.15-.41-.44-.45-.41-1.43.93-2.22-.42-3.07-1.01-.9-.62-.5-1.98-.89-2.96-.18-.44.72-.43.91-.87-.53-.76-1.79-1.06-1.49-2.34.54-.2,1.15-.16,1.47.25,1.51,1.92,3.69,2.29,5.88,2.67.22-.28.37-.24.45.1.24.4.04.75-.15,1.09-.19.65-.38,1.3-.58,1.95-.73.18-.55.83-.67,1.32Z"/>
      <path class="cls-218" d="M58.81,43.52c-.11.19-.28.56-.33.54-1.93-.66-4.3-.41-5.5-2.6-.33-.6-1.12-.37-1.52-.86-.14-1.02-.25-2.04-.42-3.05-.11-.67.21-.95.79-1.09,1.36.84.87,2.79,2.19,3.66.91.05,1.79,0,2.37-.86.33-.14.33-.56.65-.72.14-.04.29-.07.44-.11.25,1.74.51,3.49,1.34,5.08Z"/>
      <path class="cls-218" d="M59.11,44.7c.05-.36.1-.73.15-1.09.15.03.3.06.45.09.02.46-.13.83-.6,1Z"/>
      <path class="cls-96" d="M49.14,56.12c-.77-.42-1.1.06-1.35.67-.42,1.04-.94.67-1.49.13-.56.4-1.17.53-1.83.27-.17-.13-.27-.3-.32-.5,0-.58.14-1.17-.15-1.72-.57-.93.73-1.88-.04-2.8-.41-.48-1.43-.86-.24-1.59.28.76.95.19,1.39.42.38.44.63.04.92-.15.06-.19.11-.38.17-.56.78.21,1.56.29,2.34.02.18.33.45.56.83.63,1.13.87.59,2.32,1.17,3.38-.09.35-.17.71-.26,1.06-.04.19-.11.36-.2.53-.11.16-.24.29-.41.39-.2.03-.37-.02-.51-.17Z"/>
      <path class="cls-30" d="M54.01,40.12c-.22.03-.62.1-.63.08-.23-.9-1.39-1.25-1.35-2.27.02-.51.24-1.03-.21-1.46.03-.14.06-.29.08-.43.22-.28.44-.55.67-.83,1.16.27,2.13.78,2.45,2.05.41,1.22-1.03,1.78-1.02,2.86Z"/>
      <path class="cls-68" d="M47.86,49.19c-.79.28-1.59.4-2.39.03v-.03c-.08-1.88,1.16-.65,1.82-.78.4.11.73.26.57.78Z"/>
      <path class="cls-174" d="M50.02,55.32c-.04-.44-.37-1.02.5-1.01l-.06.17c.12.15.22.31.29.48-.39.79.94.83.68,1.56-.31-.06-.62-.13-.93-.19-.33.17-.61.15-.82-.19.07-.15.15-.29.22-.44.09-.11.13-.24.13-.38Z"/>
      <path class="cls-73" d="M53.23,56.9c.03-.16.06-.31.1-.47.45.09.91.19,1.36.28.15,1.09-.82.42-1.16.74-.27-.09-.36-.28-.3-.55Z"/>
      <path class="cls-8" d="M53.51,60.23c-1.38.53-.96-.61-1.13-1.21.27.06.55.13.82.19.21.31.43.62.3,1.03Z"/>
      <path class="cls-113" d="M49.35,50.93c-.87.57-.94.09-.83-.63.39.05.67.27.83.63Z"/>
      <path class="cls-156" d="M47.86,49.19c-.05-.31-.24-.49-.5-.63v-.23s.2-.09.2-.09c.15.01.3,0,.45-.03.49.41.54.75-.15.97Z"/>
      <path class="cls-16" d="M48.17,47.43c-.24-.15-.43-.37-.23-.63.17-.22.31.01.4.17-.06.15-.11.31-.17.46Z"/>
      <path class="cls-176" d="M48.12,47.82c.02-.14.04-.28.05-.42.29.09.8.16.73.39-.09.33-.5.12-.78.03Z"/>
      <path class="cls-168" d="M50.75,54.96c-.1-.16-.19-.32-.29-.48.26.06.39.2.29.48Z"/>
      <path class="cls-152" d="M71.63,87.74c-.15-.05-.29-.04-.42.05-.18.09-.34.19-.49.32-.1.39-.21.78-.31,1.18-.11.2-.28.25-.49.16-.43-.47-.12-1.2-.59-1.65-.12-.15-.25-.3-.38-.44l-.04-.06c-.21-.54-.07-.99.39-1.34.24.07.48.13.71.19.4.38,1.04.25,1.43.67l.03.03c.11.29.56.52.17.9Z"/>
      <path class="cls-163" d="M67.94,80.93c.15.04.31.08.46.12.2-.1.37-.25.6-.26l-.06.04c.46-.41.74-.17.98.26-.04.99-.53,1.58-1.52,1.73-.54.07-1.07,0-1.58-.21-.2-.09-.37-.22-.52-.37-.37-.81.05-1.19.77-1.42.1-.02.21-.03.31-.05.22-.05.41,0,.57.16Z"/>
      <path class="cls-196" d="M68.27,84.15c-.04.21-.08.42-.12.63-.2.14-.4.28-.6.42-.2.08-.38.06-.56-.06-.3-.32-.43-.68-.31-1.11.25-.46.55-.85,1.14-.86.43.2.56.54.45.98Z"/>
      <path class="cls-9" d="M70.59,81.05c.11-.45.23-.89.34-1.34-.1-.27-.11-.55.04-.81.07-.06.15-.12.22-.18.21-.04.35.04.42.24v-.02c.24.28.06.7.29.99h0c.1.18.11.35.01.54-.17.36-.42.65-.81.78-.2.02-.37-.04-.51-.2Z"/>
      <path class="cls-61" d="M70.4,78.47c.03-.2.06-.39.09-.59.33-.35.61-.25.88.07h0c.19.34.18.65-.2.87h.02c-.39.18-.74.25-.79-.36Z"/>
      <path class="cls-163" d="M66.1,80.57c.11-.26.35-.34.6-.39.26.09.51.19.77.28.12.07.17.16.14.25-.03.11-.06.16-.09.15-.09.05-.18.09-.27.14-.43-.03-.9.06-1.15-.44Z"/>
      <path class="cls-161" d="M43.8,11.86c.25-.02.42-.14.53-.36.34-.09.66-.07.91.21v-.03c.09.14.21.26.35.35.03.08.05.16.07.24-.21.3-.68.53-.52.94.62,1.62.34,2.99-1.03,4.1-.24.2-.37.45-.36.78.02.59.12,1.29-.69,1.47-.89.2-1.13-.56-1.5-1.11.11-1.51.48-2.97.9-4.42,0,0,0,0,0,0,1.01-.37.93-1.4,1.31-2.15h.01Z"/>
      <path class="cls-35" d="M43.36,25.35c-.12.6-.25,1.2-.37,1.79-.12.08-.28.14-.36.25-.88,1.31-1.2,1.33-2,.05-.08-.12-.05-.31-.13-.42-.07-.1-.23-.15-.37-.23-.75.59-.42,1.32-.26,2.03.36-.09-.3.93.45.42.43.08.52.46.68.78-.2.25-.4.5-.61.74-1.44-.4-1.41-1.55-1.27-2.67.15-1.17.43-2.33.65-3.49.14-.03.27-.07.4-.12.26.42.51.85.77,1.27v.02c.46.07,1.05.1,1.19-.35.39-1.23.81-.24,1.23-.09Z"/>
      <path class="cls-217" d="M45.68,11.8c.15-.47.37-.71.9-.39.29.17.66.21.99.31-.36,1.12-.97,1.41-1.9.56l-.11-.07c-.07-.12-.08-.22-.02-.3.06-.08.1-.11.14-.11Z"/>
      <path class="cls-63" d="M56.37,66.9c.17.19.35.37.52.56,0,0-.17-.04-.17-.04-.34.16-.71.25-1.03.43-.18.05-.36.08-.55.09-.28-.03-.53-.13-.74-.31-.2-.27-.41-.53-.77-.62-.17-.07-.33-.16-.47-.28-.15-.12-.28-.26-.4-.41-.35-.57-.31-1.14-.02-1.71.12-.16.27-.29.45-.37.5-.1.75.69,1.31.37l-.05.02c.42-.19.74.03,1.07.24.15.12.28.27.38.43.07.18.12.36.15.55,0,.38.09.74.35,1.04Z"/>
      <path class="cls-39" d="M64.33,64.44c-.04-.17-.14-.26-.32-.26l-.03.03c-.22-.18-.33-.41-.34-.69l.05-.11c.6-.18,1.19-.21,1.56.39.18.3.27.72-.14.94-.32.17-.5-.22-.77-.3Z"/>
      <path class="cls-202" d="M61.61,68.03c.01.38-.04.72-.47.85-.44.2-.89.25-1.35.04-.32-.18-.54-.43-.54-.82.15-.24.34-.28.58-.14.32.07.63.13.95.19.2-.05.39-.12.58-.2.08.04.16.06.25.07Z"/>
      <path class="cls-131" d="M55.62,65.79c.28.09.56.19.84.29-.03.27-.06.55-.09.83-.68-.08-1.06-.36-.75-1.11Z"/>
      <path class="cls-24" d="M63.35,69.01l-.05.04c-.39.09-.88.42-1.1-.17-.12-.31.38-.36.56-.57.07.1.16.1.25.02v-.04c.22.2.33.44.34.72Z"/>
      <path class="cls-48" d="M55.32,60.59c-.28.34-.64.35-1.02.26.03-.15.06-.3.09-.45.2-.1.38-.23.58-.33.11.17.23.35.34.53Z"/>
      <path class="cls-128" d="M58.32,2.7c.03.58.72.43,1,.75-.63.82-1.68.19-2.26.86-.71-.11-1.42-.22-2.14-.34.04-.32.07-.65.11-.97.27-.25.23-.7.61-.87h0c.9.19,1.79.38,2.69.57Z"/>
      <path class="cls-217" d="M51.3,4.97c.18-.12.36-.24.54-.35.33-.08.66-.15.99-.23.16,0,.33-.02.49-.03.29-.07.55-.04.77.19.14.19.28.38-.03.53-.68.33-1.36.66-2.04.99-.58.05-1.36.43-1.26-.72.17-.13.35-.25.52-.38Z"/>
      <path class="cls-150" d="M50.77,5.35c.17.68.84.48,1.26.72-.05.41-.2.73-.67.77-.02-.32-.18-.56-.51-.57-.83-.03-.64-.55-.54-1.04.16.04.31.08.47.12Z"/>
      <path class="cls-109" d="M48.5,7.17c.74.14.33.64.32,1.01-.34-.08-.68-.16-1.02-.24-.05-.15-.03-.28.09-.39l.08-.03c.19-.08.36-.18.5-.33l.03-.03Z"/>
      <path class="cls-155" d="M45.68,11.8c-.02.14-.06.27-.12.41-.26-.08-.39-.25-.33-.53.15.04.3.08.45.12Z"/>
      <path class="cls-5" d="M9.09,95.9c-.25,1.1.32,2.25-.33,3.36-.39.67.63.93.8,1.49-.18.12-.37.24-.56.37h-.02c-.5-.43-1.76.56-1.71-.9.04-1.57,1.34-2.72,1.43-4.27h-.01c.11-.15.25-.17.4-.05Z"/>
      <path class="cls-15" d="M9.01,101.12c.17.11.51.3.5.33-.33.79-.38,1.77-1.32,2.29-.66-1.23.04-1.93.8-2.61h.02Z"/>
      <path class="cls-195" d="M66.25,90.07l.08.02c.23.08.38.24.45.47.12.8.1,1.61.04,2.41-.1.47-.33.87-.59,1.27-.36.15-.69.05-1.03-.08-1.39-.81-1.76-2.34-2.49-3.61-.35-.62-.26-1.3.39-1.78,1.14-.35,1.89.27,2.58,1.03l.04.07c.06.37.33.19.53.2Z"/>
      <path class="cls-95" d="M66.43,92.85c-.31-.79-.15-1.58.04-2.36.33-.21.72-.04,1.06-.18.29,0,.57.01.86.02.3-.06.59,0,.86.14.14.14.27.29.38.46.13.16.21.34.23.55,0,.44-.14.8-.54,1.03-.09.1-.14.22-.16.36-1.02-.12-2-.14-2.42,1.08-.37-.29,0-.79-.31-1.1Z"/>
      <path class="cls-159" d="M69.32,92.5c.1-.45.2-.91.29-1.36.12-.26.38-.25.61-.28.24.05.49.1.73.14q-.15,1.69-1.63,1.5Z"/>
      <path class="cls-5" d="M69.33,87.37c.95.41.74,1.19.62,1.94-.41.22-.74.24-.79-.35.02-.23.03-.47.05-.7-.15-.32-.08-.62.13-.89Z"/>
      <path class="cls-204" d="M30.06,69.85c.78.32,1.32-.83,2.26-.3-.2,1.12-1.55,1.83-1.34,3.17.04.29-.55.42-.9.58-1.01.45-1.8,1.14-2.23,2.22-.41,1.04-1.15,1.68-2.15,2.32-1.28.82-1.36,2.77-2.47,3.87-.84.84-1.83,1.49-1.63,2.88,0,.05-.07.17-.12.18-1.96.07-1.55,2.19-2.62,3.02-.49.22-.94.04-1.39-.11-.4-.06-.63.08-.59.53.18.4.47.72.7,1.08,1.13.63.02,1.27,0,1.9-1.51-.49-2.82-1.43-4.34-1.87.01-.61-.28-1.29.41-1.75l.02-.02c.51-.26.28-.92.68-1.24l.04-.05c.36-.12.33-.55.58-.75.05-.15.11-.3.16-.44-.09-.15-.09-.25,0-.3.07-.04.13-.06.19-.05l-.05.02c.09-.25.3-.36.54-.45l-.02.02c.62-.47.07-1.57,1-1.87.74-.06.84.9,1.51.96.12.18.22.36.38.51,0-.3-.37-.32-.44-.59-.23-.47,0-.76.38-.99.18-.07.38-.1.57-.11.31-.03.65.18.95-.1.09-.16.19-.3.31-.44.28-.27.59-.5.87-.76.24-.27.43-.58.62-.88.1-.14.21-.27.34-.39.06-.06.13-.11.19-.17.18-.17.35-.35.48-.56.12-.22.24-.43.4-.63.16-.19.34-.35.51-.52.15-.18.29-.36.38-.57.07-.22.04-.43-.09-.63-.11-.12-.21-.25-.31-.39-.09-.16-.16-.33-.2-.5-.19-.64.14-1.12.49-1.59.57-.53,1.09-.11,1.62.09.47.13.83-.05,1.12-.38-.4-.39-.89.11-1.29-.13-.21-.05-.42-.12-.61-.22-.19-.12-.34-.28-.46-.47-.01-.34.03-.67.34-.88h0c.36-.15.55-.44.63-.81.73-.29,1.16-.82,1.27-1.6h0c.81-.23,1.52-.83,2.43-.72.47.11.73.46.89.88Z"/>
      <path class="cls-99" d="M15.32,81.82c.82.15.57.57.27,1.01h0c-.35.2-.65.13-.9-.17.03-.14.06-.29.1-.43.19-.11.36-.25.52-.39l.02-.02Z"/>
      <path class="cls-53" d="M12.95,86.97c-.14.13-.32.4-.45.05-.09-.22.12-.38.37-.38-.01.12.02.23.08.33Z"/>
      <path class="cls-75" d="M38.13,57.51c.14.03.29.06.43.09.11.94,1.26.18,1.56,1.12-1.07.04-2.09.07-3.12.11.22-.58,1.09-.59,1.14-1.32Z"/>
      <path class="cls-212" d="M35.87,59.4c-.28-.07-.63-.18-.61-.5.03-.5.45-.45.81-.4.16.35.13.66-.2.9Z"/>
      <path class="cls-144" d="M40.72,33.65c.41.22.3.65.39,1-.09.27-.2.61-.51.57-.29-.04-.4-.37-.41-.67-.01-.41.36-.59.54-.89Z"/>
      <path class="cls-80" d="M39.85,40.08c.05-.17.1-.33.15-.5.24.12.34.31.33.57-.16-.03-.32-.05-.48-.08Z"/>
      <path class="cls-119" d="M20.18,78.2c.22-.12.44-.25.65-.37.28-.2.58-.24.91-.15.55.22.78.69.9,1.23.03.21,0,.4-.1.59-.2.21-.46.37-.69.55-.39.08-.72,0-.95-.36-.08-.23-.11-.48-.2-.71-.09-.13-.18-.26-.28-.38-.11-.12-.19-.25-.24-.41Z"/>
      <path class="cls-14" d="M43.95,52.16c.79.35,1.53.68.52,1.66-.24.23-.15.8-.2,1.22.28.41.1.74-.2,1.04-.24.22-.52.42-.31.82.23.39,1.08.65.29,1.27-.08.1-.19.13-.32.1-.38.08-.64.5-1.09.37-.41-.14-.6-.5-.82-.83.06-.09.08-.18.08-.29.05-.21.17-.44-.12-.58,0,0-.19-.13-.19-.13,0,0-.22-.03-.22-.03,0,0-.23.01-.23.01-.14-.23-.29-.45-.43-.68.1-.26.2-.53.3-.79.12-.16.27-.28.45-.38,1.01-.76,1.89-1.64,2.48-2.77Z"/>
      <path class="cls-134" d="M41.85,60.19c-1.93,1.39-2.72,3.85-4.84,5.06-.68-.48-1.03-1.11-.92-1.96.16-.62.48-1.16.9-1.64.46-.43,1.13.16,1.58-.33.18-.2.25-.45.32-.7.02-.08.04-.17.05-.25.32-.25.69-.21,1.06-.16.42-.3.85-.55,1.4-.41.19.08.34.21.44.39Z"/>
      <path class="cls-57" d="M39.19,61.47c-.6.54-1.24.63-1.94.19-.76.16-1.14-.19-1.24-.92,0-.13.05-.25.12-.36.17-.11.35-.22.52-.33q1.05.93,2.3.33c.03.09.02.18-.04.26.17.26.08.59.27.84Z"/>
      <path class="cls-221" d="M41.3,60.02c-.43.06-.85.12-1.28.18.19-.86.9-1.18,1.59-1.52.21-.12.4-.08.56.1.08.67-.34.99-.87,1.24Z"/>
      <path class="cls-89" d="M42.01,58.76l-.2-.04s-.2-.03-.2-.03c.07-.3.14-.6.21-.9.32.14.69.22.77.66,0,.46-.16.62-.58.32Z"/>
      <path class="cls-149" d="M42.04,56.82c.26.29.14.5-.14.68-.42-.07-.74-.25-.75-.73h-.01c.32-.25.62-.2.91.05Z"/>
      <path class="cls-55" d="M49.32,5.49c-.5-.21-.38-.58-.24-.96.15.02.3.02.45-.02.35.16.83.18.8.75-.37-.08-.74-.15-1.01.23Z"/>
      <path class="cls-31" d="M64.08,106.37c-.23-.19-.87-.18-.39-.72.22-.25.61-.32.81-.09.43.5-.24.55-.41.81,0,0-.01,0-.01,0Z"/>
      <path class="cls-205" d="M63.24,105.02c-.1.06-.22.17-.29.15-.09-.02-.16-.16-.23-.25.06-.04.14-.12.18-.11.12.04.23.13.35.2Z"/>
      <path class="cls-36" d="M60.38,105.86c-.06.04-.12.08-.18.11-.04-.06-.11-.13-.1-.18.01-.05.11-.08.17-.12.04.06.07.12.11.18Z"/>
      <path class="cls-184" d="M13.24,89.33c.56.08.89-.91,1.57-.31.65.57,1.05,1.75,2.28.99.16.4.32.8.48,1.19-.03.15-.07.3-.1.45-.16.15-.16.3.02.44.15.17.3.34.45.51-.49.04-.81.74-1.42.37-.76-.47-1.38-.11-2.06.28-.87.49-1.73.4-2.38-.51.38-.56,1.07-.98.99-1.8-.37-.22-.73.04-1.09.02-.02-.46-.04-.91-.05-1.37.43-.12.82-.44,1.32-.27Z"/>
      <path class="cls-49" d="M56.94,50.19c0,.12,0,.23,0,.35.3.61.9.59,1.45.69.7.13,1.05.45.45,1.13-.19.14-.38.28-.57.42-.13.08-.18.17-.17.27.01.11.03.17.07.17-.22.87-1.17,0-1.49.62-.84-.03-.9-.99-1.52-1.27-.34-.27-.39-.63-.28-1.02.26-.23.82-.2.79-.66-.09-1.24.63-.87,1.28-.7Z"/>
      <path class="cls-37" d="M58.85,52.36c.04-.5-.09-.81-.69-.82-.63,0-1.09-.32-1.21-1,.75.04,1.49.83,2.27.07,1.66.59.3,1.25.04,1.88l-.21-.03-.19-.09Z"/>
      <path class="cls-79" d="M61.64,54.86c-.07.3-.13.61-.2.91-.22-.22-.44-.43-.66-.64.21-.33.52-.37.86-.26Z"/>
      <path class="cls-148" d="M62.04,52.63c0,.36.06.75-.44.84-.25.19-.45.15-.6-.13.02-.15.06-.3.13-.43.3-.09.61-.19.91-.28Z"/>
      <path class="cls-37" d="M58.17,53.22c-.16-.1-.2-.23-.09-.36.04-.05.13-.06.2-.09-.04.15-.07.3-.11.45Z"/>
      <path class="cls-42" d="M30.06,69.85c-.33-.22-.66-.45-.99-.67-.41-.29-1.12.26-1.34-.4-.2-.6.22-.94.78-1.09.19-.15.38-.31.58-.46.21-.08.43-.16.64-.24.17-.08.34-.09.52-.02.33.15.66.31.96.53.15.12.24.28.28.47-.03.28-.08.55-.35.72-.47.29-.88.62-1.08,1.16Z"/>
      <path class="cls-81" d="M25.02,68.85c.29.07.57.13.86.2-.02.12-.04.24-.06.36-.38-.03-.76-.04-.79-.56Z"/>
      <path class="cls-105" d="M41.96,52.65c.02-.15.01-.3-.04-.44.2-.24.54-.49.68-.16.19.46-.29.54-.64.6Z"/>
      <path class="cls-29" d="M41.47,54.93c-.05.24-.2.37-.45.37-.07-.15-.06-.29.03-.43.13.07.27.09.42.06Z"/>
      <path class="cls-153" d="M54.63,54.4c.1.07.21.14.31.21-.08.07-.18.2-.25.2-.11-.01-.21-.12-.31-.19.08-.07.17-.14.25-.21Z"/>
      <path class="cls-193" d="M3.12,109.8c.27.11.59.19.63.53.05.34.08.75-.3.9-.09.03-.35-.38-.54-.59h-.11c-.17-.35-.1-.65.21-.89l.1.06Z"/>
      <path class="cls-102" d="M6.2,98.7c-.23.36-.36.28-.42-.1.14.03.28.06.42.1Z"/>
      <path class="cls-182" d="M2.74,115.22c-.62.08-.98,1.07-1.79.53-.15-.44.03-.85.11-1.27.08-.13.12-.28.14-.43.18-.12.35-.24.52-.36h.02c1.47-.23,1.51-.18,1,1.53Z"/>
      <path class="cls-141" d="M66.96,72.29c.41.2,1.65-.97,1.16.71v.02c-.34.31-.3.71-.23,1.1v.12c-.2.4-.69.19-.94.47l-.05.02c-.18.1-.35.1-.54.01-.15-.12-.28-.27-.38-.44-.09-.18-.14-.37-.16-.56,0-.41.1-.78.35-1.11.22-.22.47-.35.79-.34Z"/>
      <path class="cls-111" d="M67.14,75.26c-.3.34-.6.69-.89,1.03-.14.18-.31.22-.51.12-.52-.72-.11-1.12.5-1.45.21-.04.4.01.58.13.06.16.17.21.33.17Z"/>
      <path class="cls-213" d="M63.03,61.72c.23.07.46.15.69.22-.38.37-.7.58-.69-.22Z"/>
      <path class="cls-165" d="M57.28,107.81c-.1.19-.24.34-.46.28-.06-.01-.09-.16-.13-.25.2-.01.39-.03.59-.04,0,0,0,.01,0,.01Z"/>
      <path class="cls-181" d="M7.54,96.39c-.05.03-.12.09-.16.08-.04-.01-.06-.1-.09-.15.05-.03.12-.09.16-.08.04.01.06.1.09.15Z"/>
      <path class="cls-92" d="M1.13,112.12c.06-.29.11-.57.17-.86.57.41.44.68-.17.86Z"/>
      <path class="cls-138" d="M3.65,104.68c-.08.53-.06,1.11-.75,1.27.02-.3.03-.6.05-.91.06-.14.13-.29.19-.43.17.02.34.04.51.06Z"/>
      <path class="cls-54" d="M23.74,72.81c.14.01.28.01.42,0,0,0,.03.08.03.08.03.45-.15.57-.55.36v-.03c-.09-.12-.1-.22-.04-.3.06-.08.1-.12.14-.11Z"/>
      <path class="cls-86" d="M41.09,45.07l-.19-.04-.18-.08c-.24-.36-.48-.73-.71-1.09-.23-.71-.6-1.5.77-1.16.27.07.57.05.85.07.47.92.83,1.81-.53,2.3Z"/>
      <path class="cls-183" d="M41.09,45.07c.79-.62.24-1.56.54-2.3.13-.21.3-.34.57-.3.25.85.85,1.58.84,2.51-.38-.16-.69-.06-.95.24-.36.21-.68.11-.98-.14h0Z"/>
      <path class="cls-183" d="M42.36,41.98c.35.28.29.44-.14.47.05-.16.1-.32.14-.47Z"/>
      <path class="cls-134" d="M32.6,62.06c.39.1.66-.12.92-.36.15.05.3.1.45.15.3.32.51.68.55,1.13.02.43-.07.84-.32,1.19-.27.37-1.42.42-.45,1.24-.81.59-1.55.36-2.27-.18-.18-.22-.18-.44,0-.66.12-.1.17-.23.16-.38.29-.1.59-.17.85-.32.91-.49.93-.91.11-1.82Z"/>
      <path class="cls-44" d="M30.57,62.54c.27.02.65.01.69.3.02.17-.33.39-.52.58-.26-.25-.25-.56-.17-.88Z"/>
      <path class="cls-2" d="M49.09,109.87c.21.03.41.05.62.08.02.33.17.55.47.69-.06.12-.11.24-.14.37-.18.11-.37.23-.55.34-.15-.02-.3-.04-.46-.05.02-.47.26-.93.06-1.42Z"/>
      <path class="cls-65" d="M1.95,108.09c.25.12.51.25.33.6-.05.09-.26.19-.29.16-.28-.22-.12-.49-.06-.75h.02Z"/>
      <path class="cls-6" d="M57.17,1.53c0-.15.04-.29.09-.43.11.07.32.13.32.2,0,.28-.22.25-.41.23Z"/>
      <path class="cls-111" d="M66.33,77.36c-.14,0-.27,0-.41.01-.22-.35-.18-.67.1-.96.08-.04.15-.08.23-.12.38.33.18.71.08,1.07Z"/>
      <path class="cls-1" d="M68.15,75.42c.06.09.12.19.18.28-.05-.02-.12-.03-.14-.07-.03-.06-.03-.14-.04-.21h0Z"/>
      <path class="cls-151" d="M17.72,102.01c.24.29.55.54.7.86.69,1.52,1.69,2.4,3.49,2.02.21-.04.5.3.75.47.15,1.46,1.2,1.94,2.42,2.25,1.28.32,2.24.91,1.9,2.48-.27.19-.55.38-.82.57-.37-.04-.71-.01-.97.3-.42-.09-.84-.18-1.26-.27.04-.29.07-.57.11-.85-.43-.57-1.27-.21-1.71-.76-.44-.52-1.1-.62-1.67-.87-.3-.46-.98-.21-1.26-.68h0c.11-.28.21-.55.33-.81.17-.37-.06-.57-.32-.7-.6-.31-.47.22-.57.52-.12.38-.46.23-.73.27-.13-.07-.27-.14-.4-.2-.15-.39-.47-.5-.85-.52-.16,0-.28-.07-.36-.2.25-.65.87-1.37-.47-1.62-.48-.09-1.08-.06-1.44-.55-.27-.1-.53-.19-.8-.29-.41-.37-.81-.74-1.22-1.11,0-.13,0-.26-.04-.38,1.48-1.38,1.78-1.4,3.71-.45.47.23.98.37,1.48.55Z"/>
      <path class="cls-179" d="M22.33,109.06c.58.22,1.4-.07,1.71.77-.56-.08-1.13-.16-1.69-.24,0-.18-.01-.35-.02-.53Z"/>
      <path class="cls-77" d="M19.4,107.5c.5.08,1.01.14,1.26.68-.48.14-.84-.16-1.25-.31,0-.12,0-.25-.02-.37Z"/>
      <path class="cls-47" d="M61.01,53.35c.2.04.4.08.6.13-.23.2-.07.85-.61.64-.32-.13-.14-.51,0-.77Z"/>
      <path class="cls-172" d="M61.02,51.01c.15.02.29.05.43.09-.02.14-.05.28-.09.42-.23-.09-.34-.27-.34-.51Z"/>
      <path class="cls-37" d="M59.23,50.65c-.23-.17-.49-.34.04-.44-.05.14-.06.29-.04.44Z"/>
      <path class="cls-87" d="M71.27,96.67c.1.08.2.17.3.25-.38.23-.24-.11-.29-.26h-.01Z"/>
      <path class="cls-139" d="M66.43,92.85c.36.29.25.72.31,1.1.06.13.03.24-.09.32,0,0-.02,0-.02,0-.21.15-.37.1-.47-.13.09-.43.18-.86.27-1.29Z"/>
      <path class="cls-219" d="M66.96,72.29c-.18.14-.37.28-.55.42-.42-.03-.85-.09-1.23-.3-.35-.25-.75-.47-.47-1.01.58-.5,1.98.07,1.82-1.4.5.33.97.76,1.66.6.13.05.25.08.39.09.23.22.23.44.02.67v-.02c-.18.04-.37.05-.56.04-.29.09-.68-.43-.88.15-.06.25-.13.5-.19.75Z"/>
      <path class="cls-51" d="M67.15,71.54q-.04-.56.92-.32c.09.1.11.19.07.26-.05.08-.09.12-.12.11-.29-.02-.58-.04-.86-.06Z"/>
      <path class="cls-106" d="M68.59,71.37c0-.22-.01-.45-.02-.67.15-.2.35-.29.6-.22.02.44.09.91-.58.89Z"/>
      <path class="cls-106" d="M68.01,71.6c.02-.13.04-.25.05-.38.18.04.36.08.53.12-.11.29-.29.4-.59.25Z"/>
      <path class="cls-210" d="M.97,119.62c-.02.15-.05.29-.09.44-.29-.06-.59-.12-.88-.18.25-.36.61-.33.97-.25Z"/>
      <path class="cls-83" d="M55.09.17c-.03.14-.02.28.01.41-.06.16-.12.32-.18.47l-.23-.03-.2-.11c-.12-.12-.26-.23-.41-.32-.03-.08-.05-.17-.08-.25.1-.1.17-.21.22-.34.28.06.57.11.85.17Z"/>
      <path class="cls-26" d="M26.97,110.09c-.4-1.26-1.16-2.03-2.57-2.05-.54,0-.97-.38-1.46-.59-1.32-.57-.99-1.29-.29-2.09,1.55.97,3.1,1.41,4.67.03.01.42.42.87-.14,1.22-.31.2-1.12-.07-.83.66.2.5.79.21,1.23.16,1.8-.19,2.16.16,2.02,2.08-.04.57.37.56.64.76-.09.09-.18.19-.27.28-1-.16-1.99-.31-2.99-.46Z"/>
      <path class="cls-18" d="M7.21,109.69c0,.14-.02.28-.07.41-.18.11-.36.22-.55.33-.37-.24-.37-.58-.25-.96.29.07.58.14.87.21Z"/>
      <path class="cls-62" d="M30.47,65.34c.26.02.45-.08.56-.32.13.02.26.02.39,0,.78.02,1.57.77,2.33-.05-.18-.25-.1-.47.09-.68.13-.49.26-.99.39-1.48.99-1.05,1.65-.47,2.24.45-.22.78.75,1.23.55,2h0c-.35.17-.33.62-.63.84-.04.26-.18.41-.45.43-.1-.19-.35-.26-.38-.48-.01.02.05.18.06.19.14.07.24.16.31.29-.09.25-.28.34-.53.31-.24.01-.44.14-.63.27l-.03.02c-.31.21-.34.61-.57.87l.02-.02c-.29.07-.49.22-.57.52.02.13-.03.2-.16.23-.76.4-.94-.34-1.33-.67v.03c-.08-.14-.09-.3-.03-.45.08-.13.19-.23.32-.28.1-.05.22-.1.32-.14-.02,0,.07-.13.05-.13-.02,0-.15,0-.16.01-.14.03-.26.05-.39.07-.31.12-.61.21-.94.21-.46.02-.95.16-1.29-.3l-.13-.06h-.15c.04-.29.07-.57.11-.86.56,0,.52-.46.63-.81Z"/>
      <path class="cls-204" d="M21.72,78c0-.12,0-.24.03-.36-.13-.33.08-.76-.28-1.03h0c-.04-.23,0-.46.11-.67.04-.1.08-.19.15-.28.26.04.53.07.79.1.57-.19,1.07-.11,1.46.38h0c.18.19.22.42.15.67-.06.15-.14.29-.24.42-.14.19-.29.39-.43.59-.09.14-.19.27-.3.39-.13.22-.24.45-.39.66-.12.14-.27.21-.45.19-.2-.35-.41-.7-.61-1.05Z"/>
      <path class="cls-119" d="M24,76.14c-.49-.13-.98-.25-1.46-.38.13-.42.25-.84.38-1.26.34-.12.68-.24,1.01-.36l.14.12s.13-.12.14-.12c.16.03.22.12.19.28-.62.46-.3,1.14-.39,1.73Z"/>
      <path class="cls-117" d="M24.39,74.42c-.17-.09-.35-.19-.52-.28v-.04c-.08-.28-.15-.57-.23-.85.18-.12.37-.24.55-.36.15.01.29.05.43.09.19.06.38.13.56.2l.08.15.14-.09c.94.24,1.64-.16,2.07-1.14.71,1.09.11,1.5-.31,1.97-.48.24-.96.48-1.51.55-.44.06-.74-.75-1.26-.21Z"/>
      <polygon class="cls-204" points="23.87 74.1 23.87 74.14 23.93 74.14 23.87 74.1"/>
      <path class="cls-21" d="M36.47,63.25c-.73-.22-1.37-.93-2.24-.45-.3-.26-.3-.6-.26-.95.18-.13.37-.26.55-.39.27.02.45-.1.55-.35.26,0,.44-.13.54-.36.14.02.27.02.41-.01.41.31.83.62,1.24.92-.02.65-.37,1.14-.78,1.6Z"/>
      <path class="cls-118" d="M11.21,102.16c.08-.32.28-.43.59-.37-.06.12-.12.24-.18.37-.14.03-.27.03-.41,0Z"/>
      <path class="cls-77" d="M14.59,103.69c.91-.13,1.79,0,2.63.34.4.17.82.46.74,1.02-.09.62-.63.52-1.06.61-.14.03-.27.13-.4.19l-.21-.02-.21-.05c-.02-.26-.13-.45-.4-.5-.13-.17-.27-.34-.4-.51-.06-.41-.35-.59-.7-.71,0-.13,0-.25.02-.38Z"/>
      <path class="cls-13" d="M53.89,1.24c-.27-.05-.55-.09-.82-.13,0-.14.03-.28.08-.41.25-.02.41-.17.52-.38.11,0,.23,0,.34.03.07.03.14.08.19.14.05.18-.02.31-.17.4-.03.12-.08.24-.14.36Z"/>
      <path class="cls-198" d="M47.4,41.98c-.56.4-.96-.21-1.45-.24-.4-.02-.92.46-1.19-.13-.18-.39.12-.8.53-.8.52,0,1.06-.92,1.55-.01.21.38.66.64.57,1.17Z"/>
      <path class="cls-223" d="M47.56,48.24c-.06.11-.13.22-.2.32-.64.18-1.68-.86-1.88.63-.49-.45-.24-.97-.14-1.47.42-.12.25-1.14,1.04-.69-.12.91.52,1.07,1.19,1.22Z"/>
      <path class="cls-146" d="M46.53,37.24c.05.54.52,1.12-.16,1.57-.07.04-.32-.04-.36-.12-.26-.63-.1-1.13.52-1.45h0Z"/>
      <path class="cls-215" d="M46.37,47.03c-.48.03-.46.82-1.04.69-.04-.47.03-.93.52-1.13.37-.15.53.07.53.44Z"/>
      <path class="cls-190" d="M46.01,50.85c-.06.25-.04.6-.38.64-.3.03-.5-.17-.53-.49.3-.05.61-.1.91-.15Z"/>
      <path class="cls-116" d="M43.95,41.58c-.12.04-.26.15-.35.12-.24-.09-.26-.29-.14-.5.09-.15.24-.17.35-.01.08.11.09.26.14.4Z"/>
      <path class="cls-124" d="M40.99,30.03c-.51.02-.54-.43-.71-.74-.11-.14-.12-.23-.04-.26.05-.02.11-.02.19,0,.87-.05.68.49.56,1Z"/>
      <path class="cls-129" d="M40.43,29.04c0,.12-.05.2-.15.26-.13.06-.25.11-.38.17-.01-.21-.03-.42-.04-.63.19.07.38.13.57.2Z"/>
      <path class="cls-146" d="M50.24,32.86c.1-.18.19-.37.28-.55.35.41-.08.42-.29.55h0Z"/>
      <path class="cls-103" d="M54.93,25.83c-.07.11-.16.22-.21.34-.01.03.08.11.13.16.07.31.14.61.22.92-.76.48-.56,1.35-.75,2.03-.16.62.45.35.75.4-.04.28-.09.57-.13.85l-.03-.03c.53.43.03,1.2.53,1.64.27.72.6,1.44.04,2.18-.69.11-1.19.34-.72,1.17.03.1.06.2.09.31-.39.81-.83.44-1.16-.02-.3-.41-.35-1-.9-1.22-.2-.07-.36-.19-.48-.36h0c-.19-.96.12-1.91.12-2.87.11-.52.19-1.06.37-1.55-.07-.19.59-.3.06-.57-.2-.32-.04-.69-.19-1,.03-.15.05-.3.08-.45.35-.16.35-.58.58-.83h0c.19-.11.36-.25.54-.37q-.07-1.69,1.24-1.62c-.06.29-.13.59-.19.88Z"/>
      <path class="cls-123" d="M59.01,20.19c-.04.14-.09.28-.14.41-.63.16-.69.69-.77,1.21-.63.44-.9,1.27-1.7,1.52-.26-.02-.52-.03-.77-.05.06-.82.19-1.62.77-2.26.92-.12,1.54-1.18,2.61-.83Z"/>
      <path class="cls-131" d="M52.73,34.33c.69-.23,1.18-.08,1.23.73.03.58.09,1.09.89.74.56.32,1.28.56.59,1.4-.13.06-.27.07-.41.05-.8-.71-1.85-1.11-2.45-2.06.02-.14.04-.29.05-.44-.08-.12-.09-.23-.03-.32.06-.09.1-.13.14-.12Z"/>
      <path class="cls-30" d="M52.95,31.07c-.21,1.05-.43,2.1-.64,3.15-.46-1.25-.5-2.52-.13-3.81.53-.1.57.37.77.66Z"/>
      <path class="cls-45" d="M52.95,31.07c-.26-.22-.52-.44-.77-.66.16-.73.33-1.46.49-2.19.21.35.43.71.65,1.06-.12.6-.24,1.19-.37,1.79Z"/>
      <path class="cls-45" d="M53.33,26.94c.1.48.22.98-.58.83.05-.38.16-.71.58-.83Z"/>
      <path class="cls-30" d="M52.73,34.33c-.03.15-.06.29-.11.44-.11-.19-.21-.37-.32-.56.14.03.28.07.42.12Z"/>
      <path class="cls-45" d="M53.87,26.57c-.18.12-.36.25-.54.37.18-.12.36-.25.54-.37Z"/>
      <path class="cls-53" d="M62.2,18c-.38.1-.54.4-.69.71-.29-.05-.58-.11-.87-.16-.11-1.39-.09-1.4,1.71-.94-.06.12-.11.25-.14.38Z"/>
      <path class="cls-34" d="M52.86,69.93c.24.16.5.49.73.46,1.63-.16.94.49.42,1.1.1.15.11.27.04.38-.07.1-.13.14-.18.13-.15-.04-.29-.07-.44-.1-.25-.33-.61-.17-.92-.21-.16-.02-.29.04-.37.19,0,.15-.06.28-.16.39-1.02.18-1.21.97-1.32,1.81-.87-3.09-.8-6.37-2.04-9.47.73.69,2.05-.21,2.39,1.1.05.22.18.4.3.58v.02c.23.19.49.35.55.66.01.19-.01.37-.07.55-.14.31-.22.62.03.92.29.33.58.64.83.99.08.16.15.32.22.48Z"/>
      <path class="cls-71" d="M52.86,69.93h-.21l-.18-.11c-.39-.94-.55-1.93-.5-2.94-.05-.29.01-.59-.04-.89-.13-.72-.19-1.46-.4-2.16-.18-.6.23-.78.53-1.07,1.52-.25,1.14.77,1.07,1.59.2.64-.37,1.29.06,1.92.12.17.25.33.39.48h0c.21.36.76.23.96.62.24.08.47.16.71.24.22.33.14.59-.16.81-1.31-.35-1.7.67-2.22,1.49Z"/>
      <path class="cls-225" d="M53.48,78.85c.34.9-.17,1.18-.8.76-1.52-1.02-.74.56-1.06.87-.73-.96-.65-2.11-.7-3.21-.05-1.05.04-2.1-.25-3.13.47.13.94.26,1.4.39.05.28-.04.59.15.85-.24,1.21-.68,2.45.65,3.35,0,0,.2.07.19.07,0,0,.06.19.06.19,0,0,.14-.14.15-.14,0,0,.21,0,.21,0Z"/>
      <path class="cls-225" d="M51.82,81.51c.72-.45,1.44-.95,1.9.29h0c.56.82.3,1.28-.64,1.27-.6,0-1,.13-1.18.72-.59-.74-.13-1.52-.08-2.28Z"/>
      <path class="cls-127" d="M17.57,86.97c.42.29.74.74,1.28.83-.17.72-1.07.81-1.28,1.5-.61-.19-1.55-.05-1.21-1.2-.02-.83.84-.71,1.21-1.12Z"/>
      <path class="cls-29" d="M42.01,58.76c.19-.11.39-.21.58-.32.38-.06.76-.12,1.14-.19-.44.82-.43,2.08-1.87,1.93-.19-.06-.37-.11-.55-.17.05-.52.45-.86.71-1.26Z"/>
      <path class="cls-114" d="M44.04,58.16c.31-.73-.67-.51-.72-.97.17-.77.6-.64,1.1-.32.63.01,1.25.03,1.88.04-.38,1.1-1.68.51-2.26,1.24Z"/>
      <path class="cls-33" d="M56.86,64.15c-.38-.05-.78-.15-1,.31-.54.11-.64-.31-.8-.66,0-.15.04-.29.12-.42.36,0,.76.09,1.07-.05,1.5-.66.54.45.61.82Z"/>
      <path class="cls-175" d="M48.13,63.38c-.48-.76-.48-1.3-.27-2.1.68.7.86,1.23.27,2.1Z"/>
      <path class="cls-203" d="M53.13,64.36c-.69-.3,0-1.55-1.07-1.59.4-.55.93-.3,1.42-.22.1.19.23.37.35.54,0,.13-.01.26-.04.39-.1.39-.3.72-.69.89l.03-.02Z"/>
      <path class="cls-97" d="M50.13,60.47c-.64.56-1.28.39-2.26.07.99-.62,1.63-.16,2.28-.05l-.02-.03Z"/>
      <path class="cls-180" d="M53.1,64.37c.1-.4.17-.82.69-.89.23.38.46.75.7,1.13-.62.87-.95-.02-1.38-.24Z"/>
      <path class="cls-136" d="M49.67,56.14c.27.06.55.13.82.19-.86.88-.98.86-1.36-.21.18,0,.36.02.54.03Z"/>
      <path class="cls-118" d="M55.06,63.8c.27.22.53.44.8.66-.04.14-.07.29-.11.43-.13.14-.28.25-.47.3-.29-.19-.57-.37-.85-.56.02-.43.4-.57.64-.83Z"/>
      <path class="cls-25" d="M32.13,68.04c.44.22.88.45,1.33.67-.13.45-.45.47-.82.34-.5-.17-.59-.55-.5-1.02Z"/>
      <path class="cls-186" d="M55.46,61.98c.27.04.66.09.65.37-.01.41-.41.48-.78.49.04-.29.08-.57.12-.86Z"/>
      <path class="cls-134" d="M36.38,66.09c.04-.41.18-.74.63-.84-.07.38-.31.64-.63.84Z"/>
      <path class="cls-25" d="M34.16,67.99c0-.41.11-.76.57-.87-.16.31-.22.69-.57.87Z"/>
      <path class="cls-25" d="M32.33,67.61c-.06.15-.12.31-.19.46h-.13s-.12-.05-.12-.05c-.26.14-.44.08-.54-.2l-.08-.07c-.05-.24.04-.41.25-.52.34-.02.65.01.81.38Z"/>
      <path class="cls-125" d="M31.35,67.82c.18.07.36.13.54.2-.13.36-.25.72-.74.67.07-.29.14-.58.21-.88Z"/>
      <path class="cls-225" d="M51.61,80.46c.4.28.41.64.21,1.04-.33-.29-.27-.66-.21-1.04Z"/>
      <path class="cls-131" d="M51.55,66.88c-.2-.13-.28-.31-.24-.55.15.04.31.08.46.12.04.07.08.15.12.22-.04.19-.15.26-.33.21Z"/>
      <path class="cls-131" d="M51.92,65.99c.08.18.16.37.25.55-.21.14-.35.08-.43-.15l.03.05c.05-.15.1-.3.15-.45Z"/>
      <path class="cls-131" d="M51.29,66.31c-.28-.1-.39-.29-.3-.58.1.19.2.39.3.58Z"/>
      <path class="cls-201" d="M53.83,63.09c-.25-.1-.37-.27-.35-.54.32.05.43.24.35.54Z"/>
      <path class="cls-173" d="M50.15,60.5c.08-.06.16-.12.25-.18-.02.04-.03.11-.07.12-.06.03-.13.02-.19.03l.02.03Z"/>
      <path class="cls-100" d="M50.9,58.92s-.07.08-.11.12c-.06-.06-.13-.13-.19-.2.06-.03.13-.11.18-.1.05.01.08.11.12.17Z"/>
      <path class="cls-204" d="M17.49,92.09c-.33-.14-.36-.28-.02-.44.05.15.06.29.02.44Z"/>
      <path class="cls-25" d="M33.61,68.49c.07-.3.26-.47.57-.52-.04.33-.26.47-.57.52Z"/>
      <path class="cls-25" d="M34.76,67.1c.15-.22.36-.32.63-.27-.21.09-.42.18-.63.27Z"/>
      <path class="cls-207" d="M56.86,73.97c.39-1.21,1.77-.62,2.43-1.34,1.3,1.25,1.59-.02,2.02-.83.16-.3.28-.51.64-.49.96,0,.73.86,1,1.37.27.83.05,1.65-.12,2.46-.04.4-.02.8,0,1.21,0,1.32.13,2.62.46,3.91.02.2.02.41.01.61-.05.59-.19,1.18,0,1.77.11.4.21.79.11,1.21-.07.2-.19.36-.36.49-.51.21-1,.14-1.47-.12-.19-.23.04.1-.15-.15-.09-.11-.16-.22-.23-.34.03.11.11.19.14.3-.09.43-.37.69-.73.89-.54.19-1.01.23-1.12-.51.1-.77.26-1.54.16-2.33-.07-.48.03-1.02-.55-1.31-.59.44-.02.91-.04,1.36.02.58-.09,1.07-.76,1.23-.86-.29-1.6-.8-2.24-1.43-.19-.08.23-.36-.12-.39-.16,0-.24-.07-.25-.23-1.4-.77-.39-2.16-.8-3.23-.36-.93-.15-2.08-.18-3.14.91.49,1.12-.13,1.29-.82.26-.24.53-.41.87-.13Z"/>
      <path class="cls-94" d="M56.15,81.4c.41.87,1.9.55,1.98,1.79.46.5.63,1.19,1.11,1.68.55.62.96.2,1.36-.19.22-.28.44-.57.67-.85h0c.59.13,1.18.25,1.77.38.91,1.52-.09,3.08.12,4.62h0c-.38.74-.29,1.45.25,2.06.84.94,1.21,2.13,1.85,3.18.13.1.16.19.1.26-.06.07-.12.1-.16.09.09.22.18.45.26.68-.57,2.09-.7,2.19-3.29,2.51.08-.29.17-.58.24-.87.14-.66,1.3-.53,1.15-1.17-.17-.75-.62-1.54-1.18-2.06-.61-.56-1.09-1.28-1.06-1.91.06-1.33-.72-1.78-1.64-2.34-.43-.26-.63-.42-1.13-.07-1.25.86-2.25.24-3.28-.79.54-.52,1.2.37,1.61-.24-.08-1.36-1.73-.97-2.2-1.9.16-.2.4-.27.63-.34.24-.07.41-.22.47-.48.05-.47.59-.85.17-1.42-.62-.84-.49-1.79-.26-2.73.14.02.29.05.43.07l.02.04Z"/>
      <path class="cls-74" d="M56.86,73.97c-.21.11-.42.21-.63.32-.42.36-.88.53-1.41.26-.63-.64-.23-1.31-.06-1.97.89.18,1.98.06,2.11,1.39Z"/>
      <path class="cls-84" d="M54.82,74.55c.48-.05.88-.52,1.41-.26q-.41,1.31-1.52.63c.03-.13.06-.25.11-.37Z"/>
      <path class="cls-94" d="M57.04,90.17c.56-.21,1.11.12,1,.52-.17.63-.52,0-.77-.14-.11-.06-.15-.24-.23-.38Z"/>
      <path class="cls-162" d="M52.14,71.2c.51.09,1.07.1,1.29.71-.49.12-.97.25-1.46.37-.03-.08-.03-.16,0-.23-.19-.33-.13-.61.17-.85Z"/>
      <path class="cls-171" d="M55.78,85.43c.37.38.62.74-.12.98-.22-.33-.71-.29-.91-.65.23-.47.67-.28,1.03-.33Z"/>
      <path class="cls-74" d="M53.86,72.01c.05-.17.09-.34.13-.51.46.22.76.54.76,1.08-.41-.02-.75-.15-.9-.58Z"/>
      <path class="cls-88" d="M54.76,85.76c.36.13.77.2.91.65-.33-.05-.65-.11-.98-.16-.03-.13-.08-.25-.09-.38,0-.03.1-.07.16-.11Z"/>
      <path class="cls-225" d="M52.87,78.72c.26-.23.46-.18.6.13l-.1.08c-.18.08-.32.05-.45-.1l-.06-.1Z"/>
      <path class="cls-135" d="M65.2,94.41c0-.12.01-.24.06-.35.3.03.59.05.89.08.16.04.31.09.47.13-.43.5-.91.5-1.43.14Z"/>
      <path class="cls-19" d="M66.58,98.84c-.1.06-.21.12-.31.18-.02-.14-.06-.28-.06-.42,0-.02.14-.08.2-.07.17.04.23.15.17.3Z"/>
      <path class="cls-104" d="M57.03,38.55c-.09.36-.25.64-.65.72.1-.34.12-.76.65-.72Z"/>
      <path class="cls-29" d="M44.42,56.87c-.39.01-.81-.06-1.1.32-.31-.29-.68-.59-.53-1.06.14-.47.57-.26.9-.25.19.27.64.2.75.59-.01.13-.02.27-.01.4Z"/>
      <path class="cls-23" d="M44.43,56.47c-.34-.08-.65-.2-.75-.59.19-.28.39-.56.58-.85,1.36.32.57.9.17,1.43Z"/>
      <path class="cls-168" d="M50.02,55.32c0,.1.02.21,0,.3,0,.03-.09.05-.14.08-.02-.15.02-.28.13-.38Z"/>
      <path class="cls-10" d="M63.17,83.73c-.14-.33-.29-.65-.43-.98.06-.08.13-.17.19-.25.16-.13.35-.22.55-.27.99.23,1.96.11,2.91-.23.12.06.24.11.37.15.4.6.66,1.2.14,1.87-.18.33.06.61.11.91-.26.08-.91-.07-.28.5.21.2.43.39.65.58.71,1.02-.63.73-.77,1.21-.14,0-.27,0-.4-.03-.52-.72-.82-1.7-1.96-1.7-.21-.02-.17-1.25-.62-.13-.88-.34-.04-1.16-.45-1.63Z"/>
      <path class="cls-158" d="M66.4,82c-1.2,1.33-1.38,1.35-2.89.39-.19.11-.41.18-.57.34,0,0-.2.02-.2.02-.35-.65-.02-1.27.1-1.9.49-.12.99-.23,1.42-.5.18-.1.37-.16.57-.2.21,0,.38.09.5.26.25.05.51.11.76.16.39.15.77.29,1.16.44-.27.35-.88.4-.86.99Z"/>
      <path class="cls-28" d="M70.9,82.54c-.18.11-.37.23-.55.35-.28-.03-.46.07-.55.35-.41.08-.43.23-.09.46-.03.29.09.47.37.53-.68,1.57-1.23.3-1.83-.08-.14-.28-.29-.57-.43-.85-.05-.49.33-.59.66-.74.47-.34.98-.64,1.23-1.2.43.11.85.15,1.19-.22.43-.08.27-.85.86-.73.11.18.22.36.33.54.02.85-.42,1.36-1.21,1.59Z"/>
      <path class="cls-112" d="M68.5,82.56c-.22.25-.44.49-.66.74-.31.24-.62.48-.93.72-.04-.62-.09-1.25-.14-1.87.63-.09,1.2.11,1.73.41Z"/>
      <path class="cls-111" d="M65.34,80.41c-.17-.02-.35-.04-.52-.06-.63-.78-1.28-1.57-.12-2.44.22-.04.41.03.57.19,0,.25.04.47.33.54,1.04.75.13,1.22-.25,1.76Z"/>
      <path class="cls-52" d="M65.27,78.11c-.12-.05-.24-.08-.37-.11-.16-.08-.28-.19-.37-.33-.1-.14-.19-.28-.29-.41-.07-.05-.12-.11-.19-.17-.3-.2-.64-.29-.97-.41-.27-.11-.48-.3-.65-.52-.05-.39-.09-.79-.14-1.18.97-.13.93-1.38,1.79-1.62.94-.54,1.29.64,2.03.7h0c.21.3.01.72.3.98h0c-.3.41-.86.75-.37,1.38-.03.32-.07.64-.1.96-.03.15-.11.26-.25.33-.1.17-.23.3-.4.4h0Z"/>
      <path class="cls-111" d="M65.27,78.11c.04-.23.17-.37.4-.4,0,.13,0,.26-.02.39-.13,0-.25,0-.38,0Z"/>
      <path class="cls-12" d="M40.95,25.79c-.05.21-.15.37-.39.37-.04,0-.12-.13-.1-.17.08-.22.27-.26.48-.21v.02Z"/>
      <path class="cls-154" d="M59.04,67.43c.12.17.24.35.37.52.1.19.21.38.31.57.13.15.19.33.18.53-.06.19-.18.34-.34.45-1.65.32-2.29-.22-1.98-1.72.23-1.12.84-.83,1.47-.35Z"/>
      <path class="cls-228" d="M62.54,72.88c-.57-.38-.13-1.15-.59-1.57.6-.43,1.2-1.28,1.8,0-.07.14-.06.27.02.39.05.87-.5,1.12-1.23,1.18Z"/>
      <path class="cls-46" d="M61.46,69.74c.33.68.18,1.04-.61.78-.33-.11-.6-.43-.89-.65.42-.94.98-.33,1.5-.13Z"/>
      <path class="cls-90" d="M61.46,69.74c-.51-.03-1.03-.21-1.5.13-.27.03-.42-.08-.41-.36.05-.19.09-.37.14-.56.5-.18.95-.06,1.36.24.23.11.41.26.41.54Z"/>
      <path class="cls-209" d="M55.89,71.14c.22.08.36.23.25.46-.04.09-.22.17-.31.15-.23-.05-.36-.23-.26-.46.04-.08.21-.11.32-.16Z"/>
      <path class="cls-3" d="M61.05,69.2c-.45-.08-.91-.16-1.36-.24-.04-.15-.03-.29.03-.43.48.12.95.23,1.43.35-.06.1-.09.21-.09.32Z"/>
      <path class="cls-126" d="M55.68,68c.39-.11.4-.9,1.03-.58.03.93-.82.08-1.04.51v.06Z"/>
      <path class="cls-131" d="M55.68,68s0-.06,0-.06c-.12.26-.29.47-.6.51.06-.27.11-.54.17-.81.15.12.29.24.44.37Z"/>
      <path class="cls-32" d="M62.74,63.06c-.12.45-.25.9-.37,1.36-.1-.02-.2-.04-.3-.07-.09-.33-.18-.66-.28-.99h-.03c.17-.13.33-.27.49-.41.16.03.33.07.49.1Z"/>
      <path class="cls-99" d="M60.32,61.15c.14.04.28.09.42.15-.01.14,0,.29.01.43.04.17,0,.31-.14.42h-.02c-.15-.02-.3-.06-.45-.1.06-.3.12-.61.18-.91Z"/>
      <path class="cls-131" d="M54.53,67.38c-.43-.04-.82-.14-.96-.63.34.18,1.42-.76.96.63Z"/>
      <path class="cls-131" d="M53.58,66.76c-.13-.16-.26-.32-.39-.48.13.16.26.32.39.48Z"/>
      <path class="cls-131" d="M55.28,65.19c.16-.1.31-.2.47-.3.02.15,0,.29-.05.43l-.22-.02-.2-.11Z"/>
      <path class="cls-82" d="M62.07,64.35c.1.04.2.06.3.07.07.31-.02.71-.3.66-.25-.05-.22-.47,0-.73Z"/>
      <path class="cls-192" d="M62.54,72.88c.12-.7,1.04-.56,1.23-1.18.25,0,.42-.14.53-.35.13.01.27.03.4.05.06.4.33.59.71.66.77,1.33-.96.93-1.12,1.62-.52.15-.48.7-.72,1.04-.33.47-.75.73-1.29.26.22-.68.64-1.34.26-2.1Z"/>
      <path class="cls-59" d="M65.5,70.18c-.09.09-.17.18-.26.27-.2-.36.11-.24.25-.28,0,0,0,.01,0,.01Z"/>
      <path class="cls-208" d="M55.89,3.19c.14-.16.26-.41.44-.46.28-.08.77-.07.77.25.02.56-.51.29-.82.35h-.21s-.18-.13-.18-.13Z"/>
      <path class="cls-159" d="M69.65,90.73c0,.14-.01.28-.04.41-.3-.03-.41-.21-.41-.49.15.03.3.05.45.08Z"/>
      <path class="cls-195" d="M63.17,83.73c.54.39.03,1.17.58,1.55.21-.24.38-.2.49.09.49.11.88-.79,1.38-.19.47.56.87,1.2.59,2.01h0c-.1.1-.22.14-.36.15-.12.06-.22.15-.29.27,0,0-.21,0-.21,0l-.14-.16c-.42-.03-.96-.16-1.05.42-.09.64-.66.64-1,.95-.3-.06-.81-.2-.71-.42.64-1.35.12-2.85.58-4.2.04-.16.09-.31.13-.47Z"/>
      <path class="cls-10" d="M65.21,87.45c.18-.12.36-.24.54-.36h0c.15.04.3.07.46.11-.12.4-.23.8-.35,1.19-.21-.31-.43-.63-.64-.95Z"/>
      <path class="cls-86" d="M41.1,45.08c.33.05.65.1.98.14-.03.15-.05.31-.08.46-.34.08-.65,0-.93-.19,0-.14.01-.28.03-.42Z"/>
      <path class="cls-177" d="M19.15,79.39c.12,0,.25,0,.37,0,.25-.12.5-.25.77-.35.09-.02.18-.04.28-.06.09.02.18.04.28.06.06.08.11.15.17.23.13.4.45.54.82.62.25-.18.39-.12.43.18-.11.45-.11.95-.6,1.21-.61-.15-.83.4-1.2.68-.01.12-.03.24-.06.36-.23.41-.71.05-.98.33-.2-.06-.4-.11-.59-.17-.38-.61-.12-1.22,0-1.82,0-.23-.04-.44-.28-.54.2-.25.41-.49.61-.73Z"/>
      <path class="cls-70" d="M18.81,80.67c.8.61.19,1.22,0,1.82-.39.17-.46.54-.53.91l.04-.02c-1.03.78-.97-.33-1.3-.75.06-.16.11-.31.17-.47.88-.13,1.09-1.01,1.65-1.49h-.03Z"/>
      <path class="cls-110" d="M18.29,83.4c.5.1,1,.21,1.69.35-.46.67-.97,1.19-1.58.97-.67-.24-.19-.88-.08-1.34,0,0-.04.02-.04.02Z"/>
      <path class="cls-54" d="M25.65,74.62c.34-.64.85-.8,1.51-.55-.31.7-.71,1.18-1.51.55Z"/>
      <path class="cls-122" d="M17.57,86.97c.12.93-.78.77-1.21,1.12-.37-.94-.15-1.14,1.21-1.12Z"/>
      <path class="cls-78" d="M22.33,79.05c.15-.02.24-.11.25-.26.22-.3.25-.73.63-.91v.02c.15-.11.29-.1.43.04.07.11.08.22.05.32-.03.11-.06.16-.08.15-.1.26-.2.52-.29.78-.11.19-.34.28-.42.49l-.18-.09c-.21.15-.38.13-.5-.11.04-.14.08-.28.12-.42Z"/>
      <path class="cls-191" d="M24.5,76.29c.5.05,1.18,0,.34.72-.14.12-.17.37-.26.56-.13.15-.29.23-.49.23-.19-.03-.35-.13-.47-.29-.04-.21.03-.36.23-.44h-.02c.29-.2.25-.68.66-.79Z"/>
      <path class="cls-214" d="M20.45,81.98c.33-1.13.5-1.22,1.2-.68-.4.23-.8.45-1.2.68Z"/>
      <path class="cls-188" d="M19.41,82.67c.18-.53.62-.33.98-.33.03,1.16-.64.27-.98.33Z"/>
      <path class="cls-140" d="M27.73,70.89c.11.08.22.16.33.23-.06.04-.14.13-.17.12-.12-.06-.22-.15-.33-.22.06-.04.12-.09.17-.13Z"/>
      <path class="cls-17" d="M26.12,75.97c-.15.04-.3.11-.43.09-.07-.02-.17-.22-.15-.3.06-.18.23-.21.38-.09.09.07.13.2.2.3Z"/>
      <path class="cls-119" d="M24.5,76.29c-.18.3-.19.74-.66.79.05-.32.1-.63.15-.95.17.05.34.1.51.15Z"/>
      <path class="cls-226" d="M22.21,79.48c.17.04.34.07.5.11-.16.17-.31.33-.46.5-.14-.06-.29-.12-.43-.18.02-.25.1-.43.39-.42Z"/>
      <path class="cls-119" d="M22.9,79.68c.14-.16.28-.33.42-.49-.03.26-.17.43-.42.49Z"/>
      <path class="cls-119" d="M23.61,78.41c.01-.16.03-.33.04-.49.08-.04.16-.08.24-.11.08.03.16.05.25.08,0,.09.01.17.02.26-.18.09-.36.18-.54.26Z"/>
      <path class="cls-119" d="M24.16,77.58c.14.03.29.03.43,0-.03.28-.2.45-.43.57l-.08-.1c-.13-.13-.16-.24-.09-.33.07-.1.12-.14.17-.13Z"/>
      <path class="cls-54" d="M25.41,73.24c-.13.18-.19.13-.23-.06.07.02.15.04.23.06Z"/>
      <path class="cls-66" d="M18.85,80.66c-.29.79-.28,1.9-1.65,1.49.21-.4.43-.81.64-1.21.18-.12.36-.23.55-.35.15.02.31.05.46.07Z"/>
      <path class="cls-132" d="M16.49,80.67c.16.03.31.07.47.1-.07.22-.03.58-.42.46-.07-.02-.04-.36-.05-.55Z"/>
      <path class="cls-177" d="M20.17,78.52c.1-.11.2-.22.3-.33.3.11.56.27.63.62,0,0-.12.19-.12.19-.15.03-.29.08-.42.17h-.01c-.47-.01-.69-.18-.38-.65Z"/>
      <path class="cls-222" d="M21.1,78.82c.1.1.2.2.3.3-.13.05-.27.11-.4.16h-.02c-.09-.19-.05-.34.11-.46h0Z"/>
      <path class="cls-119" d="M21.47,76.61c.43.25.38.63.28,1.03-.48-.24-.38-.63-.28-1.03Z"/>
      <path class="cls-119" d="M21.59,75.94c-.04.23-.07.46-.11.69-.46-.31-.36-.53.11-.69Z"/>
      <path class="cls-119" d="M20.17,78.52c.13.22.25.44.38.66-.29.33-.66.32-1.04.23.08-.28.16-.57.25-.85.14,0,.27-.01.41-.03Z"/>
      <path class="cls-29" d="M42.04,56.82c-.3-.01-.61-.03-.91-.04.09-.33.13-.77.61-.66.31.07.3.42.3.7Z"/>
      <path class="cls-20" d="M39.19,61.47c-.4-.18-.29-.53-.27-.84.56.13.42.48.27.84Z"/>
      <path class="cls-204" d="M15.21,91.03c.17-.09.28-.21.37-.19.26.03.58,0,.67.36-.14.03-.28.11-.41.08-.2-.04-.39-.15-.64-.25Z"/>
      <path class="cls-72" d="M55.87,52.16s-.09-.08-.13-.11c.06-.06.12-.12.19-.18.03.06.1.12.09.17-.01.05-.1.08-.15.12Z"/>
      <path class="cls-85" d="M31.5,67.41c-.11.09-.19.21-.23.34-.52-.05-1.18.18-1.26-.68.46-.02.93-.04,1.39-.06.19.04.27.12.23.22-.04.13-.08.19-.13.18Z"/>
      <path class="cls-50" d="M54.03.89c0-.16.07-.29.17-.4.1.14.19.28.29.42-.15,0-.31-.01-.46-.02Z"/>
      <path class="cls-67" d="M64.29,73.67c.14-.32.12-.77.62-.81.53-.04.51-.43.5-.81.43.06.83.18.99.65-.1.45-.21.89-.31,1.34-.72.45-1.1-.77-1.8-.37Z"/>
      <path class="cls-111" d="M66.4,75.03c-.37-.24-.37-.6-.3-.98.13.21.27.42.4.63-.01.12-.04.24-.1.35Z"/>
      <path class="cls-134" d="M35.92,66.52c-.37-.14-.74-.28-1.12-.41-.18-.22-.48-.26-.66-.48,1.14-.8,1.42.13,1.79.89,0,0-.01,0-.01,0Z"/>
      <path class="cls-125" d="M31.5,67.41c-.05-.13-.09-.26-.1-.4.38-.1.76-.21,1.13-.31.13.2.39.29.46.54,0,.17-.08.3-.22.41-.15,0-.3-.02-.45-.03-.27-.07-.55-.13-.83-.2Z"/>
      <path class="cls-25" d="M32.96,66.68c.25-.19.54-.31.72,0,.18.32-.05.51-.37.59-.23-.13-.38-.31-.36-.6Z"/>
      <path class="cls-69" d="M34.15,65.63c.34-.01.6.1.66.48-.3-.04-.64-.04-.66-.48Z"/>
      <path class="cls-115" d="M32.96,66.68c.21.15.44.28.36.6h-.02c-.14.12-.28.11-.42.01-.23-.13-.42-.29-.34-.59.14,0,.28,0,.43-.02Z"/>
      <path class="cls-25" d="M32.88,67.29c.14-.05.28-.05.42,0-.17.12-.34.24-.51.35.03-.12.06-.23.1-.35Z"/>
      <path class="cls-119" d="M23.86,77.08c-.03.15-.05.3-.08.45.07.19.02.34-.17.42l.05-.03c-.15-.03-.3-.04-.45-.03.03-.43.19-.74.66-.82Z"/>
      <path class="cls-119" d="M23.21,77.88c-.06.41-.22.75-.63.91-.01-.46.14-.8.63-.91Z"/>
      <path class="cls-45" d="M53.6,28.73s.15.12.14.14c-.06.12-.12.26-.22.33-.2.16-.27.09-.14-.13.07-.12.15-.23.23-.35Z"/>
      <path class="cls-170" d="M51.74,66.39c.14.05.29.1.43.15.06,1.1.83,2.13.29,3.28-.46-.2-.57-.67-.81-1.05-.34-.5.1-1,0-1.5-.02-.14-.05-.27-.09-.4.06-.16.13-.32.19-.48Z"/>
      <path class="cls-107" d="M51.64,67.28c.52.5.09,1,0,1.5-.41-.09-.94-.09-1-.6-.09-.68.84-.39,1-.9Z"/>
      <path class="cls-185" d="M52.14,71.2c-.06.28-.11.56-.17.85-.47.02-.9-.09-.79-.66.14-.7.6-.28.96-.19Z"/>
      <path class="cls-211" d="M52.93,78.82c.15.03.3.07.45.1-.06.2-.11.44-.39.3-.07-.03-.04-.26-.06-.4Z"/>
      <path class="cls-64" d="M53.73,81.81c-.08.45-.11.96-.78.8-.1-.03-.26-.23-.24-.32.12-.59.52-.66,1.02-.49h0Z"/>
      <path class="cls-212" d="M62.42,76.16c.29.04.58.09.87.13.28.48.96.26,1.26.7l.02.03c.11.2.24.38.27.62-.02.13,0,.25.06.37-.99.75.26,1.58-.08,2.35h-.02c-.61.09-1.21.91-1.83.02-.83-1.32-.75-2.76-.54-4.21Z"/>
      <path class="cls-93" d="M59.06,85.37c-1.3-.31-.63-1.45-.93-2.18.55-.25.68-.75.72-1.29.07-.05.15-.1.22-.14.27-.07.53-.04.78.06.14.1.26.23.35.38-.26.73.57,1.76-.62,2.23-.14.33-.08.78-.53.94Z"/>
      <path class="cls-200" d="M60.2,82.2c-.21-.07-.41-.14-.62-.22-.24-.24-.5-.22-.77-.05,0,0,.04-.04.04-.04-1.02-.35-.88-1.11-.56-1.83.27-.61.78-.73,1.21-.14.49.66.83,1.4.7,2.27Z"/>
      <path class="cls-206" d="M62.96,80.37c.62.36,1.22-.15,1.83-.03-.52.67-.98,1.54-1.95.52.04-.16.08-.32.12-.49Z"/>
      <path class="cls-56" d="M59.06,85.37c.09-.36.11-.77.53-.94.21.64.69.09,1.02.24-.36,1.21-.69,1.36-1.54.7Z"/>
      <path class="cls-212" d="M59.73,77.24c.29-.3.64-.15.97-.13.34-.12.65-.11.87.24.06.12.07.26.05.39.13.24.08.43-.16.57-.15-.06-.3-.11-.45-.17-.37-.48-.96.19-1.34-.25v-.02c-.08-.22-.06-.44.06-.64Z"/>
      <path class="cls-4" d="M58.71,75.78c-.17-.13-.36-.25-.51-.41-.15-.16-.33-.35-.19-.58.24-.41.47-.07.7.04.27.12.53.27.52.63-.17.11-.35.21-.52.32Z"/>
      <path class="cls-58" d="M59.67,77.9c.47-.05,1.03-.6,1.34.25-.28.09-.58.14-.83.28-.98.59-.4-.3-.51-.53Z"/>
      <path class="cls-11" d="M56.13,81.36c.1-.29-.03-.78.52-.68.13.02.32.33.3.49-.08.6-.49.27-.79.23,0,0-.02-.04-.02-.04Z"/>
      <path class="cls-58" d="M61.57,77.35c-.29-.08-.58-.16-.87-.24.37-.21.76-.49.87.24Z"/>
      <path class="cls-58" d="M61.46,78.32c.05-.19.1-.38.16-.57.19.21.34.44.13.7-.11.13-.25.05-.29-.12Z"/>
      <path class="cls-94" d="M61.27,83.82c-.06-.05-.16-.12-.16-.14.06-.14.12-.09.15.14h0Z"/>
      <path class="cls-58" d="M59.73,77.24c-.02.21-.05.43-.07.64-.4-.26-.25-.46.07-.64Z"/>
      <path class="cls-137" d="M58.71,75.78c.09-.25.26-.35.52-.32.02.43-.18.49-.52.32Z"/>
      <path class="cls-22" d="M64.24,85.38c-.16-.03-.32-.06-.49-.09.05-.26.05-.6.44-.48.06.02.03.38.04.58Z"/>
      <path class="cls-142" d="M62.94,82.73c.06-.33.26-.43.57-.34-.05.34-.27.41-.57.34Z"/>
      <path class="cls-111" d="M64.55,76.99c-.4-.27-1.08-.03-1.26-.7.47.14,1.05.09,1.26.7Z"/>
      <path class="cls-111" d="M64.84,77.63c-.09-.21-.18-.41-.27-.62.2.16.3.36.27.62Z"/>
      <path class="cls-10" d="M65.75,87.09c-.06-.05-.17-.12-.16-.14.07-.14.13-.09.15.14h0Z"/>
      <path class="cls-119" d="M21.09,78.82c-.04.15-.07.3-.11.45-.14-.03-.28-.06-.42-.1.18-.12.35-.23.53-.35Z"/>
      <path class="cls-43" d="M23.6,77.95c.06-.14.11-.28.17-.42.13.03.26.04.38.05-.03.15-.05.31-.08.46-.16-.03-.32-.06-.48-.09Z"/>
      <path class="cls-207" d="M58.81,81.94c.26-.04.55-.57.77.05-.26-.01-.51-.03-.77-.05Z"/>
    </g>
  </g>
</svg>