<?xml version="1.0" encoding="UTF-8"?>
<svg id="Layer_2" data-name="Layer 2" xmlns="http://www.w3.org/2000/svg" viewBox="0 0 52.77 120.69">
  <defs>
    <style>
      .cls-1 {
        fill: #232323;
      }

      .cls-1, .cls-2, .cls-3, .cls-4, .cls-5, .cls-6, .cls-7, .cls-8, .cls-9, .cls-10, .cls-11, .cls-12, .cls-13, .cls-14, .cls-15, .cls-16, .cls-17, .cls-18, .cls-19, .cls-20, .cls-21, .cls-22, .cls-23, .cls-24, .cls-25, .cls-26, .cls-27, .cls-28, .cls-29, .cls-30, .cls-31, .cls-32, .cls-33, .cls-34 {
        fill-rule: evenodd;
        stroke-width: 0px;
      }

      .cls-2 {
        fill: #272727;
      }

      .cls-3 {
        fill: #4b4d4d;
      }

      .cls-4 {
        fill: #2a2626;
      }

      .cls-5 {
        fill: #1d1d1d;
      }

      .cls-6 {
        fill: #656565;
      }

      .cls-7 {
        fill: #1c1c1c;
      }

      .cls-8 {
        fill: #474848;
      }

      .cls-9 {
        fill: #2f3030;
      }

      .cls-10 {
        fill: #181818;
      }

      .cls-11 {
        fill: #212222;
      }

      .cls-12 {
        fill: #464646;
      }

      .cls-13 {
        fill: #303030;
      }

      .cls-14 {
        fill: #7b7c7c;
      }

      .cls-15 {
        fill: #484848;
      }

      .cls-16 {
        fill: #1d1e1e;
      }

      .cls-17 {
        fill: #333131;
      }

      .cls-18 {
        fill: #6f6d6d;
      }

      .cls-19 {
        fill: #0a0a0a;
      }

      .cls-20 {
        fill: #242424;
      }

      .cls-21 {
        fill: #c6bbbb;
      }

      .cls-22 {
        fill: #3b3c3c;
      }

      .cls-23 {
        fill: #646565;
      }

      .cls-24 {
        fill: #111;
      }

      .cls-25 {
        fill: #4a4b4b;
      }

      .cls-26 {
        fill: #899090;
      }

      .cls-27 {
        fill: #2a2a2a;
      }

      .cls-28 {
        fill: #0c0c0c;
      }

      .cls-29 {
        fill: #282828;
      }

      .cls-30 {
        fill: #686565;
      }

      .cls-31 {
        fill: #3c3c3c;
      }

      .cls-32 {
        fill: #3d3e3e;
      }

      .cls-33 {
        fill: #333;
      }

      .cls-34 {
        fill: #2e2e2e;
      }
    </style>
  </defs>
  <g id="Objects">
    <g>
      <path class="cls-10" d="M52.52,7.02l-.09.1.06.11c-.49,1.31-.56,2.76-1.26,4v-.03c-.11.16-.24.31-.37.46-.44.58-1.14.81-1.82,1.37,1.18.72,1.23,1.69.61,2.81-.44.8-.66,1.72-1.24,2.44-1.22,1.52-2.43,3.02-1.19,5.12.13.21-.05.55-.15.81-.1.25-.19.51-.24.79-.07.65.11,1.24.37,1.82.04.19.04.37,0,.55-.11.32-.34.62-.17.99.1.15.15.3.18.48-.02.08-.04.17-.06.25-.05.07-.11.14-.16.21-.33.28-.79.37-1.06.74-.1.15-.2.3-.29.45-.09.86-.42,1.62-.83,2.36-1.58,2.87-1.67,5.7.28,8.47.28.4.36.91.55,1.36.37.69.3,1.42.18,2.16-.02.26-.06.52-.13.77-.05.16-.13.31-.23.43-.37.25.18.29.11.47.07.27.05.52-.03.78-.1.26-.25.5-.42.72-.19.23-.41.4-.67.54-1.58.55-3.15,1.2-4.95.61.45,1.83.92,3.67.17,5.21-.48.98-1,1.7-.5,2.74.55,1.13-.34,1.06-.96,1.23-.12,0-.22-.07-.35-.08.09.08.19.15.3.22.11,1.66.68,3.33-.25,4.94-.22.19-.47.33-.72.48-.25.25-.61.52-.61.84,0,.77-1.51.54-.96,1.72.53,1.14-1.07,1.55-1.19,2.49-.13.98.29,1.93.26,2.96-.02.77-.04,1.45-.63,1.84-.76.51-1.09-.33-1.48-.75-1.2-1.27-3.07-.61-4.36-1.57-.07-.19.2-.28.14-.47-.17.07-.05.3-.21.38-.75,1.19.43.68.72.71.53.06,1,.07,1.07.73.06.55-.2.96-.64,1.25-.85.55-1.71.59-2.56-.02-1.1-.8-1.27-2.11-.75-3.03.94-1.65.29-3.32.54-4.96-.02-.91.01-1.81-.02-2.71-.01-.2.03-.38.12-.56.29-.38.44-.82.49-1.29.04-.29.12-.57.24-.83.67-1.82,1.67-3.54,1.66-5.57,0-.49.15-1.05.48-1.38,1.28-1.32.68-2.71.12-4-.46-1.06-.52-1.8.09-2.9.63-1.14,1.45-2.44.91-3.95-.09-.26-.2-.05-.05-.18,1.36-1.21,1.76-2.96,2.22-4.45.65,0,.28-.46.41-.21.04.08,0,.12-.15.14-.49.05-1.39-.34-1.28.52.27,2.14-1.46,2.66-2.68,3.54-.93.67-1.53,1.62-2.3,2.32-1.72,1.55-2.77,3.71-4.86,4.92-.97.56-1.92,1.38-1.8,2.94.11,1.47-1.73,1.89-2.24,3.12-.63,1.28-2.56.76-3.06,2.21.02.19.03.37.05.56-.01,1.31-.12,2.59-1.56,3.18-.94.38-.62,1.33-.96,1.98-.18.11-.38.15-.59.12-.86.02-1.63-.28-2.36-.7h.01c-.1-.15-.14-.31-.13-.5.05-.47-.21-.88-.22-1.34,2.1-2.99,3.54-6.36,5.63-9.39,1.06-1.53,2.13-3.43,2.77-5.41.24-.75,1.41-1.7,2.58-1.84.85-.1,1.64-.38,2.46-.55.2.22.28-.37.17-.11-.02.05-.05.01-.13-.02-1.1-.47-.6-1.03-.1-1.61,1.41-1.63,3.11-2.88,5.06-3.78.46-.21.82-.53,1.23-.79.1-.09.24,0,.36-.06-.08-.09-.18-.17-.29-.24-.74-1.32.25-1.72,1.15-2.18,1.02-.52,2.45-.77,1.3-2.51-.32-.49.38-.98.72-1.41,1.02-1.26,1.58-2.6,1.08-4.27-.36-1.2.09-1.93,1.43-1.88,1.02.04,1.89-.48,2.83-.66.13-.01.24,0,.3.02-.1-.05-.22-.06-.38-.04-.63.15-1.26.21-1.86.1-1.24-.23-1.57-.81-.52-1.76.44.01.84.52,1.31.1-.36.26-.7.16-1.02-.08.05-1.45,1.15-2.6,1.13-4.1-.01-.76.35-1.3-.36-2.2-.82-1.05.86-.85,1.44-1.25.25.02-.29-.37-.19-.1.06.16.04.18-.08.18-1.76,0-1.05-2.08-2.24-2.75-.37-.21,1.54-1.17,3.06-.4-.82-1.14-.84-1.19-1.98-.61-1.02.52-1.87.8-2.17-.71-.1-.49-.64-.51-.86-.87-.11-.77.04-1.44.74-1.9l-.04.04c.06-.3.38-.34.54-.55.1-.16.19-.31.29-.47,1.07-.7,1.51-2.43,3.27-1.99l-.04-.05c.5.29.1.92.49,1.25h0c.26.21.17.6.43.82l.03.02c.12.14.25.26.4.36l.06.05c.17.3.58.18.77.45h0c.15.13.29.27.42.41h0c.15.15.33.27.37.5l-.03-.04c.36.18.28.59.46.86l-.02-.02c.57.93-.26,1.83.02,2.69.37-1.36,1.5-2.47,1.84-3.95l-.04.05c.04-.23.21-.37.39-.5h0c.22-.24.13-.65.46-.84l-.02.03c.19-.26.1-.69.48-.85l-.02.03c.5-.83.68-1.81,1.23-2.61v.02c.19-.26.13-.65.41-.88h0c.11-.11.22-.24.32-.37.2-.29.25-.64.41-.94.14-.12.29-.22.45-.31.71-.13,1.4-.65,2.12-.06l.05.07c.34.23.65.52,1.09.57.17.04.32.12.45.24.12.12.23.25.33.4,0,.09,0,.17.02.24.18-.05-.5.49.12.16.1-.06.2-.12.33-.15.19.01.33.1.42.27.28.84-.4,1.77.21,2.58.17.07.3.18.4.32l-.02-.04c.41.4.35.82.04,1.24Z"/>
      <path class="cls-11" d="M36.89,63.31c.28,0,.56,0,.84,0,1.35-.64.61-2.83,2.41-3.2.31-.06-.1-.59-.2-.91-.65-2.12-.08-3.4,1.93-4.27.26-.11.58-.13.6-.48.03-.43-.32-.5-.65-.67-1.25-.64-1.53-1.86-.45-2.28,1.52-.58,2.47-1.72,3.67-2.64.18.14.32.3.43.49.66,1.41.45,2.89.35,4.36-.13.66-.5,1.19-.95,1.66-.39.34-.37.67-.07,1.09.29.4.59,1.19.27,1.35-1.82.96-.63,2.21-.47,3.37.29,2.1-.3,3.14-2.18,3.93,1.08,2.31,1.01,2.5-1.42,3.43-.48.18-.91.43-.97,1-.3,2.92-1.53,5.71-1.07,8.75.11.73.47,1.11.82,1.6.54.93,1.39,1.71,1.47,2.89-.84,1.8-1.83,3.51-3.33,5.05.81.53,2.28.72,1.77,2.12-.56,1.55.42,3.89-2.22,4.44-.82.17-1.51.88-1.4,1.65.22,1.52-.97,2.96-.15,4.48.12.23.14.63-.03.82-1.63,1.87-.95,3.56.33,5.24.12.15.03.41-.04.61-.66.87-1.76,1.13-2.57,1.8-.58.47-1.04.13-1.38-.4-.31-.25-.66-.47-.81-.93.03.64.65.7.92,1.08-.33,1.86-1.8.94-2.64.88-2.28-.17-2.27-.3-2.04,1.96.06.55.19,1.12-.1,1.66-1.1.5-1.13-.39-1.35-1.04-.11-.28-.23-.56-.28-.86l.06-.11-.09-.09c-.33-.39-.19-.99-.57-1.36-.23-.67.12-1.42-.26-2.07l.02.03c-.58-.66,0-1.54-.43-2.23.1-.1.1-.2-.02-.29-.49-1.47-.1-2.98-.23-4.46.14-1.2.48-2.27,1.37-3.2.87-.91.8-2.21.87-3.39.02-.42-.04-.91-.72-.56-.48.25-.97.35-1.16-.35-.17-.6-.05-1.3.54-1.44,2.42-.6,3.2-2.74,4.41-4.48.94.15.79.88.66,1.46-.14.67-.13,1.31-.04,1.9.06-.31-.14-.71.05-1.08.38-.75.99-1.13,1.83-1.15-.39-.41-.81-.8-.65-1.45.18-.76,1.36-.84,1.22-1.81.04-.2.12-.38.22-.55.73-.69,1.26-1.79,2.6-1.29.28.1.56-.15.64-.43.42-1.48,1.83-2.76.82-4.53-.41-.73-.58-1.58-.21-2.45.24-.57.23-1.11-.49-1.38-1.77-.67-.73-1.59-.04-2.15.71-.57,1.01-1.08.79-1.94-.27-1.11-.27-2.17.17-3.28.51-1.31-.34-2.59-.39-3.9Z"/>
      <path class="cls-24" d="M35.19,22.67c-.36.25-.64.59-.49,1.02.14.41.59.2.9.25.72.1,1.53-.27,2.12.43h0c-1.18.59-2.19,1.64-3.77,1.02-.58-.22-.76.47-.53,1,1.1,2.51-.21,4.25-1.85,5.9-.04.48.43.43.65.64.43.41,1,.66-.08,1.29-.73.43-1.45,1.12-2.27,1.4-1.21.41-1.14,1.01-.62,1.87h0c-.68.57-.93,1.86-2.29,1.34-.36-.14-.57.29-.79.57-.46.61-.58,1.74-1.85,1.26-.14-.05-.62.39-.73.68-.28.73-.72,1.28-1.44,1.55.31.55.65.5.99.4.35-.1.54.04.54.39,0,.23-.15.36-.41.36-1.15-.01-1.99,1.27-3.31.74-.24-.1-1.02.13-.91.58.13.54.04.61-.4.53-.39-.06-.89-.38-1,.28-.08.47.63.5.78,1.07-1.85.78-2.54,2.46-2.91,4.28-.12.61-.07,1.13-.91,1-.11-.02-.23.14-.36.19-.85.39.06,1.48-.67,1.82-.68.32-1.05.7-1.01,1.49.03.55-.03,1.12-.58,1.49-1.33.9-1.7,2.49-2.63,3.68-1.44.45-2-.71-2.58-1.57-.57-.84.16-1.45.77-1.93.9-.71,1.06-1.96,2.13-2.68-.98.01-1.74-.16-1.65-1.19.06-.78.67-1.07,1.37-.94,1.08.2,1.08-.81,1.85-1.4-.04.01-.63-.16-.42.03.07.06.02.07-.1.13-1.12.59-1.69.05-1.45-.99.17-.74.2-1.51.45-2.23.07-.2.26-.33.39-.49-2.86-1.52.51-2.02.46-2.95-.65.38-.96,1.45-2.07,1.35-.21-.28-.26-.54.07-.77l-.02.02c.8-1.32,1.3-2.86,2.64-3.81.14.06.23.02.27-.13.39-.48.32-1.24.95-1.56l-.02.04c.45-.81,1.02-1.53,1.73-2.14l-.02.03c.55-1.01.84-2.17,1.7-3l-.02.03c.8-1.14,1.23-2.52,2.23-3.53.03-.19.1-.36.22-.52,1.3-.97,1.37-2.93,2.98-3.65h.01c.31-.44.24-1.36,1.2-.98.17,1.96-1.1,3.28-2.15,4.67-.45.59-1.13,1.01-1.5,1.89.56.58,1.65.59,2.01,1.47,0,.35-.03.73.51.38.71.02,1.42.03,2.1.15.57.1,1.65.02.85,1.14-.19.26-.13.2.05.12.43-.19,1,.09,1.31-.48.9-1.65,2.97-2.62,2.82-4.88-.01-.19.21-.38.4-.45,2.67-.93,2.58-3.34,2.2-5.25-.29-1.48.55-2,1.02-2.9.12-.15.25-.29.37-.44,1.01-1.7-.1-2.93-.98-4.18-.69-.98-1.2-1.91.12-2.95-.8.36-.9,1.42-1.84,1.33-.26-.21-.31-.48-.23-.79.14-.37.31-.73.62-.98h0c.4-.32-.03-.98.51-1.23.15.05.25,0,.32-.14.3-.13.16-.6.53-.67l-.04.02c.82-.55.67-1.72,1.47-2.28.27-.08.53-.19.8-.25.76-.15,1.14.04.68.85-.18.32-.38.62.02.9.25.18.52.16.79.01.74-.4,1.7-.56,1.66-1.84.86.66.68,2.14,2.07,1.91.15-.02.29.35.09.5-.36.27-.52.93-1.15.72-.25-.09-.47-.31-.66-.51-.98-.96-1.55-.37-2.07.52.66.28,2.13-.14,1.19,1.43-.18.3-.03.57.24.69.58.25.42-.3.56-.55.06-.1.22-.21.32-.2.29.03.25.29.25.49.01,1.14-1.2.78-1.71,1.46.25.58,1.08-.24,1.26.39.14.51-.08.96-.29,1.41-.14.31-.28.66-.28,1-.01,1.47-.42,2.77-1.49,3.81Z"/>
      <path class="cls-7" d="M36.89,63.31c1.36,1.15,1.44,3,1,4.18-.57,1.52-.27,2.77-.05,4.14.08.48-.2.69-.52.75-.84.17-1.15.83-1.61,1.62.67.06,1.47-.3,1.84.48.3.64.19,1.24-.27,1.76-.4.45-.33.92-.02,1.35.68.94.18,2.26,1.05,3.14.05.05-.05.37-.08.37-1.75.03-1.02,1.65-1.57,2.44-.33.47-.61.93-1.31.31-.38-.34-.99-.52-1.28.36-.1.31-.66.46-1.01.69-.1-.1-.21-.18-.37-.18.14.01.27.07.37.18.13.54.26,1.07.38,1.58-.42.58-1.41-.32-1.56.64-.2,1.21,1.11.85,1.74,1.36-3.59.84-2.79.94-3.34,3.52-.25-1.57-.78-2.77-.27-4.07.04-.1-.22-.32-.34-.48-1.44-.03-2.78.02-2.39-2.2.21-1.16-1.1-1.64-1.91-2.27-.1-.18-.17-.36-.2-.57-.06-.19-.1-.39-.13-.59-.01-.2-.02-.4-.01-.6.17-1.15.61-1.55,1.62-.6-1.97-1.9-1.08-4.31-1.2-6.56.01-.39.22-.77.05-1.17l.09-.12-.09-.12c-.29-1.05.06-2.01.4-2.97l-.02.02c.48-1.09-.23-2.48.85-3.43.23.18.46.46.33.71-.6,1.13-.29,1.99.86,2.63-1.5.67-1.74,1.22-1.67,2.77.04.98.71,1.34,1.39,1.64.64.28,1.46-.34,2.04-1.46-.79-.06-1.5-.18-2.24,0-.27.07-.57-.05-.66-.38-.13-.47.15-.52.54-.62.38-.1.71-.41,1.07-.63.06.61.3.78.71.24.27-.35.86-.78.9-.35.13,1.39.81.81,1.52.7.36-.06.77.28,1.04.64.36.5.73.99,1.33,1.81.03-.97,1.03-1.55-.15-2.21-.24-.13-.28-.48-.21-.77.11-.5.96.16.85-.48-.06-.33-.61-.55-.81-.9-.18-.32.11-.64.26-.96.37-.78,1.23-1.12,1.65-1.82-.35-.56-.84.06-1.27-.39.76-1.12,2.12-1.8,2.64-3.14Z"/>
      <path class="cls-10" d="M34.34,120.02c-.28-.2-.56-.17-.84-.01-.56.33-1.11.4-1.64-.05h0c-.28-.14-.62-.11-.87-.33l-.07-.02c-.31-.41-.88-.05-1.2-.41l-.05-.02c-.26-.28-.7-.18-.97-.44-.46-.49-1.14-.77-1.42-1.45-.06-.2-.09-.41-.1-.62-.13-1.26.54-1.96,1.65-2.33,1.06-.36,2.09-.82,3.06-1.36,1.56-.88,3.13-1.07,4.81-.52,1.04.31,2.03.72,2.82,1.5.5.57.77,1.23.79,1.99.04.38-.3.75-.04,1.15h0c.4.66.5,1.44.86,2.12h0c-.32,1.12-1.03.59-1.67.38-.28-.18-.56-.17-.84,0-.4.21-.7.74-1.27.41-.14-.11-.28-.1-.42.01-.14.17-.29.33-.51.38l.03-.04c-.37.48-.77.37-1.19.07h-.01c-.25-.23-.64-.14-.86-.41Z"/>
      <path class="cls-27" d="M39.43,80.25c-.65-.71-1.79-1.27-.74-2.48-.57-.88-.47-1.82-.25-2.78.33-1.42.65-2.85.98-4.27.05-.2.1-.41.19-.6.21-.47-.81-.93.05-1.43.64-.37,1.36-.98,1.98-.73,1.03.43,1.06-.43,1.02-.76-.08-.54.05-1.32-.74-1.56-.43-.13-.45-.46-.49-.79.13-.1.23-.22.34-.24,2.2-.35,2.91-1.67,2.17-3.86-.33-.96-.76-1.93-.62-2.98.52-.2.88.17,1.39.17.17-.56-.06-1.1-.38-1.47-.6-.7-.65-.66.2-1.2.66.1,1.2.39,1.5,1.02-.09.5.16,1.07-.29,1.5l.02-.04c-.5,1.4.18,2.92-.44,4.31l-.06.1.07.09c-.25.45.02,1.06-.44,1.45l.02-.04c-.54.55.39,1.15-.07,1.7l.04-.04c-.47,2.41.26,4.88-.39,7.27l.02-.03c-.18.21-.1.44-.03.66v.02c-.05.31-.33.42-.54.58-.43.47-.16,1.09-.35,1.6-.1.26-.21.52-.55.56-1.2.13-1.33.26-1.56,1.75-.19,1.24-1.75,1.34-2.03,2.5Z"/>
      <path class="cls-29" d="M25.41,82.79c1.98-.16,2.14,1.6,2.82,2.76.3.52-.5.5-.73.85.73.35,1.46.7,2.18,1.05,0,1.68-1.22,2.74-2.09,3.96-.29.41-.67.62-1.26.55-.98-.11-1.39.42-1.23,1.49.59-.32,1.11-.61,1.83-.66.52,2.3.37,4.39-1.72,5.93-.52.38.6,1.39-.61,1.43-.43-.54,0-1.26-.38-1.81.11-.18.15-.37,0-.56.25-.93.28-1.86.01-2.79l.02.04c-.41-.3-.44-.74-.43-1.19.1-.31.11-.67.48-.81l-.03.02c.4-2.42-.21-4.89.32-7.3.15-.23.15-.47.05-.72.61-.63-.92-1.97.75-2.25Z"/>
      <path class="cls-13" d="M39.43,80.25c0-.42,0-.85.02-1.27.02-.37.12-.72.59-.68.4.03.83.3,1.02-.32.26-.82-.5-1-.92-1.43.46-.79,1.3-.38,1.9-.62.18-.56.22-1.11-.06-1.72,1.11.06.59,1.05,1.04,1.39.29-.17.11-.48.21-.7.2-.45-.77-1.36.53-1.37.13,1.82.27,3.64-.08,5.45-.2.36-.21.74-.06,1.12-.12.35-.27.7.02,1.03v-.02c.27.28.27.55-.01.82v-.02c-.21.25-.12.67-.47.84l.02-.04c-.09.16-.2.31-.34.43-.5.22-1.03.37-1.54.55-.39-.24-.51-.52-.17-.9-.56-.85-1.13-1.69-1.69-2.54Z"/>
      <path class="cls-26" d="M27.66,60.76c-.07.31-.14.63-.21.94-.08.03-.17.07-.25.1-.09,0-.18.01-.27.02-.57-.08-.99.24-1.4.56-.15.1-.31.18-.48.24-.17.06-.33.14-.47.25v-.02c-.25.29-.64.25-.96.41-.38.01-.76.03-1.13.04-.92.42-1.88.15-2.82.18-.49-.9.33-.83.76-1.05,1.68.04,3.15-.15,3.89-2.05.33-.84,1.39-1.15,2.17-1.57,1.03-.55,1.05.49,1.33,1.06.04.32-.05.61-.17.9Z"/>
      <path class="cls-18" d="M42.42,95.9c0,.15.02.29.02.44.04.5-.21.5-.56.33-.22-.25-.33-.55-.38-.87-.07-.53-.07-1.06-.07-1.58-.18-1.07.51-2.17-.13-3.23.05-1.87,0-3.75.45-5.56.14-.55-.02-1.71,1.25-1.15-.1,1.19.32,2.43-.27,3.58l.02-.05c-.15.33-.19.65.03.96l-.02-.02c.13.08.17.17.14.26-.03.1-.07.14-.11.14.03.15.06.29.1.44.11.98.39,1.98-.15,2.93l.02-.05c-.13.2-.11.39.02.58,0,.2,0,.39-.01.59-.37.72.05,1.56-.35,2.27Z"/>
      <path class="cls-8" d="M45.88,56.14c-.64,0-1.11-.26-1.37-.87.29-.42.57-.85.86-1.27.37-1.6.19-3.27.68-4.86.18-.58.09-1.27.78-1.59.41.02.48.35.6.64-.09.11-.09.21.02.3.12.11.15.2.09.27-.05.07-.1.1-.16.1l.03-.03c-.27.41,0,.97-.37,1.35-.14.21-.16.43-.04.66-.5,1.13.26,2.44-.49,3.53l.03-.05c-.42.53.35,1.49-.65,1.8Z"/>
      <path class="cls-29" d="M25.83,73.8c.02.62.06,1.25.06,1.87.01,1.44-.19,2.9.75,4.2.26.36.27.92.35,1.4.08.47-.1.89-.6.88-.58-.01-.33-.47-.24-.77.1-.35.16-.68-.2-.93-.68.16-.39.79-.56,1.19-.56-.02-.55-.43-.57-.83,0-.19,0-.39,0-.58,0-.29-.03-.58.19-.82.15-.27.17-.55.05-.84.17-1.6-.28-3.3.75-4.76Z"/>
      <path class="cls-3" d="M48.71,40.04l-.08.12.06.13c-.26.44-.02,1.01-.37,1.43-.1.09-.12.19-.04.31-.49.97.19,2.11-.43,3.07v-.04c-.15.11-.32.11-.48-.02-.12-.15-.2-.31-.26-.49-.09-.37-.1-.74-.11-1.12-.01-.19,0-.38,0-.57,0-.19.02-.38.05-.58.29-1.12.41-2.27.57-3.41,0-.19.01-.38.03-.57.03-.29.07-.57.05-.86,0-1.03-.76-2.51,1.36-2.25.19.14.29.32.3.56.13,1.48-.32,2.88-.65,4.29Z"/>
      <path class="cls-15" d="M49.95,30.48c-.15.3-.14.59,0,.89-.52,1.28.27,2.72-.47,3.97l.02-.07c-.02.21-.12.26-.3.15-.05-.06-.11-.13-.17-.19-.66-1.06-1.31-2.12-.95-3.46.34-.67.5-1.38.52-2.14.02-.7.39-.98,1.08-.64.27.47.01,1.03.27,1.49Z"/>
      <path class="cls-30" d="M43.18,115.58c0,.18.02.35.02.53-.76.64-1.67.19-2.49.33-1.13-.76.01-1.55-.03-2.33.32-.33.72-.39,1.15-.3.2.08.35.21.46.39v-.04c.35.15.24.6.51.79h0c.17.19.33.37.36.63Z"/>
      <path class="cls-4" d="M49.09,1.11c-.83.14-1.61.55-2.48.39-.12-.07-.17-.16-.15-.25.02-.1.05-.15.09-.15.14-.05.18-.14.12-.28.05-.25.2-.42.39-.56h0c.81-.34,1.57-.48,2.07.48-.03.12-.04.25-.04.37Z"/>
      <path class="cls-14" d="M41.04,105.65c.15.99-.03,2.03.5,2.96-.11.29-.08.58.06.86.12.29.02.45-.29.5-1.51-1.55-1.6-2.91-.27-4.31Z"/>
      <path class="cls-4" d="M51.81,2.7c.67.32.14.92.32,1.35.23.28.25.56,0,.84.02.14.04.29.05.43.1.15.08.28-.04.41-1.27-.88-.7-1.97-.33-3.03Z"/>
      <path class="cls-4" d="M50.38,1.93c-.58.02-1.17.04-1.25-.76.08-.02.16-.02.25-.02.24.02.43.17.62.31.08.11.18.15.31.1.18.05.25.12.21.22-.04.1-.09.16-.14.16Z"/>
      <path class="cls-34" d="M19.04,63.66c-.36-.02-.68.05-.88.38-2.08-.11-4.17-.21-6.25-.32-.06-.11-.11-.22-.15-.33.17-.05.34-.09.52-.14.25-.35,1.02-.05.97-.86-.02-.36.07-1,.38-1.14,2.48-1.09,2.57-3.73,3.76-5.65,1.03-.32,1.82-.81,2.39-1.86,1.21-2.2,3.17-3.74,5.19-5.17,1.35-.95,3.81-.47,4.75.84.26.35.42.8.25,1.19-.86,1.97-.96,4.07-1.2,6.15-.04.36-.25.65-.69.66-.76-.54-.52-1.39-.63-2.13-.08-.55-.02-1.23-.64-1.45-.69-.25-1.2.27-1.64.72-.87.87-1.42,2.03-1.64,3.14-.35,1.74-.89,3.29-2.06,4.62-.15.28-.42.4-.7.5-.43.14-.99-.06-1.27.48-.16.12-.31.25-.47.37Z"/>
      <path class="cls-19" d="M.56,54.51c.29-.02.38-.21.39-.47.38-.18.64-.48.84-.84.55-.23.9-.6.89-1.24.68-.16.99-.69,1.28-1.24,1.3-.6,1.72-2.22,3.11-2.71.99-.14,1.24-.88,1.39-1.71,0,0,0,0,0,0,1.29-.47,1.64-1.81,2.59-2.74.6.37.49.9.24,1.4-.22.45-.62.75-1.06.99-.52.29-.99.65-.71,1.32.26.63.89.1,1.33.31.04.69-1.53.83-.6,1.84.32.35-.14.62-.34.87-.33.41-.69.84.02,1.17,1.03.49.48-.75.91-.9,1.27,1.1-.11,1.91-.31,2.85-.11.53-.38.24-.58.1-.3-.2-.59-.4-.97-.3-.44.13-.8.37-.55.9.19.42.34,1.11.84.1.18-.37.78.29.73.33-.46.39.9.85-.06,1.12-.32.09-.7,0-.76.5-.12,1.09-.86,1.69-1.74,2.22-.64.38-.63.96-.07,1.37.66.48,1.1,1.3,2.01,1.43.12.43,1.56.89-.01,1.3h-.01c-.12-.19-.3-.31-.5-.4-.24-.03-.48-.07-.72-.1-.54-.3-1.09-.61-1.63-.91-.39-.36-.77-.72-1.36-.71l-.17-.13s-.21.03-.21.03c-.16-.12-.32-.23-.48-.35,0-.26-.16-.4-.4-.45-.03-.24-.16-.39-.41-.44-.04-.25-.18-.39-.43-.42-.05-.24-.19-.38-.43-.41-.03-.23-.11-.42-.36-.49-.07-.26-.25-.36-.5-.35-.17-.32-.46-.44-.79-.49-.29-.27-.58-.54-.87-.81-.26-.64-.01-1.14.45-1.57Z"/>
      <path class="cls-1" d="M27.99,57.38c.78-1.17.35-2.56.66-3.81.17-.67.14-1.39.29-2.06.14-.62,1.39-1.07.33-1.85-1.67-1.23-2.8-1.53-3.81-.75-2.25,1.72-4.85,3.17-5.65,6.21-.12.45-.36.56-.72.57-.56.02-1.12.01-1.68.02-.11-.09-.14-.19-.11-.28.04-.09.07-.14.11-.14.84-.78.95-2.26,2.36-2.32.06-.69-.29-1.08-.47-1.53-.15-.39-.07-.87.24-.91,1.27-.19,1.66-1.52,2.76-1.95.89-.35,1.74-.96,1.47-2.2-.06-.26.04-.31.25-.41,1.58-.76,1.57-.77,2.45-2.54.08-.17.26-.33.44-.39,1.47-.55,2.22-2.27,3.94-2.42.3-.03.44-.36.4-.65-.05-.34-.25-.67-.26-1.01-.02-1.12.65-1.49,1.8-1.04.37.14.86-.16,1.2.32-.75.2-1.42.24-1.19,1.45.31,1.56-.27,2.14-2.07,2.7.95.76,1.36,1.53.23,2.43-.68.54.15,1.65-.53,2.14-1.26.9-.87,1.77-.18,2.74.25.35.34.79.27,1.21-.14.91.3,1.44,1.18,1.66-.37.86-1.55-.22-1.64.95-.05.69-.9,1.29-.63,1.95.42.99-.09,1.61-.53,2.31-.58.94-.12,2.31-1.25,3.01-.03-.28-.06-.55-.1-.83-.09-.09-.14-.2-.14-.31s.01-.18.03-.18c.21-.61-.04-1.29.33-1.87.07-.06.14-.12.2-.19Z"/>
      <path class="cls-16" d="M44.93,48.92c-.23.18-.41.4-.4.7.02,1.14-.24,1.9-1.67,1.7-.48-.07-1.13.11-1.49.63-.25.37-.32.8-.12,1.19.23.45.56.14.89.07,1.22-.27.68,1.03,1.2,1.49.45.39-.41.72-.82.84-.3.08-.67-.15-1.01-.15-.35,0-.85.17-.86.47-.06,1.3-1.34,2.71.31,3.89.21.15.32.46.25.78-.25.3-.61.21-.95.23-.53.03-1.03-.21-.77.86.22.91-.87,1.39-1.74,1.68.1-.32.35-.68.29-.96-.25-1.07-.6-2.1.05-3.18.11-.18-.21-.62-.33-.94h0c.32-.14.64-.29.97-.4.29-.1.57-.15.11-.45-.85-.56.24-1.76-.75-2.37-.17-.11.34-.54.71-.45.6.14.9-.3.81-.66-.42-1.74.17-3.63-.85-5.26-.02-.03.04-.11.09-.27,1.96,1.24,3.81.29,5.68-.28.33.19.62.39.42.84Z"/>
      <path class="cls-20" d="M48.33,31.99c-.11,1.16,1.01,2.05.71,3.25-.83.17-1.37.49-.92,1.49.15.35.12.77.17,1.17-.13.15-.24.31-.39.45,0,.14-.01.28-.02.42-.63,1.22-.92,2.49-.45,3.84,0,.12,0,.24,0,.35-.28.31-.4.71-.65,1.04-.09.13-.19.25-.3.37-.14.18-.28.38-.41.57-.09.13-.2.24-.34.32-.17.05-.3,0-.39-.15-.15-.71.48-1.41,0-2.12-.26-1.82-1.06-3.7.98-5.15.43-.31-.76-.66-.44-1.27.04-.2.11-.37.23-.54.17-.2.63-.44.58-.48-1.78-1.59-.73-3.84-1.34-5.69.14,0,.28,0,.42,0,.39-.34,1.07-.23,1.27-.85h0c.1-.09.14-.19.1-.28-.03-.09-.07-.14-.1-.14h0c-.36-.42-.31-.85,0-1.27,0-.14,0-.28,0-.42-.67-.55.14-1.69-.84-2.12.14-.14.28-.28.42-.42,1.11-.36,0-1.89,1.18-2.21,1.15,1.3.83,2.81.68,4.33-.19,1.83-.66,3.65-.15,5.5Z"/>
      <path class="cls-5" d="M46.2,36.22c.05.31-.06.94.2.88,1.06-.29.69.64.54.74-2.03,1.28-1.38,3.35-1.59,5.16-.42-1.37-1.69-2.3-1.92-3.79-.31-2.02-.72-3.98.6-5.88.7-1,1.04-2.24,1.32-3.45.51.74,1.11,1.38.72,2.46-.52,1.43.76,2.36,1.38,3.48-.49.16-.87.28-1.25.41-.04-.04-.1-.07-.12-.13.06.06.1.1.12.13Z"/>
      <path class="cls-5" d="M47.89,22.25c-.46.3-.42.78-.43,1.23-.01.56-.29.84-.84.88.23-.63.48-1.18-.27-1.77-.34-.27-.07-1.15-.91-1.3-.12-.02.11-.61.51-.71.68-.18,1.12-.48.92-1.33-.2-.81.84-.42,1.07-1,.47-1.2,1.12-2.34,1.72-3.48.27-.52-.13-.73-.37-1.06-.32-.46-.97.08-1.29-.55.83-.85,2-1.19,2.93-1.89.16,1.43-.4,2.76-.57,4.14-.56.27-.52.9-.79,1.35-.54,1.84-.53,3.84-1.66,5.5Z"/>
      <path class="cls-11" d="M17.41,55.27c0,.14,0,.28,0,.42.16,1.33-1.28,2.39-.61,3.85.12.27-.61.29-.79.54-.41.57-1.11.67-1.62.84-1.13.36.1,1.06-.4,1.53-.52.49-.84,1.15-1.71.8-.44-.96-.72-1.82.73-2.21,1.73-.47,1.33-1.98,1.44-3.23h0c-.7-1.05.13-1.35.85-1.45.87-.12,1.54-.47,2.11-1.09Z"/>
      <path class="cls-20" d="M44.93,48.92c-.14-.28-.28-.56-.42-.84.14-.14.28-.28.42-.42.16-.12.27-.29.42-.42,0-.28,0-.56,0-.85-.1-.09-.13-.19-.09-.28.03-.09.06-.14.1-.14h0c.26-.22.15-.62.41-.84h.01c1.7.7.65,2,.57,3.02-.05.68-.2,1.68-1.41,1.21,0-.14,0-.29,0-.43Z"/>
      <path class="cls-5" d="M46.2,24.79c1.36.28.66,1.37.84,2.12-1.22-.33-.37-1.49-.84-2.12Z"/>
      <path class="cls-7" d="M31.32,68.2c-.24.85-.63,1.11-1.27.89-.08-.03-.19-.26-.15-.32.32-.58.85-.4,1.42-.57Z"/>
      <path class="cls-7" d="M29.72,66.48c.33.1.36.37.36.64.01.47-.21.9-.68.75-.55-.17.21-.47.06-.79-.11-.22-.11-.53.26-.61Z"/>
      <path class="cls-4" d="M50.91,2.31c.27,0,.53.02.8.03.06.1.09.21.08.33-.59.23-.78.89-1.43,1.32-.1-.74.33-1.18.55-1.67Z"/>
      <path class="cls-5" d="M47.04,27.33c0,.42,0,.85,0,1.27-.32-.03-.85.11-.91-.17-.13-.62.48-.83.91-1.1Z"/>
      <path class="cls-7" d="M32.49,69.9c.03.23-.04.42-.29.41-.24,0-.34-.22-.33-.43,0-.12.1-.33.17-.34.23-.02.37.15.45.36Z"/>
      <path class="cls-5" d="M47.05,29.02c-.04.86-.66.85-1.27.85-.04-.98.92-.45,1.27-.85Z"/>
      <path class="cls-4" d="M46.26,1.56c.12-.03.23-.05.35-.07.36.63.29,1.08-.5,1.25.05-.39.1-.79.14-1.18Z"/>
      <path class="cls-24" d="M36.21,22.78c-.19.14-.3.28-.39.26-.18-.03-.36-.11-.52-.21-.2-.14-.16-.2.08-.16.24.04.49.06.82.1Z"/>
      <path class="cls-24" d="M37.73,24.37c.18.09.4.38.31.42-.48.2-.19-.27-.3-.42h0Z"/>
      <path class="cls-24" d="M29.26,37.49c.18.05.37.1.55.16-.31.39-.4,0-.55-.16h0Z"/>
      <path class="cls-16" d="M45.76,45.12c0,.35-.07.65-.41.83,0-.28,0-.56,0-.85.14,0,.27,0,.41.01Z"/>
      <path class="cls-16" d="M36.87,56.01s-.1-.08-.15-.12c.06-.03.12-.09.17-.08.05,0,.1.07.15.11-.06.03-.11.06-.17.09Z"/>
      <path class="cls-16" d="M37.73,58.23c-.18-.09-.4-.38-.31-.42.48-.2.19.27.31.42h0Z"/>
      <polygon class="cls-7" points="28.42 70.93 28.52 70.76 28.6 70.84 28.42 70.93"/>
      <path class="cls-16" d="M45.35,47.23c-.14.14-.28.28-.42.42.14-.14.28-.28.42-.42Z"/>
      <path class="cls-16" d="M45.35,45.96c0,.14,0,.28,0,.42-.29-.14-.29-.28,0-.42Z"/>
      <path class="cls-5" d="M47.04,28.6c.29.14.29.28,0,.42,0-.14,0-.28,0-.42Z"/>
      <path class="cls-4" d="M50.44,1.97c.13,0,.27,0,.4-.02.05.11.08.23.07.35-.24,0-.39-.11-.47-.33Z"/>
      <path class="cls-27" d="M41.12,82.79c0,.35.08.66.43.84.06.06.13.13.19.19.12.25.16.51.13.78-.02.18-.07.35-.14.52-.23.42-.11.89-.19,1.33-.26,2.16-.7,4.28-1.27,6.37-.02.18-.06.35-.11.52-.18.48-.27.97-.1,1.48.06.16.09.33.12.5.05.46-.05.86-.34,1.22-.28.34-.45.74-.66,1.12-.11.15-.23.29-.36.42-.23.28-.51.66-.28.93,1.72,1.97.57,3.07-1.28,3.9,2.25,2.26,1.96,3.42-.98,4.62-.08-.06-.16-.12-.24-.18.02-.73-.53-1.11-.94-1.58-1.17-1.38-1.25-2.5-.03-3.77.8-.83.47-1.59.08-2.26-.44-.75-.54-1.26.22-1.78.31-.22.35-.4.22-.84-.45-1.43.28-2.88,1.7-3.2,1.14-.26,1.91-.47,1.45-1.88-.09-.28.17-.66.25-1.01.34-1.58.34-1.58-1.15-2.36-.49-.26-.21-.99-.84-1.06.45-.99,1.33-.89,2.03-1.12.27-.48-.06-.79-.34-1.08-.38-.39-.15-.8.18-.76,1.18.13,1.51-.46,1.57-1.48.02-.29.42-.32.7-.37Z"/>
      <path class="cls-2" d="M27.57,113.26c-.74-1.06-.06-2.53-1.04-3.54-.21-.21,0-.51.26-.68.61-.41,1.48-.73,1.96-.3.99.89,2.14.05,3.13.54.17.08.32-.38.36-.66h0c.42.12.78.56,1.26,0,.66-.76,1.48-1.29,2.55-1.27h0c.33,3.12-1.06,4.86-4.17,5.02-1.44.07-2.68.71-4.03,1.01-.09-.04-.19-.07-.28-.11Z"/>
      <path class="cls-32" d="M44.93,49.35c1.45-1.01,1.66-2.09.84-4.24.01-.35.09-.66.43-.84h0c.29-.55.44-1.22,1.22-1.32,0,.15,0,.3,0,.45-.27.42-.24.85-.03,1.29.04.15.08.31.11.46v-.03c-.27.53-.75,1-.43,1.68,0,.28-.01.56-.02.84-.36,1.86-1.59,3.54-1.12,5.58.09.4-.27.61-.59.78-.18-1.55.32-3.16-.43-4.65Z"/>
      <path class="cls-2" d="M26.49,108.26c-.21-1.01.74-2.33-.85-3.06-.25-.11.2-.9.65-1.13.36-.19.69.02.86.38.28.6.33,1.36,1.14,1.59.19.06.43.37.22.46-.86.4-.42,2.26-2.02,1.77Z"/>
      <path class="cls-2" d="M32.23,108.61c-.51,0-.95-.23-1.34-.52-.31-.23-.42-.59-.15-.9.17-.19.46-.35.7-.36.36-.01.3.36.38.61.12.4.27.78.41,1.18h0Z"/>
      <path class="cls-2" d="M26.39,113.61c-.04-.54-.07-1.08-.11-1.61.59.26.36,1.35,1.29,1.27h0c0,.72-.37.71-.87.44-.1-.05-.21-.08-.32-.09Z"/>
      <path class="cls-16" d="M42.26,56.58c-.09.08-.18.22-.27.23-.17.01-.23-.12-.13-.28.03-.06.09-.11.15-.13.16-.06.25,0,.26.18Z"/>
      <path class="cls-28" d="M28.96,16.43c.25-.08.35-.25.34-.5.11-.02.22-.04.33-.06,1.05-.42,1.3-1.45,1.77-2.55.47.67,1.18,1.14.25,1.78-.82.57-.61,1.2-.16,1.77.55.69,1.2,1.27,1.43,2.2.08.33.95.61.69.87-.68.67.17,1.9-.95,2.31h0c-.68.48-.58,1.54-1.46,1.9-.18.08-.06.42.24.35.83-.2.41.49.58.76.44.71-1.87.91-.36,1.59.89.4-.52,1.39.68,1.54.38.05-.06.69-.34.68-.95-.02-1.3.92-1.84,1.15-1.42.59-1.54,1.46-1.36,2.69.06.39-.23.65-.61.73-.66.12-1.12.25-.49,1.05.28.35-.14.38-.42.33-.35-.06-.69-.12-1.02.07-.08.61-.16,1.21-.24,1.8-.67.15-1.05-.8-1.79-.29-.41.28-.95.7-1.55.15.14-.85,1.31-.42,1.55-1.29-1.14-.27-2.39.19-3.43-.52-.72-.92-1.56-1.57-2.91-1.07.04-1.19.65-2.04,1.29-2.5,1.78-1.27,2.24-3.3,3.27-5,.29-.53.59-1.07.88-1.6,1.14-1.05,2.19-2.17,2.66-3.7.48-.33.72-.79.73-1.37.34-.13.49-.39.51-.75h0c.04-.24.16-.4.38-.49l.05.03c.2-.48.33-1.01.84-1.29.24-.21.44-.45.47-.78Z"/>
      <path class="cls-28" d="M22.04,36.86c-.06.12-.1.33-.18.35-.24.05-.42-.13-.42-.36,0-.23.18-.4.43-.34.08.02.11.23.17.36Z"/>
      <path class="cls-28" d="M32.77,16.91c-.02.05-.04.15-.06.15-.06,0-.12-.03-.18-.06.02-.05.04-.15.06-.15.06,0,.12.03.18.06Z"/>
      <polygon class="cls-28" points="20.8 34.95 20.7 35.13 20.62 35.05 20.8 34.95"/>
      <path class="cls-11" d="M33.08,84.9c-.07,0-.14.04-.2.02-.41-.12-.52.68-.98.3-.06-.04-.03-.28.04-.37.4-.55.78-.39,1.15.05h0Z"/>
      <path class="cls-11" d="M34.23,83.05c.02-.05.04-.15.06-.15.06,0,.12.03.18.06-.02.05-.04.15-.06.15-.06,0-.12-.03-.18-.05Z"/>
      <path class="cls-29" d="M25.08,82.32c.11-.17.21-.33.32-.5,0,.23,0,.45,0,.68-.1-.06-.21-.12-.31-.18Z"/>
      <path class="cls-33" d="M26.71,113.7c.35-.02.68-.08.87-.43,1.4-.99,2.92-1.55,4.66-1.33,1.27.16,1.9-1.09,2.99-1.33-.41-.87,1.26-1.48.29-2.48-.22-.22.42-.46.53-.78,1.26-.04,1.36-1.52,2.37-1.95.32-.13.11-.74-.3-1.02-.62-.42-1.22-.87-1.95-1.4,1.07-.72,2.27-1.01,3-2.1-.29-.39-.59-.83-.91-1.25q-.96-1.25.77-2.01c1.49,1.29,1.35,2.99,1.05,4.64-.32,1.74-.83,3.43-.18,5.19.23.62-.08,1.07-.51,1.5-.2.2-.78.3-.42.74,1.59,1.98-.15,1.54-1.16,1.61-.88.06-1.4.32-.82,1.3-.03.09-.06.18-.09.27-.14,0-.29.03-.41-.01-2.16-.66-3.92.42-5.74,1.28-.43.21-.87.45-1.33.54-1.37.29-2.04,1.05-1.87,2.48-.72-1.05-.56-2.3-.82-3.46Z"/>
      <path class="cls-17" d="M40.28,116.21c-.1.1-.22.15-.36.15-.17-.74-.34-1.48-.51-2.22.02-.08.03-.16.05-.24.09-.14.2-.25.34-.34.08-.02.16-.04.24-.05.08.01.16.03.24.04.15.08.27.19.37.32.02.08.05.16.07.24.57.85.46,1.56-.44,2.11Z"/>
      <path class="cls-17" d="M39.4,114.14c-.92-.26-1.7-.83-2.53-1.28,0,0,.02-.04.02-.04,1.42-.72,2.46-.68,2.54,1.27l-.03.04Z"/>
      <path class="cls-31" d="M39.84,93.37c-.17-2.08.93-3.94,1.09-5.96.03-.41.13-.82.19-1.23.4-.34.04-.93.42-1.27,0-.14,0-.28,0-.42.26-.28.26-.57,0-.85h0c-.03-.98.91-.46,1.28-.84-.02.42-.04.84-.06,1.25-.86,1.26-.8,2.73-.82,4.13-.02,1.04-.05,2.04-.37,3.02.56,1.63-.12,2.28-1.73,2.17Z"/>
      <path class="cls-25" d="M27.59,59.5c0,.14-.02.29-.02.43-.43-.07-.29-1.31-1.34-.38-.8.7-1.6,1.13-2.1,2.23-.6,1.34-2.08,1.12-3.34,1.03.14-.12.28-.24.42-.36.31-.31.43-.81.92-.93.71.28.08-.52.43-.54.88-.83,1.54-1.79,1.75-3.01.05-.27.14-.54.26-.79.45-.94,1.12-1.72,2.23-1.55,1.1.17.94,1.2.99,2.01-.07.62.17,1.27-.19,1.86Z"/>
      <path class="cls-12" d="M39.84,93.37c.19-.19.39-.54.57-.54,1.22.02,1.15-.82,1.16-1.62.36.1.58.23.51.7-.11.74-.12,1.5-.17,2.25-.64.6-.32,1.21-.02,1.82.04.28.08.55.12.83h-.02c-.47.27-.84,0-1.23-.2-.15-.1-.27-.23-.36-.38-.18-.39-.24-.84-.55-1.16-.31-.56-.3-1.13,0-1.7h0Z"/>
      <path class="cls-23" d="M41.9,95.97c-.16-.13-.33-.24-.46-.39-.9-.97-.86-1.07.48-1.43,0,.61-.01,1.22-.02,1.82Z"/>
      <path class="cls-32" d="M47.43,42.6c-1.47-.62-.29-1.86-.62-2.78-.24-.66.65-.75,1.07-1.06.24,1.33-.11,2.58-.45,3.84Z"/>
      <path class="cls-8" d="M47.4,44.69c-.46-.44-.46-.87.03-1.29,0,.43-.02.86-.03,1.29Z"/>
      <path class="cls-32" d="M47.9,38.34c.13-.15.26-.3.39-.45-.13.15-.26.3-.39.45Z"/>
      <path class="cls-9" d="M47.89,22.25c-.03-.21-.16-.5-.07-.61,1.13-1.44.66-3.44,1.73-4.89.1.69.04,1.34-.12,2.03-.21.91-.77,1.87.45,2.69.49.33.07,1.3.02,1.97-.32.21-.33.39.03.56.16.22.49.59.45.64-1.14,1.33.19,3.06-.75,4.4-.54,0-.72.23-.57.78.24.87.06,1.63-.75,2.16-.92-.93-.62-1.95-.59-3.14.06-2.19.79-4.39.15-6.6Z"/>
      <path class="cls-12" d="M39.43,114.09c-.38-1.36-1.47-1.29-2.54-1.27-.22-.48-1.32-.26-.91-1.32.33-.83.89-.78,1.51-.78.55,0,1.11.05,1.7.09,0-1.08-.94-.78-1.48-1.06.03-.5.51-.62.8-.81.76-.49,1.27-.74.67-1.92-.54-1.06-.33-2.47.1-3.71.66-1.93.5-3.84-.29-5.71h0c.18-.19.26-.44.42-.64.44-.16.61-.89,1.26-.64l.03.02c1.18,1.25.36,2.91.87,4.29-.25.82.2,1.74-.36,2.52-.44,1.31-1.07,2.63-.85,4.02.36,2.23-.04,4.34-.54,6.47-.14.15-.27.29-.41.43Z"/>
      <path class="cls-6" d="M39.85,113.66c-.31-.57-.63-1.21-.3-1.81.88-1.64.62-3.32.38-5.03-.16-1.18.77-2.21.57-3.44-.03-.2.46-.23.74-.22-.17.82.62,1.71-.19,2.49-.64,1.49-.61,2.91.44,4.22.02.14.03.29.05.43-.68,1.03-.9,2.23-1.26,3.38-.14,0-.28-.02-.43-.02Z"/>
      <path class="cls-23" d="M41.59,100.64c-.1-.3-.06-.68-.56-.69-.43,0-.7-.39-.47-.67.79-.97.12-1.96.15-2.93.49-.03.88.23,1.29.45-.34,1.26.51,2.65-.42,3.84Z"/>
      <path class="cls-14" d="M40.27,113.68c-.52-1.48-.01-2.57,1.26-3.38.12.16.24.31.36.47-.07.1-.07.2-.03.31-.64,1.02-1.25,2.04.02,3.06-.39-.01-.78-.03-1.17-.04h-.01c-.15-.14-.29-.27-.43-.41h0Z"/>
      <path class="cls-24" d="M8.46,46.3c.01.61.55,1.11.37,1.79-.59.24-1.17-.14-1.76-.09.04-.73.89-.96,1.01-1.64.12-.03.25-.05.37-.07Z"/>
      <path class="cls-8" d="M47.09,46.81c-.8-.8-.05-1.2.43-1.68.08.62-.13,1.16-.43,1.68Z"/>
      <path class="cls-21" d="M28.5,17.22c-.15.52-.32,1.01-.84,1.29-.04-.16-.07-.32-.11-.49.03-.26.06-.52.09-.78.29,0,.57-.01.86-.02Z"/>
      <path class="cls-10" d="M8.84,62.1c.25.02.42.15.5.39h-.2s-.2-.01-.2-.01c-.03-.12-.06-.25-.1-.37Z"/>
      <path class="cls-22" d="M22.49,61.62c-.43.28-.86.55-1.29.83.02-.61-.59-1.48.58-1.64,1.02-.14.92-.87.93-1.56.04-2.9,1.65-5.26,4.46-6.4,1.15,1.35.74,2.99.82,4.54h0c-.14.19-.29.19-.43,0-.1-.6-.11-1.33-.92-1.37-.65-.03-1.18.34-1.47.98-.08.19-.33.36-.31.52.15,1.93-1.23,2.95-2.37,4.11h0Z"/>
      <path class="cls-34" d="M27.57,57.38c.14,0,.28,0,.43,0-.09.72.27,1.52-.4,2.12,0-.71-.01-1.42-.02-2.12Z"/>
      <path class="cls-20" d="M46.2,36.22c-.26-.08-.56-.1-.78-.24-.4-.26-.27-.6.02-.86.14-.13.39-.28.52-.23.31.11.22.45.23.71.01.21,0,.42,0,.63h0Z"/>
      <path class="cls-10" d="M14.45,57.81c.11-.17.2-.37.35-.5.19-.17.44-.42.64-.03.03.06-.22.32-.39.41-.17.09-.39.09-.59.13h0Z"/>
      <path class="cls-31" d="M40.68,96.33c-.43.27-.6.92-1.26.86-.24-.28-.24-.56,0-.85.49-.31.41-.81.42-1.27.56.23.84.65.83,1.26Z"/>
      <path class="cls-31" d="M39.84,93.37c0,.57,0,1.13,0,1.7-.61-.56-.59-1.13,0-1.7Z"/>
      <path class="cls-33" d="M39.43,96.34c0,.28,0,.56,0,.85-.14.14-.28.28-.42.42.01-.47-.08-.97.43-1.27Z"/>
      <path class="cls-13" d="M41.54,84.9c0,.47.08.96-.42,1.27.01-.47-.08-.97.42-1.27Z"/>
      <path class="cls-13" d="M41.54,83.63c.43.28.43.57,0,.85,0-.28,0-.57,0-.85Z"/>
      <path class="cls-8" d="M46.21,44.27c.06.03.17.07.16.09-.03.14-.1.11-.16-.09h0Z"/>
      <path class="cls-24" d="M32.65,22.25c-.06-.03-.17-.08-.17-.1.03-.14.1-.11.17.1h0Z"/>
      <path class="cls-30" d="M40.28,113.69c.14.13.28.27.43.4-.14-.14-.28-.27-.43-.4Z"/>
      <path class="cls-22" d="M22.49,61.62c.06.03.17.08.17.09-.03.14-.1.11-.17-.1h0Z"/>
    </g>
  </g>
</svg>