<?xml version="1.0" encoding="UTF-8"?>
<svg id="Layer_2" data-name="Layer 2" xmlns="http://www.w3.org/2000/svg" viewBox="0 0 71 113.14">
  <defs>
    <style>
      .cls-1 {
        fill: #868585;
      }

      .cls-1, .cls-2, .cls-3, .cls-4, .cls-5, .cls-6, .cls-7, .cls-8, .cls-9, .cls-10, .cls-11, .cls-12, .cls-13, .cls-14, .cls-15, .cls-16, .cls-17, .cls-18, .cls-19, .cls-20, .cls-21, .cls-22, .cls-23, .cls-24, .cls-25, .cls-26, .cls-27, .cls-28, .cls-29, .cls-30, .cls-31, .cls-32, .cls-33, .cls-34, .cls-35, .cls-36, .cls-37, .cls-38, .cls-39, .cls-40, .cls-41, .cls-42, .cls-43, .cls-44, .cls-45, .cls-46, .cls-47, .cls-48, .cls-49, .cls-50, .cls-51, .cls-52, .cls-53, .cls-54, .cls-55, .cls-56, .cls-57, .cls-58, .cls-59, .cls-60, .cls-61, .cls-62, .cls-63, .cls-64, .cls-65, .cls-66, .cls-67, .cls-68, .cls-69, .cls-70, .cls-71, .cls-72, .cls-73, .cls-74, .cls-75, .cls-76, .cls-77, .cls-78, .cls-79, .cls-80, .cls-81, .cls-82, .cls-83, .cls-84, .cls-85, .cls-86, .cls-87, .cls-88, .cls-89, .cls-90, .cls-91, .cls-92, .cls-93, .cls-94, .cls-95, .cls-96, .cls-97, .cls-98, .cls-99, .cls-100, .cls-101, .cls-102, .cls-103, .cls-104, .cls-105, .cls-106, .cls-107, .cls-108, .cls-109, .cls-110, .cls-111, .cls-112, .cls-113, .cls-114, .cls-115, .cls-116, .cls-117, .cls-118, .cls-119, .cls-120, .cls-121, .cls-122, .cls-123, .cls-124, .cls-125, .cls-126 {
        fill-rule: evenodd;
        stroke-width: 0px;
      }

      .cls-2 {
        fill: #595555;
      }

      .cls-3 {
        fill: #c4d8d8;
      }

      .cls-4 {
        fill: #b1b0b0;
      }

      .cls-5 {
        fill: #2e2c2c;
      }

      .cls-6 {
        fill: #1e1f1f;
      }

      .cls-7 {
        fill: #777e7e;
      }

      .cls-8 {
        fill: #737676;
      }

      .cls-9 {
        fill: #433f3f;
      }

      .cls-10 {
        fill: #2a2828;
      }

      .cls-11 {
        fill: #807575;
      }

      .cls-12 {
        fill: #635757;
      }

      .cls-13 {
        fill: #cdd9d9;
      }

      .cls-14 {
        fill: #eae9e9;
      }

      .cls-15 {
        fill: #696d6d;
      }

      .cls-16 {
        fill: #d3d6d6;
      }

      .cls-17 {
        fill: #798181;
      }

      .cls-18 {
        fill: #bdb8b8;
      }

      .cls-19 {
        fill: #5f5d5d;
      }

      .cls-20 {
        fill: #d9d8d8;
      }

      .cls-21 {
        fill: #030303;
      }

      .cls-22 {
        fill: #1d1d1d;
      }

      .cls-23 {
        fill: #181515;
      }

      .cls-24 {
        fill: #629d9d;
      }

      .cls-25 {
        fill: #dae7e7;
      }

      .cls-26 {
        fill: #8a8484;
      }

      .cls-27 {
        fill: #565d5d;
      }

      .cls-28 {
        fill: #b3b2b2;
      }

      .cls-29 {
        fill: #c6a8a8;
      }

      .cls-30 {
        fill: #363535;
      }

      .cls-31 {
        fill: #a0a4a4;
      }

      .cls-32 {
        fill: #d1e9e9;
      }

      .cls-33 {
        fill: #b7caca;
      }

      .cls-34 {
        fill: #dbf3f3;
      }

      .cls-35 {
        fill: #474848;
      }

      .cls-36 {
        fill: #020202;
      }

      .cls-37 {
        fill: #3e4141;
      }

      .cls-38 {
        fill: #101515;
      }

      .cls-39 {
        fill: #6f9f9f;
      }

      .cls-40 {
        fill: #d1d4d4;
      }

      .cls-41 {
        fill: #605d5d;
      }

      .cls-42 {
        fill: #a4b0b0;
      }

      .cls-43 {
        fill: #624949;
      }

      .cls-44 {
        fill: #abbcbc;
      }

      .cls-45 {
        fill: #7b7a7a;
      }

      .cls-46 {
        fill: #859494;
      }

      .cls-47 {
        fill: #372f2f;
      }

      .cls-48 {
        fill: #6b6e6e;
      }

      .cls-49 {
        fill: #b2c6c6;
      }

      .cls-50 {
        fill: #524b4b;
      }

      .cls-51 {
        fill: #050505;
      }

      .cls-52 {
        fill: #757a7a;
      }

      .cls-53 {
        fill: #484545;
      }

      .cls-54 {
        fill: #717777;
      }

      .cls-55 {
        fill: #1e1d1d;
      }

      .cls-56 {
        fill: #171717;
      }

      .cls-57 {
        fill: #91c5c5;
      }

      .cls-58 {
        fill: #3b4545;
      }

      .cls-59 {
        fill: #151111;
      }

      .cls-60 {
        fill: #060606;
      }

      .cls-61 {
        fill: #6f5a5a;
      }

      .cls-62 {
        fill: #676565;
      }

      .cls-63 {
        fill: #887070;
      }

      .cls-64 {
        fill: #565a5a;
      }

      .cls-65 {
        fill: #f1f3f3;
      }

      .cls-66 {
        fill: #110f0f;
      }

      .cls-67 {
        fill: #382f2f;
      }

      .cls-68 {
        fill: #c6b5b5;
      }

      .cls-69 {
        fill: #9f9c9c;
      }

      .cls-70 {
        fill: #3b3232;
      }

      .cls-71 {
        fill: #272929;
      }

      .cls-72 {
        fill: #dfe0e0;
      }

      .cls-73 {
        fill: #0a0a0a;
      }

      .cls-74 {
        fill: #666868;
      }

      .cls-75 {
        fill: #d0dddd;
      }

      .cls-76 {
        fill: #5e6868;
      }

      .cls-77 {
        fill: #e4e3e3;
      }

      .cls-78 {
        fill: #798080;
      }

      .cls-79 {
        fill: #a0a5a5;
      }

      .cls-80 {
        fill: #fcfefe;
      }

      .cls-81 {
        fill: #cbd2d2;
      }

      .cls-82 {
        fill: #c5c6c6;
      }

      .cls-83 {
        fill: #3e3c3c;
      }

      .cls-84 {
        fill: #3a2e2e;
      }

      .cls-85 {
        fill: #9da7a7;
      }

      .cls-86 {
        fill: #4a4b4b;
      }

      .cls-87 {
        fill: #485252;
      }

      .cls-88 {
        fill: #3f4343;
      }

      .cls-89 {
        fill: #0c0c0c;
      }

      .cls-90 {
        fill: #666363;
      }

      .cls-91 {
        fill: #8f9c9c;
      }

      .cls-92 {
        fill: #1d1c1c;
      }

      .cls-93 {
        fill: #767272;
      }

      .cls-94 {
        fill: #6a6161;
      }

      .cls-95 {
        fill: #ced2d2;
      }

      .cls-96 {
        fill: #282828;
      }

      .cls-97 {
        fill: #111212;
      }

      .cls-98 {
        fill: #171515;
      }

      .cls-99 {
        fill: #191919;
      }

      .cls-100 {
        fill: #363d3d;
      }

      .cls-101 {
        fill: #b6a0a0;
      }

      .cls-102 {
        fill: #e1e8e8;
      }

      .cls-103 {
        fill: #3f3f3f;
      }

      .cls-104 {
        fill: #dedfdf;
      }

      .cls-105 {
        fill: #7e7d7d;
      }

      .cls-106 {
        fill: #333434;
      }

      .cls-107 {
        fill: #a5a7a7;
      }

      .cls-108 {
        fill: #847b7b;
      }

      .cls-109 {
        fill: #464d4d;
      }

      .cls-110 {
        fill: #bcc9c9;
      }

      .cls-111 {
        fill: #f9f5f5;
      }

      .cls-112 {
        fill: #5d5959;
      }

      .cls-113 {
        fill: #6e6c6c;
      }

      .cls-114 {
        fill: #6a6e6e;
      }

      .cls-115 {
        fill: #262a2a;
      }

      .cls-116 {
        fill: #a8b9b9;
      }

      .cls-117 {
        fill: #391919;
      }

      .cls-118 {
        fill: #080808;
      }

      .cls-119 {
        fill: #a29a9a;
      }

      .cls-120 {
        fill: #584747;
      }

      .cls-121 {
        fill: #a1c4c4;
      }

      .cls-122 {
        fill: #1e2020;
      }

      .cls-123 {
        fill: #d7dcdc;
      }

      .cls-124 {
        fill: #756f6f;
      }

      .cls-125 {
        fill: #7b8080;
      }

      .cls-126 {
        fill: #121313;
      }
    </style>
  </defs>
  <g id="Objects">
    <g>
      <path class="cls-36" d="M45.89,31.74c.07-.13.13-.26.19-.39.28-.65.33-1.42.96-1.89l-.02.03c.18-.31.13-.71.43-.97h0c.24-.26.16-.69.47-.92h0c.41-.34-.06-1.06.55-1.32l-.02.03c.16-.84.17-1.73.83-2.4l.11-.14-.07-.16c.15-1.25.54-2.45.72-3.69.58-.95.45-1.95.22-2.96l.02.03c-.34-.51-.96-.59-1.42-.92h-.01c-.62-.35-1.24-.13-1.86.01-3.15-.05-5.77,1.85-8.74,2.53-.73.17-1.51,1.84-2.61,2.49-.37.57-.93.99-1.25,1.59-.04.19-.14.35-.27.48-.17.08-.35.14-.53.18-.25.53-.89.61-1.23,1.03l-.04.04c-.61.67-1.12,1.41-1.57,2.19-.07.2-.2.33-.41.38l.02-.02c-.33.58-.96.92-1.28,1.51v-.02c-.28,1.16-.55,2.32-1.5,3.17-.65.58-.65,1.31-.36,2.07-.15.34-.16.69,0,1.03-.21.43-.17.86,0,1.3l-.05.15.13.1c.59,1.31-.19,2.78.46,4.09l.02.03c-.41,1.56-1.61,2.5-2.7,1.93-.76-.4-1.66-.02-2.31-.63h0c-.3-.16-.69-.11-.94-.38l-.04-.02c-.26-.27-.65-.18-.94-.36-.24-.24-.63-.28-.79-.62l-.02-.02c-.3-.15-.74-.03-.88-.48l-.08.13.07-.13c-.22-.04-.4-.15-.54-.31l-.05-.03c-.19-.29-.69-.14-.79-.57l-.09.09.1-.07c-.28-.02-.42-.19-.5-.43h0c-.24-.05-.38-.22-.5-.42h0c-.2-.11-.35-.26-.47-.45h0c-.31-.19-.19-.64-.5-.84l-.02-.05c-.14-.16-.27-.33-.37-.52h0c-.22-.09-.38-.24-.47-.47l.02.02c-.23-.1-.41-.24-.42-.52l.02.02c-.37-.12-.33-.44-.38-.72-.09-.66.22-1.35-.15-1.99-.17-.38-.34-.76-.42-1.18-.21-2.12.37-4.2.3-6.31.02-.22.07-.43.13-.65.32-.91.63-1.82.91-2.74.13-.4.24-.81.3-1.24.08-.55.25-1.06.63-1.47.21-.21.53-.38.61-.65.61-2.08,1.66-2.53,3.3-.93.05.05.17.13.16.16-.78,1.98-.71,2.53.73,5.19.89-1.14-1.58-2.41.13-3.49.07-.12.26.13.31-.08-.07-.12-.1-.25-.1-.39-.07-.16-.19-.22-.37-.21-.45-.34-.42-1.05-1-1.29-1.33-.49-1.91-1.28-.93-2.57.34-.45.6-1.15,1.36-1.03.63.1.77.68.91,1.19.19.69.5,1.27,1.07,1.7.49.37,1,.83,1.63.4.63-.43.12-.85-.05-1.35-.38-1.07.99-2.35,2.59-2.32,1.15.02,2.27.06,3.37-.3.85-.46.71-1.29.75-2.05.57-1.02,2.3-.28,2.6-1.72.15-.16.32-.28.5-.39,3.18-1.44,5.8-3.74,8.72-5.59.16-.13.35-.23.55-.28,1.21.37,1.88-.97,2.98-.96.63.11,1.2.38,1.47.97.5,1.07,1.4,1.48,2.43,1.29,1.59-.29,2.86,1.1,4.43.7.19-.05.39-.06.59-.05.27.1.5.28.77.38.26.05.57.03.68.37l.09-.09-.09.08c.25,0,.37.2.54.34l.05.03c.19.29.68.16.8.55v-.02c.23.04.38.22.5.41h0c.17.12.33.25.49.38l.05.04c.11.18.17.38.18.6-.3,1.24-.41,2.57-1.48,3.48-1.22,1.04.71,2.08.01,3.12-.16.15-.35.23-.57.25-.29,0-.81-.15-.84.05-.43,2.21-2.86,3.48-2.72,5.97.04.82-.58,1.52-1,2.22-.09.18-.2.36-.31.53-.4.92-.28,2.02-.96,2.84-.09.17-.19.33-.28.5-.37.64-.03,1.29-.04,1.94-1.14,3.13-3.83,5.37-5.04,8.39-.87,2.17-2.35,3.39-4.25,4.39-.21-.02-.41-.09-.59-.2-.39-.52-.09-.97.15-1.42.05-.19.13-.38.22-.56l.05-.05c.4-.37.55-.94.97-1.3v.02c.11-.18.23-.35.37-.51l.03-.04c.31-.21.2-.64.47-.87h0c.27-.24.17-.69.51-.89v.02c.21-.27.08-.75.54-.87l-.03.03c0-.28.19-.42.4-.55h-.01c.09-.19.27-.32.39-.49l.02-.04c.48-.29-.02-1.03.58-1.26l-.03.03c.03-.26.21-.4.4-.54h0c.13-.13.22-.28.27-.46Z"/>
      <path class="cls-118" d="M10.29,92.72c.15-.02.31-.04.46-.05.29-.23.67-.19.98-.35h0c.2-.39.09-1.07.55-1.17,1.65-.37,2.72-1.58,3.96-2.55h.03c.24-.26.53-.25.83-.19.67.43,1.31.11,1.96-.09.72-.35,1.51-.43,2.27-.63.38-.07.76-.15,1.13-.27.18-.07.37-.12.55-.16.56-.1,1.13-.11,1.66-.3.17-.07.34-.14.52-.21.25-.12.51-.22.77-.32.35-.11.71-.17,1.06-.28.16-.08.33-.16.48-.25.07-.06.15-.11.22-.17.46-.37.83-.85,1.41-1.06.21-.02.42-.01.62.01,2.34-.23.79,1.52.84,2.09.13,1.51-2.72,2.74-4.03,1.88,0-.2.12-.35.23-.51-.27-.04-.05.3-.25.32-.55,1.09-2.75,1.29-2.04,2.86.51,1.12,2.21.66,3.34.78,1.48.16,2.19.67,1.24,1.89-.65.83.23.56.3.65,1.4,1.63,3.71,2.29,4.48,4.65.36,1.1.29,1.54-.81,1.76-.19.09-.39.17-.58.25-.63.13-1.24.15-1.64-.46-.16-.15.34-.21.08-.4-.05.14-.13.26-.27.34-.61.31-1.43.35-1.51,1.27-.12.56-.49.92-.97,1.19v.02c-.35.82-1.29.83-1.86,1.35h0c-.61,1.1-1.66,1.84-2.79,2-1.5.22-2.42.98-3.2,2.12v-.02c-.35.71-1.21.53-1.72.98l-.05.05c-.27.65-.67,1.16-1.43,1.26h0c-.11.21-.25.39-.52.4l.09.09-.07-.1c-.29.61-.95.18-1.35.49h0c-.18.39-.62.3-.91.47h0c-.09.24-.22.42-.51.4l.09.12-.08-.13c-.55.71-1.32.21-1.98.36-.26.03-.46-.07-.6-.3h-.01c-.17-.14-.25-.31-.26-.52-.82-1.48-.45-3.11-.47-4.66-.02-1.67,2.01-1.27,2.68-2.37-.96.7-2.13.98-3.1,1.6-1.58,1-3.12.02-4.67.07-.27,0,.04.12-.2-.07-.43-.34-.97-5.17-.57-5.59.22-.23.86-.21.38-.75-.28-.32-.7-.38-1.01-.07-.72.71-1.28.75-1.69-.28-.1-.83.57-1.09,1.1-1.46h0c.13-.17.27-.33.41-.49l.02-.03c.3-.2.18-.67.52-.85l-.02.02c.11-.21.26-.38.51-.43.15-.59.56-.97,1.02-1.32.52-.39.98-.86,1.47-1.3.42-.42,1.08-.29,1.53-.66l.04-.02c.16-.15.28-.37.56-.33l-.02.02c.1-.44.61-.3.82-.57Z"/>
      <path class="cls-73" d="M40.55,41.35c1.05.22,1.46-.64,1.99-1.22.87-.96,2.58-1.36,2.19-3.19,1.21-1.12,1.04-3.32,2.99-3.87.32-.09.57-.33.58-.63.06-1.59,1.21-2.64,1.87-3.93-.33-.61-.33-1.22,0-1.83h0c2.09-.37.78-2.2,1.38-3.21.89-1.33,1.85-.15,2.81-.04-.36-.76-1.69-1.13-.91-2.25.46-.65,3.33-.36,4.11.37,1.02.95.18,1.63-.38,2.31-.44.53-.95.99-1.5,1.4-.48.37-1.06.6-1.58,1.1.98,1.02,2.66.47,3.55,1.58-.11.69-.5,1.21-1.01,1.66-.33.15-.67.27-1.04.1,1.08.59,2.66-.03,3.46,1.45-.5-1.31-1.15-2.5.34-3.48.61-.4,1.22-.65,1.91-.32.77.37.63.98.37,1.62.34-.87.52-2.02.1-2.58-1.1-1.49-.37-2.42.64-3.28,1.3-1.1.63-2.5.79-3.79.16-1.28-.69-2.76.73-3.79.25-.01.38.1.37.35l-.07.14.11.11c.49.61.07,1.41.43,2.05v.05c-.08.25-.16.5-.03.76l-.02-.06c.64.27,0,1.08.58,1.38l.13.1.15-.08c.83,1.6-.98,2.67-.84,4.13v-.02c1.42,2.27,1.29,2.85-1.34,5.84-.15.17-.29.34-.4.54,0,.15-.01.31-.01.46-.19,1.2-1.06,2.07-1.49,3.16l.03-.04c-.1.5-.44.77-.88.96h-.02c-.37,1.63-1.67,2.33-2.99,3-.83-.2-1.52-.14-1.64.92-.17,1.53-1.12,2.24-2.55,2.46-.2.04-.4.08-.59.14-.96.73-1.86,1.71-3.11.36-.56-.6-.61-.18-.58.4.01.29-.39.54-.67.5-2.31-.36-4.39,1.19-6.66.79-.46-.08-.56-.16-.73.31-.27.71-.79,1.3-1.33,1.84-.26.2-.56.32-.86.42-.74.33-1.49.23-1.34,1.73.13,1.2-1.31,2.55-2.66,3.3-.07.18-.18.34-.32.48-.37.14-.72.04-1.06-.11-.14-.07-.27-.17-.38-.28-.11-.46-.21-.17-.32.02-.13.21-.29.39-.47.56-.21.18-.44.32-.72.37-.2-.02-.37-.09-.52-.22-.19-.22-.33-.48-.43-.76-.02-.1-.03-.19-.04-.29.03-.1.05-.19.08-.29.07-.08.13-.15.2-.23.43-.28.81-.61.96-1.13.1-.17.22-.32.36-.46h.02c.14-.17.29-.32.45-.46h0c.5-.74,1.03-1.44,1.88-1.79h0c.2-.29.1-.74.5-.92l-.04.06c.49-.45.7-1.15,1.35-1.46h0c.11-.19.27-.35.46-.47h0c.24-.26.15-.77.62-.88l.19-.02.08-.17c.27-.28.57-.54.85-.81l.07-.05c.16-.11.32-.24.46-.37h.02c.26-.24.12-.75.57-.84l-.11-.09.09.1c0-.55.44-.76.8-1.02h0c.11-.13.25-.16.4-.08.1.55-.22.98-.42,1.44h0Z"/>
      <path class="cls-60" d="M57.51,28.04c-.92-1.17-1.54.42-2.36.29q.15-1.26-2.2-1.17c.89-2.38,4.04-2.52,4.69-4.95-1.58-.9-2.03-.97-4.1-.63.11.97,1.05,1,1.63,1.42.54.39.37.76.03,1.13-.32.35-.71.7-1.12.16-.67-.89-1.45-1.29-2.54-.83-.05-1.26,1.18-2.05,1.19-3.29.01-1.34.22-2.55,1.61-3.31.25-.14,1.03-.89.63-1.7-.24-.48-.06-.92.42-1.12.66-.28.93.23,1.2.71,0,0,.04.21.04.21.12.1.25.1.37-.01,0,0,.05-.19.05-.19,0-.15.05-.34-.02-.45-1.03-1.5-1.21-2.86.53-4.01.34-.23.36-.65.18-1.03-.38-.81.55-.96.74-1.48.14-.07.27-.06.41.02l.08.07c.09.17.22.29.39.37l.08.08c.29.28.58.57.83.89l.04.04c.2.3.67.17.82.53h-.01c.22.05.35.23.51.38l.03.02c.14.15.29.29.43.44v.02c.17.16.37.29.39.54l-.03-.03c.58.28.12.99.55,1.33h0c.21.16.38.35.41.64l.02.1c-.08.22-.17.44.03.65v-.02c.29.25.23.67.44.96v-.03c.31.27.32.56.05.87-.58,1.28-.28,2.66-.14,3.93.09.81-.76,1.79.32,2.53.18.12-.37.73-.63.81-.91.26-.97,1.29-1.72,1.68-.28.14-.39.54.03.67.65.21.82.66.74,1.23-.12.96-.25,1.92-.48,2.86-.09.35-.51.23-.77.07-.35-.22-.68-.4-.02-.75.63-.33.31-.83-.14-.99-.85-.3-1.37.22-1.9.88-.45.55-.41.78.12,1.19.55.42.53,1.08.3,1.68-.16.41-.28.99-.81.99-.58,0-.65-.45-.58-.98.08-.66-.38-1.17-.94-.92-1.21.54-1.79-.33-2.72-1,.79-.06,1.43-.11,2.06-.16.19-.5.77-.75.83-1.33Z"/>
      <path class="cls-89" d="M32.79,100.99c.13-.54.81-.36,1.02-.78-.98-1.09-1.15-3.22-2.51-3.43-1.74-.28-1.85-2.43-3.88-2.29.61-.57,1.46-.28,1.56-.97.06-.4.28-1.07-.51-.88-1.32.3-2.53-.42-3.87-.24-.96.13-1.19-.56-.69-1.55q.83-1.64,2.87-2.73c.11.78.47,1.13,1.21.62.7-.48,1.03-1.48,2.15-1.41.31.02.37-.56.15-.71-1.01-.7.06-1.08.22-1.63-.38-.06-.74-.12-1.11-.18-.08-.17-.03-.29.14-.35.61-.03,1.22.27,1.83-.03.32-.23.62-.28.85.12l-.02-.02c.63.52,1.38.23,2.08.28.33-.02.65-.02.98-.03.68,0,1.35,0,2.02-.02.35-.01.69,0,1.04,0,.81.01,1.63.01,2.44,0,.23-.01.46,0,.7,0,.46,0,.93.02,1.39.08.34.05.66.17.92.39.29.93-.38,1.29-1.03,1.45-1.33.33-1.38,1.71-2.12,2.52-.3.33-.43,1.83.91,2.14.51.12,1.09.32,1.02,1.02-.06.7-.61,1.01-1.2,1.23-1.56.58-3.31.53-4.8,1.47,0,1.13,2.24,1.32,1.11,3-.72,1.07-1.86,1.5-2.66,2.38-.14.16-.3.29-.48.41h0c-.54.55-1.13.35-1.73.13Z"/>
      <path class="cls-51" d="M30,13.37c-.84.9-2.26.8-2.96.62-1.56-.4-2.26.53-3.41,1.08,1.36.75,1.45,1.03.86,2.15-.37.71-1.53,1.12-2.07.49-.7-.82-2.28-1.06-1.94-2.67.06-.29-.04-.76-.4-1-.12.04-.28.05-.35.13q-1.32,1.69.19,3.33-1.28-.12-2.03-.97c-.81.78-.37,2.31-1.67,2.79-.24-.23-.28-.51-.18-.82.22-.33.44-.66.63-1l.14-.1-.04-.17c.29-.47-.04-1.14.49-1.54l-.02.05c.3-.75.95-1.34,1.08-2.17.13-.37.23-.74.29-1.12.06-.18.15-.34.27-.49.38-.25.85-.31,1.22-.57.15-.1.31-.19.46-.27.47-.25.98-.43,1.29-.91.31-.68-.13-1.31-.13-1.96-.04-.53-.02-1.06.18-1.56.1-.19.26-.32.46-.4.85-.41,1.89,1.07,2.64-.27.38-.36.78-.69,1.29-.87,1.36-.26,2.49-.88,3.25-2.07.41-.21.82-.23,1.24-.03.75.63.18,1.37.15,2.18,1.02-.04,1.67-1.51,2.77-.61.52-.88-.25-1.52-.17-2.25,1.14-1.81,3.11-1.08,4.69-1.55.3.03.72,0,.86.21.84,1.41,1.71,1.06,2.87.33,1.35-.84,2.89-.3,3.65.98-.28.02-.56.03-.69.37-.42,1.17-1.22.98-2.07.55-.09-.08-.16-.18-.2-.29,0,0-.02-.17-.02-.17,0,0-.07.16-.07.16,0,.14-.05.24-.17.3-.12,1.23-.69,1.91-2.03,1.88-.59-.01-1.13.31-1.53.83-1.2,1.57-3.54,2.9-5.61,3.25l-.12-.11s-.16.02-.16.02c0,0-.1.12-.1.12,0,0,.1-.12.1-.12.11-.02.21.02.29.1,0,.47-.25.83-.49,1.21-.42.66-.8,1.02-1.53.35-.24-.22-.55-.02-.73.27-.03.1-.06.19-.08.29-.11.17-.26.31-.43.41-.18.09-.37.16-.56.21-.25.1-.68.13-.61.45.1.47.71.42,1.02.69.07.08.13.15.2.23Z"/>
      <path class="cls-21" d="M2.41,100c.38-.05.43.94.99.31.97-1.1,1.49-1.11,2.29-.05.04.06.04.15.08.21.21.3.42.6.61.88-.08.44-.37.43-.68.46-.36.03-.93-.72-1.02.12-.05.44-.41,1.44.13,1.4,1.79-.13.44,1.03.71,1.49.32.56-.56,1.11-.11,1.73.77.14.92-.99,1.7-.83-.01.55-.48,1.49.71,1.17,1.47-.4,3.13-.42,4.16-1.83.24-.33.63-.37,1-.48.48-.14.91-.23,1.09.39.17.58.08,1.18-.61,1.16-.57-.01-1.02.23-1.54.33-.52.1-1.01.6-.9.89.56,1.4-.83,2.99.49,4.28.54.53.19.74-.36.84-.3.22-.6.21-.88-.03l-.12-.13-.17.06c-.68-.2-1.36-.33-2.04.01h-.01c-.47.34-.65-.14-.94-.33-.37-.48-1-.52-1.47-.85-.46-.6-1.11-1.03-1.55-1.66l-.11.12.11-.13c-.3.02-.44-.16-.5-.42h.02c-.26-.04-.43-.19-.44-.48-.28,0-.42-.18-.51-.42h.02c-.24-.07-.4-.22-.45-.48l.02.02c-.6-.5-1.01-1.14-1.47-1.75h0c-.26-.3-.26-.68-.36-1.03l.03.04c-.44-.25-.4-.52-.04-.81l-.02.05c.15-.32.1-.74.44-.98v.02c.28-.37.13-.75,0-1.13v-.13c.32-.43-.08-1.13.52-1.46l-.03.03c.29-.43.65-.72,1.21-.6Z"/>
      <path class="cls-97" d="M52.88,41.38c1.49-.24,2.75-.69,2.71-2.58,0-.41.19-.82.6-1.14.82-.65,1.08-.05,1.4.51.12.09.16.19.12.28-.04.09-.08.14-.12.14-.14.09-.17.22-.11.37-.03.19-.14.26-.32.23-.32.09.06.39-.16.51-.38,1.1-1.1,1.81-2.25,2.06h-.02c-.14.19-.27.38-.54.39-.52,2.16-2.53,2.13-4.08,2.78h0c-.12.19-.29.27-.51.27-.81-.54-1.61-1.13-2.43-.02-.16.13-.34.24-.52.33-1.41.55-3.44.52-2.79,2.99-.23.56-.52,1.09-.9,1.57-.18.11-.38.13-.58.08-.32-.26-.41-.64-.54-.98-.05-.13-.15-.21-.31-.22-.12.07-.23.15-.32.26-.09.13-.19.24-.31.34-.13.11-.28.18-.44.23-.17.03-.35.02-.52,0-.35-.07-.71-.12-1.06-.09-1.11.14.01,1.19-.61,1.53-.83.96-1.88,1.3-3.12,1.07-.23-.08-.42-.21-.57-.4-.09-.36-.19-.72-.27-1.09-.05-.22.02-.62.17-.56,2.16.81,1.54-2.03,3.02-2.05-.35-.63-1.22-.39-1.24-1.02-.03-.78.59-.65,1.12-.65.51,0,.78-.72,1.39-.56.28.32.56.28.84,0-.06-1.13,1.19-1.53,1.41-2.53.11-.49.38-.26.64-.06.54.42,1.29.45,1.73.13,1.47-1.05,3.05-.98,4.7-.79,1,.11.65-.1.29-.72-.2-.34,1.29-.87,1.79-.28.98,1.13,1.49,1.11,1.93-.37.14-.48.56-.4.8.06l-.02-.03Z"/>
      <path class="cls-22" d="M70.37,79.86c-.13.08-.15.19-.07.32-.32.72-.65,1.44-1.25,1.99l-.05.06c-.27.19-.34.51-.51.76-.79,1.5-1.94,2.76-2.45,4.47-.33,1.09-1.36,2.02-2.77,2.11.26.36.78.51.83,1.04-.03.22-.14.38-.33.5-.27.16-.58.21-.88.29-.19.08-.39.14-.59.19-1.14.19-2.28.35-3.27-.49-.35-.36-1-.8-.41-1.25.72-.55.38-.99.41-1.64.09-1.65,1.48-.71,2.37-.72.06,0,.14-.07.17-.13.03-.06,0-.14-.02-.22.05-.62-.25-.13-.39-.12-.3.09-.6.15-.91.14-.66-.02-1.59.24-1.77-.6-.2-.92.7-1.32,1.43-1.46.76-.14.93-.48,1.23-1.18.75-1.79,2.81-1.97,4.28-.52.09-.9-1.37-.79-1.12-1.76.05-.2.11-.4.2-.59.22-.46.31-.96.46-1.44.07-.19.17-.36.3-.52.72-.5,1.38-1.09,1.95-1.76q1.49-.09,2.08-1.83c2.16-.13.79,1.81,1.5,2.54v-.02c.25.23.24.51.16.8-.22.32-.37.68-.58,1.02Z"/>
      <path class="cls-59" d="M45.6,2.37c-1.37-.99-2.76-1.02-3.75-.07-.87.83-1.75.6-2.6-.56-.23-.31-.72-.43-1.09-.64.05-.1.09-.2.13-.29.53-.65,1.26-.78,2.04-.74.21-.03.41-.05.62-.06.3-.01.6,0,.9.01.38.01.76.05,1.12.17.23.09.32.4.62.38.08,0,.16.02.25.03h.18c.61.38,1.43-.12,1.98.48h-.02c.57.37,1.33-.1,1.87.4h.01c.67.48,1.7.16,2.22.98h0c.24.02.37.21.54.33.08.16.19.19.34.09.33.17.73.14,1.03.39l.06.02c.21.3.62.19.86.43l.05.04c.11.15.24.26.41.34.02.15.1.21.25.18.38.13.83.09,1.09.49l-.03-.02c.17.06.24.14.2.23-.04.1-.09.15-.14.15-.8.71-1.73,1.15-2.57.25-.91-.97-2.04-.46-2.97-.49-1.29-.04-2.04-.32-2.38-1.58-.16-.59-.78-.66-1.21-.93Z"/>
      <path class="cls-71" d="M58.22,94.47l-.14-.06-.11.12c-.99.62-2.19-.15-3.18.47l-.04.02c-.62.47-.48,1.82-1.76,1.5-.79-1.16-2.45-2.29-.18-3.62.19-.1.39-.17.59-.24.62-.12,1.04-.59,1.55-.91,2.47-1.54,3.61-1.11,4.43,1.65.05.21.02.42-.09.61h.01c-.27.37-.71.33-1.08.46Z"/>
      <path class="cls-10" d="M34.6,60.56c.09.11.2.14.33.09.9,1.6-.61,2.19-1.31,3.13h.02c-.12.19-.28.35-.49.46l.02-.03c-.19.44-.43.8-.96.85h-.01c-.39.35-.82.14-1.24.07-.16-.05-.32-.12-.46-.21-.12-.11-.19-.26-.22-.42,0-.23.01-.46-.06-.69-.19-.28-.41-.55-.3-.94.8-.89,1.04-2.19,2.13-2.85.39,0,.63.22.8.54.02.36.18.19.34.06.47-.26.94-.48,1.43-.06Z"/>
      <path class="cls-71" d="M63.93,90.76c-.3-.74-1.04-.67-1.83-.85,1.07-.94,2.61-.94,3.22-2.25.16-.34.51-.59.64-.93.6-1.58,1.5-3.04,2.64-4.15.18-.11.29-.06.33.14v.17c-.08.26-.22.47-.46.61h.01c-.33.96-.03,2.21-1.25,2.78-.16.05-.2.16-.14.31-.16.35-.15.75-.38,1.07v.03c-.73.6-.75,1.61-1.37,2.26-.11.08-.14.19-.08.31-.17.43-.62.35-.93.53h0c-.15.28-.29.28-.4-.03Z"/>
      <path class="cls-43" d="M43.75,85.42c-.35-.04-.7-.08-1.05-.11-.28-.34-.67-.4-1.07-.4-.8.02-1.62-.1-2.41.14-.31.09-.63.09-.94.01-.32-.15-.52-.4-.61-.73-.02-.24.09-.42.3-.53.55-.02,1.11-.11,1.66.09h.95c.45-.16.9-.17,1.35,0,1.23.12,2.47.14,3.7-.02.61-.26,1.31.08,1.89-.31.28,0,.56-.01.84-.02.46-.39,1.02-.18,1.53-.22.72.22.47.82.52,1.3-.04.2-.15.37-.31.49-.35.16-.69.08-1.06.05-.64-.04.16.29-.06.41-.03.2-.13.35-.3.47-.82.33-1.37-.12-1.9-.63-.58-.48-1.23-.42-1.89-.23-.37.12-.73.27-1.12.24Z"/>
      <path class="cls-86" d="M14.34,24.77c.46,2.34-.26,4.62-.39,6.93.09.22.09.46-.18.5-.22.03-.41-.13-.46-.38-.07-.37-.03-.75-.2-1.1l.02.03c-.15-.06-.25-.17-.3-.33-.01-.24-.15-.44-.2-.67,0-.26-.01-.52-.02-.78-.17-.13-.22-.31-.16-.51-.12-1.62.66-2.77,1.89-3.69Z"/>
      <path class="cls-115" d="M37.61,59.62l-.2.02-.08.18c-.7.78-1.31.2-1.94-.12-.18-1.02.94-1.58.9-2.55.1-.73.11-1.5.77-2.02.17-.11.37-.16.57-.17.55.24.4.81.59,1.22.48.49,1.45.76.78,1.76-.67.39-.43,1.54-1.4,1.68Z"/>
      <path class="cls-59" d="M28.98,3.24c.01-.14.04-.28.09-.41,1.79-.95,3.86-1,5.7-1.77l.16.05.11-.13c.46-.34,1.06-.1,1.53-.38.55,0,1.09,0,1.64,0,.14.04.2.1.18.18-.02.09-.05.14-.09.14-.05.06-.1.13-.15.19-.66-.19-.8,1.04-1.78.48-.89-.51-1.81.37-2.65.84-.8.77-1.68,1.27-2.84.9-.43.01-.87.02-1.3.04-.23.14-.43.1-.6-.11Z"/>
      <path class="cls-108" d="M59.31,81.13c.92-.21,1.84-.29,2.16-1.5.14-.54.83-.82,1.5-.72.06.07.12.13.19.2,0,.09.02.18.03.27-.03.18-.08.36-.15.53-.07.17-.16.33-.25.49-.1.16-.22.3-.34.44-.06.07-.13.13-.19.2-.13.14-.27.26-.42.39-.14.14-.3.26-.45.38-.57.5-1.19.85-1.97.87-.9-.1-1.94-.02-1.86-1.41l-.03.02c.25-.29.56-.26.88-.16.16.01.32.02.48.03.14-.09.28-.1.43-.02Z"/>
      <path class="cls-107" d="M5.71,90.82c0-.26.02-.51.02-.77.37-.78.12-1.6.2-2.41,0-.22.08-.4.22-.56.21-.05.41-.02.6.09.15.15.28.31.4.49,1,1.08.42,2.43.63,3.65-.02.22-.09.43-.21.61-.7.76-1.32.81-1.83-.19l.02.02c-.12-.09-.17-.18-.13-.28.04-.09.08-.14.12-.14l-.02.02c.12-.18.12-.36-.01-.54Z"/>
      <path class="cls-42" d="M50.17,84.89c-.04-.13,0-.24.08-.35.89-1.01,2.14-.94,3.3-1.11.19-.03.39-.05.58-.07.19-.05.37-.08.56-.12.29-.08.43-.32.56-.56.45-.02.91-.05,1.36-.07.42-.16.52.11.58.44-.08.32-.26.57-.49.8-.31.3-.67.53-1.06.72-.99.52-2.13.34-3.15.73-.76.17-1.49.59-2.3.2-.12-.13-.16-.26-.13-.39.03-.14.07-.2.1-.2Z"/>
      <path class="cls-15" d="M13.95,80.76c.15.97-.85,1.74-.5,2.74h.01c-.37.39-.07.97-.38,1.39-.08.1-.12.21-.12.34-.93.84-1.14-.1-1.52-.61-.19-.57-.08-1.08.33-1.51-.18-.28,1.01.06.23-.52-.05-.29.07-.51.24-.73.38-.41.65-.93,1.17-1.22.1-.02.19-.03.29-.04.08.05.16.1.25.15Z"/>
      <path class="cls-20" d="M13.88,72.99c.02-.15.04-.31.07-.46.11-.16.26-.2.44-.15.3.2.5.49.75.73.27.26.45.56.44.95-.03.19-.09.36-.18.53-.16.24-.36.44-.59.62-.42.3-.86.45-1.36.23-.4-.28-.73-.63-1.01-1.03-.07-.2-.03-.37.13-.51h0c.29-.24.19-.67.48-.91.15,0,.29,0,.44,0,.13.16.26.16.39,0Z"/>
      <path class="cls-120" d="M54.19,83.92c-1.41-.39-2.6.61-3.94.62-.53-.29-.19-.64-.07-.97.28-.35.73-.27,1.08-.44.27.12.53.12.75-.1.17-.13.35-.15.54-.08.49.17.97.08,1.45-.08.35.05.9-.13.66.58l.03.02c-.1.23-.26.39-.51.44Z"/>
      <path class="cls-19" d="M45.98,50.08c-.06.1-.05.2.02.29-.08.2-.23.32-.43.37-.88.2-1.25.93-1.68,1.6-.16.15-.35.19-.56.15-.38-.23-.56-.6-.67-1-.02-.93.66-1.41,1.26-1.94.17-.09.35-.13.54-.12.16.05.18.17.16.32.14-.1.11-.19-.09-.28-.03-.19.03-.36.15-.51.15-.12.31-.22.48-.31.5-.14.94-.86,1.53-.18.03.39.16.81-.32,1.05l.05-.06c-.07.26-.43.31-.46.61Z"/>
      <path class="cls-77" d="M17.64,66.57c.14,0,.29-.01.43-.03.12-.15.28-.18.46-.13.29.18.54.43.88.52.18.02.36.04.55.06.5.04,1,.07,1.4.44.09.21.1.41.03.63-.4.63-1,.8-1.69.78-.41-.03-.81-.16-1.21-.26-.48-.11-.98-.13-1.45-.27-.19-.07-.34-.19-.46-.35.19-.16.39-.32.58-.48.29-.22.19-.66.48-.88Z"/>
      <path class="cls-11" d="M5.76,92.84c.88-.21,1.42.05,1.42,1.04,0,.3.06.56.38.69-.2.74-.71,1.15-1.44,1.32-.33-.33-.15-.74-.18-1.11,0-.19.01-.38.04-.57.83-.52-.57-.28-.22-.64l.02.03c-.14-.07-.2-.15-.18-.26.02-.11.05-.16.09-.16.08-.1.1-.21.07-.33Z"/>
      <path class="cls-48" d="M20.84,73c-.01.42-.03.83-.04,1.25-.39.57-.99.26-1.5.34-.2-.1-.34-.25-.44-.44-.06-.69.35-1.2.7-1.73.25-.33.5-.67.9-.85.22,0,.4.08.54.24.1.41.12.82-.15,1.19Z"/>
      <path class="cls-50" d="M23.19,85.86c.28-.04.57-.07.86-.11.2-.1.41-.15.64-.15.43.03,1.03-.16,1.2.32.18.52-.42.69-.77.92-.2.09-.41.18-.61.26-.33.07-.66.08-1,.07-.45,0-.87-.18-1.31-.23-.37-.07-.59-.27-.54-.67.44-.41,1.09-.05,1.55-.42Z"/>
      <path class="cls-32" d="M24.95,86.74c.19-.37,1.03-.29.79-.83-.16-.37-.8-.21-1.24-.24-.01-.1-.03-.19-.04-.29.62-.02,1.25-.03,1.87-.05.78-.14.64.69,1.02.97,0,.2-.09.32-.29.36-.49.06-.99.11-1.48.17l.09.03c-.24.11-.48.23-.72.34-.12-.1-.17-.2-.14-.3.04-.11.07-.16.11-.16Z"/>
      <path class="cls-116" d="M22.24,6.5c-.06-.15-.06-.3-.03-.45.16-.04.32-.07.47-.11.25-.13.52-.13.78-.04.63.2,1.26.41,1.89.61-.1.6-.77.32-1.02.63-.58.74-.68.28-.92-.26-.21-.45-.8-.2-1.18-.38Z"/>
      <path class="cls-17" d="M42.23,54.14c-.15.01-.27.09-.34.22-.17.04-.28.13-.33.3l-.08.05c-.2.1-.4.18-.61.23-.36.04-.66-.05-.88-.35-.07-.51.18-.89.53-1.23.64-.47,1.29-.67,1.99-.14.1.36.18.72-.27.91Z"/>
      <path class="cls-90" d="M19.08,64.77c.16,0,.29-.06.39-.19.21-.05.41-.11.62-.17.34-.04.65.03.93.22.44.41.67.88.36,1.47-.53.35-1.08.14-1.62.04-.45-.13-.85-.32-1-.82,0-.24.1-.42.31-.55Z"/>
      <path class="cls-85" d="M43.78,52.38q.17-1.65,1.86-1.83c.09.15.08.29-.04.42h0c-.17.15-.3.34-.5.44v-.02c-.22.28-.13.78-.58.92-.13.02-.24.08-.32.18-.17.09-.3.06-.4-.1Z"/>
      <path class="cls-102" d="M11.64,84.43c.55.09.45,1.26,1.33.8-.24.37-.48.74-.73,1.11-.08.09-.15.18-.23.28-.47.29-.89.26-1.09-.3-.29-.8-.13-1.49.72-1.89Z"/>
      <path class="cls-33" d="M9.32,90.32c-.01.17-.03.34-.04.52-.25.31-.51.61-.76.92-.19-.17-.37-.22-.55.01h0c-.15,0-.29,0-.44.03.02-.14.02-.29,0-.44,0-1.34.73-1.48,1.78-1.04Z"/>
      <path class="cls-61" d="M18.96,88.2c.01.12.04.24.08.36-.63.47-1.24,1.58-1.92.06.27-.36.75-.22,1.07-.44.26.01.51.02.77.03Z"/>
      <path class="cls-119" d="M54.67,83.46c-.2-.35-.51-.4-.86-.33-.3.2-.6.18-.91.03-.15-.2-.13-.37.07-.53.76.01,1.53.03,2.29.04.29.62.16.93-.58.78Z"/>
      <path class="cls-18" d="M20.33,87.62c-.42.07-.8.05-.99-.42.36-.2.72-.4,1.08-.61.05.06.11.13.16.19.06.16.07.32.06.49-.06.16-.16.28-.31.36Z"/>
      <path class="cls-72" d="M17.59,11.09c.02-.15.04-.3.05-.45.14,0,.28,0,.42,0,.03.67.03,1.32-.9,1.35,0,0,0,0,0,0-.11-.1-.14-.2-.11-.3.03-.1.07-.15.1-.15h0c.15-.14.3-.29.43-.45Z"/>
      <path class="cls-70" d="M17.91,76.27c-.03.45-.15.85-.71.87-1.07-.31-.46-.66-.03-1.02.15,0,.3-.01.45-.02.05.14.15.19.29.16Z"/>
      <path class="cls-44" d="M20.84,73c0-.46,0-.93,0-1.4.07-.06.14-.12.22-.19.29-.09.56-.05.79.16.06.21,0,.36-.2.46-.27.32-.54.64-.81.96Z"/>
      <path class="cls-51" d="M19.91,17.5c.32-.04.88-.57.77.33-.07.54.24.56.61.59v.92c-.43.28-1.19.88-.57,1.11,1.74.66.18,2.02.79,2.87.07.09-.77.65-.78.35-.03-1.01-1.85-.83-1.26-2.09.13-.27-.04-.38-.29-.4-.8-.08-1.44-.16-1.38-1.32.06-1.13.57-1.51,1.55-1.68.22-.04.38-.44.57-.67Z"/>
      <path class="cls-38" d="M38.14,19.73c-.28.02-.38.2-.42.45-.36.03-.74.04-.95.42-.35.06-.65.21-.87.51-.27.07-.54.15-.8.22.04-.63.57-.82.97-1.16.53-.45,1.59-.55,1.27-1.71-.05-.17.53-.75.78-.72,2.34.25,4.12-1.39,6.27-1.78.91-.17,1.78-.33,2.69-.23-.48.74-1.42.31-1.99.79-.95-.16-1.57.54-2.32.89-.39-.02-.75.02-.97.41-1.17.2-2.12.89-3.14,1.43,0,0,0,.02,0,.02-.1.23-.26.39-.5.47h-.01Z"/>
      <path class="cls-113" d="M12.64,22.54c.22-.09.35-.25.33-.5,0,0,.01-.01.01-.01,1.23-.15.85-1.1.91-1.83.28-.21.6-.24.93-.15.32.14.53.4.66.72.07.34.08.67-.15.96.19,1.05-.31,1.89-.86,2.71-.32-.32.48-1.76-.96-.95-.49.36-.03,1.05-.5,1.41-.58-.71-.45-1.53-.37-2.34Z"/>
      <path class="cls-51" d="M24.5,18.77c-.18,1.31-.74,2.18-2.22,3.08.62-1.46-.03-3.06,2.22-3.08Z"/>
      <path class="cls-60" d="M51.55,23.46c0,.44.03.87.22,1.3.71,1.56.34,1.99-1.6,1.91.44-.94,1.09-1.81.82-2.96,0-.04.36-.17.56-.25Z"/>
      <path class="cls-51" d="M30.46,11.08c.84.96.52,1.69-.46,2.29-1.61-.61-.99-1.22,0-1.83h0c.15-.16.33-.28.46-.46Z"/>
      <path class="cls-51" d="M26.45,15.39c-.19.34,0,.98-.66.92-.33-.03-.34-.41-.34-.7,0-.4.15-.72.59-.77.42-.05.46.23.41.55Z"/>
      <path class="cls-51" d="M25.35,18.2c.63.18,1.43-.01,1.79.91-.89.1-1.45-.21-1.79-.91Z"/>
      <path class="cls-51" d="M23.79,22.29c-.21.74-.41,1.24-1.13,1.06-.11-.03-.26-.24-.24-.33.16-.6.63-.76,1.37-.73Z"/>
      <path class="cls-62" d="M14.39,34.49c-.12-.02-.24-.05-.35-.1-.18-.65-.02-1.23.38-1.76.88.63.22,1.24-.03,1.86Z"/>
      <path class="cls-51" d="M22.15,19.68s-.03.29-.27.36c-.37.1-.49-.18-.57-.48-.1-.38.24-.3.39-.35.22-.08.41.01.44.48Z"/>
      <path class="cls-60" d="M50.18,26.67c0,.61,0,1.22,0,1.83-.65-.61-.65-1.22,0-1.83Z"/>
      <path class="cls-59" d="M42.38,3.29c0-.38.08-.72.46-.92h0c0,.3,0,.61,0,.92-.15,0-.31,0-.46,0Z"/>
      <path class="cls-40" d="M15.36,20.71c.12.02.24.02.35.02.17.44.27.86-.38.98,0-.33.02-.66.03-.99Z"/>
      <polygon class="cls-51" points="21.29 18.42 21.39 18.23 21.48 18.31 21.29 18.42"/>
      <path class="cls-60" d="M56.6,14.75h.46c.03.18.13.41-.13.46-.38.07-.38-.19-.32-.46h0Z"/>
      <path class="cls-59" d="M54.78,5.14c.15,0,.3-.02.45-.02.08.12.12.26.12.4-.28,0-.46-.13-.57-.38Z"/>
      <path class="cls-89" d="M32.69,101.34c-.48.08-1.04-.09-1.4.42-.88.06-1.76.11-2.64.17q.21-1.42,2.26-1.44c.48.68,1.23.37,1.86.5-.03.12-.06.23-.09.35Z"/>
      <path class="cls-3" d="M24.95,86.74c0,.16.02.31.03.47-.64.67-1.53.13-2.24.47-.2-.17-.4-.35-.61-.52-.11-.22-.06-.33.2-.34.43,0,.86.02,1.29.02.3.15.58.16.86-.05.16-.02.31-.04.47-.06Z"/>
      <path class="cls-89" d="M27.81,85.01c.42-.04.85-.08,1.27-.12-.31.63-.73,1.14-1.43,1.36.05-.41.1-.83.16-1.24Z"/>
      <path class="cls-89" d="M30.92,100.49c.26-.39.87-.8,1.06-.53.37.53-.31.44-.61.52-.14.04-.3,0-.45,0Z"/>
      <path class="cls-3" d="M21.78,88.05c.19-.38.5-.44.87-.33-.18.4-.52.39-.87.33Z"/>
      <polygon class="cls-89" points="26.79 88.12 26.9 87.93 26.98 88.01 26.79 88.12"/>
      <path class="cls-89" d="M27.15,86.31c.17-.03.35-.05.52-.08-.11.27-.31.41-.6.43.03-.12.06-.24.08-.36Z"/>
      <path class="cls-56" d="M29.92,53.22c.32-.48-.08-1.43.95-1.43.28.09.34.38.51.56.15,0,.3,0,.45,0,.15-.15.3-.3.44-.47.16-.15.31-.31.47-.46.16-.21.32-.21.47,0h0c.4.32.74.84,1.37.46h0c.15,0,.31,0,.46,0,.15.15.26.33.33.53.15.87-.36,1.6-.56,2.57.79.19,1.56-.55,2.3-.11.08.07.15.15.22.22-.45.72-.5,1.52-.46,2.33-1.05.55-1.57,1.81-2.8,2.13-.54.22-1.09.44-1.63.65-1.15.79-1.26,2.37-2.43,3.14.11.12.16.25.16.39,0,.14-.02.22-.04.22-.6.95-1.34,1.74-2.44,2.13-.61.46-1.22.93-1.83,1.39-1.19.63-1.87.03-2.36-.99-.07-.19-.1-.4-.1-.6.08-.41.42-.62.68-.89.24-.28.3-.62.29-.97-.08-.66.42-.94.81-1.28.11-.26-.04-.44-.19-.63-.18-.23-.26-.48-.21-.77.62-.53,1.53-.92.86-2,.11-.51.36-.93.75-1.27.26-.75-.79-1.92.71-2.3,1.17-.2,2.24-.5,3.06-1.51.49-.6-.12-.72-.24-1.06Z"/>
      <path class="cls-58" d="M57.51,28.04c.91,1.19-.49.93-.84,1.33-.17-.72.27-1.07.84-1.33Z"/>
      <path class="cls-97" d="M34.58,51.89c-.76.75-1.19.52-1.37-.46.52-.02.93.27,1.37.46Z"/>
      <path class="cls-97" d="M31,50.99c0-.13,0-.26.01-.39.92.21.6-.98,1.24-1.08.16.98-.17,1.55-1.25,1.47Z"/>
      <path class="cls-100" d="M39.62,45.96c-.05.35-.04.8-.55.72-.33-.06-.31-.43-.29-.71.28,0,.56,0,.85,0Z"/>
      <path class="cls-97" d="M33.21,51.43c-.16,0-.31,0-.47,0,.07-.32.04-.83.51-.7.34.09-.01.46-.04.71Z"/>
      <path class="cls-60" d="M63.46,24.59c-.05.13-.1.36-.16.36-.18.01-.25-.14-.14-.3.08-.11.25-.28.31-.26.28.12,0-.11,0,.2Z"/>
      <path class="cls-97" d="M31.38,52.35c-.17-.19-.34-.38-.51-.56-.07-.12-.06-.23.03-.34.39.18.47.52.49.9Z"/>
      <path class="cls-97" d="M32.27,51.88c-.15.16-.29.31-.44.47.15-.16.29-.31.44-.47Z"/>
      <path class="cls-97" d="M30.59,51.1c.12,0,.23-.02.35-.03,0,.14-.02.27-.05.4-.1-.12-.2-.24-.3-.36Z"/>
      <path class="cls-36" d="M40.55,41.35c-.04.06-.08.18-.1.18-.15-.03-.12-.1.1-.18h0Z"/>
      <polygon class="cls-60" points="63.47 24.38 63.58 24.19 63.66 24.27 63.47 24.38"/>
      <path class="cls-36" d="M56.6,14.75c.15.31.3.32.46,0,.39.31.44.64-.06.83-.31.12-.8.27-.95-.21-.09-.32.28-.49.55-.62Z"/>
      <path class="cls-73" d="M60.38,26.5c-.06.02-.13.04-.2.06-.02-.06-.06-.15-.04-.17.17-.13.26-.08.24.11Z"/>
      <path class="cls-126" d="M38.34,99.47c-.24-.39-.43-.3-.57.08-.48.11-1.06-.12-1.39.44-.36.04-.73.08-.91.47-.28.03-.57.06-.85.08,0-.39.12-.72.35-1.05.38-.55,1.57-.13,1.43-.68-.27-1.05.48-.87.91-1.15.61-.41.27-.79-.12-1.05-.37-.25-.86-.32-1.23-.57-.42-.28-.49-.76-.41-1.23.09-.6.6-.25.89-.39,1.46-.72,3.06-.86,4.6-1.23.54-.13,1.05-.23,1.17-.88-.12-.4-.44-.35-.74-.35-1.54-.02-.87-2.04-2.1-2.36-.02,0,0-.3.06-.42.32-.58.96-.72,1.49-1.01.74-.4-.62-1.13.28-1.5.43-.18.83-.37,1.3-.38.59-.02.99-.34,1.26-.85.17-.33.44-.5.82-.46.09,0,.18-.01.27-.02.27-.02.54-.02.8-.02.35,0,.69,0,1.04-.02.09,0,.17,0,.26-.01.53.45.94,1.14,1.81.89,1.01-.72,1.94-.17,2.74.33.69.43,1.41,1.22.87,2.09-.61.98-1.32.19-1.9-.25-.57-.44-1.21-.71-1.9-.62-.69.08-1.87-.51-1.74,1,.09,1.05-.22,2.4,1.65,2.22,1.29-.13,2.54-.45,3.82-.62.79-.11,1.73-.53,2.33.31.57.8-.43,1.35-.54,2.06-.06.4-.37.65-.7.86-.15,0-.3,0-.45.01-1.05.69-1.85,1.33-3.48.89-1.55-.42-3.65-.1-4.64,1.99-.63,1.33-2.55.97-3.29,2.25-.17.5-.9.19-1.05.73-.62.16-1.35-.23-1.86.43l-.14-.05-.13.06Z"/>
      <path class="cls-35" d="M35.5,83.98c.15.02.3.04.45.06.15.1.25.25.28.43,0,.18-.05.35-.14.51-.29.22-.7.06-.97.34-.35,0-.71,0-1.06,0-.03-.41-.79-.3-.61-.79.11-.31.5-.24.79-.23.45.02.92.09,1.26-.32Z"/>
      <path class="cls-114" d="M39.12,84.88c.88-.76,1.91-.3,2.88-.36.07.37-.14.58-.42.75-.21,0-.42,0-.63.01-.56-.38-1.31.12-1.83-.4Z"/>
      <path class="cls-101" d="M39.12,84.88c.61.15,1.34-.28,1.83.4-.91.02-1.82.04-2.73.06-.12-.18-.1-.33.09-.45.27,0,.54,0,.81,0Z"/>
      <path class="cls-29" d="M35.11,85.31c.07-.41.42-.42.72-.48.43-.25.88-.38,1.36-.13.23.16.29.36.18.62-.76,0-1.52,0-2.27,0Z"/>
      <path class="cls-57" d="M41.59,85.27c.14-.25.28-.5.42-.75.6-.07.99.06.7.79-.37-.01-.74-.03-1.11-.04Z"/>
      <path class="cls-65" d="M37.39,85.32c-.04-.13-.06-.26-.06-.4.03-.17.11-.31.23-.43.08-.03.16-.05.24-.08.17.16.35.32.52.48-.03.15-.06.3-.09.45-.28,0-.56-.01-.84-.02Z"/>
      <path class="cls-66" d="M30.89,3.31c.91-.42,1.82-.82,2.84-.9.45.5,1.04.93.84,1.73-.14.61-.02,1.65-1.16.73-.34-.27-.81-.22-.97.18-.65,1.55-1.58.92-2.84.31,1.19-.39,1-1.33,1.28-2.06Z"/>
      <path class="cls-28" d="M19.45,8.79c.65-.4,1.13-.95,1.49-1.62.26-.49.65-.81,1.27-.65,0,.6,0,1.2-.01,1.79-.12.13-.25.26-.39.38-.45.32-.77.74-.94,1.27-.11.27-.25.5-.5.66-.54-.49-.79-1.14-.92-1.84Z"/>
      <path class="cls-66" d="M28.98,3.24c.2.04.4.07.6.11-.3,1.95-1.82,2.05-3.32,2.2.41-1.35,1.93-1.41,2.72-2.31Z"/>
      <path class="cls-36" d="M30,11.54c-.46.61-.92,1.22,0,1.83-.86-.06-2.14.23-2.13-1.01,0-1.44,1.39-.56,2.13-.82Z"/>
      <path class="cls-47" d="M20.37,10.63c.04-.26.09-.52.13-.78.58-.3.99.08,1.43.34.16.14.28.31.36.51-.58.47-1.18.9-1.99.77.02-.28.04-.56.06-.84Z"/>
      <path class="cls-47" d="M21.79,8.45c.13-.06.26-.11.4-.13-.01.8.87,1.56.1,2.38,0,0-.14-.12-.14-.12-.48-.65-2.05-1.11-.37-2.13Z"/>
      <path class="cls-47" d="M19,12c0-1.26.67-.87,1.31-.54-.15.89-.66.88-1.31.54Z"/>
      <path class="cls-66" d="M29.9,6.8c.24.12.36.3.27.52-.11.28-.34.48-.67.4-.17-.04-.2-.2-.11-.37.13-.23.15-.57.52-.56Z"/>
      <path class="cls-66" d="M31.36,6.84c-.05-.04-.11-.09-.16-.13.06-.03.12-.1.18-.09.06,0,.11.08.16.12-.06.03-.12.07-.18.1Z"/>
      <path class="cls-36" d="M32.64,9.43c-.12.05-.28.18-.37.14-.19-.08-.16-.23.05-.28.14-.03.28-.03.42-.05-.04.06-.07.12-.11.18Z"/>
      <path class="cls-47" d="M18.6,13.38c-.09-.41-.14-.81.32-1.06.15.43.1.8-.32,1.06Z"/>
      <path class="cls-36" d="M30.46,11.08c-.15.15-.31.31-.46.46.15-.15.31-.31.46-.46Z"/>
      <path class="cls-36" d="M33.21,9.25h-.46c.15-.31.31-.31.46,0Z"/>
      <path class="cls-59" d="M42.84,2.37c.04-.06.08-.19.1-.18.15.03.12.11-.1.18h0Z"/>
      <path class="cls-122" d="M49.74,45.03c-.26.78-.97,1.38-.95,2.27-.28.22-.55.45-.83.67-.56-.39-1.04-.31-1.43.26l.02.08c-.72-.12-.67,1.1-1.46.84-.13-.25-.29-.45-.62-.35-.16.07-.33.1-.51.09-.2-.05-.27-.17-.21-.37-.28-.49-1.1-.86-.67-1.53.42-.65.72-1.53,1.8-1.53.59,0,1.18-.24,1.77-.37.04.14.15.28.26.24.1-.04.1-.22.06-.36,1.24-1.8,1.5-1.79,2.78.06Z"/>
      <path class="cls-55" d="M35.04,52.35c0-.15,0-.31,0-.46,1.2.17,2.2-.37,3.18-.94.07.04.15.08.22.12.13.11.25.22.38.33.32.18.68.15,1.02.25,1.11.52.82,1.2.21,1.91-.58.71-1.02,1.59-2.13,1.61-.2-.02-.4-.04-.6-.06h0c-.13-.13-.24-.27-.35-.42-.13-.24-.25-.49-.41-.71-.78-.29-1.27-.84-1.52-1.62Z"/>
      <path class="cls-37" d="M39.66,53.32c.36-.48,1.09-.97-.01-1.44-.27-.39-.02-.72.12-1.06.21-.41.4-.85.77-1.15.06-.26.24-.42.49-.52.4-.15.56-.55.85-.81.81.43.44,1.2.54,1.84.59.26-.51,1.23.54,1.29.33.26.33.65.42,1-.19.24-.39.48-.58.73h-.2s-.17.1-.17.1c-.65-.06-1.27-.02-1.81.4-.52.39-.73,0-.96-.38Z"/>
      <path class="cls-4" d="M42.95,51.47c-.1.1-.2.21-.31.29-.28.2-.57.57-.91.24-.31-.29-.15-.68.11-.96.25-.26.54-.47.58-.87.14-.06.27-.14.38-.25.29-.11.39-.47.69-.56.32-.06.61,0,.81.29-.43.62-1.13,1.03-1.34,1.81Z"/>
      <path class="cls-55" d="M38.22,50.95c-.99-1.5-.96-1.54.99-1.78.05.07.11.14.16.21,0,.09,0,.18,0,.27-.08.35-.19.69-.32,1.03-.08.17-.19.31-.33.43-.19.07-.34.02-.47-.13l-.03-.03Z"/>
      <path class="cls-25" d="M46.96,44.97c.67.16.91.54.51,1.14-.24.35-.67.47-.99.19-.47-.41.1-.81.15-1.22.13.03.24,0,.33-.12Z"/>
      <path class="cls-121" d="M40.53,49.67c-.03.48.07,1-.46,1.3-.1,0-.2-.01-.3-.02-.61-.27-1.1-.58-.53-1.32l-.02.02c.25-.36.56-.27.88-.12.14.05.29.1.43.15Z"/>
      <path class="cls-27" d="M41.87,48.34c-.03.53.3,1.45-.85.81h0c.27-.22.14-.67.5-.84.12-.03.24-.03.36.02Z"/>
      <path class="cls-37" d="M43.29,49.6c-.17.11-.34.22-.5.32-.11-.76.26-1.2.95-1.42.05.08.07.16.05.25.17.48-.25.61-.5.85Z"/>
      <path class="cls-37" d="M41.51,48.32c-.06.34-.15.67-.5.83,0-.38.05-.72.5-.83Z"/>
      <path class="cls-37" d="M40.1,49.52c-.29.04-.59.08-.88.12,0-.16,0-.32,0-.48.34,0,.68.02.89.35Z"/>
      <path class="cls-73" d="M57.03,39.05c-.06-.04-.17-.09-.17-.12.03-.14.11-.11.19.1l-.02.02Z"/>
      <path class="cls-99" d="M53.38,93.16c.29-.92-.14-2.11,1.17-2.73-2.96-.18-5.64,1.35-8.64.38.27-.98,1.06-2.17-.17-3.25-.25-.22.15-.78.57-.75,1.71.12,3.69-.85,4.94,1.2.16.27.47.41.77.19.33-.25.14-.5-.01-.78-.7-1.32-1.86-1.7-3.25-1.63.04-.12.07-.24.11-.35.38-.46.83-.3,1.28-.14.77-.15,1.54-.3,2.31-.45,1.08-.5,2.49.37,3.41-.8.24-.17.47-.35.71-.52.32-.26.64-.26.96,0,.88-.3,1.91-.33,2.37-1.36.92.31.9-1.07,1.72-.95,1.08.17,2.16-1.11,3.23.03-.51.85.24,1.01.73,1.3.47.28.72.64.24,1.07-.47.42-.59.52-1.02-.32-.49-.96-2.68-.37-3.3.67-.76,1.28-.77,1.27-1.77,1.69-.4.17-.9.27-.95.85.89.71,1.93-.35,2.83.24l.02.02c.31.55,1.27.59,1.2,1.53-1.26.3-2.25-.91-3.57-.52-.1.86,1.06.73,1.14,1.42-.26.5-.83.52-1.27.76-.83.45.29.56.21.91.62.91,1.48,1.82.01,2.74l-.02.02c-.47-.1-.7-.24-.77-.85-.18-1.5-.5-1.66-1.89-1.23-.7.22-1.5.3-1.9,1.08-.3.57-.86.52-1.39.53Z"/>
      <path class="cls-98" d="M64.85,81.24c-.94.02-1.8.01-2.67.7-.78.62-.69-.21-.56-.73h0c.19-.09.32-.27.48-.42h.01c.18-.18.34-.36.41-.61-.04-.11-.03-.21.03-.31.18-.13.32-.3.46-.46h0c.42-.57.1-1.49.9-1.86h-.01c.61-1.02.65-2.3,1.37-3.29.01-.27.02-.54.03-.81.4-.33.56-.77.57-1.28.85-.41,1.71-.07,2.57-.01-1.1.76-1.19,1.69-.46,2.76.06.29.27.38.54.39.17.19.34.37.51.56.22.37.79.43.81.97.04.92-.51,1.32-1.4.95-.43-.18-.85-.2-1.28-.21-.32.9-1.4,1.05-1.84,1.83-.92.42.08,1.32-.46,1.83h0Z"/>
      <path class="cls-71" d="M59.36,93.61c.76-.92.1-1.83-.01-2.74.97.89,2.22-.07,3.23.5-.03.12-.05.25-.06.38-.36.05-.73.05-.96.41-1.16.43.22.92-.03,1.37-.72.03-1.44.06-2.17.08Z"/>
      <path class="cls-99" d="M64.85,81.24c0-.07.02-.17-.02-.22q-.88-1.11.48-1.62c-.07.63.21,1.35-.46,1.83Z"/>
      <path class="cls-99" d="M65.31,79.41c.11-1.11,1.2-1.25,1.84-1.83.24,1.47-1.08,1.36-1.84,1.83Z"/>
      <path class="cls-7" d="M61.61,86.75c.06-.32-.14-.8.46-.8.1,0,.28.16.29.26.06.56-.37.53-.73.55l-.02-.02Z"/>
      <path class="cls-71" d="M63.65,90.94c-.22.5-.66.43-1.07.42.23-.46.64-.48,1.07-.42Z"/>
      <path class="cls-6" d="M41.52,98.3c-.07-.9.44-1.72,1.16-1.72,1.24,0,1.81-.48,2.08-1.59.14-.58.62-.91,1.14-1.03,1.32-.3,2.66-.53,4-.76.2-.03.52.06.62.2.63.94,1.03.39,1.53-.14.16-.17.58-.08.89-.1-.86.91-1.36,1.8.14,2.6.05.03-.08.42-.13.64-.83.75-2.05-.04-2.87.75-1.16.35-2.45-.03-3.57.59-1.1.07-2.25-.31-3.27.39-.57.06-1.15.12-1.72.18Z"/>
      <path class="cls-123" d="M27.68,66.09c.62-.9,1.24-1.8,2.24-2.34.18-.13.37-.14.57-.03.11.11.15.23.13.36-.02.13-.04.19-.07.19-.07.14-.13.29-.2.43-.05.78-.6,1.19-1.17,1.58-.33.11-.56.61-1.01.27-.16-.15-.32-.31-.48-.46Z"/>
      <path class="cls-103" d="M29.03,66.06c.42-.47.65-1.13,1.32-1.36.22.02.43.05.65.07.11.43.22.86.33,1.29-.23.05-.41.18-.47.42-.42.16-.85.33-1.27.49-.06-.24-.22-.33-.46-.31-.22-.18-.25-.38-.08-.61Z"/>
      <path class="cls-16" d="M32.67,61c.03.23.14.49.06.66-.07.16-.34.26-.54.33-.05.02-.24-.15-.26-.25-.04-.27.21-.36.39-.47.13-.08.26-.16.39-.24,0,0-.05-.03-.05-.03Z"/>
      <path class="cls-91" d="M30.51,63.82c-.2-.02-.39-.04-.59-.06.02-.13.04-.26.08-.39.37-.03.75-.1.88.39-.09.19-.22.22-.37.07Z"/>
      <path class="cls-103" d="M30.51,63.82c.13.01.25-.01.37-.07-.11.17-.22.35-.33.52-.04-.15-.05-.3-.03-.46Z"/>
      <path class="cls-34" d="M50.15,85.3c-.43.05-.85.09-1.28.14-.41-.13-1,.02-.61-.86.45-.99.49-.04.63.08.4.32.86.16,1.28.23-.03.13-.04.27-.02.41Z"/>
      <path class="cls-39" d="M44.57,84.96c.77-.58,1.56-.75,2.37-.07h.02c-.38.35-.85.2-1.29.23-.33,0-.68.05-.95-.23l-.15.07Z"/>
      <path class="cls-117" d="M35.96,84.45c0-.14,0-.27-.02-.41.61-.15,1.23-.17,1.84,0-.02.12-.01.25.02.37l.03.06c-.62.28-1.25.32-1.86-.03Z"/>
      <path class="cls-99" d="M65.26,74.25c-.16,1.22-.11,2.53-1.37,3.3.08-.48-.13-.89-.3-1.3.41-.31.82-.65.83-1.2,0-.61.43-.68.84-.79Z"/>
      <path class="cls-99" d="M63.91,77.54c-.39.58-.26,1.4-.9,1.86-.01-.16-.02-.33-.04-.49-.16-.78-.01-1.35.94-1.37Z"/>
      <path class="cls-52" d="M34.07,59.57c.73-.98,1.08-2.44,2.8-2.13,0,1-.98,1.41-1.33,2.2-.49-.02-.98-.05-1.47-.07Z"/>
      <path class="cls-94" d="M37.38,56.4c.36.11.67.13.96-.21.32-.38.68-.76,1.26-.7.38.63.34,1.27.03,1.91-.02.13-.04.27-.06.4-.28.01-.56.02-.85.03.04-.37.4-.88-.41-.85-.43.02-.89.05-.94-.57Z"/>
      <path class="cls-53" d="M13.01,24.88c.12-.49-.06-1.08.5-1.41.01.38.07.76.03,1.13-.03.25-.11.65-.53.28Z"/>
      <path class="cls-92" d="M8.11,82.28c.27-.07.39-.25.4-.52.91-.4,1.46-1.22,2.2-1.83.5-.41-.13-.63-.03-.94.29-.54.8-.86,1.21-1.27.54-.45.96-.97,1.12-1.67.09-.29.23-.56.49-.74.53.05,1-.12,1.39-.48.15-.15.29-.31.43-.47h0c.37-.36.74-.71,1.3-.73.21.01.4.07.57.18.27.41.05.76-.12,1.12-.09.17-.18.35-.25.52-.14.37-.15.78-.35,1.13-.43.72-1.19,1.17-1.59,1.92-.46.3-.92.61-1.38.91-.41.56-1.09,1.01-.72,1.87.01.3.05.6-.25.8-.23.1-.42.23-.41.52.27.18.27.35-.02.52-.24.41-.52.8-.45,1.31-.46.45-.72.96-.51,1.63.16.51.51.44.89.31-.01.39-.03.79-.04,1.18-.4.19-.42.56-.43.93-.27.03-.42.17-.44.44-1.49-.68-1.39.68-1.79,1.4-.7.16-1.54.1-1.78,1.04-.6-.21-.57-.82-.39-1.12.6-1.03-.14-1.73-.45-2.55.46-1.41,1.51-2.49,2.15-3.79-.03-.74-1.3-.25-1.16-1.17.26-.05.4-.2.44-.46Z"/>
      <path class="cls-78" d="M14.87,78.5c-.16-.57-.84-1.3.45-1.44.49-.05.79-.38.95-.84.25-.26.17-.68.42-.94v-.02c.18-.15.34-.13.48.04,0,.28,0,.55,0,.83-.08.34-.53.7.03,1.02-.36.34-.58.75-.59,1.25-.57.21-1.13.46-1.74.1Z"/>
      <path class="cls-74" d="M12.57,81.29c-.86-.17-.98-.65-.43-1.24.34-.36.75-.75,1.36-.64.01.38.56.5.45.93-.06.06-.12.11-.18.17-.16.02-.32.07-.46.15-.29.16-.44.48-.73.64Z"/>
      <path class="cls-8" d="M13.95,80.35c.27-.01.71-.23.75.09.06.55-.46.26-.74.32v.04c-.24-.17-.24-.34.01-.51l-.02.05Z"/>
      <path class="cls-99" d="M62.09,80.79c-.16.14-.32.29-.48.43.07-.25.25-.37.48-.43Z"/>
      <path class="cls-99" d="M62.51,80.18c-.03.27-.16.47-.41.6.13-.2.27-.4.41-.6Z"/>
      <path class="cls-99" d="M63.01,79.4c-.15.15-.31.31-.46.46,0-.3.22-.4.46-.46Z"/>
      <path class="cls-41" d="M8.84,83.91c-.13,1.6-.86,2.85-2.15,3.79-.05-.19-.11-.38-.17-.56-.13-.12-.13-.25,0-.38.03-.16.06-.31.09-.47.42-.39.02-.86.11-1.28.77-.25,1.49-.59,2.12-1.1Z"/>
      <path class="cls-119" d="M55.87,84.05c-.05.35-.03.73-.57.74-.95,0-1.9.04-2.85.06,1.02-.77,2.37-.15,3.41-.8Z"/>
      <path class="cls-119" d="M57.53,83.52c-.32,0-.64,0-.96,0,.14-.14.27-.29.41-.43.18.14.36.28.54.42Z"/>
      <path class="cls-119" d="M54.19,83.92c.17-.15.34-.29.51-.44-.07.27-.24.42-.51.44Z"/>
      <path class="cls-105" d="M13.5,75.3c-.02.32-.05.64-.07.96-.36.67-1.03,1.13-1.29,1.87-.49.28-.98.57-1.47.85h.05c-.13-.17-.13-.34,0-.51.15-.45.3-.91.45-1.36.69-.44.45-1.16.53-1.78.41-.18.72-.47.92-.88.62-.06.79.35.86.85Z"/>
      <path class="cls-92" d="M10.74,78.46c0,.17,0,.35,0,.52-.11-.06-.31-.09-.33-.18-.07-.25.14-.31.34-.35Z"/>
      <path class="cls-103" d="M12.57,81.29c.07-.61.33-1.01,1.03-.95l.09.18-.12.16c-.34.47-.37,1.17-1.04,1.4.02-.26.03-.52.05-.79Z"/>
      <path class="cls-119" d="M14.35,72.49c.06-.26.12-.51.19-.77.48-.16.77-.51.96-.96.12-.02.23-.07.31-.16.16-.1.31-.23.44-.37h0c.54-.41,1.29-.74.29-1.5-.28-.21.07-.53.2-.78.63.03,1.26.06,1.89.1.07.73-.45,1.25-.64,1.89-.09.19-.17.44-.34.52-.77.33-.36.51.07.7.03.73-.5,1.21-.82,1.78-.13.13-.3.19-.48.21-.32-.06-.64-.16-.96.02-.22.1-.48.12-.67.29-.49-.17-.36-.62-.45-.98Z"/>
      <path class="cls-67" d="M14.8,73.47c.05-.33.31-.46.57-.59.29-.19.57-.17.85.03.16,0,.32,0,.48.01.26.32.29.64.01.97-.45.18-.86.5-1.39.45.01-.4-.14-.71-.52-.88Z"/>
      <path class="cls-67" d="M15.32,74.35c-.05.24-.2.39-.43.47.03-.26.18-.41.43-.47Z"/>
      <path class="cls-84" d="M52.49,83.13c.11-.1.23-.15.38-.15.31.05.62.1.94.15-.44.53-.87.53-1.31,0Z"/>
      <path class="cls-125" d="M44.19,48.65c.13-.18.25-.36.39-.53.2-.25.51-.45.75-.3.44.28.09.62-.06.92-.06.13-.13.26-.19.39h-.17s-.17.02-.17.02c-.31-.04-.48-.21-.55-.51Z"/>
      <path class="cls-13" d="M44.19,48.65c.28.06.49.21.55.51-.09.14-.1.28-.06.44h0s-.2,0-.2,0c0,0-.19.06-.19.06-.33-.02-.66-.03-1-.05-.04-.41.39-.53.5-.85.14,0,.28-.04.4-.11Z"/>
      <path class="cls-97" d="M44.68,49.6s.09.06.13.09c-.05-.03-.09-.06-.14-.09h0Z"/>
      <path class="cls-5" d="M17.63,69.73c-.21-.89.73-1.08,1-1.68.34-.02.61.13.83.37,1.05.53,2.08,0,3.11-.07.59,0,1.16.01,1.54.56-.05.12-.09.24-.12.36-.53.69-.62,1.81-1.81,1.87-.49.57-.95-.19-1.44-.03-.14.1-.27.19-.41.29-.12.12-.25.23-.37.35-.17.05-.33.06-.5.01-.24-.3-.48-.17-.72,0-.19-.03-.33-.12-.45-.27-.14-.24-.22-.5-.29-.77-.1-.35-.13-.72-.39-1.01Z"/>
      <path class="cls-1" d="M19.88,65.71c.49.1.98.2,1.48.3.12-.11.23-.22.33-.35.11-.23.26-.42.44-.59.23-.14.47-.18.73-.14.16.05.3.15.4.29.09.33-.14.66.01.98.18.38.56.7.41,1.2-.47.61-1.17.61-1.84.71-.2,0-.39-.06-.55-.18,0-.14-.02-.27-.02-.41-.58-.48-1.2-.33-1.82-.11l-.21.05-.21-.04c-.68-1.05.55-1.15.85-1.72Z"/>
      <path class="cls-9" d="M21.29,67.94c.14.01.27,0,.4-.06.1.04.2.08.3.12.24.24.41.51.21.86-1.04.67-1.89.1-2.74-.43.66.02,1.29-.06,1.83-.49Z"/>
      <path class="cls-31" d="M19.88,65.71c.11.3.43.69-.12.83-.5.13-.72.4-.73.88-.43-.14-.48-.52-.55-.89.03-.44.06-.88.1-1.31.13-.03.26-.04.39-.06.19.37.54.48.91.54Z"/>
      <path class="cls-31" d="M19.44,67.42c.64-.56,1.26-.67,1.82.11-.61-.03-1.22-.07-1.82-.11Z"/>
      <path class="cls-9" d="M21.69,67.88c.35-.84,1.54.03,1.85-.9-.19-.23-.24-.48-.11-.75.08-.04.16-.09.24-.13.51.8,1.09,1.51,2.19,1.39-.07.62-1.26.41-.97,1.3l-.2.02-.2-.02c-.77-.67-1.9-.14-2.68-.79l-.12-.11Z"/>
      <path class="cls-63" d="M28.18,67c.07.67-.13,1.16-.86,1.31-.26-.8.38-1,.86-1.31Z"/>
      <path class="cls-45" d="M29.03,66.06c.03.2.05.4.08.61.01.12,0,.24-.04.35-.31,0-.62.02-.92.03,0-.16,0-.33.01-.49.29-.16.58-.33.87-.49Z"/>
      <path class="cls-12" d="M22.33,86.83c-.08.11-.14.22-.2.34-.27.04-.54.09-.8.13-.34.12-.68.22-.93-.16.02-.1.02-.2,0-.31.32-.14.72-.14.9-.53.16.02.31.04.47.05.19.16.37.32.56.47Z"/>
      <path class="cls-3" d="M20.39,87.13c.31.06.62.11.93.16-.27.29-.62.35-.99.32.02-.16.04-.32.06-.49Z"/>
      <path class="cls-88" d="M18.43,70.55c.04.32.08.63.12.95,0,.3-.02.59-.1.87-.21.65.42,1.01.54,1.54.03.18.06.35.09.53h-.02c-.29.13-.59.16-.9.11-.39-.14-.77-.28-1.09-.56-.12-.02-.25-.05-.37-.07,0-.32,0-.65-.01-.97-.11-.82.18-1.42.94-1.78.12-.4.38-.6.81-.6Z"/>
      <path class="cls-44" d="M19.43,72.52c-.42-.24-.81-.54-1.34-.44,0-.32.18-.49.46-.58.14.09.28.1.44.04.15-.09.31-.09.47,0,.15-.03.3-.06.46-.09.09-.01.17-.03.26-.04.06.06.12.13.18.19.11.44-.1.72-.45.93h-.18s-.15-.17-.15-.17l-.14.17Z"/>
      <path class="cls-44" d="M20.84,71.6c-.16,0-.32,0-.48-.01,0,0-.08-.09-.08-.09-.05-.14-.03-.26.08-.36h.02c.42-.09.61.03.44.48l.02-.02Z"/>
      <path class="cls-97" d="M29.92,53.22c.57.08,1.21-.02,1.62.58-1.37.96-2.24,2.7-4.27,2.34-.56-1.35.99-.94,1.3-1.56.08-.11.11-.22.1-.36.57-.14.26-1.38,1.25-1Z"/>
      <path class="cls-32" d="M24.48,86.8c-.27.41-.55.42-.86.05.29-.02.57-.03.86-.05Z"/>
      <path class="cls-67" d="M17.07,73.98c.4-.04.78-.02,1.01.39.16.1.21.19.15.27-.06.08-.12.12-.18.12-.13.03-.25.06-.37.1-.19.11-.39.22-.49.43h0c-.16,0-.31-.01-.47-.03.12-.43.25-.86.37-1.29Z"/>
      <path class="cls-48" d="M18.05,74.76c0-.13,0-.26.03-.39.33.02.65.05.98.07-.2.54-.57.54-1.01.32Z"/>
      <path class="cls-78" d="M17.18,75.29c.03-.29.2-.43.49-.43-.08.24-.2.44-.49.43Z"/>
      <path class="cls-87" d="M20.82,71.63c-.15-.16-.29-.31-.44-.47.23-1.02.56-1.4,1.24-.24.08.14.38.16.58.23-.04.12-.07.23-.1.35-.13-.02-.24.02-.33.11-.31,0-.63.01-.94.02Z"/>
      <path class="cls-124" d="M39.64,57.4c-.01-.64-.02-1.27-.03-1.91,0-.38.22-.64.52-.84.32.01.65.02.97.03-.04.14-.07.28-.1.42-.17.14-.34.28-.5.42-.82.41-.4,1.17-.51,1.78-.12.02-.24.05-.35.1Z"/>
      <path class="cls-23" d="M46.53,48.23c.04-.49-.16-1.13.55-1.25.74-.13.76.5.88,1-.39.57-.93.32-1.43.26Z"/>
      <path class="cls-93" d="M22.21,65.19c-.02.38-.06.74-.49.9-.28-.43-.19-1.09-.82-1.31-.38-.04-.76-.08-1.15-.12.09-.1.16-.22.2-.34.67-.2.92-.7.97-1.34.33-.2.42-.53.47-.87.13,0,.27,0,.4,0,.67.16.75.75.93,1.26.13.33.36.61.53.92.04.18.02.36-.07.52-.29.22-.73.08-.99.39Z"/>
      <path class="cls-83" d="M20.9,64.78c.99-.01.86.67.82,1.31-.12,0-.24-.03-.36-.07-.15-.41-.31-.82-.46-1.24Z"/>
      <path class="cls-2" d="M23.61,59.72c.28-.03.46-.15.46-.46.15-.15.31-.31.46-.46.36-.29.68-.08,1.01.07.07.06.14.11.22.17.04.08.09.16.13.24.03.39.16.72.58.84.45.13.9.34.72.89-.22.72-.8.49-1.28.31-.38-.14-.71-.17-.98.19-.72.98-1.51,1.88-2.68,2.33,0-.62-.1-1.22-.46-1.74.13-.19.27-.39.4-.58.47-.6.94-1.2,1.41-1.79Z"/>
      <path class="cls-112" d="M28.57,54.58c-.3.63-1.12.83-1.3,1.56-.5.11-.95.44-.73.92.26.59.78-.13,1.37.1-.25.51-.5.97-1.1,1.17-.32-.29-.88-.1-1.12-.55-.13-.33-.07-.64.12-.93.18-.42.36-.84.55-1.25h-.01c.14-.16.27-.33.42-.48.12-.06.16-.15.11-.28.54-.23,1.1-.32,1.68-.25Z"/>
      <path class="cls-79" d="M25.86,57.89c.39-.01.82-.11.95.44-.31.31-.62.63-.93.94,0,0-.06-.2-.06-.2l-.19-.04-.16.11c-.32-.11-.63-.23-.95-.34-.01-.47-.03-.94-.04-1.41.13-.05.27-.07.41-.06.38.1.6.46.97.57Z"/>
      <path class="cls-26" d="M25.86,57.89c-.84.68-.82-.09-.97-.57.05-.11.08-.22.1-.34.27-.05.54-.09.81-.14.02.35.03.7.05,1.05Z"/>
      <path class="cls-96" d="M21.81,67.99c.6-.01,1.2-.03,1.8-.04.56-.01.79.33.88.83-.09.14-.21.19-.37.14-.64-.02-1.28-.04-1.92-.06-.13-.29-.26-.58-.39-.87Z"/>
      <path class="cls-115" d="M37.26,54.49c.02.2.05.41.07.61-1.22-.23-2.17,1.04-3.6.76.44-1.3,1.21-2.3,1.31-3.52.43.98,1.71.65,2.26,1.45-.23.22-.25.45-.04.69Z"/>
      <path class="cls-30" d="M22.25,63.84c.44-1.31,1.54-1.85,2.68-2.33.16.16.32.32.48.48-.32.57.13.75.49.97-.19.54-1.65.15-.96,1.32-.26.23-.56.38-.92.4-.36-.01-.65-.17-.91-.41-.34-.05-.71-.01-.86-.43Z"/>
      <path class="cls-106" d="M32.94,54.32c.05.21.1.31.07.35-.34.43-.55,1.05-1.26.95-.1-.01-.25-.24-.23-.35.14-.86.78-.87,1.42-.94Z"/>
      <path class="cls-69" d="M23.11,64.27c.31.02.62.04.93.06.13.08.23.19.31.31.09.12.15.26.17.41,0,0,.04.22.04.22-.23.41-.62.37-1,.34-.2-.05-.35-.16-.46-.33l-.02-.16c-.14-.1-.18-.2-.13-.3.05-.09.1-.13.16-.13,0-.14,0-.29,0-.43Z"/>
      <path class="cls-64" d="M31.42,58.35c.16-.23.28-.5.48-.69.21-.19.54-.3.73.02.07.13,0,.43-.12.57-.18.21-.45.35-.67.51-.18-.1-.32-.24-.41-.42Z"/>
      <path class="cls-76" d="M25.91,62.96c-.79,0-.88-.37-.49-.97.77.02,1.13.24.49.97Z"/>
      <path class="cls-93" d="M23.11,65.29c.25-.02.39.11.46.33.03.16.05.32.08.48l-.22.05c-.28.22-.54.2-.78-.05.15-.27.3-.54.45-.8Z"/>
      <path class="cls-49" d="M24.06,64.77c0-.15-.01-.29-.01-.44.3-.02.6-.03.9-.05.13.43.05.78-.37.99-.03-.07-.08-.14-.13-.21-.13-.1-.26-.2-.38-.3Z"/>
      <path class="cls-109" d="M30.83,56.46c-.02.06-.03.17-.07.19-.15.07-.23-.02-.21-.21,0-.06.1-.1.15-.15.04.06.09.12.13.17Z"/>
      <path class="cls-46" d="M31.42,58.35c.14.14.27.28.41.42-.11.04-.22.08-.34.12-.02-.18-.05-.36-.07-.54Z"/>
      <path class="cls-43" d="M45.6,84.91c.45,0,.9-.02,1.36-.03-.34.57-.89.47-1.41.44-.12-.11-.15-.21-.09-.29.05-.08.1-.12.15-.12Z"/>
      <path class="cls-68" d="M45.6,84.91c0,.14,0,.28-.06.42-.35,0-.81.2-.82-.43.29,0,.58.01.88.02Z"/>
      <path class="cls-6" d="M43.43,94.72c-.02.06-.04.16-.06.16-.06,0-.13-.04-.19-.06.02-.06.04-.16.06-.16.06,0,.13.04.19.06Z"/>
      <path class="cls-24" d="M35.96,84.45c.62,0,1.24.02,1.86.03-.17.15-.33.3-.5.45-.49-.03-.99-.06-1.49-.09.06-.12.1-.25.12-.38Z"/>
      <path class="cls-54" d="M21.79,8.45c-.35.48-.68.93.1,1.38.18.1.19.5.27.76-.78.27-1.08-.55-1.66-.74.13-.74.27-1.48,1.29-1.4Z"/>
      <path class="cls-23" d="M44.83,46.93c.01.17-.08.26-.26.22-.07-.01-.14-.07-.18-.12-.11-.16-.07-.33.11-.34.11,0,.22.16.33.25Z"/>
      <path class="cls-111" d="M40.07,50.97c-.14.3-.28.61-.42.91-.46-.06-1.27,1.25-1.33-.35.07-.24.19-.44.49-.44l.03-.02c.39-.51.83-.39,1.27-.08l-.03-.03Z"/>
      <path class="cls-37" d="M38.8,51.1c-.05.27-.24.39-.49.44-.02-.19-.04-.37-.06-.56.18.04.36.08.54.12Z"/>
      <path class="cls-37" d="M40.1,51c-.42.03-.85.05-1.27.08-.06-.54-.3-1.12.4-1.45-.15.73.74.81.87,1.37Z"/>
      <path class="cls-81" d="M12.14,78.13c-.24-1.08.65-1.39,1.29-1.87.13,1.01-.46,1.52-1.29,1.87Z"/>
      <path class="cls-67" d="M16.69,75.28c-.03.36-.09.71-.42.94-.02-.39.06-.73.42-.94Z"/>
      <path class="cls-95" d="M18.43,70.55c-.27.2-.54.4-.81.6-.39-.08-.99,0-.49-.71.17-.23.33-.47.49-.71.58-.04.93.16.8.81Z"/>
      <path class="cls-82" d="M16.21,72.92c-.28-.01-.57-.02-.85-.03.01-.28.02-.63.35-.67.51-.06.5.35.5.71Z"/>
      <path class="cls-88" d="M20.36,71.14c-.02.12-.04.24-.08.36-.12-.02-.24-.04-.36-.07.15-.1.29-.19.44-.29Z"/>
      <path class="cls-88" d="M19.46,71.52c-.16,0-.31,0-.47,0,.15-.22.31-.22.47,0Z"/>
      <path class="cls-110" d="M22.66,66.1c.26.02.52.03.78.05.03.28.06.55.09.83-.47-.11-.76-.41-.87-.88Z"/>
      <path class="cls-75" d="M23.12,64.7c0,.14,0,.29-.03.43-.3.02-.59.04-.89.05.12-.5.55-.44.92-.48Z"/>
      <path class="cls-14" d="M19.43,72.52c.09-.11.18-.46.29-.01-.1,0-.2,0-.29.01Z"/>
      <path class="cls-104" d="M25.48,59.14c.08-.23.19-.25.35-.07l-.16.09-.18-.02Z"/>
      <path class="cls-80" d="M24.06,64.77c.13.1.26.2.38.3-.25.06-.39-.02-.38-.3Z"/>
    </g>
  </g>
</svg>