<?xml version="1.0" encoding="UTF-8"?>
<svg id="Layer_2" data-name="Layer 2" xmlns="http://www.w3.org/2000/svg" viewBox="0 0 78.01 131.3">
  <defs>
    <style>
      .cls-1 {
        fill: #0c0d0d;
      }

      .cls-1, .cls-2, .cls-3, .cls-4, .cls-5, .cls-6, .cls-7, .cls-8, .cls-9, .cls-10, .cls-11, .cls-12, .cls-13, .cls-14, .cls-15, .cls-16, .cls-17, .cls-18, .cls-19, .cls-20, .cls-21, .cls-22, .cls-23, .cls-24, .cls-25, .cls-26, .cls-27, .cls-28, .cls-29, .cls-30, .cls-31, .cls-32, .cls-33, .cls-34, .cls-35, .cls-36, .cls-37, .cls-38, .cls-39, .cls-40, .cls-41, .cls-42, .cls-43, .cls-44, .cls-45, .cls-46, .cls-47, .cls-48, .cls-49, .cls-50, .cls-51, .cls-52, .cls-53, .cls-54, .cls-55, .cls-56, .cls-57, .cls-58, .cls-59, .cls-60, .cls-61, .cls-62, .cls-63, .cls-64, .cls-65, .cls-66, .cls-67, .cls-68, .cls-69, .cls-70, .cls-71, .cls-72, .cls-73, .cls-74, .cls-75, .cls-76, .cls-77, .cls-78, .cls-79, .cls-80, .cls-81, .cls-82, .cls-83, .cls-84, .cls-85, .cls-86, .cls-87, .cls-88, .cls-89, .cls-90, .cls-91, .cls-92, .cls-93, .cls-94, .cls-95, .cls-96, .cls-97, .cls-98, .cls-99, .cls-100, .cls-101, .cls-102, .cls-103, .cls-104, .cls-105, .cls-106, .cls-107, .cls-108, .cls-109, .cls-110, .cls-111, .cls-112, .cls-113, .cls-114, .cls-115, .cls-116, .cls-117, .cls-118, .cls-119, .cls-120, .cls-121, .cls-122, .cls-123, .cls-124, .cls-125, .cls-126, .cls-127, .cls-128, .cls-129, .cls-130, .cls-131, .cls-132, .cls-133, .cls-134, .cls-135, .cls-136, .cls-137, .cls-138, .cls-139, .cls-140, .cls-141, .cls-142, .cls-143, .cls-144, .cls-145, .cls-146, .cls-147, .cls-148, .cls-149, .cls-150, .cls-151, .cls-152, .cls-153, .cls-154, .cls-155, .cls-156, .cls-157, .cls-158, .cls-159, .cls-160, .cls-161, .cls-162, .cls-163, .cls-164, .cls-165, .cls-166, .cls-167, .cls-168, .cls-169, .cls-170, .cls-171, .cls-172, .cls-173, .cls-174, .cls-175, .cls-176, .cls-177, .cls-178, .cls-179, .cls-180, .cls-181, .cls-182, .cls-183, .cls-184, .cls-185, .cls-186, .cls-187, .cls-188, .cls-189, .cls-190, .cls-191, .cls-192, .cls-193, .cls-194, .cls-195, .cls-196, .cls-197, .cls-198, .cls-199, .cls-200, .cls-201, .cls-202, .cls-203, .cls-204, .cls-205, .cls-206, .cls-207, .cls-208, .cls-209 {
        fill-rule: evenodd;
        stroke-width: 0px;
      }

      .cls-2 {
        fill: #5b5656;
      }

      .cls-3 {
        fill: #b3b6b6;
      }

      .cls-4 {
        fill: #0b0b0b;
      }

      .cls-5 {
        fill: #c1f0f0;
      }

      .cls-6 {
        fill: #c2c6c6;
      }

      .cls-7 {
        fill: #868181;
      }

      .cls-8 {
        fill: #5f6666;
      }

      .cls-9 {
        fill: #494545;
      }

      .cls-10 {
        fill: #d1dfdf;
      }

      .cls-11 {
        fill: #c5c4c4;
      }

      .cls-12 {
        fill: #c0e8e8;
      }

      .cls-13 {
        fill: #c4d8d8;
      }

      .cls-14 {
        fill: #9b9c9c;
      }

      .cls-15 {
        fill: #7b9f9f;
      }

      .cls-16 {
        fill: #daecec;
      }

      .cls-17 {
        fill: #b1bbbb;
      }

      .cls-18 {
        fill: #f1e3e3;
      }

      .cls-19 {
        fill: #715a5a;
      }

      .cls-20 {
        fill: #cc9b9b;
      }

      .cls-21 {
        fill: #151616;
      }

      .cls-22 {
        fill: #192121;
      }

      .cls-23 {
        fill: #dfdede;
      }

      .cls-24 {
        fill: #d8d4d4;
      }

      .cls-25 {
        fill: #a5a5a5;
      }

      .cls-26 {
        fill: #6f5d5d;
      }

      .cls-27 {
        fill: #d9e0e0;
      }

      .cls-28 {
        fill: #555757;
      }

      .cls-29 {
        fill: #f0fdfd;
      }

      .cls-30 {
        fill: #bbbaba;
      }

      .cls-31 {
        fill: #393232;
      }

      .cls-32 {
        fill: #6d2f2f;
      }

      .cls-33 {
        fill: #302e2e;
      }

      .cls-34 {
        fill: #abadad;
      }

      .cls-35 {
        fill: #393a3a;
      }

      .cls-36 {
        fill: #dcf8f8;
      }

      .cls-37 {
        fill: #dcf4f4;
      }

      .cls-38 {
        fill: #3d4343;
      }

      .cls-39 {
        fill: #d8e0e0;
      }

      .cls-40 {
        fill: #5f5d5d;
      }

      .cls-41 {
        fill: #c6d0d0;
      }

      .cls-42 {
        fill: #887575;
      }

      .cls-43 {
        fill: #8e8d8d;
      }

      .cls-44 {
        fill: #798888;
      }

      .cls-45 {
        fill: #4b4d4d;
      }

      .cls-46 {
        fill: #f0ecec;
      }

      .cls-47 {
        fill: #acbebe;
      }

      .cls-48 {
        fill: #dbe5e5;
      }

      .cls-49 {
        fill: #a48787;
      }

      .cls-50 {
        fill: #9dabab;
      }

      .cls-51 {
        fill: #a58282;
      }

      .cls-52 {
        fill: #d9d8d8;
      }

      .cls-53 {
        fill: #383a3a;
      }

      .cls-54 {
        fill: #d4dcdc;
      }

      .cls-55 {
        fill: #cce7e7;
      }

      .cls-56 {
        fill: #d1d3d3;
      }

      .cls-57 {
        fill: #242323;
      }

      .cls-58 {
        fill: #464949;
      }

      .cls-59 {
        fill: #4a4c4c;
      }

      .cls-60 {
        fill: #5e5b5b;
      }

      .cls-61 {
        fill: #e0d7d7;
      }

      .cls-62 {
        fill: #7c7e7e;
      }

      .cls-63 {
        fill: #4b5b5b;
      }

      .cls-64 {
        fill: #494646;
      }

      .cls-65 {
        fill: #e2e1e1;
      }

      .cls-66 {
        fill: #b6a7a7;
      }

      .cls-67 {
        fill: #ddd6d6;
      }

      .cls-68 {
        fill: #767d7d;
      }

      .cls-69 {
        fill: #cfd2d2;
      }

      .cls-70 {
        fill: #d2e6e6;
      }

      .cls-71 {
        fill: #7c8181;
      }

      .cls-72 {
        fill: #444;
      }

      .cls-73 {
        fill: #3f3c3c;
      }

      .cls-74 {
        fill: #c8c4c4;
      }

      .cls-75 {
        fill: #464545;
      }

      .cls-76 {
        fill: #e4e1e1;
      }

      .cls-77 {
        fill: #595454;
      }

      .cls-78 {
        fill: #8b8989;
      }

      .cls-79 {
        fill: #94a3a3;
      }

      .cls-80 {
        fill: #a8a7a7;
      }

      .cls-81 {
        fill: #cbb8b8;
      }

      .cls-82 {
        fill: #d3d2d2;
      }

      .cls-83 {
        fill: #434a4a;
      }

      .cls-84 {
        fill: #ebeeee;
      }

      .cls-85 {
        fill: #332b2b;
      }

      .cls-86 {
        fill: #e2d1d1;
      }

      .cls-87 {
        fill: #899797;
      }

      .cls-88 {
        fill: #b7bfbf;
      }

      .cls-89 {
        fill: #979797;
      }

      .cls-90 {
        fill: #252c2c;
      }

      .cls-91 {
        fill: #a6a7a7;
      }

      .cls-92 {
        fill: #161414;
      }

      .cls-93 {
        fill: #2a2424;
      }

      .cls-94 {
        fill: #737070;
      }

      .cls-95 {
        fill: #8c9393;
      }

      .cls-96 {
        fill: #c8c3c3;
      }

      .cls-97 {
        fill: #3d4040;
      }

      .cls-98 {
        fill: #736e6e;
      }

      .cls-99 {
        fill: #060505;
      }

      .cls-100 {
        fill: #927f7f;
      }

      .cls-101 {
        fill: #797a7a;
      }

      .cls-102 {
        fill: #afb4b4;
      }

      .cls-103 {
        fill: #5e6262;
      }

      .cls-104 {
        fill: #ced0d0;
      }

      .cls-105 {
        fill: #abbaba;
      }

      .cls-106 {
        fill: #7f7979;
      }

      .cls-107 {
        fill: #a9abab;
      }

      .cls-108 {
        fill: #1c1d1d;
      }

      .cls-109 {
        fill: #cddbdb;
      }

      .cls-110 {
        fill: #171717;
      }

      .cls-111 {
        fill: #625e5e;
      }

      .cls-112 {
        fill: #d3dede;
      }

      .cls-113 {
        fill: #d8d5d5;
      }

      .cls-114 {
        fill: #e6e4e4;
      }

      .cls-115 {
        fill: #676565;
      }

      .cls-116 {
        fill: #7f7e7e;
      }

      .cls-117 {
        fill: #f1f3f3;
      }

      .cls-118 {
        fill: #f1f6f6;
      }

      .cls-119 {
        fill: #6c6666;
      }

      .cls-120 {
        fill: #aacbcb;
      }

      .cls-121 {
        fill: #9c9b9b;
      }

      .cls-122 {
        fill: #848585;
      }

      .cls-123 {
        fill: #968c8c;
      }

      .cls-124 {
        fill: #7b8e8e;
      }

      .cls-125 {
        fill: #6e8181;
      }

      .cls-126 {
        fill: #c8dada;
      }

      .cls-127 {
        fill: #222;
      }

      .cls-128 {
        fill: #d6dfdf;
      }

      .cls-129 {
        fill: #fafefe;
      }

      .cls-130 {
        fill: #b5b3b3;
      }

      .cls-131 {
        fill: #b4e5e5;
      }

      .cls-132 {
        fill: #b1cccc;
      }

      .cls-133 {
        fill: #929191;
      }

      .cls-134 {
        fill: #c3e4e4;
      }

      .cls-135 {
        fill: #a1b5b5;
      }

      .cls-136 {
        fill: #a1a2a2;
      }

      .cls-137 {
        fill: #848888;
      }

      .cls-138 {
        fill: #282323;
      }

      .cls-139 {
        fill: #bfe0e0;
      }

      .cls-140 {
        fill: #1a1a1a;
      }

      .cls-141 {
        fill: #b9c9c9;
      }

      .cls-142 {
        fill: #b0b0b0;
      }

      .cls-143 {
        fill: #c7c7c7;
      }

      .cls-144 {
        fill: #b6b1b1;
      }

      .cls-145 {
        fill: #111;
      }

      .cls-146 {
        fill: #282626;
      }

      .cls-147 {
        fill: #4e4747;
      }

      .cls-148 {
        fill: #3e3d3d;
      }

      .cls-149 {
        fill: #2c2929;
      }

      .cls-150 {
        fill: #abb2b2;
      }

      .cls-151 {
        fill: #d3cfcf;
      }

      .cls-152 {
        fill: #837676;
      }

      .cls-153 {
        fill: #504a4a;
      }

      .cls-154 {
        fill: #2a2a2a;
      }

      .cls-155 {
        fill: #5e3737;
      }

      .cls-156 {
        fill: #968d8d;
      }

      .cls-157 {
        fill: #a7cbcb;
      }

      .cls-158 {
        fill: #e1dfdf;
      }

      .cls-159 {
        fill: #111212;
      }

      .cls-160 {
        fill: #432d2d;
      }

      .cls-161 {
        fill: #9fa3a3;
      }

      .cls-162 {
        fill: #636767;
      }

      .cls-163 {
        fill: #474141;
      }

      .cls-164 {
        fill: #96b4b4;
      }

      .cls-165 {
        fill: #1b1b1b;
      }

      .cls-166 {
        fill: #5b5b5b;
      }

      .cls-167 {
        fill: #636d6d;
      }

      .cls-168 {
        fill: #7f6565;
      }

      .cls-169 {
        fill: gray;
      }

      .cls-170 {
        fill: #1c1b1b;
      }

      .cls-171 {
        fill: #c4e6e6;
      }

      .cls-172 {
        fill: #f4fafa;
      }

      .cls-173 {
        fill: #a5c5c5;
      }

      .cls-174 {
        fill: #b7eded;
      }

      .cls-175 {
        fill: #7f7c7c;
      }

      .cls-176 {
        fill: #4c4c4c;
      }

      .cls-177 {
        fill: #d6dede;
      }

      .cls-178 {
        fill: #9fb1b1;
      }

      .cls-179 {
        fill: #a09797;
      }

      .cls-180 {
        fill: #e7d8d8;
      }

      .cls-181 {
        fill: #545555;
      }

      .cls-182 {
        fill: #eaf5f5;
      }

      .cls-183 {
        fill: #aab0b0;
      }

      .cls-184 {
        fill: #c4dada;
      }

      .cls-185 {
        fill: #bae2e2;
      }

      .cls-186 {
        fill: #6e7171;
      }

      .cls-187 {
        fill: #7a4545;
      }

      .cls-188 {
        fill: #111010;
      }

      .cls-189 {
        fill: #878585;
      }

      .cls-190 {
        fill: #dffafa;
      }

      .cls-191 {
        fill: #080808;
      }

      .cls-192 {
        fill: #354141;
      }

      .cls-193 {
        fill: #d9f7f7;
      }

      .cls-194 {
        fill: #c2cece;
      }

      .cls-195 {
        fill: #76b2b2;
      }

      .cls-196 {
        fill: #bfc4c4;
      }

      .cls-197 {
        fill: #e9ecec;
      }

      .cls-198 {
        fill: #3d3e3e;
      }

      .cls-199 {
        fill: #040303;
      }

      .cls-200 {
        fill: #743b3b;
      }

      .cls-201 {
        fill: #635555;
      }

      .cls-202 {
        fill: #505656;
      }

      .cls-203 {
        fill: #121212;
      }

      .cls-204 {
        fill: #847777;
      }

      .cls-205 {
        fill: #a39f9f;
      }

      .cls-206 {
        fill: #7c8b8b;
      }

      .cls-207 {
        fill: #686969;
      }

      .cls-208 {
        fill: #494343;
      }

      .cls-209 {
        fill: #738484;
      }
    </style>
  </defs>
  <g id="Objects">
    <g>
      <path class="cls-145" d="M74.11,30.8c-.17.14-.2.3-.09.49-.08.17-.03.3.14.38-.04.17.03.28.2.32.31.34-.05.5-.18.73-.14.14-.3.26-.47.37-.5.32-1.01.64-1.58.83-.1.03-.19.05-.29.08-.19.04-.39.06-.59.07-.4.03-.79.08-1.17.21-1.34.69-2.66.25-4-.02-1.67-.34-3.28-.35-4.72.85-1.46,1.22-3.04.32-4.57.08-.38-.03-.86.18-1.12,0-4.19-3-9.41-1.66-13.87-3.32-1.54-.57-3.06-1.19-4.64-1.64-.2-.11-.38-.24-.54-.39-.06-.09-.12-.18-.18-.27-.07-.21-.05-.41.06-.6.33-.27.73-.29,1.13-.31.28,0,.55.04.82.09.27.02.53.01.8-.03.28-.06.56-.09.85-.08.2.02.4.05.59.1.63.09,1.32.69,1.84-.17.16-.27.13-.61-.07-.86-.47-.59-1.1-.38-1.7-.29-.45.07-.9.18-1.25.51-.16.12-.34.2-.54.24-.5,0-.89-.35-1.36-.44-.78-.05-1.62.09-2.2-.64-.29-.49-.33-.99-.03-1.5.2-.26.47-.41.78-.5.19-.04.39-.05.59-.04.36.03.72.09,1.08.07.71-.77-.52-.42-.47-.81-.26-.88.3-1.14.98-1.34.46-.05.87.08,1.27.29,1.62,1,3.42,1.22,5.27,1.22.39-.12.78-.2,1.18-.2.36-.02.73,0,1.04-.21.23-.26.36-.6.67-.78.43-.11.87-.01,1.31-.01.18,0,.36,0,.53.01.27,0,.54.03.81.12.16.1.28.23.33.42.01.29-.09.53-.29.73-.14.11-.26.11-.38,0,.11.25.39.17.57.31.3.19.57.43.9.57.49.16,1-.03,1.49.08.28.1.51.26.62.54,2.19.78,3.95,2.43,6.11,3.24,2.16.81,4.54.64,6.71.38.98-.12,2.08-1.51,3.47-1.7.37-.07.77-.14,1.09.04,1.52.85,2.51.23,3.29-1.1.23-.39.62-.64.97-.88-.02,0,.13-.15.13-.15,0,0-.09-.19-.1-.19-.19-.16-.33-.35-.34-.61.16-.41.51-.45.88-.47h.02c.91.11,1.88.12,2.11,1.31-.65.73-1.05,1.69-2.01,2.12-.35.11-.8.09-.76.65,0-.01.02.11.02.11,0,0,.01-.13.02-.15.12-.2.2-.42.41-.54.2-.07.35-.01.46.15-.03.15-.05.29-.08.44,0,.51-.04,1-.66,1.15l.03-.02c-.28.21-.39.64-.82.67l.04-.02c-.14.18-.37.23-.55.33Z"/>
      <path class="cls-199" d="M9.67,4.04c0,.15.07.23.22.24.22.13.31.36.4.58l.05.05c.06.36.49.42.61.74,0,.15.06.22.21.21.24.15.35.38.36.66v-.02c.11.17.22.35.31.54.03.17.14.25.31.24.2.3.58.42.75.75.03.15.12.22.27.23.19.15.28.36.36.58l.05.05c.14.54.86.44,1.03.94l.03.15h.15c.8.66,1.55,1.38,2.33,2.05h0c.14.33.54.43.66.77l.03.03c.96,1.12,2.34,1.56,3.6,2.21.38.31.38,1.07,1.12.98.25.08.51.16.76.24.94-.35,1.44.8,2.31.69h-.04c.64.04,1.28.08,1.92-.03.3.04.56.15.81.32.24.18.47.36.71.54.27.17.5.36.72.59.33.3.77.41,1.13.67.45.6.2,1.08-.25,1.52-.32.17-.65.17-.99.11-1.47-.21-2.93-1.21-4.43.02-.31.26-.77-.06-.97-.37-.95-1.5-2.72-1.88-4-2.91-2.44-1.54-5.06-2.77-7.73-3.79-1.18-.45-2.15-.74-2.76-1.97-.39-.78-1.4-1.1-2.22-1.61.58,1.44,1.25,2.82,1.33,4.37.03.55,1.3,1.1.14,1.62-.79.35-1.67.1-2.18-.75-.38-.63-.42-1.51-1.35-1.7-.41-.11-.81-.25-1.1-.59-.13-.18-.16-.37-.09-.58,1.36-1.27.19-2.6.11-3.91-.37-.66.23-1.2.22-1.81v.03c-.41-.52.25-.97.11-1.47v.04c-.11-.14-.14-.3-.1-.48.12-.31.29-.62.2-.97h0c-.24-.52.31-.95.2-1.47v.04c-.22-.34-.05-.59.17-.84.39-.4.84-.66,1.43-.6.31.08.61.18.75.52.26.13.52.26.78.4.1.17.2.34.32.5,0,.17.1.27.27.29.13.16.26.33.37.51.03.16.13.26.29.29.13.17.24.35.34.54Z"/>
      <path class="cls-1" d="M20.4,17.02c1.5,1.06,3.62,1.29,4.28,3.32.86,0,.43-.73.73-1.01.21-.2.53-.65.65-.43.8,1.57,2.64.21,3.55,1.34.18.42.33.95.81.22.21-.46.45-.93.08-1.43-.06-.21.03-.31.25-.31.29.09.57.17.86.26.21,0,.42.04.61.13.63.49,1.48,0,2.12.44.28.14.56.27.85.4.78.27,1.59.45,1.33,1.64-.15.67.48,0,.66.25.21.03.41.1.59.19.28.18.48.42.58.74,0,.11.01.21.02.32-.3.37-1.22.5-.48,1.26.33,0,.62.09.62.48,0,.24-.21.36-.46.39-.4-.06-.8-.03-1.2-.06-.52-.13-1.05-.2-1.59-.17-.14.08-.29.16-.41.27-.11.13-.23.25-.35.37-.12.13-.26.24-.41.34-.4.22-.83.39-1.27.52-.28.07-.57.09-.86.03-.19-.05-.37-.13-.54-.22-1.02-.64-2.13.32-3.16-.19-.29-.12-.55-.3-.79-.51-.86-.76-1.62-2.05-2.89-.51,0,0-.09.02-.23.02-.39.01-.83-.06-1.05-.35-1.49-1.93-5.29-.49-5.7-3.83-.17-1.39-2.38-1.72-1.61-3.46,1.12-.87,2.38-1.24,3.4-.08.97,1.09.43-.93.98-.37Z"/>
      <path class="cls-99" d="M75.09,25.2c.28.13.56.26.84.39h0c-.06.35.15.98-.21.99-.65.02-.85.33-1.14.82-1.12,1.88-1.49,1.96-3.63,1-.3-.13-.59-.07-.86.08-1.11-.23-2.18-.27-3.29.14-3.02,1.13-5.73.73-7.89-1.88-.05-.18-.06-.36-.03-.55.16-.31.52-.38.75-.62.07-.13.13-.27.14-.42,0-.32-.05-.64.01-.96.06-.17.17-.29.33-.37.34.05.67.07,1-.05.33,0,.64.25.98.1.16.03.31.06.47.09.52-.23,1.03-.49,1.59-.11.24.23.52.33.86.28.5-.17.9.41,1.4.18.17.02.35.04.52.06.17.02.34-.02.48-.11h.06c.2-.08.41-.12.62-.13h-.03c.73-.35,1.24.49,1.94.35.27.06.54.13.81.19.32-.02.63.2.96.07.16.02.33.04.5.06.19,0,.37-.03.55-.07h0c.78.02,1.54.15,2.26.47Z"/>
      <path class="cls-140" d="M22.12,97.5l-.08.16c-.82.68-.71,1.78-1.2,2.62l.03-.03c-1.27.32-.5,1.94-1.54,2.4l-.05-.08c-.9.36-1.08,1.16-1.19,1.99-.14.51-.52.59-.97.53h.01c-.2.13-.41.2-.65.2-.72-.07-1.31-.41-1.87-.83-.42-.36-.83-.72-1.09-1.22-.27-1.1,1.07-1.05,1.28-1.81.16-.38.31-.75.51-1.1.15-.26.34-.48.58-.66.22-.12.47-.16.71-.14-.01,0,.17-.07.17-.07,0,0-.07-.17-.09-.18-.16-.21-.25-.43-.27-.68,0-.15.05-.3.1-.44.05-.11.1-.22.12-.33-.01.02-.15-.05-.15-.04-.1.08-.19.15-.28.24-.11.1-.22.16-.36.2-.15.03-.3.03-.45,0-.16-.02-.31-.04-.47-.07-.17,0-.33-.02-.5-.03-.18-.01-.35-.06-.52-.13-.26-.15-.43-.36-.45-.66.03-.19.09-.37.2-.54.13-.14.29-.24.46-.3.44-.64-.39-2.29,1.44-1.84.4,0,.79-.08,1.18-.19.21-.04.4,0,.59.11,1.36,1.8,1.76,1.85,3.28.27.63-.65,1.41-1.17,1.81-2.03.04-.2.08-.4.11-.59-.1-3.07.25-3.61,2.48-3.78.5-.04.88.17,1.12.63,0,.24-.07.46-.18.67-.76,1.25-.87,2.85-2.08,3.85l.04-.03c-.84,1.2-1.56,2.47-1.78,3.95Z"/>
      <path class="cls-170" d="M7.51,119.82c.06.15.17.25.33.29.39.41.43.88.21,1.39,0,.2.02.4.08.6.01.21-.03.41-.11.6-1.83,1.31-.44,2.73-.14,4.1.03.3.01.61.05.91v-.02c.19.34-.05.7.04,1.05v-.03c.12.55.04,1.01-.61,1.16l.05-.03c-.2.22-.36.47-.53.71-.27.17-.54.2-.82.02-.36-.76-1.29-.66-1.8-1.18l.03.08c-.27-.33-.13-.61.11-.87.46-.2.88-.1,1.24.14-2.62-4.07-2.26-6.58,1.31-9.06.22-.08.41-.03.57.15Z"/>
      <path class="cls-140" d="M29.35,84.01c-.14.24-.27.48-.41.72-.35.3-.7.55-1.16.19-.29-.39-.47-.93-.25-1.29,1.1-1.81,1.2-4.15,2.92-5.63.59-.51.94-1.12,1.24-1.86.54-1.33,1.25-2.64,3.07-2.46.2.09.34.25.43.45-.09.21-.17.42-.26.63-.3.63-1.11.9-1.2,1.68v.02c.07.21.18.41.17.64v-.04c.19.4.07.66-.36.78l.03-.02c-.96.48-.54,1.91-1.59,2.34l.03-.03c-.48.22-.38,1.01-1.04,1.06l.04-.02c-.82.8-.81,2.08-1.67,2.86Z"/>
      <path class="cls-138" d="M37.2,22.21c-.74.24-1.29-.14-1.85-.54q1.1-.56-.35-1.66c0-.18.08-.27.26-.27.15.04.3.09.45.13,1.8-.08,3.57.24,5.34.49h0c1.19-.08,1.58,1.65,2.89,1.3h.04c.21-.05.41-.04.61.05.29.12.58.27.89.33.85.31,1.5.81,1.7,1.75-.11.48-.52.65-.89.85-.38.03-.77.06-1.15.08-1.36-.68-2.9-.59-4.31-1.07-.49-.27-.57-.73-.57-1.23-.21-.4-.61-.42-.98-.51-.42,0-.78-.45-1.23-.13-.1.13-.23.2-.38.23-.18.01-.46-.22-.48.18Z"/>
      <path class="cls-146" d="M30.34,43.61l-.16-.09-.18.06c-1.69-.21-3.49.31-5.04-.78-.66-.15-1.3-.35-1.95-.55-1.04-.32-1.49-.97-.95-2.04.49-.92,1.44-.02,2.04-.52.33-.15.67-.21,1.01-.04.12.27.26.5.59.22.37-.04.69.08,1,.27.15.1.29.22.42.34.28.24.58.43.92.59.7.33,1.4.61,2.17.72.3.06.58.16.84.32.25.19.41.44.43.76-.08.31-.29.51-.56.66-.18.08-.37.11-.57.09Z"/>
      <path class="cls-30" d="M8.06,103.06c.09-.09.16-.19.2-.32.38-.36,1.05-.54.8-1.29-.08-.39,0-.76.09-1.13.5-.53,1.08-.51,1.69-.23.5.44.63,1.02.6,1.66-.07.58.05,1.05.69,1.25.28.08.54.17.8.28.18.08.35.18.51.31.15.14.26.3.33.49-.01.1-.03.2-.04.3-.05.08-.11.17-.17.25-.16.13-.34.22-.53.29-.2.05-.39.08-.6.1-.2.02-.4.02-.6.02-.2,0-.41-.03-.61-.07-.95-.3-1.78-.06-2.52.55-.51.48-1.1.76-1.83.67-.07-.06-.14-.13-.21-.19.28-.45.65-.88.27-1.45-.07-.13-.08-.24-.03-.34.05-.11.09-.16.12-.15,0-.4.88.55.54-.36.1-.26.21-.52.5-.64Z"/>
      <path class="cls-148" d="M12.38,104.69c.16.01.32.02.48.04.2-.07.4-.14.6-.21h0c.38-.19.72-.11,1.05.12.13.12.23.27.3.43,0,.09-.02.17-.03.25-.05.06-.1.13-.14.2-.3-.03-.05-.33-.16-.05-.07.18.14.21.29.22.26.05.51.14.76.25.26.12.5.28.69.49.11.17.13.35.06.54l-.03.09c-.18.22-.39.39-.7.29v-.02c-.28.14-.27.35-.12.58l.04.13h.14c.49.62.15.96-.4,1.24l.04-.03c-.25.22-.48.46-.78.61-.56.15-1.39,0-1.23-.51.34-1.07-.66-.76-.91-1.16-.17-.29-.18-.59-.12-.91.03-.19.08-.37.14-.55.17-.46.06-.83-.4-1.06-.15-.11-.27-.25-.37-.41-.04-.21.04-.35.24-.42l.07-.02c.13-.14.29-.19.47-.15Z"/>
      <path class="cls-146" d="M7.77,127.09c-.73-.38-.63-1.29-1.26-1.85-.71-.63.07-2.02,1.52-3.11.34-.15.67.14,1.01.02.08.08.18.13.29.15.37.71-.52,1.22-.3,1.91-.1.26-.2.53-.31.79.05.14.04.24-.04.32-.08.08-.13.1-.16.09-.04.15-.09.31-.13.46-.03.49-.16.93-.62,1.21Z"/>
      <path class="cls-175" d="M5.34,109.22c.15-.32.3-.65.45-.97.07-.2.2-.26.39-.17.19.19.27.44.33.69.07.15.14.3.24.43.15.07.29.09.44.02.13-.12.26-.22.39-.34.15-.12.31-.21.49-.27.37,0,.54.19.59.53-.03.88-.41,1.66-.76,2.44-1.09.75-2.45,1.11-3.17,2.39-.14.25-.55.11-.69-.24.17-1.57.02-3.36,2.36-3.33-.82.05-1.16-.35-1.07-1.17Z"/>
      <path class="cls-80" d="M51.29,53.19c-.11.28-.22.55-.33.83-.54.16-.45.93-1.02,1.05h.02c-.33.14-.44.54-.78.67h0c-.62.29-.58,1.02-.97,1.46-.73.16-1.32-.21-1.93-.52-.32-.29-.55-.63-.61-1.07.32-.81,1.06-.93,1.78-1.08.76-.01,1.32-.45,1.86-.9.61-.35,1.16-1.02,1.98-.45Z"/>
      <path class="cls-140" d="M36.51,69.15c.15.16.28.36.46.48q1.21.84.29,1.91c-.2.23-.38.46-.58.69-.16.01-.23.09-.2.25-.56.31-.46,1.33-1.37,1.26-.67-.29-1.05-.92-.52-1.4,1.09-.98.56-2.25.85-3.35.42-.36.78-.38,1.06.16Z"/>
      <path class="cls-162" d="M59.41,41.8c-.1.06-.12.13-.05.23-.14.15-.31.23-.52.24-.39.04-.78.13-1.18.07-.77-.4-1.33.75-2.12.29-.76-2.45-.32-3.02,2.1-2.68.44.06.88.11,1.31.25.21.09.38.21.54.37.27.43.16.84-.08,1.23Z"/>
      <path class="cls-82" d="M49.55,50.39c.09-.12.16-.25.21-.39.2-.09.4-.17.59-.27h.02c.66,0,.6-2.07,1.77-.63-.09.27-.18.54-.28.81.05.2.17.25.35.15h.02c.72-.42,1.35-.34,1.87.34v.02c.03.16,0,.31-.08.45l-.15-.04c-.44.13-.61.45-.64.87-.1.28-.22.56-.49.73-.21,0-.4-.07-.57-.18-.47-.55-.97-1.03-1.77-.59-.21.06-.41.05-.62,0-.29-.18-.45-.44-.51-.77-.02-.23.07-.4.28-.5Z"/>
      <path class="cls-65" d="M47.51,55.02c-.52-.85-.41-1.69.08-2.51.08-.12.15-.25.2-.38.26-.11.53-.08.8-.1.19-.02.37,0,.55.02.19.05.35.14.49.27.25.54.42,1.07-.14,1.53-.49.68-.92,1.47-1.99,1.16Z"/>
      <path class="cls-140" d="M27.5,86.79c-.14.09-.18.21-.11.37.09.38-.03.67-.41.82-.38.26-.49.65-.54,1.07-.14.24-.29.25-.43,0l-.06-.15c-.49-.78-2.15-1.18-.95-2.53.67-.76,1.23-2.1,2.66-1.05.12.18.2.38.25.59h0c.06.12.05.22-.02.3-.07.08-.12.11-.15.09h0c-.17.01-.26.11-.27.28-.01.13,0,.2.02.21Z"/>
      <path class="cls-75" d="M39.94,61.64c-.21-.44.18-.59.39-.82.57-.28,1.16,0,1.73-.07.81-.04,1.35.25,1.43,1.13.06.3.03.59-.13.86-.1.05-.12.13-.06.23-.25.36-.7.04-.99.28l-.1-.09c-.3.16-.61.17-.93.08-.21-.06-.4-.15-.59-.26-.49-.31-.78-.73-.76-1.33Z"/>
      <path class="cls-34" d="M4.21,113.88c.14-.04.38-.06.4-.13.41-1.64,1.64-2.18,3.14-2.36.31-.74.11-1.83,1.34-1.92.39.65.13,1.22-.24,1.78-.18.18-.38.34-.61.46-.08.13-.16.26-.24.39.06.14.07.26,0,.37-.06.11-.1.17-.13.15-.44.24-.94.29-1.43.35-.17.02-.39-.12-.51-.03-.23.19-.05-.1.13.15.03.2,0,.39-.08.57-.33.52-.68,1.01-1.32,1.17-.34-.03-.6-.19-.77-.48-.02-.24.08-.39.3-.47Z"/>
      <path class="cls-136" d="M52.94,42.84c.4.17.73.4.78.88,0,.18.06.32.2.43l-.07.17c.05.22-.03.39-.22.51-.52.17-1.02.11-1.5-.14-.53-.33-1.09-.62-1.58-1.02-.15-.16-.26-.34-.32-.56.04-.22.14-.41.3-.57,1.06-.37,2-1.73,3.28-.45.07.26-.04.4-.29.46-.31-.1-.65-.34-.84.17.02.12,0,.23-.05.34,0,0,0,.16,0,.16,0,0,.07-.15.07-.15.04-.12.12-.2.24-.24Z"/>
      <path class="cls-191" d="M4.64,8.38c.81.93.16,2.39,1.22,3.26.24.19-.03.57-.34.69-.42.15-.86.25-1.29.38-.24.05-.35-.04-.31-.29.13-.07.16-.18.08-.31-.18-.55.31-.97.27-1.49v.04c-.43-.48.32-.94.02-1.42v-.02c-.09-.36,0-.65.34-.83Z"/>
      <path class="cls-151" d="M37.91,61.74c.15.07.29.14.44.21.07.18.11.37.11.57-.12.65-.24,1.29.57,1.61.46.25.92.48,1.26.88.2.28.14.62.22.93-.12.28-.24.57-.36.85-.16-.1-.32-.2-.48-.3-.28-.29-.71-.36-1-.64-.71-.61-1.71-.8-2.31-1.57-.09-.2-.11-.41-.06-.62.22-.63.69-1.07,1.13-1.54.13-.17.3-.3.5-.39h0Z"/>
      <path class="cls-116" d="M38.27,62.26c.04-.1.07-.2.08-.31.53-.11,1.06-.21,1.59-.32.36.34.72.69,1.09,1.03.07.19.2.24.38.15.27.11.54.22.82.33-.05.16-.09.31-.14.47-.07.08-.14.17-.2.25-1.18.83-2.02,0-2.91-.58-.36-.26-.7-.52-.7-1.02Z"/>
      <path class="cls-201" d="M46.96,23.97c-.4-.8-1.16-1.26-1.78-1.83,0-.2.08-.28.28-.23h-.04c.22-.17.46-.26.74-.18.09.1.19.11.3.04.36-.1.69.1,1.04.07l.02.02c.56-.45.91.11,1.35.28.18.1.31.24.38.44-.04.2-.14.36-.31.48-.19.07-.39.09-.58.07-.2.08-.68-.39-.58.29-.02.33-.04.66-.06.99-.37.06-.66-.03-.75-.44Z"/>
      <path class="cls-28" d="M62.93,38.82c-.15.06-.22.17-.22.33l-.16.15s-.21-.05-.21-.05c-.16-.13-.31-.3-.56-.21-.16.02-.31.04-.47.04-.17.02-.34.01-.52,0-.19-.02-.36-.08-.53-.16-.26-.19-.4-.44-.36-.77.09-.33.29-.58.57-.78,1.17-.61,2.23-.54,3.12.53.11.24.07.45-.11.63h.02c-.19.09-.37.19-.56.28Z"/>
      <path class="cls-82" d="M49.5,53.86c-.04-.54.07-1.11-.26-1.61,0-.53.36-.62.77-.64l.08-.02c.6-.18,1.11,0,1.57.39.25.25.4.55.44.91-.02.25-.14.41-.39.47-.14-.06-.28-.11-.42-.16-.72-.12-1.14.58-1.79.67Z"/>
      <path class="cls-90" d="M12.64,34.17l-.06-.16-.17-.04c-.28-.23-.56-.47-.9-.61-.17-.1-.25-.25-.24-.45h0c.01-.23.1-.42.29-.57.2-.12.41-.22.64-.23.84-.02,1.87-.15,2.23.72.28.67-.49,1.25-.96,1.79-.36,0-.66-.13-.84-.47Z"/>
      <path class="cls-91" d="M4.27,115.04c-.02.42.12.78.36,1.12-.07.12-.11.26-.1.4-.04.06-.06.14-.11.19-.34.42-.29,1.38-1.07,1.16-.82-.23.16-1.06-.26-1.54,0,0,0,.02,0,.02.21-.63,0-1.45.83-1.79.22.05.34.2.35.43Z"/>
      <path class="cls-114" d="M50.49,23.72l-.18-.07-.17-.09c-.12-.15-.21-.32-.27-.5-.1-.27-.15-.56-.13-.85,1.05-.27,1.81.47,2.7.79.06.4.03.78-.27,1.1-.7.48-1.23.21-1.69-.37Z"/>
      <path class="cls-125" d="M.52,121.81c.13-.04.21-.13.24-.26.14-.21.3-.23.49-.06.25.71.39,1.44.84,2.09.56.81.69,1.7-.29,2.38-.25.02-.37-.1-.39-.35.06-.12.07-.25.03-.38-.17-.68-1.03-.93-1.08-1.69-.06-.15-.13-.3-.2-.45-.39-.57.02-.92.36-1.29Z"/>
      <path class="cls-66" d="M17.89,104.58q0-1.84,1.4-2.02c0,.21.01.42.02.64-.11.27-.22.53-.44.74l-.12.06c-.43-.02-.42.61-.86.58Z"/>
      <path class="cls-19" d="M54.8,24.44c.13.09.26.18.39.27-.07.84-.56,1.14-1.35,1.08.15-1.05-.81-.52-1.18-.84-.28-.21-.43-.47-.38-.82.22-.3.53-.31.86-.27.55.19,1.11.39,1.66.58Z"/>
      <path class="cls-187" d="M34.41,19.75c-.93.28-1.75.02-2.49-.55.06-.19.18-.28.38-.24.23.09.46.18.7.27.35-.12.46-.55.83-.64.25.27.49.55.74.82l.03.21-.18.12Z"/>
      <path class="cls-179" d="M6.47,1.17c-.32.29-.7.43-1.12.49-.07-.08-.14-.15-.2-.23.05-.2.12-.39.21-.58.19-.34.23-.82.77-.84l.18.09c.17.18.29.39.35.63h0c.11.15.12.27.04.35-.09.08-.16.11-.21.09Z"/>
      <path class="cls-96" d="M12.14,112.99c.27.12.54.25.81.38-.1.29-.19.57-.29.86,0,.18-.07.3-.23.39l-.04.02c-.57,0-1-.11-.69-.83.15-.27.29-.53.43-.8Z"/>
      <path class="cls-24" d="M10.64,116.29c.12-.27.24-.54.37-.82.21-.07.42-.13.62-.22.12.06.24.12.37.17.16.36.02.62-.25.85-.09.14-.19.28-.28.42-.39.1-.67-.02-.82-.4Z"/>
      <path class="cls-207" d="M7.58,130.58c-.04.92-.56.78-1.14.52-.22,0-.31-.09-.29-.31,0,0,.02-.03.02-.03.02-.11.04-.21.07-.32.25-.1.5-.2.75-.29.14-.04.25,0,.34.12.03.15.12.26.26.32Z"/>
      <path class="cls-23" d="M52.5,47.18c.35-.22.7-.17,1.05,0-.06.13-.12.27-.17.41-.07.13-.13.26-.19.4-.2.09-.41.13-.6.25h0c-.29-.33-.2-.69-.07-1.05Z"/>
      <path class="cls-43" d="M53.11,51.6c-.5-1,0-1.01.76-.76-.11.25-.23.5-.34.74-.13.18-.27.18-.42.02Z"/>
      <path class="cls-49" d="M49.14,22.5c.03-.15.11-.28.22-.39.13.06.26.1.4.1.27.21.65.34.61.79-.58.23-.98,0-1.27-.5h.03Z"/>
      <path class="cls-93" d="M60.69,23.67c.13.09.26.18.38.27-.34.23-.68.25-1-.03.07-.11.16-.2.26-.28.11.13.23.14.36.04Z"/>
      <path class="cls-8" d="M67.61,35.38c-.08.08-.18.15-.24.23-.03.04-.02.12-.03.18,0,.21-.09.36-.29.43-.21,0-.37-.1-.46-.29.03-.44.15-.78.71-.64l.19-.09.13.17Z"/>
      <path class="cls-77" d="M54.31,44.41c.12.1.24.21.36.32-.45.62-.77.4-1.03-.16.08-.07.15-.15.21-.24.15.03.31.05.46.08Z"/>
      <path class="cls-51" d="M10.4,99.06c-.07.26-.17.59-.51.4-.19-.1-.04-.38.09-.55.14.06.28.11.42.15Z"/>
      <path class="cls-65" d="M48.78,51.03c.11.05.23.09.35.12.14.25.07.42-.21.49-.11-.07-.22-.13-.33-.19.06-.14.13-.28.19-.42Z"/>
      <path class="cls-28" d="M62.32,39.9c-.14-.02-.28-.03-.41-.04-.03-.21.04-.38.2-.51.23.01.34.13.33.36-.1.02-.14.09-.12.19Z"/>
      <path class="cls-159" d="M4.03,13.13c.06-.14.12-.28.2-.41.42.19.84.38,1.26.56.39,1.57,1.69,2.7,2.05,4.31.15.65.81.99,1.45.84.65-.16.43-.88.54-1.36.1-.44.02-.91,0-1.37-.04-1.06,1.2-2.32,1.93-1.77.92.7,2.55.41,2.85,2.02.17.93,1.3.99,1.81,1.65,0,.48.14.89.53,1.2.74.62,1.59.86,1.56,2.36-.03,1.54,2.13,2.18,4.02,1.57.67.77,1.02,1.91,2.25,2.07.16-.38-.94-1.22.42-1.13,1.23.08,2.47.18,2.81,1.73.08.44.31.57.71.36.64.28,1.17-.19,1.76-.25.67-.07,1.42-.25,1.66.72,0,0-.06-.02-.07-.02,0,0,.01.07.01.07,0,0,.05-.05.05-.05.33-.02.66-.04.99-.06.38.62.8.59,1.25.07.19-.05.38-.04.57.03.26.14.43.37.61.6.3.36.69.61,1.01.95.17.22.28.47.28.75-.08.25-.18.5-.08.78.14.06.28.13.42.19-.62,1.08-1.58.53-2.41.46-1.21-.11-2.32-.75-3.56-.7-3.08-.05-3.36-.13-6.12-1.86.24.66,1.05,1.11.62,1.72-.45.63-1.09.08-1.66.02-3.09-.34-5.75-2.12-8.78-2.62-.46-.08-.97-.21-1.21-.58-1.52-2.27-4.12-3.36-5.83-5.38-.85-1-2.34-.82-3-1.96-.1-.04-.19-.1-.27-.18.06-.48-.24-.83-.44-1.22.11-.24.09-.46-.11-.64.12-.35.22-.69-.07-1.01.1-.24.07-.46-.14-.64.19-.59.43-1.18.15-1.81Z"/>
      <path class="cls-21" d="M31.12,28.93c.57-.32,1.07-.18,1.67.04,1.3.48,2.66.87,4.09.56.75.4,1.54.6,2.4.53.77-.06,1.56-.03,1.92.83.24.55.71.32,1.07.47,2.5.97,5.05.94,7.66.81,1.36-.07,2.63.79,3.74,1.51,1.12.73,2.24,1.04,3.51,1.02-.37,1.99-1.79,2.17-3.38,1.88-1.84-.34-3.69-.57-5.56-.59-1.12.06-2.24.1-3.23-.59-.57-.35-1.22-.61-1.54-1.27-.08-.18,0-.56-.25-.52-3.56.56-6.06-2.38-9.32-2.79-.3-.12-.59-.26-.88-.39-.69-.44-1.84-.3-1.92-1.51Z"/>
      <path class="cls-4" d="M53.79,25.67c.47-.32.93-.64,1.4-.96.44.02.88.04,1.32.05.61-.06.87-.78,1.5-.82h.02c1.13.28,1.19,1.13,1.1,2.06.03.45.02.95.67.94.29,0,.62-.15.79.19,1.17,2.47,3.2,1.36,4.98,1.17,1.53-.17,3.06-.94,4.54.17-.67.2-1.33.4-2,.6-.14.04-.39,0-.42.06-.26.66.25,2.35-1.25,1.42-.83-.51-1.43.59-2.15-.25-.34-.4-1.46-.41-2.11-.21-2.28.7-3.67-.82-5.25-1.88-1.27-.85-2.53-1.68-4.34-1.37.33-.31.67-.63,1-.94v-.22s.23-.03.23-.03Z"/>
      <path class="cls-108" d="M48.2,35.66c.19-.11.4-.34.58-.32,1.45.16,2.97.17,4.34.6,1.74.54,3.02.21,4.07-1.23.95-.26,1.64.85,2.73.4.53-.22,1.15.02,1.21-.87.04-.5.53-.33.88-.42,1.84-.48,3.68-.47,5.46.15,1.06.37,1.91.11,2.77-.4.24.6-.05.98-.52,1.3-.42.1-.84.21-1.26.31-.42-.22-.8-.08-1.18.12-.49,0-.49.39-.58.71-.41.22-.8.11-1.2-.04-.19-.07-.38-.15-.57-.21-2.25.08-4.19.92-5.91,2.33-.21.05-.42.07-.64.04-2.18-.32-4.33.25-6.5.3-2.3.05-3.12-.97-3.7-2.76Z"/>
      <path class="cls-21" d="M39.11,28.06c.03-.43-.11-.94.52-1.06.59-.11,1.17-.24,1.76-.28.64-.05,1.37-.27,1.73.59.28.67.33,1.3-.14,1.9-.52.65-1.16.55-1.82.25-.34-.16-.67-.33-1.01-.49-.07-.44.35-.36.55-.5-.21.01-.42-.01-.63.04-.2.05-.39.04-.58,0-.18-.1-.31-.25-.39-.43Z"/>
      <path class="cls-27" d="M40.78,23.33c1.35,0,2.61.67,4.03.35.61-.13.42.62.34,1.04-.14.17-.32.51-.42.49-1.78-.39-3.73-.23-5.24-1.54-.01-.1-.03-.19-.04-.29.12-.16.29-.25.49-.28.29.04.54.23.84.22Z"/>
      <path class="cls-156" d="M52.03,23.9c.15.06.3.12.44.17.08.22.16.44.25.66-.07.32-.31.48-.57.63-.34.2-.66.43-1.04.56-.23-.29-.46-.59-.69-.88-.15-.17-.21-.37-.2-.59.08-.24.17-.48.26-.72.52.03.98.54,1.54.18Z"/>
      <path class="cls-61" d="M39.11,28.06c.12.07.24.14.36.21.1.12.2.24.32.35,0,.08,0,.16,0,.24-.18.24-.44.23-.7.24-.24.04-.48.12-.72.01-.24-.05-.49-.1-.73-.15-.33.03-.64-.17-.97-.07h-.03c-.2.09-.31.02-.36-.18-.06-.23-.13-.46-.19-.7.54-.79,1.25-.18,1.88-.23.37.11.69.39,1.12.28h.02Z"/>
      <path class="cls-105" d="M38.08,28.12c-.68.41-1.3-.43-1.99-.1-.38-.3-.75-.6-1.13-.9.08-.45.31-.51.67-.26.71.72,1.52.01,2.27.17.25.33.2.72.18,1.09Z"/>
      <path class="cls-48" d="M52.1,24.87c.21-.05.42-.1.62-.14.49.16,1.65-.44,1.07.94-.11.05-.19.13-.23.24-.24-.05-.47-.1-.71-.15-.51-.08-1.13-.06-.75-.9Z"/>
      <path class="cls-128" d="M37.84,25c.15-.03.29-.07.44-.1-.13-.18-.25-.36-.38-.54.26-.37.59-.47.95-.18.49.38.19.87.04,1.24-.26.66-.75.13-1.14.1-.1-.19-.07-.37.09-.52Z"/>
      <path class="cls-171" d="M47.77,23.42c-.34-.25-.88-.13-1.11-.66.64-.22,1.25.12,1.86.07.14.3.65.3.61.74-.5.32-.89-.29-1.36-.15Z"/>
      <path class="cls-41" d="M69.73,34.87c.17-.43.35-.86.52-1.3.36.03.71.06,1.07.1.1.16.17.32.22.5-.07.13-.13.27-.2.41-.2.08-.4.16-.6.24-.2.08-.41.15-.61.23l-.22-.04-.18-.14Z"/>
      <path class="cls-63" d="M35.63,26.85c-.26,0-.52-.02-.67.26-.24-.11-.34-.28-.26-.54-.12-.39-.27-.77-.39-1.15.09-.15.18-.29.28-.43.54-.21.89-.01,1.12.49-.23.45-.18.91-.07,1.37Z"/>
      <path class="cls-190" d="M39.92,28.34c.85-.26,1.56-.01,2.21.61-.71.68-1.33-.66-1.97.02-.13-.04-.25-.07-.38-.11.03-.09.03-.17,0-.26.04-.09.09-.18.13-.26Z"/>
      <path class="cls-56" d="M52.1,24.87c.03.49.43.66.75.9-.57.16-1.1.79-1.74.15.17-.5.37-.97.98-1.05Z"/>
      <path class="cls-5" d="M34.7,24.48c.92-.55,1.5.44,2.28.51.04.24-.07.34-.3.33-.11-.01-.22-.01-.32,0-.66-.08-1.28-.22-1.65-.85Z"/>
      <path class="cls-54" d="M46.96,23.97c.25.15.5.29.75.44-.37.63-.87.57-1.41.24.09-.35.25-.63.65-.67Z"/>
      <path class="cls-99" d="M74.84,29.12c.34-.34-.17-1.44.97-1.06h0c-.24.44-.34.99-.97,1.06Z"/>
      <path class="cls-157" d="M49.1,22.5c.42.17.84.34,1.26.5-.07.19-.14.37-.22.56-.16.2-.34.19-.53.06-.17-.32-.69-.32-.71-.77.1-.09.16-.21.19-.34Z"/>
      <path class="cls-20" d="M36.68,25.33c.07-.14.17-.25.3-.33.29-.27.58-.17.86.01-.03.17-.06.35-.09.52-.42.29-.75.03-1.08-.2Z"/>
      <path class="cls-32" d="M34.7,24.48c.55.28,1.1.56,1.65.85-.22.05-.43.1-.65.16-.37-.16-.75-.33-1.12-.5.04-.17.08-.34.12-.51Z"/>
      <path class="cls-21" d="M38.08,28.12c-.43-.3-.24-.71-.18-1.09.4.35.79.69,1.19,1.04-.32.27-.67.05-1.01.06Z"/>
      <path class="cls-124" d="M39.71,23.23c-.07.15-.15.3-.22.45-.37-.19-.74-.39-1.11-.58v.02c.53-.96.93-.36,1.33.11Z"/>
      <path class="cls-16" d="M48.91,22.84c.31.19.64.37.71.77-.16-.01-.32-.03-.48-.04-.26-.2-.55-.38-.61-.74.13-.03.26-.03.38.01Z"/>
      <path class="cls-99" d="M74.59,29.43s-.18.11-.36.19c-.01,0-.11-.17-.16-.26.19-.08.37-.19.56-.25.24-.08.28,0-.03.31Z"/>
      <path class="cls-184" d="M50.24,24.44c.07.2.13.4.2.59-.26-.05-.59-.08-.64-.38-.03-.19.23-.25.44-.21Z"/>
      <path class="cls-21" d="M36.66,28.89c.34-.26.65-.11.97.07-.34.2-.66.11-.97-.07Z"/>
      <path class="cls-21" d="M36.28,28.71c.12.05.24.11.36.18-.06.15-.11.3-.17.45-.06-.21-.12-.42-.19-.63Z"/>
      <path class="cls-21" d="M38.36,29.11c.24-.18.48-.19.72-.01-.24.13-.48.13-.72.01Z"/>
      <path class="cls-99" d="M75.93,25.59c.06-.04.15-.13.17-.12.12.09.06.14-.17.12h0Z"/>
      <path class="cls-191" d="M16.12,17.6c-1.94.14-2.06-.34-2.76-2.57q-1.07.67-1.67-.52c-.06-.11-.15-.31-.2-.3-.56.11-.83.74-1.58.71-.54-.02-.02.59,0,.9.03.78.91,1.57-.03,2.35.87,1.1.15,1.02-.67.95-1.72-.16-1.69-.15-2.37-2.16-.21-.63-.54-1.52-1.03-1.7-1.51-.56-.43-1.3-.31-1.98,1.1-.88,1.4.03,1.42.78.04,1.5.83,1.77,2.25,1.56-1.13-.72-1.59-1.63-1.08-2.83.16-.36.05-.45-.27-.65-1.38-.86-1.27-2.02-.54-3.37.92.76,1.55,1.81,2.73,2.11.39.1.81.31.67.75-.43,1.36.61,1.25,1.33,1.31,1.37.12,2.51.51,3.56,1.53.69.67,1.84.9,2.82,1.2.84.26,1.53.64,2.04,1.35-.3.45-.11,1.95-1.22.71-1.07-1.19-2.05-.07-3.06-.14Z"/>
      <path class="cls-109" d="M30.42,20.46c.26.24.85.38.67.77-.42.92-1.28.34-1.75.14-.46-.19-.02-.77.26-1.13.27.07.54.14.81.22Z"/>
      <path class="cls-92" d="M39.71,23.23c-.43-.22-.85-.49-1.33-.11-.26-.28-.52-.56-.78-.84-.07-.14-.07-.24.01-.3.08-.06.13-.09.17-.07h.16c.45-.24.97-.02,1.43-.19.83-.39,1.42-.19,1.73.7-.22.06-.44.02-.66.04-.16,0-.28.08-.36.22-.08.21-.1.45-.38.51v.03Z"/>
      <path class="cls-9" d="M34.29,26.48c-1.04.07.29,1.49-.69,1.35-.68-.1-.62-1.04-.78-1.66.33-.34.77-.41,1.21-.48.28.2.36.46.25.79Z"/>
      <path class="cls-86" d="M28.42,25.76c-.06.36-.04.88-.47.89-.27,0-.66-.38-.78-.68-.13-.3.29-.43.54-.57.24.12.47.24.71.36Z"/>
      <path class="cls-134" d="M24.78,21c.32.19.55.45.39.86-.02.06-.28.11-.37.06-.33-.17-.6-.45-.52-.85.05-.23.3-.23.51-.07Z"/>
      <path class="cls-34" d="M34.29,26.48c-.25-.21-.29-.49-.25-.79.09-.09.18-.18.27-.28.78.16.71.62.39,1.15l-.2-.09h-.22Z"/>
      <path class="cls-178" d="M37.79,21.91c-.03.14-.09.27-.18.37-.13-.04-.26-.06-.4-.07-.05-.16-.1-.33-.14-.5.24.06.48.13.73.19Z"/>
      <path class="cls-93" d="M59.12,26.01c-.84-.43-.25-1.63-1.1-2.06.67-.22,1.34-.61,2.03-.04.11.53.22,1.06.33,1.6-.24.13-.5.22-.75.32-.17.07-.34.13-.51.19h0Z"/>
      <path class="cls-67" d="M59.33,25.58c.31-.5.68-.3,1.05-.08-.08.16-.16.33-.24.49-.38.08-.68,0-.8-.41Z"/>
      <path class="cls-4" d="M59.33,25.58c.27.14.54.27.8.41-.33.25-.68.18-1.02.02.07-.14.14-.29.21-.43Z"/>
      <path class="cls-203" d="M27.93,85.05c-.1.22-.2.45-.3.67-.41-.39-.83-.63-1.3-.08-.24.28-.48.56-.74.82-.36.36-.94.75-.44,1.26.21.22.87,0,1.33,0,0,.47-.28.82-.52,1.19-.63-.34-1.05.03-1.57.35-.4.26-1.04-.03-1.57.46-.03.92.8,1.94.06,2.94h0c.27.46.18.82-.25,1.15-.62.48-1.51.89-1.73,1.52-.49,1.4-1.43,1.25-2.5,1.18-1.32-.09-.97-1.31-1.42-1.99-.18.08-.37.12-.56.13-.39-.05-.79-.07-1.15-.25-.39-.37-.68-.76-.21-1.27h.01c.23-.03.42-.12.6-.25.2-.24.94-.42.58-.65-1.27-.78-.99-1.16.19-1.59.29-.1.19-.51.21-.79.01-.08.03-.16.04-.24-.03-.16-.06-.32-.11-.48-.04-.25-.09-.5.2-.64.07,0,.15.01.22.03.38.07.83.56,1.12-.06.26-.57-.43-.41-.61-.67-.16-.24-.86-.24-.42-.74.22-.25.3-.91.93-.56.12.07.28.12.42.12.37,0,.74-.03,1.1-.05.6-.27.06-.9.4-1.25.28-.39.66-.68.93-1.07.2-.33.34-.69.48-1.05.49-.67,1.11-1.25,1.38-2.05.03-.2.1-.39.2-.57.12-.16.27-.29.43-.39.35-.12.65-.3.77-.69.17-.25.42-.37.69-.46.83-.18.8-.96,1.06-1.54.18-.37.46-.66.77-.91.3-.24.64-.42,1.01-.53.45-.1.42-.41.32-.76,0-.2.03-.39.09-.58,1.26-1.29,1.79-3.3,3.78-3.88.46-.09.94-.13,1.4-.24.17-.07.33-.14.47-.24.34-.45-.08-.96.13-1.41.1-.19.24-.34.43-.44.32-.06.62,0,.9.17.16.14.28.31.34.51.5,1.28,1.17,2.56-.66,3.46-.34.16.03.67.28.96-.04.12-.11.21-.21.29-1.39.32-2.65,1.52-2.66,2.78,0,.69-.4.86-.81,1.2-1.03.85-2.46,1.53-1.67,3.32.09.2.01.54-.23.57-2.16.31-1.42,2.04-1.64,3.29Z"/>
      <path class="cls-31" d="M11.94,103.35c-.93.04-1.1-.25-.81-1.41.5-.74.55-1.76,1.43-2.25.02-.18.07-.34.16-.5.14-.12.31-.19.48-.23.26-.06.53-.1.79-.17.46-.12.79-.47,1.24-.61.54.34,1.06.69.94,1.46-.14.29-.27.58-.41.88-.91-.43-1.02.17-1.08.84-.34.5-.91.71-1.38,1.04-.17.08-.35.15-.53.22-.26.12-.49.3-.68.5-.05.08-.11.16-.16.23Z"/>
      <path class="cls-103" d="M12.67,99.64c.35.22.98.28.85.83-.12.51-.6.22-.92.14-.36-.09-.46-.06-.47.38-.01.56-.4.91-1,.96.22-.61-.5-1.05-.29-1.65.71-1.03.24-2.46,1.14-3.43.12.07.24.09.37.04.5-.2,1.02-.56,1.43.14-.04.16-.08.31-.11.47-.26.44-.07.85.04,1.28-.21.41-.6.18-.89.25-.13.07-.23.17-.29.31,0,0-.17.09-.17.09l.13.15s.19.05.19.05Z"/>
      <path class="cls-72" d="M15.06,93.13c.07.4.06.83.44,1.1.07.05.13.1.2.15.1.14.16.29.19.46-.02.08-.05.16-.08.24-.37.01-.74.03-1.21.05.03.72.73.99,1.04,1.54-.47.64-1.02.33-1.55.1-.45-.68-1.71-1.15-.57-2.24.77-.19.45-1.56,1.54-1.41Z"/>
      <path class="cls-2" d="M16.8,105.05c.06.19.12.37.18.56-.14.25-.27.5-.41.75-.27-.04-.45.08-.56.32-.3-.15-.59-.29-.89-.44-.12-.3-.46-.4-.59-.69.07-.16.14-.32.21-.48v.02c-.42-.18-.85-.37-1.29-.55.04-.14.12-.26.23-.36.32-.28.67-.23,1.04-.11.69.34,1.37.67,2.06,1Z"/>
      <path class="cls-183" d="M13.52,94.53c-.18.41-.36.83.19,1.12.49.25.52.66.37,1.12-.12.08-.23.17-.32.27-.48-.05-.95-.09-1.43-.14.69-.71.08-1.82.78-2.52.15.02.28.07.4.15Z"/>
      <path class="cls-135" d="M12.93,102.19c.59-.09,1.01-.46,1.42-.86.39-.08.67.05.8.44.07.4.03.76-.48.68-.53-.08-.8.17-1.03.57.1.4-.03.69-.39.88-.16-.08-.32-.15-.47-.23-.17-.51-.12-1,.15-1.47Z"/>
      <path class="cls-71" d="M16.18,99.64c-.4-.35-.79-.7-.85-1.28-.09-.13-.11-.24-.05-.33.06-.11.11-.15.14-.13.15.03.31.06.46.09.39-.06.68.07.83.45-.01.45.29.67.64.85.11.33.02.57-.32.7-.28-.12-.56-.23-.84-.35Z"/>
      <path class="cls-69" d="M15.42,97.89c-.03.16-.06.31-.09.47-.32.52-.43,1.43-1.39.73-.19-.55-.02-.94.5-1.19h0c.2-.07.4-.14.6-.22.15.02.27.09.37.21Z"/>
      <path class="cls-72" d="M14.44,97.9c-.17.39-.33.79-.5,1.19-.23.08-.47.17-.7.25-.08-.15-.08-.26.01-.32.08-.06.15-.08.2-.05-.04-.5-.72-1.09.2-1.46.26.13.52.26.79.4Z"/>
      <path class="cls-101" d="M15.15,101.77c-.27-.14-.54-.29-.8-.44.24-.67.3-1.68,1.42-.82-.21.42-.41.84-.62,1.26Z"/>
      <path class="cls-6" d="M13.26,103.9c.13-.29.26-.58.39-.88.43.28,1.2.18,1.09,1.03-.33.17-.67.25-1.04.11-.15-.09-.3-.17-.45-.26Z"/>
      <path class="cls-72" d="M15.5,94.23c.37-.13.74-.13,1.07.11.08.19.16.37.22.56-.29.29-.64.24-.99.18l-.06-.18c-.06-.16-.12-.32-.18-.48l-.07-.2Z"/>
      <path class="cls-60" d="M17.27,97.25c.44.51.03.64-.35.77-.39.11-.67-.01-.82-.4.04-.14.1-.27.18-.39.33-.17.66.08.99.01Z"/>
      <path class="cls-137" d="M17.03,99.99c.11-.23.21-.47.32-.7.35.09.49.35.36.65-.15.37-.44.25-.68.05Z"/>
      <path class="cls-72" d="M17.27,97.25c-.33.2-.66.11-.99-.01.33-.29.66-.18.99.01Z"/>
      <path class="cls-72" d="M16.1,97.63c.27.13.55.26.82.4-.07.14-.14.27-.21.41-.28-.15-.55-.3-.83-.45.08-.12.15-.23.22-.35Z"/>
      <path class="cls-72" d="M15.05,97.68c-.16.18-.36.27-.6.22.14-.23.34-.31.6-.22Z"/>
      <path class="cls-131" d="M16.8,94.9c-.23-.13-.43-.26-.22-.56.14.05.27.11.4.18,0,.16-.05.29-.18.39Z"/>
      <path class="cls-188" d="M2.24,127.08c.06-.26-.03-.46-.25-.6-.05-.21-.1-.43-.15-.64.28-.96.47-1.88-.62-2.5-.92-.53-.2-1.15-.06-1.73.07-.14.14-.29.21-.43,1.05-1.23,2.44-1.99,3.79-2.79.55.25,1.1.49,1.66.74.08.21.16.41.24.61,0,.59.09,1.23-.74,1.42-.46.11-1.25-.4-1.34.35-.12.96-.97,1.86-.47,2.82.82,1.57.6,3.5,2.04,4.92-.97.09-1.47-.46-2.11-.58-.36-.21-.71-.42-1.07-.64-.38-.31-.75-.62-1.13-.94Z"/>
      <path class="cls-146" d="M8.17,121.74c-.06.13-.11.27-.14.41-.21-.19-.26-.42-.17-.69.1.1.21.2.32.29Z"/>
      <path class="cls-1" d="M39.38,21.71c-.38.75-.91.49-1.44.2-.1-.26-.34-.6-.26-.77.19-.36.49,0,.72.08.34.12.65.33.97.49Z"/>
      <path class="cls-167" d="M40.25,22.03c.29.13.57.26.86.39-.28.24-.77.41-.32.91-.39.2-.74.11-1.08-.13-.02-.31-.27-.62-.04-.94.2-.07.39-.14.58-.22Z"/>
      <path class="cls-57" d="M26.62,40.48c-.36-.15-.71-.31-1.07-.46-.2.13-.32.08-.36-.16-.37,0-.74,0-1.11,0-.37-.11-.38-.36-.23-.66.19-.24.42-.41.68-.56.55-.36,1.13-.36,1.71-.1.57.13,1.14.26,1.69.45.27.08.55.15.83.19.94-.18,1.86-.47,2.83-.19.18,0,.37.02.55.02.28-.03.55-.08.82-.14.31-.05.58.02.82.22.47.52.96,1.03,1.68,1.19.52.11,1.06.15,1.56.33.62.29,1.28.53,1.33,1.37-.15.33-.41.52-.75.63-.66.1-1.28-.14-1.91-.21-.3-.04-.59-.11-.87-.21-.35-.12-.68-.28-1.01-.43-.15-.06-.3-.12-.45-.17-.23-.05-.45-.04-.68.01-.24.07-.47.08-.7-.01-.21-.12-.42-.26-.65-.34-.27-.04-.52.02-.77.11-.28.13-.56.24-.86.29-1.14-.09-2.05-.79-3.09-1.17Z"/>
      <path class="cls-83" d="M21.73,42.14c.08-.71-.91-.59-.95-1.21.08.13.19.16.32.09.55-.41.36-1.47,1.33-1.52.23.06.33.19.29.43-.54,1.52-.55,1.56.69,1.81.61.13,1.17.33,1.7.64-1.15.19-2.28.18-3.38-.23Z"/>
      <path class="cls-168" d="M26.62,40.48c.72-.25,1.28.19,1.89.42.53.2,1.04.64,1.64.16.19-.03.34.03.44.19.05.17.06.35,0,.52-.09.16-.23.26-.41.31-1.07.3-1.85-.44-2.74-.77-.08-.34-.5-.41-.6-.75l-.14.03-.08-.12Z"/>
      <path class="cls-123" d="M33.19,41.03c.14.06.28.11.41.17.08.17.15.35.2.53.03.38,0,.75-.37.99-.31.15-.66.22-.9.49-.11.14-.25.25-.39.35-.18.02-.36,0-.52-.08-.17-.08-.28-.21-.32-.39.02-.28-.04-.53-.28-.71-.06-.16-.04-.3.06-.43.16-.17.34-.32.53-.46.13-.09.28-.14.44-.14.2-.05.41-.09.61-.14.16-.11.33-.17.52-.19Z"/>
      <path class="cls-83" d="M23.88,39.35c.07.17.14.35.21.52q-.21,1.01-1.36.05l-.03-.21c-.09-.17-.1-.35-.03-.53.11-.16.25-.28.42-.36.19-.03.37-.01.55.06.07.06.14.13.21.19,0,.09.02.19.03.28Z"/>
      <path class="cls-36" d="M25.2,39.86c.12.06.24.12.36.16.04.3.07.61-.28.73-.1.03-.33-.06-.38-.15-.17-.33.06-.54.29-.73Z"/>
      <path class="cls-173" d="M31.16,42.13c-.04.09-.08.18-.14.26-.28-.1-.56-.2-.83-.29.06-.14.12-.28.18-.42.41-.1.67.06.79.46Z"/>
      <path class="cls-10" d="M26.85,40.58c.32.15.67.28.6.75-.37-.11-1-.02-.6-.75Z"/>
      <path class="cls-192" d="M31.3,43.1c.11.07.21.15.31.23.12.13.15.21.07.26-.08.05-.14.07-.19.05-.28-.09-.56-.18-.85-.27.22-.09.44-.18.66-.27Z"/>
      <path class="cls-2" d="M11.84,104.86c-.02.08-.06.15-.11.21-.19.32-.05.39.25.32q1.41.06.93,1.41c-.19-.05-.3.03-.31.23,0,.06.06.11.16.16-.12.27-.25.55-.37.82.02.1.05.2.08.31-.05.09-.11.18-.16.27-.41.34-.88.51-1.41.51-.38-.08-.69-.25-.79-.66.17-.48-.07-.43-.39-.28-.18.02-.36.02-.55,0-.95-.23-.92-.8-.52-1.5.1-.11.22-.21.35-.28.15-.06.21-.17.13-.33-.13-.09-.25-.19-.36-.3-.1-.13-.17-.27-.2-.43q1.64-1.35,3.28-.45Z"/>
      <path class="cls-121" d="M8.55,105.31c.15.07.29.15.44.22.2.28.35.57.06.89-.44.65-.67,1.24.44,1.39.1.32-.01.57-.23.79-.25.17-.52.26-.83.13-.18.1-.37.2-.55.3-.18.09-.35.06-.51-.06-.18-.22-.28-.47-.28-.75.09-.44-.41-.51-.53-.82.1-.22.06-.42-.09-.6.15-.26.3-.53.45-.79.54-.23,1.08-.46,1.62-.69Z"/>
      <path class="cls-182" d="M12.93,102.19c.35.53.08,1-.15,1.47-.28-.11-.56-.21-.85-.32h0c-.02-.51.09-.95.6-1.18.14-.04.27-.03.4.03Z"/>
      <path class="cls-62" d="M9.23,101.47c-.44-.3-.28-.62-.03-.94.35.3.17.62.03.94Z"/>
      <path class="cls-100" d="M7.17,104.11c0-.13.05-.25.13-.36.12.04.25.06.39.06.04.14.08.27.12.41-.21-.04-.42-.08-.64-.11Z"/>
      <path class="cls-2" d="M12.38,104.69c-.16.05-.32.1-.47.15.11-.19.27-.23.47-.15Z"/>
      <path class="cls-2" d="M13.46,104.52c-.15.21-.36.27-.6.21.2-.07.4-.14.6-.21Z"/>
      <path class="cls-107" d="M10.94,108.85c.38-.22.73-.49,1.2-.45h.02c.03-.16.1-.29.21-.39.38.32,1.2.03,1.08,1.06-.09.76.75.46,1.22.52-.2.42-.41.84-.61,1.26-.36.2-.67.54-1.15.44l-.2-.09-.2-.1c.08-1.18-1.37-1.27-1.58-2.24Z"/>
      <path class="cls-88" d="M11.97,105.39c-.17.53-.49.72-1.01.45-.22-.11-.34-.32-.22-.54.22-.44.62-.29.98-.23.06.13.14.24.25.32Z"/>
      <path class="cls-126" d="M12.75,107.19c-.32-.02-.91.23-.76-.38.13-.51.59-.22.91,0-.02.14-.07.27-.15.39Z"/>
      <path class="cls-87" d="M14.54,105.53c.28.16.65.24.59.69-.23-.11-.45-.22-.68-.33-.1-.12-.12-.21-.06-.28.07-.08.12-.1.16-.09h0Z"/>
      <path class="cls-2" d="M14.55,105.52c-.05.12-.08.24-.1.37-.07-.09-.15-.17-.22-.26.11-.04.21-.07.32-.11Z"/>
      <path class="cls-26" d="M16.77,88.49c.05.15.11.3.16.46.18.41.02.7-.34.91h.06c-.26-.51-1.79-.19-.92-1.43h0c.21-.09.43-.18.67-.14v.03c.14.03.26.08.37.17Z"/>
      <path class="cls-72" d="M15.67,92.87c-.15.21-.34.3-.6.24.11-.29.32-.36.6-.24Z"/>
      <path class="cls-64" d="M32.13,43.49c.04-.16.09-.32.13-.49.07-.07.14-.14.21-.21.18-.08.37-.12.57-.11.18.06.37.09.57.1.47,0,.92.19,1.39.1.45-.11.87-.34,1.35-.37.37.02.74.13,1.12.06.24-.17.48-.34.71-.51.08.04.17.07.25.11.38.25.74.54.97.95.06.17.1.34.12.51.05.34.2.61.54.75.26.08.52.13.77.21.38.17.65.42.56.88-.2.26-.52.24-.79.33h-.03c-.18.09-.37.14-.57.15-.69-.02-1.32-.17-1.86-.65-.6-.53-1.32-.73-2.11-.65-.38-.31-.82-.47-1.31-.41-.21,0-.42-.05-.61-.13-.58-.49-1.52.2-1.99-.63Z"/>
      <path class="cls-158" d="M31.32,45.13c.2-.07.41-.15.61-.22.49.04.97.08,1.45.13.12.08.25.15.38.21.1.2.15.42.23.63-.2.08-.4.16-.6.24-.45-.23-.9-.55-1.43-.19-.28-.13-.56-.25-.83-.38.06-.14.12-.28.19-.42Z"/>
      <path class="cls-202" d="M32.13,43.49c.73.29,1.6-.01,2.26.55-.04.2-.15.28-.36.24-.35-.35-.68-.29-1.02.02-.51-.22-1.02-.44-1.53-.66.05-.1.09-.2.12-.31.17.05.35.11.52.16Z"/>
      <path class="cls-11" d="M18.02,83.43c.19-.09.39-.17.58-.26.15.09.3.17.45.26.17.46.3.93.09,1.42-.18.42-.55.53-.96.57-.58-.14-.94-.4-.45-1,.25-.3.2-.65.28-.99Z"/>
      <path class="cls-95" d="M20.12,85.44c-.04.45.47,1.19-.58,1.12-.07-.19-.15-.38-.22-.58-.15-.42-.24-.83-.06-1.26.44-.34.81-.22,1.14.18.02.25-.08.42-.29.54Z"/>
      <path class="cls-97" d="M19.37,85c.3.35.19.67-.05.99-.38-.19-.75-.38-1.13-.56.23-.2.47-.41.7-.61.22-.11.38-.05.48.18Z"/>
      <path class="cls-119" d="M35.52,69.18l-.2-.09-.19-.1c-.19-.37-.48-.49-.88-.4h0c-.13.12-.28.13-.43.04-.19-.16-.33-.36-.45-.57-.06-.15-.09-.31-.09-.47h.02c.39-.4.93-.69,1.11-1.29.18.49.9.58.88,1.22.25.58.65.77,1.24.5.05-1.1-1.17-1.53-1.33-2.52.11-.28.22-.56.33-.84.39-.06.61-.34.8-.64.91.6,2.21.58,2.76,1.74-1.61.29-1.49,1.65-1.75,2.78-.28.2-.57.41-.85.61-.33-.1-.67-.22-.99.03Z"/>
      <path class="cls-85" d="M37.36,68.54c-.13-.89-.26-1.77-.38-2.61.79-.44,1.46-.3,2.13-.17.27.18.49.4.55.73-.68.29-1.75.12-1.47,1.46.08.39-.45.53-.84.59Z"/>
      <path class="cls-155" d="M38.58,69.3c.08-.03.14-.06.2-.09,0,.11.03.21.01.31,0,.03-.12.05-.18.07-.01-.1-.02-.21-.03-.3Z"/>
      <path class="cls-176" d="M8.44,108.73c.19-.05.38-.09.57-.14.08.04.16.07.25.11.11.14.18.31.2.49-.04.18-.14.32-.32.39-.96.22-.85,1.26-1.4,1.81-.23-1.01.53-1.76.69-2.66Z"/>
      <path class="cls-141" d="M7.25,108.17c.09.25.18.49.27.74.07.19.11.38.14.58-.06.11-.1.22-.13.34-.56.14-.98-.03-1.23-.56l.03.04c-.19-.41.31-.6.3-.96.04-.08.08-.16.09-.24.2-.15.37-.13.53.07Z"/>
      <path class="cls-152" d="M6.29,109.26c.41.19.82.38,1.23.56-.67.38-1.09.21-1.23-.56Z"/>
      <path class="cls-152" d="M6.62,108.34c.42.48-.08.67-.3.96-.31-.28-.27-.62-.13-.96.15-.05.29-.05.43,0Z"/>
      <path class="cls-152" d="M7.65,109.49c-.15-.17-.26-.35-.14-.58.12.04.25.08.37.12-.08.15-.16.31-.23.46Z"/>
      <path class="cls-111" d="M47.95,57.23c-.11.4-.47.46-.78.58-.98.24-1.06-.38-1.05-1.09.07-.08.15-.15.22-.23.5.31,1.27.05,1.61.73Z"/>
      <path class="cls-25" d="M45.7,55.65c-.38.73.1.81.64.85-.02.62.22,1.08.83,1.31-.26.22-.52.44-.79.66-.45.01-.59.39-.78.69-.56.01-.65-.35-.63-.8-.04-.14-.03-.31-.11-.42q-1.23-1.75.84-2.29Z"/>
      <path class="cls-3" d="M45.41,59.56c-.28.22-.55.45-.83.67-.79.37-1.57.84-2.46.26-.16-.15-.28-.33-.36-.54.3-.85.56-1.71,1.15-2.42.43.1.87.19,1.21.51-.31,1.13,1.24.7,1.29,1.53Z"/>
      <path class="cls-186" d="M45.41,59.56c-.79-.42-1.62-.63-2.52-.35-.24-1.25.74-.94,1.23-1.18.14.04.27.11.39.18.1.19.25.24.45.15h.01c.21.27.42.53.63.8-.06.13-.13.27-.19.4Z"/>
      <path class="cls-25" d="M44.95,58.37c-.23.2-.37.12-.45-.15.15.05.3.1.45.15Z"/>
      <path class="cls-198" d="M60.39,37.67c-.12.27-.25.55-.37.82.07.43-.32.59-.5.88-.21.36-.03.89-.5,1.13-.37.02-.74.1-1.09.05-2.35-.33-2.35-.34-2.28,1.97-.62-.09-1.24-.19-1.86-.28-.55-.41-1.1-.51-1.62.03-.47.48-1.04.56-1.67.5-.22.04-.38-.03-.48-.23.03-.61.25-1.17.48-1.73.32-.5.6-1.01.86-1.54.13-.16.29-.28.48-.36,2.36.06,4.68-.15,6.91-.97h0c.53.01.9-.43,1.41-.47.08.07.15.13.23.2Z"/>
      <path class="cls-28" d="M59.02,40.51c-.08-.51-.15-1.01-.23-1.52.73-.13,1.28.17,1.72.73.12.19.18.41.19.63-.13.27-.26.54-.39.81-.25-.09-.51-.18-.77-.27-.18-.13-.35-.26-.53-.39Z"/>
      <path class="cls-161" d="M58.91,42.05c-.06.14-.12.27-.2.4-.42-.01-.46.13-.19.42-.12.28-.25.57-.37.85-1.55-.33-.55-1.06-.26-1.68.34-.32.68-.15,1.01,0Z"/>
      <path class="cls-142" d="M35.92,47.21c0-.32,0-.63-.01-.95.56.14,1.08.36,1.53.73-.04.1-.08.19-.14.27-.19.08-.38.17-.58.25-.27-.1-.54-.2-.8-.3Z"/>
      <path class="cls-166" d="M40.01,45.97c.19-.05.38-.1.57-.15-.08.1-.15.21-.21.32l-.18-.07-.17-.1Z"/>
      <path class="cls-205" d="M41.76,59.95c.15.09.29.19.44.28.19.32.43.63,0,.95-.71.34-1.29-.03-1.87-.37.1-.91.89-.67,1.42-.86Z"/>
      <path class="cls-84" d="M51.72,52.38c-.54-.27-1.08-.53-1.63-.8,1.3-1.22,1.59-1.15,2.24.59-.09.42-.28.52-.62.2Z"/>
      <path class="cls-130" d="M48.93,51.65c.07-.16.14-.33.21-.49.09-.11.18-.21.26-.33.2.26.41.52.61.78-.25.21-.51.43-.77.64,0,0,0,0,0,0-.2.07-.32,0-.37-.2.03-.13.05-.27.06-.41Z"/>
      <path class="cls-144" d="M51.72,52.38c.21-.07.41-.14.62-.2.11.05.22.1.32.15-.11.26-.21.51-.32.77-.13-.03-.25-.06-.38-.09-.08-.21-.15-.42-.23-.64Z"/>
      <path class="cls-82" d="M48.87,52.05c.12.06.25.13.37.2-.19.08-.37.16-.56.24.06-.15.12-.29.18-.44Z"/>
      <path class="cls-115" d="M23.03,81.1c-.04,1.1-.54,1.9-1.57,2.33-.18.13-.29.09-.33-.13h-.18c-.05-.41-.36-.75-.24-1.19.09-1.32,1.04-1.17,1.93-1.13.08-.02.16-.05.24-.07.05.07.1.13.15.2Z"/>
      <path class="cls-208" d="M21.13,83.29c.1.06.21.1.33.13,0,.36,0,.73,0,1.09-.47-.03-.78.31-1.15.5-.31-.22-.61-.4-.93-.02-.16-.06-.32-.12-.48-.18-.06-.48-.17-.96.16-1.39.71.27,1.42.48,2.07-.13Z"/>
      <path class="cls-40" d="M23.44,80.36c-.1.14-.2.29-.29.43-.18.07-.37.13-.55.19h.04c-.63-.32-1.87-.14-1.27-1.5.39.12.77.25,1.16.37.43-.04.74.11.91.52Z"/>
      <path class="cls-104" d="M20.71,82.1c.17.38.57.71.24,1.18-.26-.26-.53-.5-.77-.78-.12-.14-.34-.36-.09-.5.14-.08.41.05.62.09Z"/>
      <path class="cls-7" d="M42.21,61.18c0-.32,0-.64,0-.95.79.54,1.58-.35,2.37,0-.12.25-.25.51-.37.76-.5.22-.63.77-.98,1.13-.29-.36-.04-1.32-1.02-.94Z"/>
      <path class="cls-17" d="M41.41,62.82c-.22.19-.37.19-.38-.15.15,0,.27.05.38.15Z"/>
      <path class="cls-149" d="M39.05,43.73c.07-.16.13-.32.2-.48.07-.17.18-.21.34-.13.02-.37-.36.02-.41-.21-.35-.18-.74-.27-.97-.62,0,0-.03-.19-.03-.19-.24-.71-.98-.72-1.48-1.08.01-.12.02-.23.04-.34.19-.14.4-.21.63-.22,1.12.11,2.04.76,3.07,1.11.44.17.91.24,1.36.35.16.02.32.05.48.06.25-.03.41-.2.57-.4.13-.13.29-.21.46-.26.86-.08,1.43.49,2.05.93.62.47,1.37.57,2.11.67.28.03.56.06.84.09.19.01.37.05.56.09.18.04.36.1.53.17.33.13.64.31.96.48.14.08.28.17.4.27.17.14.32.3.51.41.12.05.25.08.38.09.13-.01.26-.02.4-.02,0,0,.19.04.19.04.47.02.95.04,1.42.05.31.26.64.41,1.03.16.14.04.29.09.43.14.07,1.16-.7.98-1.42.89-.27-.13-.53-.25-.8-.38-.2.07-.4.12-.6.16-.33.06-.66.12-.98.18-.36.01-.68-.19-1.05-.13-.22.07-.44.13-.66.2-1.31-.5-2.63-.92-4.07-.68-.68.14-1.4-.41-2.07.09-.12.07-.19.18-.23.31l.07-.02c-.52-.03-.68-.84-1.31-.63-1.11-.01-2.15-.22-2.93-1.11Z"/>
      <path class="cls-44" d="M43.46,45.18c.63-1.51,1.37-.16,2.07-.09-.09.09-.17.19-.25.29-.24-.06-.45,0-.62.18-.4-.13-.8-.25-1.2-.38Z"/>
      <path class="cls-143" d="M9.14,109.58c.07-.14.13-.28.2-.41-.07-.16-.06-.29.02-.4.08-.1.14-.15.18-.13.81.1,1.28.73,1.85,1.21.23.63-.25,1.11-.36,1.67-.17.55-.63,1-.54,1.63-1.37.82-1.06-.6-1.45-1.08,0-.42-.27-.63-.64-.72.25-.58.49-1.17.74-1.75Z"/>
      <path class="cls-133" d="M7.6,113.98c-.11.26-.22.52-.33.77-1.01-.05-1.16-.8-1.28-1.58l.02.05c-.05-.11-.06-.2-.01-.28.05-.08.09-.12.11-.11.46-.45.97-.62,1.58-.33.02.15-.02.29-.12.41-.33.21-.47.48-.28.86.1.07.2.15.31.22Z"/>
      <path class="cls-42" d="M3.69,114.74c-.03-.18-.06-.37-.09-.55.11.04.23.05.35.04.26.15.53.3.79.45-.03.29-.25.33-.47.35-.19-.1-.39-.2-.58-.3Z"/>
      <path class="cls-93" d="M58,23.95c-.43.39-.77.95-1.5.82.4-.45.5-1.46,1.5-.82Z"/>
      <path class="cls-35" d="M50.45,44.2c-.48-.23-.95-.46-1.43-.69-.08-.26-.32-.32-.54-.41-.32-.08-.66-.07-.98-.18-.27-.05-.54-.02-.81-.02-.58.04-1.12-.27-1.71-.14-.59-.66-1.14-1.44-2.22-.92-.18.25-.4.45-.67.61-.51-.08-1.01-.16-1.52-.25.7-1.96-1.37-1.51-2.01-2.31-.29-1.6.11-2.33,1.75-1.31,1.92,1.2,4.37.38,6.24,1.7.24.19.18-.49.11-.19-.03.13-.09.09-.23.02-.63-.3-1.12-.84-.58-1.38.68-.68,1.61-.89,2.33.11-.14,1.24.71.38,1.1.5.87.17,1.39.68,1.59,1.54-.27.51-.02,1.26-.71,1.58-.28.31.07.45.17.66.17.09.35.19.53.28.05.35-.09.61-.39.78Z"/>
      <path class="cls-118" d="M50.45,44.2c.13-.26.26-.52.39-.78.5.31,1.27.29,1.38,1.1v.09c-.2.03-.41.07-.6.13h0c-.38.16-.64.02-.84-.31l-.13-.15-.19-.07Z"/>
      <path class="cls-153" d="M52.41,43.04c.12.06.25.1.38.11.05.17.33.42,0,.48-.37.07-.45-.26-.39-.58Z"/>
      <path class="cls-193" d="M50.32,43.13c-.27-.07-.55-.13-.69-.42.17-.08.34-.16.51-.24.12.1.23.21.35.31-.04.13-.1.24-.18.35Z"/>
      <path class="cls-77" d="M53.69,45.75c.42-.38,1.16-.25,1.42-.89.05-.13.12-.24.22-.34.32.77-.05,1.29-.68,1.64-.41.22-.87.29-.95-.4Z"/>
      <path class="cls-77" d="M52.28,45.53c.16-.2.36-.27.6-.16-.09.1-.16.22-.22.34l-.21-.06-.18-.12Z"/>
      <path class="cls-163" d="M24.86,79.43c-.2.06-.39.13-.59.19-.76.66-1.13.34-1.29-.52.02-.16.04-.32.05-.47.1-.12.21-.24.31-.36.2-.08.4-.16.6-.24.58-.13.92.18,1.16.66.02.09.04.19.06.29-.01.21-.11.36-.31.45Z"/>
      <path class="cls-14" d="M40.88,65.01c-.2.09-.4.17-.6.26-.55-.24-1.1-.47-1.65-.71-1.38-1.27-.05-1.34.73-1.65.75.7,1.55,1.23,2.61.61-.07.71-.32,1.29-1.09,1.49Z"/>
      <path class="cls-102" d="M39.36,62.91c-.04.26.07.75-.24.7-1.27-.21-.46.57-.5.95-1.46-.56-.88-1.43-.35-2.3.36.22.72.43,1.08.65Z"/>
      <path class="cls-189" d="M33.62,67.83c.22.17.28.39.23.66-1.05.76,1.14,1.67-.1,2.42h-.02c-.55.03-1.14-.21-1.62.26-.16.05-.89.97-1.34,1.44-.77.8-1.62,1.52-2.44,2.28l-.14.18s-.22-.06-.22-.05c-.17-.15-.4-.2-.61-.27-.15-.08-.23-.19-.27-.35.54-.63.59-1.4.57-2.18.25.07.45,0,.61-.2,1.01.23,1.28-.84,1.99-1.14,1.35-.5,1.85-1.7,2.36-2.89.13.08.26.1.41.05.2-.07.4-.14.6-.2Z"/>
      <path class="cls-198" d="M65.01,35.23c.14.08.28.16.42.24.43,1.55-1.71,1.42-1.75,2.66h-.02c-1.03-.55-2.1-.87-3.27-.45l-.02-.04c-.13-1.12.86-1.29,1.48-1.32,1.2-.07,2.11-.74,3.17-1.09Z"/>
      <path class="cls-198" d="M60.7,40.35c-.14-.07-.29-.15-.43-.22-.11-.55.02-.99.57-1.25h0c.2-.08.4-.16.59-.23.14.05.28.11.42.17l.21-.06.1.2.18.13c0,.12-.04.21-.14.28-.1.16-.2.32-.3.49h-.02c-.18.09-.37.17-.57.22h-.04c-.18.11-.38.19-.58.25v.02Z"/>
      <path class="cls-38" d="M60.84,38.89c-.19.41-.38.83-.57,1.25-.4-.51-.82-.98-1.48-1.15.41-.16.82-.33,1.23-.49.27.13.55.26.82.39Z"/>
      <path class="cls-38" d="M61.44,38.66c-.2.08-.4.15-.59.23.2-.08.4-.15.59-.23Z"/>
      <path class="cls-38" d="M62.17,38.97l-.16-.07-.15-.07c.17-.1.35-.22.31.14Z"/>
      <path class="cls-110" d="M6.95,25.88c0-.26-.14-.42-.34-.55-.01-.46-.22-.85-.51-1.19.04-.12.08-.24.11-.36.64-1.46,1.58-1.02,2.21-.15.66.91,1.23,1.71,2.49,1.65.41-.02.88.26.88.6.04,2.27,2.61,2.57,3.32,4.34.25.63,1.19.59,1.76.96.17.1.33.21.48.35.31.33.52.79,1.06.84,2.36.66,2.61,1.23,1.31,2.95-.49.08-.92-.22-1.39-.24-.37,0-.72.07-1.06.23-1.12.65-2.24,1.47-3.35,0-.2-.12-.41-.24-.61-.36.05-.12.09-.24.11-.36.29-.53.21-1.23,1-1.7-1.18-.22-2.11-.38-3.07-.31l-.02-.02c-.05-.25-.15-.47-.38-.61-.09-.05-.18-.11-.26-.18.01-.66-.6-.73-.97-1.03.05-.25,0-.46-.23-.6.08-.25,0-.46-.21-.61.08-.27-.03-.46-.25-.6.03-.47-.33-.62-.66-.8-.02-.4-.3-.61-.59-.82.05-.25-.03-.45-.24-.6.05-.28-.08-.45-.34-.54,0-.17-.08-.27-.25-.29Z"/>
      <path class="cls-195" d="M22.12,39.01c-.08.12-.16.23-.25.34-.31.1-.62.13-.94.02-.61-.12-1.04-.69-1.7-.71-.12.08-.21.19-.25.33-.15-.07-.3-.15-.45-.23-.06-.29-.02-.56.12-.82,1.59-1.08,2.62-.33,3.46,1.05Z"/>
      <path class="cls-22" d="M18.69,38.39c-.06.12-.11.25-.15.38-.91-.6-2.2-.57-2.82-1.71-.06-.11-.56.02-.85.04-.31-.6-.63-1.21-.94-1.81,1.33,1.05,2.33-.23,3.47-.51.14.15.25.32.34.51-.19,1.19-.1,2.29.96,3.1Z"/>
      <path class="cls-147" d="M10.93,111.36c-.01-.48-.08-.98.51-1.21.56-.02,1.03.03.65.79-.15.07-.22.19-.24.35-.2.08-.4.16-.6.24-.22.16-.32.09-.32-.17Z"/>
      <path class="cls-68" d="M10.93,111.36c.11.06.21.11.32.17-.23.54-.31,1.16-.76,1.6-.41-.73.13-1.22.44-1.78Z"/>
      <path class="cls-94" d="M24.86,79.43c.03-.14.08-.27.16-.4h0c-.36-.34-.71-.67-1.07-1,.81-.17,1.11-.49.43-1.21-.12-.13-.06-.42-.08-.63.13.09.27.12.42.08.66-.05.85-.67,1.25-1.04.12-.17.28-.25.48-.25.19.07.33.19.42.37.14.48.12.95-.16,1.38-.24.24-.68.36-.5.85.04,1.56-.17,1.86-1.35,1.85Z"/>
      <path class="cls-39" d="M39.05,43.73c.98.37,1.95.74,2.93,1.11-.03.19-.07.37-.1.56-.08.13-.13.27-.15.42-.1.12-.21.25-.31.37-.15-.07-.29-.14-.44-.22-.05-.14-.03-.24.05-.31.08-.07.13-.09.17-.08.21-.68-.32-.62-.7-.71-.2.02-.4.04-.6.07-.6-.19-1.29-.31-.85-1.22Z"/>
      <path class="cls-149" d="M43.23,45.5c.08.11.16.22.24.32-.44.07-.21-.18-.17-.35l-.07.02Z"/>
      <path class="cls-113" d="M26.37,75.09c-.55.4-.46,1.69-1.65,1.18.41-.77,1.13-1.4,1.14-2.37.14.05.28.09.43.1.14.09.28.18.42.27.07.16.08.32.04.49-.09.15-.21.26-.37.33Z"/>
      <path class="cls-160" d="M26.55,74.68c0-.16.04-.29.15-.41.13.03.26.07.39.12.16.07.33.14.49.21.1.03.2.06.3.09.15.07.29.13.44.2-.07.2-.13.4-.2.59-.07.44-.39.45-.73.43-.33-.1-.56-.32-.71-.62v-.02c-.07-.19-.11-.39-.14-.59Z"/>
      <path class="cls-140" d="M36.54,68.01c-.65.43-1.07.27-1.24-.5.41.17.83.33,1.24.5Z"/>
      <path class="cls-177" d="M12.09,110.94c0-.44-.29-.65-.65-.79-.81-.24-1.22-1.04-1.96-1.38-.18.05-.33,0-.44-.15l-.03-.03c.16-.26.33-.52.49-.78.12-.04.22-.03.32.04.32-.1.5.02.56.35-.04.41.28.52.56.65.39.18.77.44,1.18.53,1.32.31.82,1.01.4,1.71-.14-.05-.29-.1-.43-.15Z"/>
      <path class="cls-106" d="M12.92,111.29c.32-.32.69-.48,1.15-.44-.03.46-.3.81-.55,1.17-.33-.14-.54-.38-.6-.73Z"/>
      <path class="cls-122" d="M22.99,79.1c.32.45.69.76,1.29.52.28.21.76.42.5.83-.42.65-.88-.05-1.33-.09-.3-.17-.61-.35-.91-.52.15-.24.31-.49.46-.73Z"/>
      <path class="cls-77" d="M50.25,45.58c.39-.27.72-.1,1.05.13-.4.36-.72.09-1.05-.13Z"/>
      <path class="cls-28" d="M63.68,38.12c-.15-.52-.61-1.12.38-1.34.72-.15,1.1-.69,1.37-1.32.42.18.85.36,1.28.54.15.05.3.09.44.14h0c.01.22-.06.4-.22.54h.02c-.35.07-.72-.25-1.06.04h.05c-.38-.06-.46.43-.81.43-.65.06-.79.63-1.07,1.06-.13-.03-.25-.06-.37-.1Z"/>
      <path class="cls-8" d="M65.13,37.16c.17-.33.4-.56.81-.44-.16.21-.32.42-.48.64-.12-.05-.23-.11-.34-.2Z"/>
      <path class="cls-34" d="M7.29,113.76c-.41-.45-.21-.7.28-.86-.09.29-.19.57-.28.86Z"/>
      <path class="cls-165" d="M17.27,31.71c-.91,0-1.62-.75-2.56-.7-.27.01-.71-.33-.61-.55.58-1.4-.58-1.56-1.34-1.72-.97-.21-1.21-.59-1.08-1.54.14-1.05-.2-1.77-1.54-1.4-1.22.34-1.58-.71-1.87-1.5-.48-1.29-1.15-1.2-2.05-.53-.19-.28-.39-.57-.58-.86.09-.23.13-.46-.04-.67.07-.26-.01-.46-.23-.61.03-.27-.12-.44-.32-.57.07-.24.07-.45-.13-.63.1-.35.16-.69-.1-1,.04-.27.07-.54.11-.81.52.12,1.03.29,1.55.35.47.06,1.07.08,1.25.45,1.02,1.99,3.29,2.51,4.65,4.07.35.4.75.78,1.01,1.23.64,1.16,1.44,1.7,2.8,1.16.66-.26,1.24-.16,1.65.7.41.87,1.55,1.36,2.3,1.26,1.86-.25,3.36.45,4.93,1.34-.07-1.3-1.2-1.38-1.89-1.98.58-.73,1.48-.67,1.86-.33,1.76,1.59,3.92,1.79,6.09,2.05.48.8,1.48.48,2.1.96.13.43.4.54.81.36,1.73,1.12,3.9.97,5.69,2.02.79.46,1.42,1.36,2.28,1.41.83.04,1.45-1.04,2.48-.95.46.73-.56.71-.62,1.27.35.57,1.09.61,1.64.96-.92,1.19-2.16.75-3.3.59-2.09-.28-4.15-.88-6.3-.48-1.43.27-1.99-1.24-3.08-1.67-.85-.43-1.68-.92-2.64-1.09-.2.02-.41.03-.61.05-.7.13-1.23.58-1.83.91-1.46.81-2.72.8-3.74-.74-.87-1.33-2.31-1.62-3.75-1.84-.2.04-.4.07-.6.11-.88.08-1.83,0-2.38.92Z"/>
      <path class="cls-8" d="M65.89,36.73c.34-.36.7-.26,1.06-.04-.07.11-.15.21-.24.29-.27-.09-.55-.17-.82-.26Z"/>
      <path class="cls-8" d="M66.94,36.69c.07-.18.14-.35.22-.53.12.07.24.14.35.21-.1.27-.28.38-.57.31Z"/>
      <path class="cls-90" d="M10.95,31.94c.26.12.37.33.38.61-.29-.1-.43-.3-.38-.61Z"/>
      <path class="cls-38" d="M60.69,40.33c.19-.08.38-.16.58-.24-.08.1-.15.2-.2.32-.12-.05-.24-.08-.37-.08Z"/>
      <path class="cls-166" d="M41.2,45.58c-.02.16-.09.29-.21.39l-.18-.1-.2-.06c.15-.2.35-.28.6-.23Z"/>
      <path class="cls-204" d="M7.25,108.17c-.18-.02-.35-.05-.53-.07-.2-.16-.39-.33-.59-.49.06-.07.09-.15.11-.24.11.03.22.04.34.03.35.17.89-.22,1.09.33.03.08-.27.29-.41.45Z"/>
      <path class="cls-38" d="M61.31,40.08c.19-.08.38-.15.57-.23-.06.13-.12.25-.19.37-.13-.04-.25-.09-.38-.14Z"/>
      <path class="cls-81" d="M31.54,26.74c-.17.29-.25.73-.74.5-.56-.26-.13-.55,0-.82.41-.28.68-.22.73.32Z"/>
      <path class="cls-209" d="M23.37,25.4c-.05-.09-.2-.31-.19-.32.2-.15.43-.13.62.02.11.08.16.24.23.36-.22.1-.43.11-.66-.06Z"/>
      <path class="cls-1" d="M31.54,26.74c-.24-.11-.49-.21-.73-.32.28-.4.64-.34,1.02-.19-.1.17-.2.34-.29.51Z"/>
      <path class="cls-1" d="M28.69,26.95c.01-.07.02-.14.03-.2.06,0,.16,0,.17.03.04.21-.03.27-.2.18Z"/>
      <path class="cls-154" d="M32.9,32.76c1.18.15,1.45,1.65,2.42,1.83.98.18,2-.49,3.1-.31,2.34.38,4.66,1.16,7.08.68.69,1.03,1.85.26,2.69.71.71.27.79,1.11,1.32,1.52.58.45,1.08,1.47,2.02.42.21-.24.57-.14.86-.02,1.49.62,2.93.26,4.32-.29.91-.36,1.41.27,2.04.64-.2.4-.36,1.01-.83.97-1.9-.16-3.69,1.35-5.64.32-.17-.09-.44,0-.67,0-.14.04-.22.12-.23.23,0,.11,0,.17.04.18.48.72-.26.88-.57,1.25-.73-.37-1.12-1.24-2.03-1.33-.31.08-.53-.03-.67-.31q-.89-.53-2.17-.21c-.1.79.75.85,1.03,1.31,0,.18-.09.21-.3.17-1.26-.27-2.51-.55-3.81-.58-1.44-.03-2.74-.57-3.88-1.6-.12.61-.21,1.06-.3,1.5-.21,1.27-1.3.38-1.87.77l.07-.02c-.38.24-.84-.32-1.21.12-1.12-.04-2.08-.29-2.16-1.67-.26-.47-.59-.24-.91-.08-.17.29-.93-.37-.76.47-1.12-.21-2.17.1-3.21.47-.14-.38-.49-.47-.8-.62-.24-.11-.48-.21-.69-.37-.1-.15-.11-.31-.06-.48.09-.15.2-.29.29-.42-.22-.95-1.43-1.74-.47-2.87.46-.54.49-1.64,1.44-1.52.98.12.7,1.19.95,1.84.17.62.47.58.84.15.11-.11.24-.27.37-.26,1.35.11.19-1.05.69-1.35-.43-.27-1.12-.53-.84-1.12.35-.73,1.07-.17,1.63-.16.29,0,.57.18.88.05Z"/>
      <path class="cls-58" d="M34.03,30.25c-.18.32-.36.73-.8.43-.27-.18-.12-.53,0-.8.27.12.54.24.81.36Z"/>
      <path class="cls-154" d="M65.01,35.23c-.9.84-1.92,1.45-3.17,1.55-.65.05-1.16.26-1.48.85-.54.11-.99.67-1.61.3,1.31-1.21,2.51-2.64,4.6-2.32.59.09.88-1.21,1.66-.39Z"/>
      <path class="cls-29" d="M39.92,28.34c-.04.09-.09.18-.13.26-.23.02-.28-.15-.31-.33.15.02.3.04.44.06Z"/>
      <path class="cls-174" d="M40.25,22.03c-.11.29-.32.33-.58.22.09-.35.31-.34.58-.22Z"/>
      <path class="cls-140" d="M33.75,70.91c.06-.21.18-.59.17-.59-1.51-.57-1.06-1.19-.07-1.83.14.02.27.06.4.1-.09.36-.18.7.13,1.02.92.97.24,1.18-.63,1.3Z"/>
      <path class="cls-181" d="M26.69,75.29c.29.11.57.22.86.33.11.22.35.4.24.7-.31.2-.61.41-.91.61-.19.04-.29-.04-.3-.23.04-.47.07-.94.11-1.41Z"/>
      <path class="cls-150" d="M27.79,76.32c-.16-.21-.34-.4-.24-.7.19-.05.39-.09.58-.14.14.03.28.07.42.1.33.07.8.05.7.55-.04.19-.43.4-.68.43-.25.03-.52-.15-.78-.24Z"/>
      <path class="cls-53" d="M21.04,87.4c-.13.01-.3.08-.38.02-.2-.14-.18-.36.03-.48.08-.05.3,0,.36.07.06.08,0,.25,0,.38Z"/>
      <path class="cls-78" d="M20.3,85.01c.27-.44.52-.91,1.15-.5-.29.52-.88.63-1.33.93.06-.14.12-.29.18-.43Z"/>
      <path class="cls-140" d="M32.11,71.17c.38-1.15,1.06-.31,1.62-.25-.5.33-1.08.2-1.62.25Z"/>
      <path class="cls-45" d="M19.06,92.87c-.09.09-.18.24-.27.25-.22,0-.37-.16-.33-.38.02-.1.17-.25.26-.25.22-.01.34.15.34.38Z"/>
      <path class="cls-47" d="M26.57,76.7c.08.1.18.18.3.23-.1.34-.38.49-.66.64-.48-.54-.3-.81.36-.88Z"/>
      <path class="cls-140" d="M34.25,68.59c.53-.38.79-.18.88.4-.29-.13-.59-.27-.88-.4Z"/>
      <path class="cls-15" d="M18.57,94.92c-.04-.12-.07-.24-.1-.36.11-.03.22-.07.33-.07.03,0,.1.15.08.17-.09.1-.21.18-.31.27Z"/>
      <path class="cls-140" d="M22.86,92.65c-.06.04-.15.13-.17.12-.13-.1-.06-.14.17-.12h0Z"/>
      <path class="cls-30" d="M12.54,102.17c-.2.39-.4.78-.6,1.17-.35-.67-.2-1.09.6-1.17Z"/>
      <path class="cls-112" d="M13.45,98.97c-.03.15-.1.27-.21.38-.14-.04-.28-.06-.42-.08-.2.08-.34,0-.42-.19.3-.51.68-.28,1.06-.1Z"/>
      <path class="cls-72" d="M12.4,99.07c.14.06.28.13.42.19-.06.12-.11.25-.15.38h0c-.21.06-.35,0-.42-.21.06-.11.11-.23.14-.35Z"/>
      <path class="cls-31" d="M12.26,99.42c.14.07.28.13.42.2-.22.21-.45.33-.68.03,0,0,.17-.15.26-.23Z"/>
      <path class="cls-89" d="M15.56,94.43c.21.1.32.25.18.48-.2-.11-.29-.26-.18-.48Z"/>
      <path class="cls-52" d="M14.77,105.07c.55-.45.9-.12,1.38.28-.65.21-.98-.17-1.38-.29v.02Z"/>
      <path class="cls-154" d="M26.03,39.14c-.45-.62-.96-.31-1.46-.09-.19-.12-.32-.28-.41-.49-.04-.22-.02-.44.05-.65.17-.32.43-.51.81-.51.61.06,1.11.3,1.42.86.08.39-.09.67-.41.87Z"/>
      <path class="cls-206" d="M37.46,42.59c-.31.37-.66.59-1.12.22-.12-.22-.37-.26-.55-.4-.11-.12-.15-.26-.12-.42.73-.19,1.28.14,1.79.6Z"/>
      <path class="cls-59" d="M32.63,38.82c.2-.29.33-.78.82-.57.32.14.2.51.11.8-.2.08-.41.15-.61.23-.17.09-.33.07-.48-.05-.05-.12-.05-.23.01-.31.06-.08.11-.12.14-.1Z"/>
      <path class="cls-120" d="M26.03,39.14c-.03-.32.05-.59.28-.82.38-.1.68.01.89.35.27.13.55.26.82.39.1.15.11.26.02.33-.08.07-.15.09-.2.07-.6-.11-1.21-.21-1.81-.32Z"/>
      <path class="cls-139" d="M32.63,38.82c-.12.07-.16.17-.12.3.06.18.04.29-.07.32-.08.02-.15.02-.21-.01-.12-.08-.23-.07-.34,0-.21-.18-.43-.35-.64-.53.44-.35.92-.18,1.39-.09Z"/>
      <path class="cls-55" d="M35.72,40.72c.31-.97.79-.25,1.21-.12-.08.13-.16.27-.23.4-.33-.09-.65-.19-.97-.28Z"/>
      <path class="cls-169" d="M34.84,41.74c.28.08.55.17.83.25l.08.2c.04.38-.11.66-.45.83-.38-.08-.58-.34-.7-.68,0-.12,0-.23,0-.35.08-.08.16-.17.24-.25Z"/>
      <path class="cls-37" d="M34.84,41.74c-.07.08-.13.17-.18.26-.57.29-.94.06-1.19-.47.02-.12.07-.23.14-.33.47.05.93.12,1.23.54Z"/>
      <path class="cls-129" d="M27.84,39.46c.07-.13.13-.26.18-.4.46.09.97.15.65.84-.28-.15-.56-.3-.83-.45Z"/>
      <path class="cls-50" d="M30.7,40.72c.38-.25.71-.14,1,.16.07.14.07.26,0,.36-.08.09-.13.13-.17.12-.21.01-.4-.02-.59-.11-.07-.07-.14-.15-.21-.22-.01-.1-.02-.2-.04-.3Z"/>
      <path class="cls-169" d="M31.58,41.22c.03-.12.07-.23.12-.34.12.16.23.32.35.47-.08.16-.16.32-.25.48-.49-.05-.51-.27-.23-.61Z"/>
      <path class="cls-79" d="M24.2,38.48c.33.06.41.27.36.57-.23.1-.46.2-.69.3-.01-.09.01-.17.08-.23-.12-.29,0-.49.25-.64Z"/>
      <path class="cls-50" d="M30.58,41.32c-.14-.08-.28-.17-.42-.25.05-.32.28-.38.55-.35l.04.11c.02.1.05.2.07.3-.08.06-.16.12-.24.19Z"/>
      <path class="cls-169" d="M33.19,41.03c-.17.06-.35.13-.52.19.12-.22.29-.29.52-.19Z"/>
      <path class="cls-154" d="M32.23,39.43c.07-.13.16-.23.28-.3.15.05.29.11.44.16-.21.19-.45.25-.72.14Z"/>
      <path class="cls-33" d="M31.58,41.22c.08.2.15.4.23.61-.14.28-.38.33-.66.3-.26-.15-.53-.31-.79-.46.07-.12.14-.24.21-.36v-.03c.2-.11.41-.21.64-.11.12.05.24.06.36.05Z"/>
      <path class="cls-169" d="M33.47,41.53c.4.16.79.32,1.19.47l.06.2c.05.32.07.65.35.87.05.07.09.13.14.2-.79.49-1.33-.14-1.96-.41.06-.08.12-.16.18-.23.01-.37.03-.74.04-1.1Z"/>
      <path class="cls-79" d="M23.53,39.01l-.18-.06-.17-.1c-.05-.08-.1-.17-.15-.25.03-.31.17-.54.48-.64.2.06.33.18.42.36,0,.31-.06.58-.4.69Z"/>
      <path class="cls-18" d="M23.53,39.01c.12-.23.23-.45.35-.68.08-.05.16-.11.23-.16.06.07.13.14.19.21l-.1.09c-.08.21-.17.43-.25.64-.14-.04-.28-.07-.42-.11Z"/>
      <path class="cls-146" d="M22.86,39.33c-.14-.06-.26-.15-.35-.28.12-.35.3-.47.61-.18,0,0,.07,0,.07,0-.11.15-.21.31-.32.46Z"/>
      <path class="cls-117" d="M10.38,108.2c-.19-.12-.37-.23-.56-.35.29-.32.65-.62.98-.14.17.24-.07.49-.42.49Z"/>
      <path class="cls-121" d="M9.73,105.97c.21.12.63.11.46.48-.12.26-.45.27-.73.11-.09-.28-.02-.48.27-.59Z"/>
      <path class="cls-30" d="M9.73,105.97c-.09.2-.18.39-.27.59l-.21-.05-.2-.09c-.02-.3-.04-.59-.06-.89.25.15.49.29.74.44Z"/>
      <path class="cls-180" d="M12.16,108.4c.16.13.32.26.48.39-.08.05-.15.1-.23.15-.09-.18-.18-.35-.27-.53h.02Z"/>
      <path class="cls-185" d="M38.2,42.27c.51.23,1.03.47,1.54.7.11.13.13.23.05.28-.08.05-.14.07-.19.05-.11-.06-.23-.08-.36-.06-.34-.33-1.07-.24-1.04-.97Z"/>
      <path class="cls-197" d="M35.27,42.93c.16-.25.32-.49.48-.74.3.1.53.28.59.62-.47-.07-.58.74-1.14.47v.08c-.14-.12-.17-.23-.1-.32.07-.1.13-.14.17-.12Z"/>
      <path class="cls-202" d="M32.31,43.05c.12-.23.29-.3.53-.18-.18.06-.35.12-.53.18Z"/>
      <path class="cls-166" d="M39.9,44.94c.18-.19.38-.19.6-.07-.2.02-.4.05-.6.07Z"/>
      <path class="cls-121" d="M9.04,108.62c.15.05.29.1.44.15-.01.14-.06.27-.13.4-.21-.12-.32-.3-.3-.55Z"/>
      <path class="cls-35" d="M51.43,39.65c-.23-.27-.17-.41.19-.41-.06.14-.12.27-.19.41Z"/>
      <path class="cls-172" d="M36.86,40.62c.46-.67,1.23-.56,1.87-.77,1.06.05,2.16-.07,3.21.63-.49.62-.92,1.18-1.36,1.73-1.24-.53-2.48-1.06-3.72-1.59Z"/>
      <path class="cls-70" d="M47.59,42.56c.49.03.92.18,1.26.56-.03.07-.06.14-.09.21-.17-.01-.33-.03-.5-.04-.1-.01-.19-.02-.29-.03-1.04.06-2.1.31-2.99-.5.64-.58,1.34-.14,2.01-.11.2-.05.4-.08.6-.1Z"/>
      <path class="cls-46" d="M42.1,42.45c-.06-.51-.04-.94.67-.61h.01c.27.37.09.61-.23.82-.15-.07-.3-.14-.45-.22Z"/>
      <path class="cls-77" d="M50.77,44.42c.28.1.56.21.84.31-.45.36-.73.24-.84-.31Z"/>
      <path class="cls-35" d="M42.55,42.67c.08-.27.15-.55.23-.82.47.43.39.7-.23.82Z"/>
      <path class="cls-64" d="M39.6,43.3c.09-.09.13-.2.14-.33.08.1.15.2.23.29-.12.01-.25.02-.37.04Z"/>
      <path class="cls-12" d="M47.98,43.26c.1-.05.2-.04.29.03l-.16.08-.12-.11Z"/>
      <path class="cls-77" d="M51.62,44.73c.17-.18.37-.23.61-.13-.16.22-.36.26-.61.13Z"/>
      <path class="cls-12" d="M48.76,43.34c.02-.07.05-.15.09-.21.27.04.22.21.17.39-.1-.05-.18-.1-.26-.17Z"/>
      <path class="cls-76" d="M48.17,39.25c.22.1.44.21.67.31-.53,1.46-1.19-.09-1.89.42.29-1.01.88-.52,1.22-.73Z"/>
      <path class="cls-12" d="M47.59,42.56c-.2.03-.4.06-.6.1.18-.12.37-.22.6-.1Z"/>
      <path class="cls-127" d="M23.88,38.34c-.13-.09-.26-.18-.4-.27-2.26-.6-4.38-1.49-6.29-2.86.06-.14.13-.28.19-.42.32-.25.66-.2,1.02-.1.07.04.14.09.22.13.15.08.3.14.46.2.08.02.16.04.24.07.7-.22.99-.77.71-1.38-.19-.42-.61-.92-1.22-.8-.38.08-.72.16-1.09.02-.05-.44-.2-.85-.46-1.21-.1-.98-.07-1.78,1.32-1.32.39.13.86,0,1.3-.01.05.14.1.28.14.41,0,0,.12.15.12.15,0,0-.16-.13-.16-.13,0-.16-.03-.3-.11-.43.15-.16.39-.48.44-.46,1.4.73,3.22.57,4.19,2.25.85,1.47,1.4,1.47,2.92.72.77-.38,1.23-1.45,2.35-1.04h0c1.24-.39,2.07.62,3.11.91-.67.47-1.47.06-2.21.29.38.65,1.22.55,1.63,1.09-.31.4-1.59.33-.61,1.3-.47.24-1.21,0-1.4.76-.53.1-.91-.08-1.15-.56-.97-.27.04-1.28-.79-1.77-.45.74-1.19,1.45-1.31,2.26-.13.93,1.45,1.23,1.39,2.35-.42.21-.73-.07-1.08-.18-.06.12-.11.24-.17.36-.3-.12-.59-.23-.89-.35-.55-.24-1.1-.49-1.65-.73-.59.21-.91-.28-1.31-.36.03.29,1.12.23.53.98v.13Z"/>
      <path class="cls-165" d="M17.27,31.71c.54.26.69.66.46,1.21-.33-.34-.48-.74-.46-1.21Z"/>
      <path class="cls-127" d="M18.4,34.69c.47-.24.76-.09.92.39,0,0-.06.04-.06.04-.35.12-.61,0-.81-.29l-.05-.14Z"/>
      <path class="cls-110" d="M17.2,35.2c.83.3,1.58.67,2.56.71.89.04,1.74.9,2.6,1.41.39.23.75.49,1.13.74-.12.27-.24.53-.37.8-.2.06-.41.12-.61.18-.13,0-.26-.01-.4-.04-.76-.31-1.53-.59-2.26-.95-.54-.26-.82.08-1.16.34-.84-.44-1.86-.64-2.27-1.72.73-.24,1.33-.57.78-1.48Z"/>
      <path class="cls-200" d="M20.39,39.56c.17-.21.33-.42.5-.63.33.14.65.28.98.43-.34,1.19-.94.45-1.47.21Z"/>
      <path class="cls-194" d="M25.02,79.02c.1-.07.2-.14.3-.21.13.38-.15.21-.3.22h0Z"/>
      <path class="cls-181" d="M26.55,74.68c.04.2.09.4.13.59-.11-.06-.21-.12-.31-.18.06-.14.12-.28.18-.41Z"/>
      <path class="cls-74" d="M29.15,35.63c.38.19.77.37,1.15.56-.24.33-.25,1.02-.91.73-.62-.27-.69-.76-.24-1.29Z"/>
      <path class="cls-132" d="M34.71,36.35c-.26.29-.62.23-.96.05-.21-.11-.27-.44-.08-.54.24-.13.58-.15.86-.1.24.04.34.27.18.59Z"/>
      <path class="cls-13" d="M36.68,36.4c-.16-.2-.63-.28-.36-.67.21-.3.53-.14.81-.03.24.09.36.29.29.52-.13.41-.43.31-.74.18Z"/>
      <path class="cls-98" d="M40.37,36.54c-.27.21-.55.25-.81.02-.07-.06-.07-.32,0-.41.24-.28.54-.22.78,0,.07.06.02.26.02.39Z"/>
      <path class="cls-196" d="M31.22,36.49c-.21,0-.33-.11-.28-.29.07-.25.26-.31.46-.14.1.08.14.24.21.36-.14.02-.28.05-.39.07Z"/>
      <path class="cls-110" d="M23.89,38.2c-.04-.43-.44-.66-.77-1.03.73-.11,1.1.27,1.55.41-.12.27-.24.54-.36.8-.14-.06-.28-.12-.42-.19Z"/>
      <path class="cls-73" d="M35.27,42.93c.02.15,0,.29-.08.43-.47-.26-.93-.52-.48-1.15.19.24.37.48.56.72Z"/>
      <path class="cls-169" d="M31.22,41.18c-.22.04-.43.07-.65.11.06-.15.12-.3.17-.45.16.11.32.23.47.34Z"/>
      <path class="cls-154" d="M24.82,36.15c.35-.2.72-.25,1,.08.28.33.24.71-.15.92-.34.18-.51-.07-.59-.4-.06-.21-.17-.4-.25-.61h0Z"/>
      <path class="cls-154" d="M27.37,38.31c-.13-.06-.27-.11-.39-.18-.22-.14-.59-.19-.41-.6.02-.05.11-.1.18-.11.37-.08.5.18.59.47.04.14.03.29.04.43h0Z"/>
      <path class="cls-165" d="M20.11,30.99c.13.06.27.1.38.18.16.12.3.26.45.4-.31.25-.52.03-.69-.19-.08-.1-.09-.26-.14-.39h0Z"/>
      <path class="cls-154" d="M30.05,34.29s.1-.13.12-.12c.06.02.1.09.15.13-.04.04-.1.13-.12.12-.06-.02-.1-.09-.15-.14Z"/>
      <path class="cls-154" d="M24.82,36.15c-.17.14-.55.23-.55.11.02-.57.36-.07.55-.11h0Z"/>
      <path class="cls-164" d="M18.45,34.83c.27.1.54.19.81.29-.04.23-.19.4-.4.35-.29-.07-.44-.32-.41-.64Z"/>
      <path class="cls-165" d="M20.11,30.99c-.08-.2-.15-.4-.23-.61.08.2.15.4.23.61h0Z"/>
      <path class="cls-165" d="M29.79,31.85c.04.06.14.15.12.17-.09.13-.14.06-.12-.17h0Z"/>
    </g>
  </g>
</svg>