<?xml version="1.0" encoding="UTF-8"?>
<svg id="Layer_2" data-name="Layer 2" xmlns="http://www.w3.org/2000/svg" viewBox="0 0 30.66 31.58">
  <defs>
    <style>
      .cls-1 {
        fill: #fff;
      }

      .cls-1, .cls-2, .cls-3 {
        fill-rule: evenodd;
        stroke-width: 0px;
      }

      .cls-2 {
        fill: #67be00;
      }

      .cls-3 {
        fill: #000;
      }
    </style>
  </defs>
  <g id="OBJECTS">
    <g id="_26" data-name="26">
      <g>
        <path class="cls-3" d="M30.57,15.55c0,2.75.05,5.5-.02,8.25-.03,1.32-.27,2.63-.43,3.95-.27,2.21-2.68,3.86-4.97,3.82-3.13-.05-6.26.02-9.39.01-2.88,0-5.77,0-8.66-.07-3.44-.08-6.89-2.59-6.89-7.03C.21,20.5,0,16.52,0,12.54c0-2.13.26-4.26.45-6.38C.67,3.55,3.24,1.1,5.76.8,9.9.31,14.02-.36,18.22.24c.98.14,2-.05,2.99.05,1.65.16,3.32.28,4.92.69,2.95.74,3.88,1.71,4.44,5.47.2,1.39.02,2.84.01,4.26,0,1.61,0,3.22,0,4.83,0,0,0,0,0,0ZM.78,19.21c.18,2.56.34,4.64.48,6.72.06.97.55,1.74,1.19,2.36,1.22,1.18,2.66,2.04,4.39,2.13,1.7.09,3.4.04,5.1.06,1.18.01,2.38.14,3.55.06,2.46-.18,4.91-.36,7.38-.17.94.07,1.89,0,2.83-.11,2.05-.22,3.28-1.34,3.62-3.37.19-1.12.27-2.26.28-3.4.06-4.65.1-9.3.08-13.95,0-1.37-.13-2.75-.36-4.09-.27-1.56-1.2-2.67-2.76-3.14-.59-.18-1.18-.39-1.79-.45-2.97-.28-5.94-.5-8.91-.77-3.45-.32-6.81.39-10.18.86-2.38.33-4.06,1.74-4.33,4.24-.3,2.78-.43,5.57-.56,8.37-.08,1.7-.01,3.41-.01,4.65Z"/>
        <path class="cls-2" d="M.78,19.21c0-1.24-.06-2.95.01-4.65.13-2.79.26-5.59.56-8.37.27-2.51,1.95-3.91,4.33-4.24,3.37-.47,6.74-1.18,10.18-.86,2.97.27,5.94.49,8.91.77.6.06,1.2.27,1.79.45,1.56.48,2.49,1.58,2.76,3.14.23,1.35.36,2.73.36,4.09.02,4.65-.03,9.3-.08,13.95-.01,1.13-.09,2.28-.28,3.4-.34,2.03-1.57,3.15-3.62,3.37-.94.1-1.9.18-2.83.11-2.47-.18-4.92,0-7.38.17-1.18.08-2.37-.04-3.55-.06-1.7-.02-3.4.03-5.1-.06-1.74-.09-3.18-.95-4.39-2.13-.64-.62-1.13-1.4-1.19-2.36-.14-2.08-.29-4.16-.48-6.72ZM15.9,19.55c1.25.38,2.45.73,3.64,1.12.29.1.61.3.79.54.4.54.13,2.51-.41,2.95-.17.14-.56.2-.74.11-.18-.09-.3-.43-.33-.67-.02-.22.2-.46.17-.68-.04-.29-.13-.68-.34-.84-.66-.5-2.38-.19-2.87.46-1.3,1.76-.35,4.46,1.76,5.08,1.32.38,2.63.2,3.95.03,1.03-.13,1.75-.68,2.1-1.68.25-.71.55-1.42.74-2.15.72-2.72.98-5.51.92-8.31-.03-1.75-.13-3.51-.36-5.24-.22-1.67-1.15-2.77-2.98-2.86-.52-.03-1.04-.15-1.56-.13-1.24.04-2.12-.38-2.48-1.64-.27-.92-.96-1.22-1.87-1.18-1.14.05-2.27.06-3.41.1-.88.03-1.68.22-2.27.96-.9,1.15-1.8,2.31-2.74,3.43-.9,1.09-1.26,2.32-1.1,3.7.17,1.51.34,3.01.57,4.51.08.51.28,1.01.51,1.47.42.88,1.03,1.6,2.04,1.85,1.01.25,2.02.47,3.04.68,1.87.38,2.27.19,3.12-1.51.04-.08.13-.13.11-.11Z"/>
        <path class="cls-3" d="M15.9,19.55s-.07.03-.11.11c-.85,1.7-1.25,1.9-3.12,1.51-1.02-.21-2.03-.43-3.04-.68-1.01-.25-1.61-.97-2.04-1.85-.22-.47-.43-.97-.51-1.47-.23-1.5-.4-3.01-.57-4.51-.16-1.38.2-2.61,1.1-3.7.93-1.13,1.84-2.28,2.74-3.43.58-.74,1.39-.94,2.27-.96,1.14-.04,2.27-.05,3.41-.1.91-.04,1.6.25,1.87,1.18.37,1.26,1.25,1.68,2.48,1.64.52-.02,1.04.1,1.56.13,1.83.09,2.76,1.2,2.98,2.86.23,1.73.33,3.49.36,5.24.06,2.8-.2,5.59-.92,8.31-.2.73-.49,1.43-.74,2.15-.35,1-1.06,1.55-2.1,1.68-1.32.17-2.63.35-3.95-.03-2.11-.61-3.05-3.32-1.76-5.08.48-.65,2.21-.97,2.87-.46.21.16.3.54.34.84.03.21-.19.46-.17.68.03.24.15.58.33.67.19.1.57.03.74-.11.54-.44.82-2.41.41-2.95-.18-.24-.5-.45-.79-.54-1.19-.39-2.39-.74-3.64-1.12ZM7.57,11.14c-.23,2.42-.09,4.68.71,6.83.38,1.02,1.25,1.67,2.35,1.88.93.18,1.88.26,2.81.45.78.16,1.16-.23,1.43-.84.11-.26.15-.55.24-.82.31-.89.82-1.05,1.42-.35.67.78,1.45,1.16,2.46,1.21.46.02.97.13,1.36.37.41.25.92.67.99,1.08.25,1.38.06,2.75-.77,3.95-.43.62-1.08.72-1.76.38-1.05-.52-1.35-1.35-.88-2.42-1.02-.16-1.47.05-1.78.76-.42.97-.05,2.2.88,2.74,1.42.83,2.94.68,4.43.28,1.21-.33,1.64-1.43,1.86-2.5.42-1.99.89-4,.99-6.02.12-2.41-.05-4.84-.26-7.24-.15-1.66-1.08-2.38-2.76-2.51-.33-.03-.67.02-1,0-1.4-.13-2.78-.26-3.24-1.97-.18-.64-.8-.78-1.39-.78-.85-.01-1.71.05-2.56.05-.7,0-1.04.34-1.13,1.01-.12.94-.26,1.87-.39,2.81-.21,1.58-.51,1.85-2.1,1.8-.6-.02-1.2-.09-1.92-.14ZM8.32,9.97c.66.38,1.25.53,1.86.32.27-.09.66-.36.68-.59.11-.99.36-2.01-.22-3.2-.86,1.23-2.02,2.01-2.32,3.47Z"/>
        <path class="cls-1" d="M7.57,11.14c.72.05,1.32.12,1.92.14,1.59.05,1.9-.22,2.1-1.8.12-.94.26-1.87.39-2.81.09-.67.44-1.01,1.13-1.01.85,0,1.71-.07,2.56-.05.59,0,1.21.14,1.39.78.47,1.71,1.85,1.84,3.24,1.97.33.03.67-.02,1,0,1.68.13,2.61.85,2.76,2.51.22,2.4.38,4.84.26,7.24-.1,2.02-.57,4.03-.99,6.02-.23,1.07-.65,2.17-1.86,2.5-1.49.4-3.01.55-4.43-.28-.93-.54-1.3-1.77-.88-2.74.3-.71.75-.92,1.78-.76-.46,1.08-.16,1.9.88,2.42.68.34,1.33.25,1.76-.38.83-1.19,1.03-2.56.77-3.95-.08-.41-.58-.83-.99-1.08-.38-.24-.9-.35-1.36-.37-1.02-.05-1.79-.43-2.46-1.21-.61-.7-1.12-.54-1.42.35-.09.27-.13.56-.24.82-.27.61-.65,1.01-1.43.84-.93-.2-1.88-.27-2.81-.45-1.1-.21-1.97-.87-2.35-1.88-.81-2.15-.95-4.4-.71-6.83ZM19.55,15.82c.52.06.95.04,1.31.17.32.12.65.38.82-.05.09-.22-.05-.64-.23-.85-.71-.83-1.47-.59-1.9.72Z"/>
        <path class="cls-1" d="M8.32,9.97c.3-1.46,1.47-2.24,2.32-3.47.58,1.19.33,2.21.22,3.2-.02.22-.41.49-.68.59-.61.21-1.2.06-1.86-.32Z"/>
        <path class="cls-3" d="M19.55,15.82c.43-1.31,1.19-1.55,1.9-.72.18.21.32.63.23.85-.17.42-.5.16-.82.05-.37-.13-.79-.11-1.31-.17Z"/>
      </g>
    </g>
  </g>
</svg>