<?xml version="1.0" encoding="UTF-8"?>
<svg id="Layer_2" data-name="Layer 2" xmlns="http://www.w3.org/2000/svg" viewBox="0 0 27.62 28.41">
  <defs>
    <style>
      .cls-1 {
        fill: #fff;
      }

      .cls-1, .cls-2, .cls-3 {
        fill-rule: evenodd;
        stroke-width: 0px;
      }

      .cls-2 {
        fill: #000;
      }

      .cls-3 {
        fill: #fb7b12;
      }
    </style>
  </defs>
  <g id="OBJECTS">
    <g id="_20" data-name="20">
      <g>
        <path class="cls-2" d="M27.5,13.99c0,2.47.04,4.95-.02,7.42-.03,1.15-.19,2.29-.36,3.43-.35,2.29-2.53,3.58-4.52,3.55-2.82-.04-5.63.02-8.45.02-2.6,0-5.19-.01-7.79-.07-3.11-.07-6.17-2.38-6.18-6.21C.18,18.47,0,14.81,0,11.14c0-1.91.22-3.83.43-5.74C.67,3.1,2.93,1.01,5.06.74c3.77-.48,7.52-1.05,11.34-.53,1.51.21,3.08.02,4.6.23,1.38.18,2.74.58,4.07,1.02.87.29,1.42,1,1.79,1.88.65,1.54.8,3.13.74,4.76-.07,1.96-.15,3.92-.23,5.89h.12ZM26.57,15.05s-.03,0-.05,0c.07-2.05.18-4.09.18-6.14,0-1.31-.09-2.64-.3-3.94-.23-1.46-1.09-2.48-2.56-2.91-.53-.16-1.07-.34-1.61-.39-2.59-.25-5.18-.43-7.76-.68-3.14-.3-6.21.33-9.29.76-2.13.29-3.61,1.51-3.96,3.77-.17,1.05-.34,2.11-.36,3.17-.05,2.77-.06,5.54-.01,8.32.04,2.13.2,4.26.3,6.39.04.87.52,1.56,1.1,2.11,1.1,1.05,2.4,1.81,3.97,1.88,1.23.06,2.46.03,3.69.02,1.96-.01,3.92-.06,5.88-.06,1.66,0,3.32.03,4.98.01.89,0,1.79-.06,2.68-.13.89-.08,1.58-.53,2.16-1.23.74-.88.94-1.92.95-2.99.04-2.65.01-5.29.01-7.94Z"/>
        <path class="cls-3" d="M26.57,15.05c0,2.65.03,5.29-.01,7.94-.02,1.07-.22,2.11-.95,2.99-.58.7-1.27,1.15-2.16,1.23-.89.08-1.78.13-2.68.13-1.66.02-3.32-.02-4.98-.01-1.96,0-3.92.05-5.88.06-1.23,0-2.46.04-3.69-.02-1.57-.07-2.87-.83-3.97-1.88-.58-.55-1.06-1.24-1.1-2.11-.11-2.13-.26-4.26-.3-6.39-.05-2.77-.04-5.54.01-8.32.02-1.06.2-2.12.36-3.17.36-2.25,1.84-3.47,3.96-3.77,3.08-.42,6.15-1.06,9.29-.76,2.59.25,5.18.43,7.76.68.55.05,1.08.23,1.61.39,1.46.43,2.33,1.46,2.56,2.91.2,1.3.3,2.63.3,3.94,0,2.05-.12,4.09-.18,6.14.02,0,.03,0,.05,0ZM13.91,24.21s0,.09,0,.14c1.58,0,3.16.02,4.73,0,2.09-.03,3.94-.59,4.81-2.69.92-2.22,1.12-4.55.5-6.9-.34-1.3-1-2.36-2.52-2.55-.54-.07-.76-.44-.79-1-.05-.81-.16-1.61-.26-2.41-.3-2.51-2.38-4.26-4.92-4.37-2.3-.11-4.61-.09-6.92-.06-1.13.01-2.01.57-2.68,1.51-1.08,1.51-1.56,3.17-1.63,5.03-.14,3.56.31,7.07.59,10.6.02.32.17.66.33.95.71,1.24,1.94,1.68,3.24,1.75,1.83.1,3.67.03,5.5.03Z"/>
        <path class="cls-2" d="M13.91,24.21c-1.83,0-3.67.08-5.5-.03-1.3-.07-2.53-.5-3.24-1.75-.16-.29-.31-.62-.33-.95-.28-3.53-.73-7.04-.59-10.6.07-1.85.55-3.51,1.63-5.03.67-.94,1.55-1.49,2.68-1.51,2.3-.03,4.61-.04,6.92.06,2.53.12,4.61,1.86,4.92,4.37.1.8.21,1.6.26,2.41.03.55.26.93.79,1,1.52.19,2.18,1.25,2.52,2.55.62,2.35.42,4.68-.5,6.9-.87,2.11-2.73,2.67-4.81,2.69-1.58.02-3.16,0-4.73,0,0-.05,0-.09,0-.14ZM20.1,12.88c-.21-1.59-.34-2.99-.6-4.36-.31-1.65-1.75-3.12-3.38-3.22-2.42-.15-4.86-.11-7.29-.09-1.07,0-1.79.65-2.37,1.53-1.08,1.65-1.39,3.52-1.38,5.39.02,2.69.29,5.37.48,8.05.03.46.18.92.28,1.38.17.78.64,1.32,1.42,1.5.91.21,1.84.44,2.77.46,2.95.05,5.89.03,8.84-.01,2.44-.04,3.66-1.08,4.22-3.47.03-.12.07-.25.09-.37.34-1.69.5-3.36-.12-5.04-.37-.99-.96-1.58-2.04-1.63-.33-.02-.66-.07-.92-.09Z"/>
        <path class="cls-1" d="M20.1,12.88c.26.03.59.08.92.09,1.08.05,1.68.64,2.04,1.63.62,1.68.46,3.36.12,5.04-.03.13-.06.25-.09.37-.56,2.39-1.78,3.43-4.22,3.47-2.95.05-5.9.06-8.84.01-.93-.02-1.86-.25-2.77-.46-.77-.18-1.24-.72-1.42-1.5-.1-.46-.25-.92-.28-1.38-.19-2.68-.46-5.37-.48-8.05-.01-1.87.3-3.74,1.38-5.39.58-.88,1.3-1.52,2.37-1.53,2.43-.02,4.87-.06,7.29.09,1.63.1,3.07,1.57,3.38,3.22.26,1.37.39,2.77.6,4.36ZM13.92,16.09v.06c-1.11,0-2.22,0-3.32,0-.88,0-1.26.26-1.52,1.04-.28.88-.1,1.59.63,2.01.39.22.87.41,1.31.43,1.91.07,3.82.08,5.73.07.59,0,1.2-.08,1.76-.25.82-.25,1.32-.97,1.27-1.73-.05-.8-.62-1.18-1.3-1.4-.4-.13-.83-.21-1.25-.22-1.11-.03-2.22-.01-3.32-.01ZM12.89,11.93s0,.06,0,.09c.81-.04,1.62-.03,2.43-.12.72-.08,1.04-.5,1.08-1.2.05-.98-.32-1.62-1.29-1.74-1.48-.18-2.97-.23-4.46-.28-.29,0-.65.23-.86.45-.47.49-.63,1.12-.44,1.78.2.66.75.94,1.37.99.72.06,1.45.01,2.18.01Z"/>
        <path class="cls-2" d="M13.92,16.09c1.11,0,2.22-.02,3.32.01.42.01.85.09,1.25.22.68.22,1.25.6,1.3,1.4.04.76-.45,1.48-1.27,1.73-.56.17-1.17.24-1.76.25-1.91.01-3.82,0-5.73-.07-.45-.02-.92-.2-1.31-.43-.73-.42-.91-1.13-.63-2.01.25-.78.63-1.04,1.52-1.04,1.11,0,2.22,0,3.32,0v-.06ZM14.08,16.8v-.05c-1.02,0-2.04-.03-3.06,0-.81.03-1.09.29-1.12.92-.04.63.22.98.93,1.17.32.09.67.13,1.01.13,1.7,0,3.4,0,5.1-.03.41,0,.87-.08,1.22-.28.29-.16.62-.55.62-.84,0-.27-.36-.64-.66-.79-.36-.18-.82-.22-1.24-.23-.93-.03-1.87-.01-2.8-.01Z"/>
        <path class="cls-2" d="M12.89,11.93c-.73,0-1.46.05-2.18-.01-.62-.06-1.17-.34-1.37-.99-.2-.66-.03-1.29.44-1.78.22-.23.57-.46.86-.45,1.49.04,2.99.09,4.46.28.97.12,1.35.75,1.29,1.74-.04.7-.36,1.12-1.08,1.2-.8.09-1.62.09-2.43.12,0-.03,0-.06,0-.09ZM13.14,11.29c.51-.05,1.2-.06,1.85-.21.23-.05.5-.44.54-.71.02-.18-.31-.58-.51-.6-1.31-.16-2.62-.28-3.93-.36-.58-.03-.83.43-.86.92-.04.54.4.71.84.77.63.08,1.27.12,2.08.18Z"/>
        <path class="cls-3" d="M14.08,16.8c.94,0,1.87-.02,2.8.01.42.01.87.06,1.24.23.29.15.66.52.66.79,0,.29-.33.67-.62.84-.35.2-.81.27-1.22.28-1.7.04-3.4.03-5.1.03-.34,0-.68-.04-1.01-.13-.7-.19-.96-.54-.93-1.17.04-.63.32-.9,1.12-.92,1.02-.03,2.04,0,3.06,0v.05Z"/>
        <path class="cls-3" d="M13.14,11.29c-.81-.07-1.44-.11-2.08-.18-.45-.06-.88-.22-.84-.77.04-.49.28-.96.86-.92,1.31.08,2.63.19,3.93.36.2.03.53.42.51.6-.03.27-.3.66-.54.71-.65.15-1.34.16-1.85.21Z"/>
      </g>
    </g>
  </g>
</svg>