<?xml version="1.0" encoding="UTF-8"?>
<svg id="Layer_2" data-name="Layer 2" xmlns="http://www.w3.org/2000/svg" viewBox="0 0 30.64 31.59">
  <defs>
    <style>
      .cls-1 {
        fill: #fff;
      }

      .cls-1, .cls-2, .cls-3 {
        fill-rule: evenodd;
        stroke-width: 0px;
      }

      .cls-2 {
        fill: #01c008;
      }

      .cls-3 {
        fill: #000;
      }
    </style>
  </defs>
  <g id="OBJECTS">
    <g id="_18" data-name="18">
      <g>
        <path class="cls-3" d="M30.54,15.82c0,2.66.05,5.31-.02,7.97-.03,1.32-.25,2.64-.43,3.95-.32,2.3-2.7,3.88-4.97,3.84-2.28-.04-4.55-.13-6.83-.12-3.22.01-6.44.17-9.66.12-1.4-.02-2.88-.19-4.17-.68-2.62-.98-4.11-3-4.22-5.86-.09-2.32-.09-4.65-.13-6.97-.02-1.23-.13-2.46-.09-3.69.11-2.84.15-5.69.48-8.51C.79,3.28,2.88,1.33,5.47.89,9.68.18,13.91-.31,18.19.23c1.26.16,2.56.05,3.83.16,1.22.11,2.44.29,3.65.53,3.58.7,4.25,2.05,4.86,5.39.19,1.06.07,2.17.08,3.26,0,2.09,0,4.17,0,6.26h-.07ZM20.93,30.2s0,.06,0,.09c1.56,0,3.13.01,4.69,0,1.41-.02,2.5-.67,3.11-1.9.39-.78.68-1.69.72-2.56.12-2.41.08-4.84.11-7.26.03-2.85.11-5.69.09-8.54,0-1.46-.09-2.94-.31-4.38-.25-1.74-1.25-3-3.02-3.4-1.61-.36-3.25-.64-4.9-.83-1.17-.14-2.37.04-3.54-.12-4.3-.59-8.51.07-12.72.74-.28.04-.55.15-.81.26-1.48.62-2.58,1.62-2.88,3.26-.24,1.35-.52,2.71-.55,4.08-.08,3.32-.05,6.64,0,9.96.03,2.08.19,4.16.29,6.25.05,1.07.62,1.9,1.36,2.58,1.21,1.12,2.61,1.92,4.31,1.98,1.79.07,3.59.06,5.39.09,1.13.01,2.27.07,3.4.02,1.75-.07,3.5-.21,5.25-.32Z"/>
        <path class="cls-2" d="M20.93,30.2c-1.75.11-3.5.25-5.25.32-1.13.04-2.27,0-3.4-.02-1.8-.02-3.59-.02-5.39-.09-1.69-.06-3.1-.86-4.31-1.98-.74-.68-1.31-1.51-1.36-2.58-.1-2.08-.26-4.16-.29-6.25-.05-3.32-.07-6.64,0-9.96.03-1.36.31-2.73.55-4.08.29-1.65,1.39-2.64,2.88-3.26.26-.11.53-.22.81-.26,4.21-.67,8.42-1.33,12.72-.74,1.16.16,2.37-.01,3.54.12,1.64.19,3.28.46,4.9.83,1.77.4,2.76,1.66,3.02,3.4.21,1.45.3,2.92.31,4.38.02,2.84-.06,5.69-.09,8.54-.03,2.42.01,4.84-.11,7.26-.04.87-.33,1.77-.72,2.56-.61,1.24-1.71,1.89-3.11,1.9-1.56.02-3.13,0-4.69,0,0-.03,0-.06,0-.09ZM12.55,27.21c.54-.13.9-.13,1.14-.29.74-.5,1.54-.98,2.12-1.64,1.21-1.35,2.62-2.07,4.44-2.15,2.26-.1,3.71-1.45,4.8-3.32.69-1.18.82-2.5,1.17-3.78,1.05-3.77-1.69-7.86-5.41-8.94-3.31-.96-6.55-.82-9.79.27-1.27.43-2.43.96-3.45,1.89-2.18,1.98-2.9,4.39-2.4,7.21.53,3.01,2.36,4.89,5.3,5.65.81.21,1.49.54,2.07,1.26v3.84Z"/>
        <path class="cls-3" d="M12.55,27.21v-3.84c-.58-.71-1.26-1.05-2.07-1.26-2.94-.76-4.77-2.64-5.3-5.65-.5-2.81.23-5.23,2.4-7.21,1.02-.93,2.18-1.46,3.45-1.89,3.25-1.09,6.48-1.23,9.79-.27,3.72,1.08,6.46,5.17,5.41,8.94-.35,1.27-.49,2.59-1.17,3.78-1.09,1.88-2.54,3.22-4.8,3.32-1.82.08-3.24.8-4.44,2.15-.59.66-1.38,1.13-2.12,1.64-.24.17-.6.16-1.14.29ZM13.51,25.83c.57-.32.93-.45,1.19-.69.6-.53,1.21-1.08,1.71-1.7.46-.56.98-.84,1.68-.92.94-.11,1.86-.29,2.8-.41,1.22-.15,2.04-.84,2.78-1.78.97-1.25,1.25-2.72,1.64-4.19.87-3.28-1-6.8-4.81-8.07-3.48-1.16-6.93-.84-10.27.54-2.38.99-4.03,2.72-4.32,5.38-.25,2.27.26,4.41,2.21,5.82,1.01.73,2.25,1.16,3.41,1.69.67.3,1.37.52,2,.75v3.58Z"/>
        <path class="cls-1" d="M13.51,25.83v-3.58c-.62-.23-1.33-.45-2-.75-1.16-.52-2.39-.96-3.41-1.69-1.95-1.41-2.46-3.54-2.21-5.82.29-2.66,1.94-4.39,4.32-5.38,3.34-1.39,6.8-1.7,10.27-.54,3.81,1.27,5.69,4.79,4.81,8.07-.39,1.47-.67,2.94-1.64,4.19-.73.94-1.55,1.63-2.78,1.78-.94.11-1.87.3-2.8.41-.7.08-1.22.36-1.68.92-.51.62-1.11,1.16-1.71,1.7-.26.23-.62.36-1.19.69ZM11.55,14.07c-.78.02-1.1.44-1.11,1.11,0,.55.18.94.77,1,.48.05,1.07-.6.96-1.19-.07-.38-.45-.69-.62-.92ZM22.6,15.07c-.14-.14-.37-.52-.68-.6-.39-.11-.96.58-.86,1.06.07.35.31.8.6.95.39.19.89-.48.94-1.41ZM16.6,15.6c.13.12.39.56.66.57.64.03.82-.53.84-1.08.02-.45-.12-.9-.67-.86-.64.04-.82.53-.82,1.37Z"/>
        <path class="cls-3" d="M11.55,14.07c.16.23.54.54.62.92.11.59-.48,1.24-.96,1.19-.58-.06-.78-.46-.77-1,.01-.67.33-1.09,1.11-1.11Z"/>
        <path class="cls-3" d="M22.6,15.07c-.05.93-.54,1.6-.94,1.41-.29-.15-.53-.59-.6-.95-.1-.48.47-1.17.86-1.06.31.08.54.47.68.6Z"/>
        <path class="cls-3" d="M16.6,15.6c0-.83.18-1.32.82-1.37.55-.04.69.41.67.86-.02.55-.19,1.1-.84,1.08-.27-.01-.53-.45-.66-.57Z"/>
      </g>
    </g>
  </g>
</svg>